<?xml version="1.0" encoding="UTF-8" standalone="no"?>
<!DOCTYPE svg PUBLIC "-//W3C//DTD SVG 1.1//EN"
 "http://www.w3.org/Graphics/SVG/1.1/DTD/svg11.dtd">
<!-- Generated by graphviz version 2.40.1 (20161225.0304)
 -->
<!-- Title: snakemake_dag Pages: 1 -->
<svg width="2216pt" height="846pt"
 viewBox="0.00 0.00 2215.50 846.00" xmlns="http://www.w3.org/2000/svg" xmlns:xlink="http://www.w3.org/1999/xlink">
<g id="graph0" class="graph" transform="scale(1 1) rotate(0) translate(4 842)">
<title>snakemake_dag</title>
<polygon fill="#ffffff" stroke="transparent" points="-4,4 -4,-842 2211.5,-842 2211.5,4 -4,4"/>
<!-- 0 -->
<g id="node1" class="node">
<title>0</title>
<path fill="none" stroke="#59d856" stroke-width="2" d="M609.5,-36C609.5,-36 579.5,-36 579.5,-36 573.5,-36 567.5,-30 567.5,-24 567.5,-24 567.5,-12 567.5,-12 567.5,-6 573.5,0 579.5,0 579.5,0 609.5,0 609.5,0 615.5,0 621.5,-6 621.5,-12 621.5,-12 621.5,-24 621.5,-24 621.5,-30 615.5,-36 609.5,-36"/>
<text text-anchor="middle" x="594.5" y="-15.5" font-family="sans" font-size="10.00" fill="#000000">all</text>
</g>
<!-- 1 -->
<g id="node2" class="node">
<title>1</title>
<path fill="none" stroke="#5663d8" stroke-width="2" stroke-dasharray="5,2" d="M83.5,-108C83.5,-108 53.5,-108 53.5,-108 47.5,-108 41.5,-102 41.5,-96 41.5,-96 41.5,-84 41.5,-84 41.5,-78 47.5,-72 53.5,-72 53.5,-72 83.5,-72 83.5,-72 89.5,-72 95.5,-78 95.5,-84 95.5,-84 95.5,-96 95.5,-96 95.5,-102 89.5,-108 83.5,-108"/>
<text text-anchor="middle" x="68.5" y="-87.5" font-family="sans" font-size="10.00" fill="#000000">contigs</text>
</g>
<!-- 1&#45;&gt;0 -->
<g id="edge1" class="edge">
<title>1&#45;&gt;0</title>
<path fill="none" stroke="#c0c0c0" stroke-width="2" d="M95.8773,-76.6296C100.3499,-74.8407 104.9952,-73.2094 109.5,-72 194.1712,-49.2682 458.9193,-27.9982 557.2457,-20.6832"/>
<polygon fill="#c0c0c0" stroke="#c0c0c0" stroke-width="2" points="557.5992,-24.1667 567.3143,-19.9397 557.0837,-17.1857 557.5992,-24.1667"/>
</g>
<!-- 2 -->
<g id="node3" class="node">
<title>2</title>
<path fill="none" stroke="#56d0d8" stroke-width="2" stroke-dasharray="5,2" d="M61,-180C61,-180 12,-180 12,-180 6,-180 0,-174 0,-168 0,-168 0,-156 0,-156 0,-150 6,-144 12,-144 12,-144 61,-144 61,-144 67,-144 73,-150 73,-156 73,-156 73,-168 73,-168 73,-174 67,-180 61,-180"/>
<text text-anchor="middle" x="36.5" y="-159.5" font-family="sans" font-size="10.00" fill="#000000">prepare_ref</text>
</g>
<!-- 2&#45;&gt;0 -->
<g id="edge2" class="edge">
<title>2&#45;&gt;0</title>
<path fill="none" stroke="#c0c0c0" stroke-width="2" d="M29.0172,-143.9398C21.9899,-123.7417 14.9362,-91.3324 32.5,-72 67.7695,-33.1792 436.9296,-21.5252 556.9972,-18.7478"/>
<polygon fill="#c0c0c0" stroke="#c0c0c0" stroke-width="2" points="557.2527,-22.2431 567.1718,-18.5201 557.096,-15.2448 557.2527,-22.2431"/>
</g>
<!-- 2&#45;&gt;1 -->
<g id="edge25" class="edge">
<title>2&#45;&gt;1</title>
<path fill="none" stroke="#c0c0c0" stroke-width="2" d="M44.575,-143.8314C48.1102,-135.8771 52.336,-126.369 56.2456,-117.5723"/>
<polygon fill="#c0c0c0" stroke="#c0c0c0" stroke-width="2" points="59.4532,-118.9729 60.3163,-108.4133 53.0565,-116.1299 59.4532,-118.9729"/>
</g>
<!-- 3 -->
<g id="node4" class="node">
<title>3</title>
<path fill="none" stroke="#56a2d8" stroke-width="2" d="M262.5,-838C262.5,-838 220.5,-838 220.5,-838 214.5,-838 208.5,-832 208.5,-826 208.5,-826 208.5,-809 208.5,-809 208.5,-803 214.5,-797 220.5,-797 220.5,-797 262.5,-797 262.5,-797 268.5,-797 274.5,-803 274.5,-809 274.5,-809 274.5,-826 274.5,-826 274.5,-832 268.5,-838 262.5,-838"/>
<text text-anchor="middle" x="241.5" y="-826" font-family="sans" font-size="10.00" fill="#000000">qcreads_il</text>
<text text-anchor="middle" x="241.5" y="-815" font-family="sans" font-size="10.00" fill="#000000">lib: con</text>
<text text-anchor="middle" x="241.5" y="-804" font-family="sans" font-size="10.00" fill="#000000">run: run_1</text>
</g>
<!-- 3&#45;&gt;0 -->
<g id="edge3" class="edge">
<title>3&#45;&gt;0</title>
<path fill="none" stroke="#c0c0c0" stroke-width="2" d="M212.2517,-796.8078C200.6967,-787.1862 188.3327,-774.8122 180.5,-761 160.3335,-725.4385 161.5,-711.8816 161.5,-671 161.5,-671 161.5,-671 161.5,-162 161.5,-118.9187 163.5386,-98.507 197.5,-72 225.6483,-50.0301 464.0541,-28.5628 557.3148,-20.9264"/>
<polygon fill="#c0c0c0" stroke="#c0c0c0" stroke-width="2" points="557.7462,-24.403 567.4304,-20.1058 557.1802,-17.4259 557.7462,-24.403"/>
</g>
<!-- 7 -->
<g id="node8" class="node">
<title>7</title>
<path fill="none" stroke="#78d856" stroke-width="2" d="M281.5,-761C281.5,-761 201.5,-761 201.5,-761 195.5,-761 189.5,-755 189.5,-749 189.5,-749 189.5,-737 189.5,-737 189.5,-731 195.5,-725 201.5,-725 201.5,-725 281.5,-725 281.5,-725 287.5,-725 293.5,-731 293.5,-737 293.5,-737 293.5,-749 293.5,-749 293.5,-755 287.5,-761 281.5,-761"/>
<text text-anchor="middle" x="241.5" y="-740.5" font-family="sans" font-size="10.00" fill="#000000">read_count_librun</text>
</g>
<!-- 3&#45;&gt;7 -->
<g id="edge26" class="edge">
<title>3&#45;&gt;7</title>
<path fill="none" stroke="#c0c0c0" stroke-width="2" d="M241.5,-796.7476C241.5,-788.8767 241.5,-779.7743 241.5,-771.3232"/>
<polygon fill="#c0c0c0" stroke="#c0c0c0" stroke-width="2" points="245.0001,-771.1086 241.5,-761.1087 238.0001,-771.1087 245.0001,-771.1086"/>
</g>
<!-- 35 -->
<g id="node36" class="node">
<title>35</title>
<path fill="none" stroke="#70d856" stroke-width="2" d="M509.5,-761C509.5,-761 457.5,-761 457.5,-761 451.5,-761 445.5,-755 445.5,-749 445.5,-749 445.5,-737 445.5,-737 445.5,-731 451.5,-725 457.5,-725 457.5,-725 509.5,-725 509.5,-725 515.5,-725 521.5,-731 521.5,-737 521.5,-737 521.5,-749 521.5,-749 521.5,-755 515.5,-761 509.5,-761"/>
<text text-anchor="middle" x="483.5" y="-746" font-family="sans" font-size="10.00" fill="#000000">bwamem</text>
<text text-anchor="middle" x="483.5" y="-735" font-family="sans" font-size="10.00" fill="#000000">ref: genome</text>
</g>
<!-- 3&#45;&gt;35 -->
<g id="edge69" class="edge">
<title>3&#45;&gt;35</title>
<path fill="none" stroke="#c0c0c0" stroke-width="2" d="M274.684,-800.4835C277.6311,-799.223 280.5974,-798.04 283.5,-797 348.4486,-773.7282 368.4491,-780.9295 434.5,-761 434.9447,-760.8658 435.3912,-760.7298 435.8392,-760.5921"/>
<polygon fill="#c0c0c0" stroke="#c0c0c0" stroke-width="2" points="436.9636,-763.907 445.3953,-757.4916 434.8033,-757.2487 436.9636,-763.907"/>
</g>
<!-- 4 -->
<g id="node5" class="node">
<title>4</title>
<path fill="none" stroke="#56a2d8" stroke-width="2" d="M178.5,-838C178.5,-838 136.5,-838 136.5,-838 130.5,-838 124.5,-832 124.5,-826 124.5,-826 124.5,-809 124.5,-809 124.5,-803 130.5,-797 136.5,-797 136.5,-797 178.5,-797 178.5,-797 184.5,-797 190.5,-803 190.5,-809 190.5,-809 190.5,-826 190.5,-826 190.5,-832 184.5,-838 178.5,-838"/>
<text text-anchor="middle" x="157.5" y="-826" font-family="sans" font-size="10.00" fill="#000000">qcreads_il</text>
<text text-anchor="middle" x="157.5" y="-815" font-family="sans" font-size="10.00" fill="#000000">lib: D2</text>
<text text-anchor="middle" x="157.5" y="-804" font-family="sans" font-size="10.00" fill="#000000">run: run_1</text>
</g>
<!-- 4&#45;&gt;0 -->
<g id="edge4" class="edge">
<title>4&#45;&gt;0</title>
<path fill="none" stroke="#c0c0c0" stroke-width="2" d="M149.6143,-796.9847C139.5703,-768.9652 123.5,-716.9536 123.5,-671 123.5,-671 123.5,-671 123.5,-162 123.5,-118.0449 129.0903,-98.0424 164.5,-72 195.9335,-48.882 458.7693,-27.7726 557.3488,-20.5963"/>
<polygon fill="#c0c0c0" stroke="#c0c0c0" stroke-width="2" points="557.7289,-24.078 567.4513,-19.8679 557.2255,-17.0962 557.7289,-24.078"/>
</g>
<!-- 4&#45;&gt;7 -->
<g id="edge27" class="edge">
<title>4&#45;&gt;7</title>
<path fill="none" stroke="#c0c0c0" stroke-width="2" d="M180.8987,-796.7476C190.9566,-787.8272 202.7979,-777.3251 213.3324,-767.982"/>
<polygon fill="#c0c0c0" stroke="#c0c0c0" stroke-width="2" points="215.9231,-770.3626 221.0822,-761.1087 211.2783,-765.1255 215.9231,-770.3626"/>
</g>
<!-- 37 -->
<g id="node38" class="node">
<title>37</title>
<path fill="none" stroke="#70d856" stroke-width="2" d="M413.5,-761C413.5,-761 361.5,-761 361.5,-761 355.5,-761 349.5,-755 349.5,-749 349.5,-749 349.5,-737 349.5,-737 349.5,-731 355.5,-725 361.5,-725 361.5,-725 413.5,-725 413.5,-725 419.5,-725 425.5,-731 425.5,-737 425.5,-737 425.5,-749 425.5,-749 425.5,-755 419.5,-761 413.5,-761"/>
<text text-anchor="middle" x="387.5" y="-746" font-family="sans" font-size="10.00" fill="#000000">bwamem</text>
<text text-anchor="middle" x="387.5" y="-735" font-family="sans" font-size="10.00" fill="#000000">ref: genome</text>
</g>
<!-- 4&#45;&gt;37 -->
<g id="edge73" class="edge">
<title>4&#45;&gt;37</title>
<path fill="none" stroke="#c0c0c0" stroke-width="2" d="M190.7373,-800.6271C193.6729,-799.3354 196.6219,-798.106 199.5,-797 246.0573,-779.1085 301.0752,-763.9718 339.5205,-754.3181"/>
<polygon fill="#c0c0c0" stroke="#c0c0c0" stroke-width="2" points="340.5495,-757.669 349.4122,-751.8634 338.8635,-750.8751 340.5495,-757.669"/>
</g>
<!-- 5 -->
<g id="node6" class="node">
<title>5</title>
<path fill="none" stroke="#56a2d8" stroke-width="2" d="M346.5,-838C346.5,-838 304.5,-838 304.5,-838 298.5,-838 292.5,-832 292.5,-826 292.5,-826 292.5,-809 292.5,-809 292.5,-803 298.5,-797 304.5,-797 304.5,-797 346.5,-797 346.5,-797 352.5,-797 358.5,-803 358.5,-809 358.5,-809 358.5,-826 358.5,-826 358.5,-832 352.5,-838 346.5,-838"/>
<text text-anchor="middle" x="325.5" y="-826" font-family="sans" font-size="10.00" fill="#000000">qcreads_il</text>
<text text-anchor="middle" x="325.5" y="-815" font-family="sans" font-size="10.00" fill="#000000">lib: D3</text>
<text text-anchor="middle" x="325.5" y="-804" font-family="sans" font-size="10.00" fill="#000000">run: run_1</text>
</g>
<!-- 5&#45;&gt;0 -->
<g id="edge5" class="edge">
<title>5&#45;&gt;0</title>
<path fill="none" stroke="#c0c0c0" stroke-width="2" d="M321.8563,-796.8565C318.1496,-777.818 311.6475,-748.9628 302.5,-725 296.0479,-708.098 289.531,-706.0568 283.5,-689 248.1671,-589.0722 237.5,-560.9904 237.5,-455 237.5,-455 237.5,-455 237.5,-162 237.5,-117.0781 247.3376,-98.6506 283.5,-72 326.4933,-40.3153 484.3058,-25.5749 557.1714,-20.3444"/>
<polygon fill="#c0c0c0" stroke="#c0c0c0" stroke-width="2" points="557.549,-23.8267 567.2819,-19.6408 557.063,-16.8436 557.549,-23.8267"/>
</g>
<!-- 5&#45;&gt;7 -->
<g id="edge28" class="edge">
<title>5&#45;&gt;7</title>
<path fill="none" stroke="#c0c0c0" stroke-width="2" d="M302.1013,-796.7476C292.0434,-787.8272 280.2021,-777.3251 269.6676,-767.982"/>
<polygon fill="#c0c0c0" stroke="#c0c0c0" stroke-width="2" points="271.7217,-765.1255 261.9178,-761.1087 267.0769,-770.3626 271.7217,-765.1255"/>
</g>
<!-- 38 -->
<g id="node39" class="node">
<title>38</title>
<path fill="none" stroke="#70d856" stroke-width="2" d="M603.5,-761C603.5,-761 551.5,-761 551.5,-761 545.5,-761 539.5,-755 539.5,-749 539.5,-749 539.5,-737 539.5,-737 539.5,-731 545.5,-725 551.5,-725 551.5,-725 603.5,-725 603.5,-725 609.5,-725 615.5,-731 615.5,-737 615.5,-737 615.5,-749 615.5,-749 615.5,-755 609.5,-761 603.5,-761"/>
<text text-anchor="middle" x="577.5" y="-746" font-family="sans" font-size="10.00" fill="#000000">bwamem</text>
<text text-anchor="middle" x="577.5" y="-735" font-family="sans" font-size="10.00" fill="#000000">ref: genome</text>
</g>
<!-- 5&#45;&gt;38 -->
<g id="edge75" class="edge">
<title>5&#45;&gt;38</title>
<path fill="none" stroke="#c0c0c0" stroke-width="2" d="M358.8146,-809.3754C397.7087,-799.6595 464.1019,-782.3609 529.7191,-761.1124"/>
<polygon fill="#c0c0c0" stroke="#c0c0c0" stroke-width="2" points="530.9747,-764.3842 539.3913,-757.9491 528.7987,-757.731 530.9747,-764.3842"/>
</g>
<!-- 6 -->
<g id="node7" class="node">
<title>6</title>
<path fill="none" stroke="#56a2d8" stroke-width="2" d="M721.5,-838C721.5,-838 679.5,-838 679.5,-838 673.5,-838 667.5,-832 667.5,-826 667.5,-826 667.5,-809 667.5,-809 667.5,-803 673.5,-797 679.5,-797 679.5,-797 721.5,-797 721.5,-797 727.5,-797 733.5,-803 733.5,-809 733.5,-809 733.5,-826 733.5,-826 733.5,-832 727.5,-838 721.5,-838"/>
<text text-anchor="middle" x="700.5" y="-826" font-family="sans" font-size="10.00" fill="#000000">qcreads_il</text>
<text text-anchor="middle" x="700.5" y="-815" font-family="sans" font-size="10.00" fill="#000000">lib: con</text>
<text text-anchor="middle" x="700.5" y="-804" font-family="sans" font-size="10.00" fill="#000000">run: run_2</text>
</g>
<!-- 6&#45;&gt;0 -->
<g id="edge6" class="edge">
<title>6&#45;&gt;0</title>
<path fill="none" stroke="#c0c0c0" stroke-width="2" d="M733.7322,-816.0663C955.1031,-806.3035 2207.5,-747.6827 2207.5,-671 2207.5,-671 2207.5,-671 2207.5,-162 2207.5,-110.2151 2179.9281,-94.937 2133.5,-72 2064.1157,-37.7219 860.9309,-21.2719 631.9631,-18.4448"/>
<polygon fill="#c0c0c0" stroke="#c0c0c0" stroke-width="2" points="631.8468,-14.9432 621.8047,-18.3205 631.7611,-21.9427 631.8468,-14.9432"/>
</g>
<!-- 6&#45;&gt;7 -->
<g id="edge29" class="edge">
<title>6&#45;&gt;7</title>
<path fill="none" stroke="#c0c0c0" stroke-width="2" d="M667.3731,-807.6409C653.8612,-803.8923 638.0262,-799.8444 623.5,-797 499.0716,-772.6357 465.8065,-780.3474 340.5,-761 328.5631,-759.1569 315.8526,-756.9964 303.6572,-754.8244"/>
<polygon fill="#c0c0c0" stroke="#c0c0c0" stroke-width="2" points="304.0248,-751.3343 293.5624,-753.0039 302.7824,-758.2232 304.0248,-751.3343"/>
</g>
<!-- 36 -->
<g id="node37" class="node">
<title>36</title>
<path fill="none" stroke="#70d856" stroke-width="2" d="M726.5,-761C726.5,-761 674.5,-761 674.5,-761 668.5,-761 662.5,-755 662.5,-749 662.5,-749 662.5,-737 662.5,-737 662.5,-731 668.5,-725 674.5,-725 674.5,-725 726.5,-725 726.5,-725 732.5,-725 738.5,-731 738.5,-737 738.5,-737 738.5,-749 738.5,-749 738.5,-755 732.5,-761 726.5,-761"/>
<text text-anchor="middle" x="700.5" y="-746" font-family="sans" font-size="10.00" fill="#000000">bwamem</text>
<text text-anchor="middle" x="700.5" y="-735" font-family="sans" font-size="10.00" fill="#000000">ref: genome</text>
</g>
<!-- 6&#45;&gt;36 -->
<g id="edge71" class="edge">
<title>6&#45;&gt;36</title>
<path fill="none" stroke="#c0c0c0" stroke-width="2" d="M700.5,-796.7476C700.5,-788.8767 700.5,-779.7743 700.5,-771.3232"/>
<polygon fill="#c0c0c0" stroke="#c0c0c0" stroke-width="2" points="704.0001,-771.1086 700.5,-761.1087 697.0001,-771.1087 704.0001,-771.1086"/>
</g>
<!-- 7&#45;&gt;0 -->
<g id="edge7" class="edge">
<title>7&#45;&gt;0</title>
<path fill="none" stroke="#c0c0c0" stroke-width="2" d="M232.5929,-724.8553C220.2642,-698.0234 199.5,-645.875 199.5,-599 199.5,-599 199.5,-599 199.5,-162 199.5,-120.6022 192.5788,-99.5256 223.5,-72 248.231,-49.9849 468.0334,-28.8512 557.1827,-21.1062"/>
<polygon fill="#c0c0c0" stroke="#c0c0c0" stroke-width="2" points="557.7216,-24.5729 567.385,-20.2289 557.1218,-17.5986 557.7216,-24.5729"/>
</g>
<!-- 8 -->
<g id="node9" class="node">
<title>8</title>
<path fill="none" stroke="#d85e56" stroke-width="2" d="M575.5,-617C575.5,-617 497.5,-617 497.5,-617 491.5,-617 485.5,-611 485.5,-605 485.5,-605 485.5,-593 485.5,-593 485.5,-587 491.5,-581 497.5,-581 497.5,-581 575.5,-581 575.5,-581 581.5,-581 587.5,-587 587.5,-593 587.5,-593 587.5,-605 587.5,-605 587.5,-611 581.5,-617 575.5,-617"/>
<text text-anchor="middle" x="536.5" y="-602" font-family="sans" font-size="10.00" fill="#000000">mergebam_samp</text>
<text text-anchor="middle" x="536.5" y="-591" font-family="sans" font-size="10.00" fill="#000000">sample: con</text>
</g>
<!-- 8&#45;&gt;0 -->
<g id="edge8" class="edge">
<title>8&#45;&gt;0</title>
<path fill="none" stroke="#c0c0c0" stroke-width="2" d="M490.6247,-580.8165C474.4147,-572.2377 457.4989,-560.4321 446.5,-545 422.7724,-511.7087 427.5,-495.8816 427.5,-455 427.5,-455 427.5,-455 427.5,-380.5 427.5,-243.0084 321.6268,-181.7087 404.5,-72 422.8806,-47.6675 507.4244,-31.0811 557.3297,-23.2219"/>
<polygon fill="#c0c0c0" stroke="#c0c0c0" stroke-width="2" points="558.0618,-26.6507 567.4169,-21.6776 557.0024,-19.7313 558.0618,-26.6507"/>
</g>
<!-- 13 -->
<g id="node14" class="node">
<title>13</title>
<path fill="none" stroke="#56d8c9" stroke-width="2" d="M1742,-473C1742,-473 1671,-473 1671,-473 1665,-473 1659,-467 1659,-461 1659,-461 1659,-449 1659,-449 1659,-443 1665,-437 1671,-437 1671,-437 1742,-437 1742,-437 1748,-437 1754,-443 1754,-449 1754,-449 1754,-461 1754,-461 1754,-467 1748,-473 1742,-473"/>
<text text-anchor="middle" x="1706.5" y="-452.5" font-family="sans" font-size="10.00" fill="#000000">bamstat_samps</text>
</g>
<!-- 8&#45;&gt;13 -->
<g id="edge36" class="edge">
<title>8&#45;&gt;13</title>
<path fill="none" stroke="#c0c0c0" stroke-width="2" d="M587.5643,-585.872C595.5429,-584.0738 603.7203,-582.376 611.5,-581 1004.9329,-511.4154 1484.9847,-471.5223 1648.6588,-459.1753"/>
<polygon fill="#c0c0c0" stroke="#c0c0c0" stroke-width="2" points="1649.2675,-462.6395 1658.9779,-458.4018 1648.7442,-455.6591 1649.2675,-462.6395"/>
</g>
<!-- 14 -->
<g id="node15" class="node">
<title>14</title>
<path fill="none" stroke="#5682d8" stroke-width="2" d="M725.5,-545C725.5,-545 617.5,-545 617.5,-545 611.5,-545 605.5,-539 605.5,-533 605.5,-533 605.5,-521 605.5,-521 605.5,-515 611.5,-509 617.5,-509 617.5,-509 725.5,-509 725.5,-509 731.5,-509 737.5,-515 737.5,-521 737.5,-521 737.5,-533 737.5,-533 737.5,-539 731.5,-545 725.5,-545"/>
<text text-anchor="middle" x="671.5" y="-530" font-family="sans" font-size="10.00" fill="#000000">mergebam_set</text>
<text text-anchor="middle" x="671.5" y="-519" font-family="sans" font-size="10.00" fill="#000000">sampleset: all_samples</text>
</g>
<!-- 8&#45;&gt;14 -->
<g id="edge39" class="edge">
<title>8&#45;&gt;14</title>
<path fill="none" stroke="#c0c0c0" stroke-width="2" d="M570.5662,-580.8314C588.1533,-571.4516 609.7916,-559.9112 628.5168,-549.9244"/>
<polygon fill="#c0c0c0" stroke="#c0c0c0" stroke-width="2" points="630.2682,-552.957 637.4447,-545.1628 626.9741,-546.7805 630.2682,-552.957"/>
</g>
<!-- 15 -->
<g id="node16" class="node">
<title>15</title>
<path fill="none" stroke="#a7d856" stroke-width="2" d="M575.5,-545C575.5,-545 467.5,-545 467.5,-545 461.5,-545 455.5,-539 455.5,-533 455.5,-533 455.5,-521 455.5,-521 455.5,-515 461.5,-509 467.5,-509 467.5,-509 575.5,-509 575.5,-509 581.5,-509 587.5,-515 587.5,-521 587.5,-521 587.5,-533 587.5,-533 587.5,-539 581.5,-545 575.5,-545"/>
<text text-anchor="middle" x="521.5" y="-530" font-family="sans" font-size="10.00" fill="#000000">bamlist</text>
<text text-anchor="middle" x="521.5" y="-519" font-family="sans" font-size="10.00" fill="#000000">sampleset: all_samples</text>
</g>
<!-- 8&#45;&gt;15 -->
<g id="edge42" class="edge">
<title>8&#45;&gt;15</title>
<path fill="none" stroke="#c0c0c0" stroke-width="2" d="M532.7149,-580.8314C531.1106,-573.131 529.203,-563.9743 527.4201,-555.4166"/>
<polygon fill="#c0c0c0" stroke="#c0c0c0" stroke-width="2" points="530.8021,-554.4892 525.3361,-545.4133 523.9493,-555.9169 530.8021,-554.4892"/>
</g>
<!-- 9 -->
<g id="node10" class="node">
<title>9</title>
<path fill="none" stroke="#d85e56" stroke-width="2" d="M390.5,-617C390.5,-617 312.5,-617 312.5,-617 306.5,-617 300.5,-611 300.5,-605 300.5,-605 300.5,-593 300.5,-593 300.5,-587 306.5,-581 312.5,-581 312.5,-581 390.5,-581 390.5,-581 396.5,-581 402.5,-587 402.5,-593 402.5,-593 402.5,-605 402.5,-605 402.5,-611 396.5,-617 390.5,-617"/>
<text text-anchor="middle" x="351.5" y="-602" font-family="sans" font-size="10.00" fill="#000000">mergebam_samp</text>
<text text-anchor="middle" x="351.5" y="-591" font-family="sans" font-size="10.00" fill="#000000">sample: D2</text>
</g>
<!-- 9&#45;&gt;0 -->
<g id="edge9" class="edge">
<title>9&#45;&gt;0</title>
<path fill="none" stroke="#c0c0c0" stroke-width="2" d="M334.2544,-580.6186C311.8312,-554.719 275.5,-505.0348 275.5,-455 275.5,-455 275.5,-455 275.5,-162 275.5,-116.8741 286.3791,-99.0486 322.5,-72 359.0957,-44.5959 491.1042,-28.1315 556.8088,-21.4582"/>
<polygon fill="#c0c0c0" stroke="#c0c0c0" stroke-width="2" points="557.5318,-24.9038 567.1378,-20.4345 556.8413,-17.9379 557.5318,-24.9038"/>
</g>
<!-- 11 -->
<g id="node12" class="node">
<title>11</title>
<path fill="none" stroke="#56d8c9" stroke-width="2" d="M387,-324C387,-324 316,-324 316,-324 310,-324 304,-318 304,-312 304,-312 304,-300 304,-300 304,-294 310,-288 316,-288 316,-288 387,-288 387,-288 393,-288 399,-294 399,-300 399,-300 399,-312 399,-312 399,-318 393,-324 387,-324"/>
<text text-anchor="middle" x="351.5" y="-303.5" font-family="sans" font-size="10.00" fill="#000000">bamstat_samps</text>
</g>
<!-- 9&#45;&gt;11 -->
<g id="edge34" class="edge">
<title>9&#45;&gt;11</title>
<path fill="none" stroke="#c0c0c0" stroke-width="2" d="M351.5,-580.6715C351.5,-531.1358 351.5,-394.303 351.5,-334.5444"/>
<polygon fill="#c0c0c0" stroke="#c0c0c0" stroke-width="2" points="355.0001,-334.3215 351.5,-324.3215 348.0001,-334.3216 355.0001,-334.3215"/>
</g>
<!-- 9&#45;&gt;14 -->
<g id="edge37" class="edge">
<title>9&#45;&gt;14</title>
<path fill="none" stroke="#c0c0c0" stroke-width="2" d="M402.71,-588.0031C450.1879,-577.7421 523.0538,-561.8286 595.5081,-545.2099"/>
<polygon fill="#c0c0c0" stroke="#c0c0c0" stroke-width="2" points="596.3007,-548.6191 605.2624,-542.9677 594.7324,-541.797 596.3007,-548.6191"/>
</g>
<!-- 9&#45;&gt;15 -->
<g id="edge40" class="edge">
<title>9&#45;&gt;15</title>
<path fill="none" stroke="#c0c0c0" stroke-width="2" d="M394.3982,-580.8314C417.2357,-571.159 445.498,-559.1891 469.5687,-548.9944"/>
<polygon fill="#c0c0c0" stroke="#c0c0c0" stroke-width="2" points="471.0671,-552.1608 478.9103,-545.038 468.3371,-545.7151 471.0671,-552.1608"/>
</g>
<!-- 10 -->
<g id="node11" class="node">
<title>10</title>
<path fill="none" stroke="#d85e56" stroke-width="2" d="M710.5,-617C710.5,-617 632.5,-617 632.5,-617 626.5,-617 620.5,-611 620.5,-605 620.5,-605 620.5,-593 620.5,-593 620.5,-587 626.5,-581 632.5,-581 632.5,-581 710.5,-581 710.5,-581 716.5,-581 722.5,-587 722.5,-593 722.5,-593 722.5,-605 722.5,-605 722.5,-611 716.5,-617 710.5,-617"/>
<text text-anchor="middle" x="671.5" y="-602" font-family="sans" font-size="10.00" fill="#000000">mergebam_samp</text>
<text text-anchor="middle" x="671.5" y="-591" font-family="sans" font-size="10.00" fill="#000000">sample: D3</text>
</g>
<!-- 10&#45;&gt;0 -->
<g id="edge10" class="edge">
<title>10&#45;&gt;0</title>
<path fill="none" stroke="#c0c0c0" stroke-width="2" d="M722.6917,-596.8474C879.8056,-589.4426 1368.3467,-560.4642 1762.5,-473 1923.3615,-437.3042 2093.5,-470.7744 2093.5,-306 2093.5,-306 2093.5,-306 2093.5,-162 2093.5,-114.1711 2076.1486,-95.5159 2034.5,-72 1971.6385,-36.5067 851.2419,-21.1157 631.6596,-18.4336"/>
<polygon fill="#c0c0c0" stroke="#c0c0c0" stroke-width="2" points="631.6462,-14.9333 621.6046,-18.312 631.5615,-21.9328 631.6462,-14.9333"/>
</g>
<!-- 12 -->
<g id="node13" class="node">
<title>12</title>
<path fill="none" stroke="#56d8c9" stroke-width="2" d="M2167,-545C2167,-545 2096,-545 2096,-545 2090,-545 2084,-539 2084,-533 2084,-533 2084,-521 2084,-521 2084,-515 2090,-509 2096,-509 2096,-509 2167,-509 2167,-509 2173,-509 2179,-515 2179,-521 2179,-521 2179,-533 2179,-533 2179,-539 2173,-545 2167,-545"/>
<text text-anchor="middle" x="2131.5" y="-524.5" font-family="sans" font-size="10.00" fill="#000000">bamstat_samps</text>
</g>
<!-- 10&#45;&gt;12 -->
<g id="edge35" class="edge">
<title>10&#45;&gt;12</title>
<path fill="none" stroke="#c0c0c0" stroke-width="2" d="M722.6102,-598.6928C941.7015,-597.1194 1802.4624,-588.2536 2069.5,-545 2070.9522,-544.7648 2072.4184,-544.5064 2073.8934,-544.2278"/>
<polygon fill="#c0c0c0" stroke="#c0c0c0" stroke-width="2" points="2074.6552,-547.6441 2083.7006,-542.1276 2073.1894,-540.7993 2074.6552,-547.6441"/>
</g>
<!-- 10&#45;&gt;14 -->
<g id="edge38" class="edge">
<title>10&#45;&gt;14</title>
<path fill="none" stroke="#c0c0c0" stroke-width="2" d="M671.5,-580.8314C671.5,-573.131 671.5,-563.9743 671.5,-555.4166"/>
<polygon fill="#c0c0c0" stroke="#c0c0c0" stroke-width="2" points="675.0001,-555.4132 671.5,-545.4133 668.0001,-555.4133 675.0001,-555.4132"/>
</g>
<!-- 10&#45;&gt;15 -->
<g id="edge41" class="edge">
<title>10&#45;&gt;15</title>
<path fill="none" stroke="#c0c0c0" stroke-width="2" d="M633.6487,-580.8314C613.7654,-571.2874 589.2218,-559.5065 568.1695,-549.4013"/>
<polygon fill="#c0c0c0" stroke="#c0c0c0" stroke-width="2" points="569.609,-546.21 559.0791,-545.038 566.5798,-552.5207 569.609,-546.21"/>
</g>
<!-- 11&#45;&gt;0 -->
<g id="edge11" class="edge">
<title>11&#45;&gt;0</title>
<path fill="none" stroke="#c0c0c0" stroke-width="2" d="M343.9334,-287.6871C327.4969,-244.6516 293.971,-135.9018 345.5,-72 371.6168,-39.6122 493.8054,-25.6648 556.7699,-20.5453"/>
<polygon fill="#c0c0c0" stroke="#c0c0c0" stroke-width="2" points="557.3747,-24.0089 567.073,-19.7435 556.8315,-17.03 557.3747,-24.0089"/>
</g>
<!-- 12&#45;&gt;0 -->
<g id="edge12" class="edge">
<title>12&#45;&gt;0</title>
<path fill="none" stroke="#c0c0c0" stroke-width="2" d="M2131.5,-508.9571C2131.5,-481.3072 2131.5,-426.7899 2131.5,-380.5 2131.5,-380.5 2131.5,-380.5 2131.5,-162 2131.5,-120.6022 2139.8729,-97.8026 2107.5,-72 2048.0027,-24.5781 858.0928,-18.7637 631.5683,-18.0858"/>
<polygon fill="#c0c0c0" stroke="#c0c0c0" stroke-width="2" points="631.5279,-14.5858 621.5179,-18.0573 631.5079,-21.5858 631.5279,-14.5858"/>
</g>
<!-- 13&#45;&gt;0 -->
<g id="edge13" class="edge">
<title>13&#45;&gt;0</title>
<path fill="none" stroke="#c0c0c0" stroke-width="2" d="M1754.2952,-445.0845C1849.8775,-423.8758 2055.5,-370.7283 2055.5,-306 2055.5,-306 2055.5,-306 2055.5,-162 2055.5,-114.6526 2039.534,-95.6219 1998.5,-72 1937.5935,-36.9382 848.2892,-21.2387 631.7483,-18.4575"/>
<polygon fill="#c0c0c0" stroke="#c0c0c0" stroke-width="2" points="631.5806,-14.9552 621.5369,-18.3276 631.4915,-21.9546 631.5806,-14.9552"/>
</g>
<!-- 14&#45;&gt;0 -->
<g id="edge14" class="edge">
<title>14&#45;&gt;0</title>
<path fill="none" stroke="#c0c0c0" stroke-width="2" d="M605.2493,-508.9765C573.258,-498.9112 539.6257,-485.8405 529.5,-473 473.944,-402.5485 434.783,-147.98 482.5,-72 498.8176,-46.0175 531.5403,-32.2405 557.4218,-25.1252"/>
<polygon fill="#c0c0c0" stroke="#c0c0c0" stroke-width="2" points="558.4721,-28.47 567.3126,-22.6308 556.7603,-21.6825 558.4721,-28.47"/>
</g>
<!-- 16 -->
<g id="node17" class="node">
<title>16</title>
<path fill="none" stroke="#80d856" stroke-width="2" d="M1712.5,-252C1712.5,-252 1682.5,-252 1682.5,-252 1676.5,-252 1670.5,-246 1670.5,-240 1670.5,-240 1670.5,-228 1670.5,-228 1670.5,-222 1676.5,-216 1682.5,-216 1682.5,-216 1712.5,-216 1712.5,-216 1718.5,-216 1724.5,-222 1724.5,-228 1724.5,-228 1724.5,-240 1724.5,-240 1724.5,-246 1718.5,-252 1712.5,-252"/>
<text text-anchor="middle" x="1697.5" y="-231.5" font-family="sans" font-size="10.00" fill="#000000">abra2</text>
</g>
<!-- 14&#45;&gt;16 -->
<g id="edge43" class="edge">
<title>14&#45;&gt;16</title>
<path fill="none" stroke="#c0c0c0" stroke-width="2" d="M737.7206,-519.9893C839.6997,-508.9581 1030.428,-487.3318 1097.5,-473 1205.1566,-449.9961 1231.5893,-440.0959 1334.5,-401 1457.1898,-354.39 1596.7989,-285.4606 1661.3075,-252.6596"/>
<polygon fill="#c0c0c0" stroke="#c0c0c0" stroke-width="2" points="1662.951,-255.7503 1670.2693,-248.0892 1659.7708,-249.5144 1662.951,-255.7503"/>
</g>
<!-- 39 -->
<g id="node40" class="node">
<title>39</title>
<path fill="none" stroke="#d87556" stroke-width="2" d="M1076.5,-473C1076.5,-473 834.5,-473 834.5,-473 828.5,-473 822.5,-467 822.5,-461 822.5,-461 822.5,-449 822.5,-449 822.5,-443 828.5,-437 834.5,-437 834.5,-437 1076.5,-437 1076.5,-437 1082.5,-437 1088.5,-443 1088.5,-449 1088.5,-449 1088.5,-461 1088.5,-461 1088.5,-467 1082.5,-473 1076.5,-473"/>
<text text-anchor="middle" x="955.5" y="-458" font-family="sans" font-size="10.00" fill="#000000">freebayes</text>
<text text-anchor="middle" x="955.5" y="-447" font-family="sans" font-size="10.00" fill="#000000">region: Chr02_region1M_2M:000000001&#45;001000000</text>
</g>
<!-- 14&#45;&gt;39 -->
<g id="edge76" class="edge">
<title>14&#45;&gt;39</title>
<path fill="none" stroke="#c0c0c0" stroke-width="2" d="M737.727,-510.2101C778.5553,-499.8592 831.2029,-486.5119 874.5052,-475.5339"/>
<polygon fill="#c0c0c0" stroke="#c0c0c0" stroke-width="2" points="875.6109,-478.8644 884.4441,-473.0142 873.8907,-472.079 875.6109,-478.8644"/>
</g>
<!-- 40 -->
<g id="node41" class="node">
<title>40</title>
<path fill="none" stroke="#d87556" stroke-width="2" d="M792.5,-473C792.5,-473 550.5,-473 550.5,-473 544.5,-473 538.5,-467 538.5,-461 538.5,-461 538.5,-449 538.5,-449 538.5,-443 544.5,-437 550.5,-437 550.5,-437 792.5,-437 792.5,-437 798.5,-437 804.5,-443 804.5,-449 804.5,-449 804.5,-461 804.5,-461 804.5,-467 798.5,-473 792.5,-473"/>
<text text-anchor="middle" x="671.5" y="-458" font-family="sans" font-size="10.00" fill="#000000">freebayes</text>
<text text-anchor="middle" x="671.5" y="-447" font-family="sans" font-size="10.00" fill="#000000">region: Chr04_region1M_2M:000000001&#45;001000000</text>
</g>
<!-- 14&#45;&gt;40 -->
<g id="edge77" class="edge">
<title>14&#45;&gt;40</title>
<path fill="none" stroke="#c0c0c0" stroke-width="2" d="M671.5,-508.8314C671.5,-501.131 671.5,-491.9743 671.5,-483.4166"/>
<polygon fill="#c0c0c0" stroke="#c0c0c0" stroke-width="2" points="675.0001,-483.4132 671.5,-473.4133 668.0001,-483.4133 675.0001,-483.4132"/>
</g>
<!-- 15&#45;&gt;0 -->
<g id="edge15" class="edge">
<title>15&#45;&gt;0</title>
<path fill="none" stroke="#c0c0c0" stroke-width="2" d="M508.763,-508.7379C502.196,-498.6027 494.531,-485.5414 489.5,-473 477.057,-441.9819 425.3025,-213.2038 421.5,-180 416.0388,-132.3117 393.0615,-110.6685 421.5,-72 437.7042,-49.9669 511.685,-32.9554 557.4961,-24.3064"/>
<polygon fill="#c0c0c0" stroke="#c0c0c0" stroke-width="2" points="558.1686,-27.7415 567.3697,-22.489 556.9013,-20.8572 558.1686,-27.7415"/>
</g>
<!-- 16&#45;&gt;0 -->
<g id="edge16" class="edge">
<title>16&#45;&gt;0</title>
<path fill="none" stroke="#c0c0c0" stroke-width="2" d="M1724.9144,-233.3783C1792.4094,-231.2113 1963.6678,-221.6373 1998.5,-180 2020.1795,-154.085 1983.1448,-78.4914 1974.5,-72 1919.3205,-30.5656 847.1641,-19.9822 631.936,-18.2717"/>
<polygon fill="#c0c0c0" stroke="#c0c0c0" stroke-width="2" points="631.8044,-14.7707 621.7774,-18.1925 631.7498,-21.7704 631.8044,-14.7707"/>
</g>
<!-- 17 -->
<g id="node18" class="node">
<title>17</title>
<path fill="none" stroke="#d8bc56" stroke-width="2" d="M723,-252C723,-252 684,-252 684,-252 678,-252 672,-246 672,-240 672,-240 672,-228 672,-228 672,-222 678,-216 684,-216 684,-216 723,-216 723,-216 729,-216 735,-222 735,-228 735,-228 735,-240 735,-240 735,-246 729,-252 723,-252"/>
<text text-anchor="middle" x="703.5" y="-231.5" font-family="sans" font-size="10.00" fill="#000000">bcfmerge</text>
</g>
<!-- 17&#45;&gt;0 -->
<g id="edge17" class="edge">
<title>17&#45;&gt;0</title>
<path fill="none" stroke="#c0c0c0" stroke-width="2" d="M671.6149,-225.7901C622.8007,-211.3051 531.146,-176.0899 492.5,-108 484.6022,-94.0851 484.2471,-85.7073 492.5,-72 506.6075,-48.5688 534.6698,-34.7723 557.7946,-26.9976"/>
<polygon fill="#c0c0c0" stroke="#c0c0c0" stroke-width="2" points="558.8401,-30.3379 567.3479,-24.0237 556.7595,-23.6542 558.8401,-30.3379"/>
</g>
<!-- 19 -->
<g id="node20" class="node">
<title>19</title>
<path fill="none" stroke="#56d87b" stroke-width="2" d="M917,-108C917,-108 514,-108 514,-108 508,-108 502,-102 502,-96 502,-96 502,-84 502,-84 502,-78 508,-72 514,-72 514,-72 917,-72 917,-72 923,-72 929,-78 929,-84 929,-84 929,-96 929,-96 929,-102 923,-108 917,-108"/>
<text text-anchor="middle" x="715.5" y="-93" font-family="sans" font-size="10.00" fill="#000000">variantidx</text>
<text text-anchor="middle" x="715.5" y="-82" font-family="sans" font-size="10.00" fill="#000000">path: data/variants/final/freebayes~bwa~genome~all_samples~filtered&#45;default.bcf</text>
</g>
<!-- 17&#45;&gt;19 -->
<g id="edge50" class="edge">
<title>17&#45;&gt;19</title>
<path fill="none" stroke="#c0c0c0" stroke-width="2" d="M693.9221,-215.9488C685.4883,-197.6902 675.5469,-168.712 682.5,-144 685.1661,-134.5243 690.0081,-125.067 695.1762,-116.7759"/>
<polygon fill="#c0c0c0" stroke="#c0c0c0" stroke-width="2" points="698.1966,-118.5549 700.8248,-108.2912 692.3697,-114.6757 698.1966,-118.5549"/>
</g>
<!-- 21 -->
<g id="node22" class="node">
<title>21</title>
<path fill="none" stroke="#56b1d8" stroke-width="2" d="M1089,-180C1089,-180 704,-180 704,-180 698,-180 692,-174 692,-168 692,-168 692,-156 692,-156 692,-150 698,-144 704,-144 704,-144 1089,-144 1089,-144 1095,-144 1101,-150 1101,-156 1101,-156 1101,-168 1101,-168 1101,-174 1095,-180 1089,-180"/>
<text text-anchor="middle" x="896.5" y="-165" font-family="sans" font-size="10.00" fill="#000000">bcf2vcf</text>
<text text-anchor="middle" x="896.5" y="-154" font-family="sans" font-size="10.00" fill="#000000">path: data/variants/final/freebayes~bwa~genome~all_samples~filtered&#45;default</text>
</g>
<!-- 17&#45;&gt;21 -->
<g id="edge52" class="edge">
<title>17&#45;&gt;21</title>
<path fill="none" stroke="#c0c0c0" stroke-width="2" d="M735.37,-222.1107C763.2396,-211.7137 804.4196,-196.3512 838.172,-183.7597"/>
<polygon fill="#c0c0c0" stroke="#c0c0c0" stroke-width="2" points="839.7844,-186.8938 847.9303,-180.1193 837.3377,-180.3353 839.7844,-186.8938"/>
</g>
<!-- 18 -->
<g id="node19" class="node">
<title>18</title>
<path fill="none" stroke="#d8bc56" stroke-width="2" d="M1338,-252C1338,-252 1299,-252 1299,-252 1293,-252 1287,-246 1287,-240 1287,-240 1287,-228 1287,-228 1287,-222 1293,-216 1299,-216 1299,-216 1338,-216 1338,-216 1344,-216 1350,-222 1350,-228 1350,-228 1350,-240 1350,-240 1350,-246 1344,-252 1338,-252"/>
<text text-anchor="middle" x="1318.5" y="-231.5" font-family="sans" font-size="10.00" fill="#000000">bcfmerge</text>
</g>
<!-- 18&#45;&gt;0 -->
<g id="edge18" class="edge">
<title>18&#45;&gt;0</title>
<path fill="none" stroke="#c0c0c0" stroke-width="2" d="M1350.3426,-230.8696C1392.8648,-225.5834 1469.4477,-212.1268 1526.5,-180 1546.4921,-168.7422 1542.7293,-153.7467 1563.5,-144 1702.9385,-78.568 2009.1439,-183.1374 1902.5,-72 1857.3315,-24.9282 840.7633,-18.8543 631.8325,-18.1025"/>
<polygon fill="#c0c0c0" stroke="#c0c0c0" stroke-width="2" points="631.6882,-14.6021 621.6763,-18.0679 631.6643,-21.602 631.6882,-14.6021"/>
</g>
<!-- 20 -->
<g id="node21" class="node">
<title>20</title>
<path fill="none" stroke="#56d87b" stroke-width="2" d="M1978,-180C1978,-180 1585,-180 1585,-180 1579,-180 1573,-174 1573,-168 1573,-168 1573,-156 1573,-156 1573,-150 1579,-144 1585,-144 1585,-144 1978,-144 1978,-144 1984,-144 1990,-150 1990,-156 1990,-156 1990,-168 1990,-168 1990,-174 1984,-180 1978,-180"/>
<text text-anchor="middle" x="1781.5" y="-165" font-family="sans" font-size="10.00" fill="#000000">variantidx</text>
<text text-anchor="middle" x="1781.5" y="-154" font-family="sans" font-size="10.00" fill="#000000">path: data/variants/final/freebayes~bwa~genome~all_samples~filtered&#45;strict.bcf</text>
</g>
<!-- 18&#45;&gt;20 -->
<g id="edge51" class="edge">
<title>18&#45;&gt;20</title>
<path fill="none" stroke="#c0c0c0" stroke-width="2" d="M1350.3239,-229.0511C1412.2734,-219.4175 1552.0731,-197.6776 1655.7859,-181.5495"/>
<polygon fill="#c0c0c0" stroke="#c0c0c0" stroke-width="2" points="1656.3627,-185.0019 1665.7061,-180.0068 1655.2871,-178.0851 1656.3627,-185.0019"/>
</g>
<!-- 22 -->
<g id="node23" class="node">
<title>22</title>
<path fill="none" stroke="#56b1d8" stroke-width="2" d="M1506,-180C1506,-180 1131,-180 1131,-180 1125,-180 1119,-174 1119,-168 1119,-168 1119,-156 1119,-156 1119,-150 1125,-144 1131,-144 1131,-144 1506,-144 1506,-144 1512,-144 1518,-150 1518,-156 1518,-156 1518,-168 1518,-168 1518,-174 1512,-180 1506,-180"/>
<text text-anchor="middle" x="1318.5" y="-165" font-family="sans" font-size="10.00" fill="#000000">bcf2vcf</text>
<text text-anchor="middle" x="1318.5" y="-154" font-family="sans" font-size="10.00" fill="#000000">path: data/variants/final/freebayes~bwa~genome~all_samples~filtered&#45;strict</text>
</g>
<!-- 18&#45;&gt;22 -->
<g id="edge53" class="edge">
<title>18&#45;&gt;22</title>
<path fill="none" stroke="#c0c0c0" stroke-width="2" d="M1318.5,-215.8314C1318.5,-208.131 1318.5,-198.9743 1318.5,-190.4166"/>
<polygon fill="#c0c0c0" stroke="#c0c0c0" stroke-width="2" points="1322.0001,-190.4132 1318.5,-180.4133 1315.0001,-190.4133 1322.0001,-190.4132"/>
</g>
<!-- 19&#45;&gt;0 -->
<g id="edge19" class="edge">
<title>19&#45;&gt;0</title>
<path fill="none" stroke="#c0c0c0" stroke-width="2" d="M684.9666,-71.8314C668.3928,-61.9692 647.8048,-49.7186 630.4581,-39.3965"/>
<polygon fill="#c0c0c0" stroke="#c0c0c0" stroke-width="2" points="632.1042,-36.3033 621.7207,-34.1975 628.5246,-42.3189 632.1042,-36.3033"/>
</g>
<!-- 20&#45;&gt;0 -->
<g id="edge20" class="edge">
<title>20&#45;&gt;0</title>
<path fill="none" stroke="#c0c0c0" stroke-width="2" d="M1878.4478,-143.9883C1934.5336,-129.5183 1988.1406,-105.9613 1955.5,-72 1931.9079,-47.4533 848.7368,-23.358 632.0099,-18.7778"/>
<polygon fill="#c0c0c0" stroke="#c0c0c0" stroke-width="2" points="631.8552,-15.2739 621.7837,-18.5626 631.7078,-22.2723 631.8552,-15.2739"/>
</g>
<!-- 21&#45;&gt;0 -->
<g id="edge21" class="edge">
<title>21&#45;&gt;0</title>
<path fill="none" stroke="#c0c0c0" stroke-width="2" d="M1090.8104,-143.9755C1229.0205,-130.6871 1391.1729,-113.9334 1396.5,-108 1407.1891,-96.0944 1407.4271,-83.6876 1396.5,-72 1370.0618,-43.7218 786.7601,-23.8909 631.9419,-19.1125"/>
<polygon fill="#c0c0c0" stroke="#c0c0c0" stroke-width="2" points="631.6514,-15.6021 621.549,-18.7946 631.4373,-22.5988 631.6514,-15.6021"/>
</g>
<!-- 23 -->
<g id="node24" class="node">
<title>23</title>
<path fill="none" stroke="#56d87b" stroke-width="2" d="M1375.5,-108C1375.5,-108 959.5,-108 959.5,-108 953.5,-108 947.5,-102 947.5,-96 947.5,-96 947.5,-84 947.5,-84 947.5,-78 953.5,-72 959.5,-72 959.5,-72 1375.5,-72 1375.5,-72 1381.5,-72 1387.5,-78 1387.5,-84 1387.5,-84 1387.5,-96 1387.5,-96 1387.5,-102 1381.5,-108 1375.5,-108"/>
<text text-anchor="middle" x="1167.5" y="-93" font-family="sans" font-size="10.00" fill="#000000">variantidx</text>
<text text-anchor="middle" x="1167.5" y="-82" font-family="sans" font-size="10.00" fill="#000000">path: data/variants/final/freebayes~bwa~genome~all_samples~filtered&#45;default.vcf.gz</text>
</g>
<!-- 21&#45;&gt;23 -->
<g id="edge54" class="edge">
<title>21&#45;&gt;23</title>
<path fill="none" stroke="#c0c0c0" stroke-width="2" d="M964.5349,-143.9243C1002.5487,-133.8247 1050.0734,-121.1982 1089.5772,-110.7027"/>
<polygon fill="#c0c0c0" stroke="#c0c0c0" stroke-width="2" points="1090.6711,-114.0336 1099.4371,-108.0831 1088.8736,-107.2683 1090.6711,-114.0336"/>
</g>
<!-- 22&#45;&gt;0 -->
<g id="edge22" class="edge">
<title>22&#45;&gt;0</title>
<path fill="none" stroke="#c0c0c0" stroke-width="2" d="M1518.1454,-144.4673C1679.4646,-130.0634 1880.3336,-111.4834 1883.5,-108 1894.2621,-96.1603 1894.5744,-83.5481 1883.5,-72 1839.0244,-25.6221 838.2605,-18.9992 631.6218,-18.1252"/>
<polygon fill="#c0c0c0" stroke="#c0c0c0" stroke-width="2" points="631.5868,-14.6251 621.5728,-18.0846 631.5585,-21.6251 631.5868,-14.6251"/>
</g>
<!-- 24 -->
<g id="node25" class="node">
<title>24</title>
<path fill="none" stroke="#56d87b" stroke-width="2" d="M1863,-108C1863,-108 1456,-108 1456,-108 1450,-108 1444,-102 1444,-96 1444,-96 1444,-84 1444,-84 1444,-78 1450,-72 1456,-72 1456,-72 1863,-72 1863,-72 1869,-72 1875,-78 1875,-84 1875,-84 1875,-96 1875,-96 1875,-102 1869,-108 1863,-108"/>
<text text-anchor="middle" x="1659.5" y="-93" font-family="sans" font-size="10.00" fill="#000000">variantidx</text>
<text text-anchor="middle" x="1659.5" y="-82" font-family="sans" font-size="10.00" fill="#000000">path: data/variants/final/freebayes~bwa~genome~all_samples~filtered&#45;strict.vcf.gz</text>
</g>
<!-- 22&#45;&gt;24 -->
<g id="edge55" class="edge">
<title>22&#45;&gt;24</title>
<path fill="none" stroke="#c0c0c0" stroke-width="2" d="M1404.1085,-143.9243C1452.8445,-133.634 1514.0045,-120.7205 1564.2544,-110.1105"/>
<polygon fill="#c0c0c0" stroke="#c0c0c0" stroke-width="2" points="1565.0909,-113.5111 1574.152,-108.0207 1563.6447,-106.6622 1565.0909,-113.5111"/>
</g>
<!-- 23&#45;&gt;0 -->
<g id="edge23" class="edge">
<title>23&#45;&gt;0</title>
<path fill="none" stroke="#c0c0c0" stroke-width="2" d="M1024.0169,-71.9707C893.5755,-55.5802 709.9374,-32.5052 631.9158,-22.7015"/>
<polygon fill="#c0c0c0" stroke="#c0c0c0" stroke-width="2" points="631.9824,-19.1824 621.624,-21.4083 631.1096,-26.1278 631.9824,-19.1824"/>
</g>
<!-- 24&#45;&gt;0 -->
<g id="edge24" class="edge">
<title>24&#45;&gt;0</title>
<path fill="none" stroke="#c0c0c0" stroke-width="2" d="M1443.7287,-73.0264C1438.942,-72.678 1434.1942,-72.3355 1429.5,-72 1121.4274,-49.9844 749.1249,-27.2905 631.7768,-20.2304"/>
<polygon fill="#c0c0c0" stroke="#c0c0c0" stroke-width="2" points="631.7336,-16.7216 621.5416,-19.6154 631.3136,-23.709 631.7336,-16.7216"/>
</g>
<!-- 25 -->
<g id="node26" class="node">
<title>25</title>
<path fill="none" stroke="#d8b456" stroke-width="2" d="M530.5,-689C530.5,-689 438.5,-689 438.5,-689 432.5,-689 426.5,-683 426.5,-677 426.5,-677 426.5,-665 426.5,-665 426.5,-659 432.5,-653 438.5,-653 438.5,-653 530.5,-653 530.5,-653 536.5,-653 542.5,-659 542.5,-665 542.5,-665 542.5,-677 542.5,-677 542.5,-683 536.5,-689 530.5,-689"/>
<text text-anchor="middle" x="484.5" y="-674" font-family="sans" font-size="10.00" fill="#000000">bam_markdups_sort</text>
<text text-anchor="middle" x="484.5" y="-663" font-family="sans" font-size="10.00" fill="#000000">aligner: bwa</text>
</g>
<!-- 25&#45;&gt;8 -->
<g id="edge30" class="edge">
<title>25&#45;&gt;8</title>
<path fill="none" stroke="#c0c0c0" stroke-width="2" d="M497.6218,-652.8314C503.5499,-644.6232 510.6729,-634.7606 517.1933,-625.7323"/>
<polygon fill="#c0c0c0" stroke="#c0c0c0" stroke-width="2" points="520.184,-627.5693 523.2015,-617.4133 514.5092,-623.4708 520.184,-627.5693"/>
</g>
<!-- 26 -->
<g id="node27" class="node">
<title>26</title>
<path fill="none" stroke="#d8b456" stroke-width="2" d="M798.5,-689C798.5,-689 706.5,-689 706.5,-689 700.5,-689 694.5,-683 694.5,-677 694.5,-677 694.5,-665 694.5,-665 694.5,-659 700.5,-653 706.5,-653 706.5,-653 798.5,-653 798.5,-653 804.5,-653 810.5,-659 810.5,-665 810.5,-665 810.5,-677 810.5,-677 810.5,-683 804.5,-689 798.5,-689"/>
<text text-anchor="middle" x="752.5" y="-674" font-family="sans" font-size="10.00" fill="#000000">bam_markdups_sort</text>
<text text-anchor="middle" x="752.5" y="-663" font-family="sans" font-size="10.00" fill="#000000">aligner: bwa</text>
</g>
<!-- 26&#45;&gt;8 -->
<g id="edge31" class="edge">
<title>26&#45;&gt;8</title>
<path fill="none" stroke="#c0c0c0" stroke-width="2" d="M698.2729,-652.9243C667.5816,-642.6939 629.112,-629.8707 597.3879,-619.296"/>
<polygon fill="#c0c0c0" stroke="#c0c0c0" stroke-width="2" points="598.3687,-615.9336 587.7751,-616.0917 596.1551,-622.5744 598.3687,-615.9336"/>
</g>
<!-- 27 -->
<g id="node28" class="node">
<title>27</title>
<path fill="none" stroke="#d8b456" stroke-width="2" d="M396.5,-689C396.5,-689 304.5,-689 304.5,-689 298.5,-689 292.5,-683 292.5,-677 292.5,-677 292.5,-665 292.5,-665 292.5,-659 298.5,-653 304.5,-653 304.5,-653 396.5,-653 396.5,-653 402.5,-653 408.5,-659 408.5,-665 408.5,-665 408.5,-677 408.5,-677 408.5,-683 402.5,-689 396.5,-689"/>
<text text-anchor="middle" x="350.5" y="-674" font-family="sans" font-size="10.00" fill="#000000">bam_markdups_sort</text>
<text text-anchor="middle" x="350.5" y="-663" font-family="sans" font-size="10.00" fill="#000000">aligner: bwa</text>
</g>
<!-- 27&#45;&gt;9 -->
<g id="edge32" class="edge">
<title>27&#45;&gt;9</title>
<path fill="none" stroke="#c0c0c0" stroke-width="2" d="M350.7523,-652.8314C350.8593,-645.131 350.9865,-635.9743 351.1053,-627.4166"/>
<polygon fill="#c0c0c0" stroke="#c0c0c0" stroke-width="2" points="354.6049,-627.4609 351.2443,-617.4133 347.6056,-627.3637 354.6049,-627.4609"/>
</g>
<!-- 28 -->
<g id="node29" class="node">
<title>28</title>
<path fill="none" stroke="#d8b456" stroke-width="2" d="M664.5,-689C664.5,-689 572.5,-689 572.5,-689 566.5,-689 560.5,-683 560.5,-677 560.5,-677 560.5,-665 560.5,-665 560.5,-659 566.5,-653 572.5,-653 572.5,-653 664.5,-653 664.5,-653 670.5,-653 676.5,-659 676.5,-665 676.5,-665 676.5,-677 676.5,-677 676.5,-683 670.5,-689 664.5,-689"/>
<text text-anchor="middle" x="618.5" y="-674" font-family="sans" font-size="10.00" fill="#000000">bam_markdups_sort</text>
<text text-anchor="middle" x="618.5" y="-663" font-family="sans" font-size="10.00" fill="#000000">aligner: bwa</text>
</g>
<!-- 28&#45;&gt;10 -->
<g id="edge33" class="edge">
<title>28&#45;&gt;10</title>
<path fill="none" stroke="#c0c0c0" stroke-width="2" d="M631.8741,-652.8314C637.9162,-644.6232 645.1763,-634.7606 651.8221,-625.7323"/>
<polygon fill="#c0c0c0" stroke="#c0c0c0" stroke-width="2" points="654.8363,-627.5415 657.9458,-617.4133 649.1989,-623.3918 654.8363,-627.5415"/>
</g>
<!-- 29 -->
<g id="node30" class="node">
<title>29</title>
<path fill="none" stroke="#56d8a9" stroke-width="2" d="M848.5,-401C848.5,-401 774.5,-401 774.5,-401 768.5,-401 762.5,-395 762.5,-389 762.5,-389 762.5,-372 762.5,-372 762.5,-366 768.5,-360 774.5,-360 774.5,-360 848.5,-360 848.5,-360 854.5,-360 860.5,-366 860.5,-372 860.5,-372 860.5,-389 860.5,-389 860.5,-395 854.5,-401 848.5,-401"/>
<text text-anchor="middle" x="811.5" y="-389" font-family="sans" font-size="10.00" fill="#000000">bcffilter</text>
<text text-anchor="middle" x="811.5" y="-378" font-family="sans" font-size="10.00" fill="#000000">caller: freebayes</text>
<text text-anchor="middle" x="811.5" y="-367" font-family="sans" font-size="10.00" fill="#000000">filter: default</text>
</g>
<!-- 29&#45;&gt;17 -->
<g id="edge44" class="edge">
<title>29&#45;&gt;17</title>
<path fill="none" stroke="#c0c0c0" stroke-width="2" d="M811.8523,-359.8998C811.2106,-339.8283 807.5185,-309.3056 792.5,-288 780.727,-271.2985 761.9932,-258.8165 744.7435,-250.0846"/>
<polygon fill="#c0c0c0" stroke="#c0c0c0" stroke-width="2" points="745.8997,-246.7585 735.3666,-245.6164 742.8885,-253.0777 745.8997,-246.7585"/>
</g>
<!-- 31 -->
<g id="node32" class="node">
<title>31</title>
<path fill="none" stroke="#56d88a" stroke-width="2" d="M771.5,-324C771.5,-324 707.5,-324 707.5,-324 701.5,-324 695.5,-318 695.5,-312 695.5,-312 695.5,-300 695.5,-300 695.5,-294 701.5,-288 707.5,-288 707.5,-288 771.5,-288 771.5,-288 777.5,-288 783.5,-294 783.5,-300 783.5,-300 783.5,-312 783.5,-312 783.5,-318 777.5,-324 771.5,-324"/>
<text text-anchor="middle" x="739.5" y="-303.5" font-family="sans" font-size="10.00" fill="#000000">bcfmerge_fofn</text>
</g>
<!-- 29&#45;&gt;31 -->
<g id="edge62" class="edge">
<title>29&#45;&gt;31</title>
<path fill="none" stroke="#c0c0c0" stroke-width="2" d="M791.444,-359.7476C782.992,-351.0021 773.0707,-340.7363 764.1761,-331.5329"/>
<polygon fill="#c0c0c0" stroke="#c0c0c0" stroke-width="2" points="766.4672,-328.8671 757.001,-324.1087 761.4337,-333.7317 766.4672,-328.8671"/>
</g>
<!-- 30 -->
<g id="node31" class="node">
<title>30</title>
<path fill="none" stroke="#56d8a9" stroke-width="2" d="M708.5,-401C708.5,-401 634.5,-401 634.5,-401 628.5,-401 622.5,-395 622.5,-389 622.5,-389 622.5,-372 622.5,-372 622.5,-366 628.5,-360 634.5,-360 634.5,-360 708.5,-360 708.5,-360 714.5,-360 720.5,-366 720.5,-372 720.5,-372 720.5,-389 720.5,-389 720.5,-395 714.5,-401 708.5,-401"/>
<text text-anchor="middle" x="671.5" y="-389" font-family="sans" font-size="10.00" fill="#000000">bcffilter</text>
<text text-anchor="middle" x="671.5" y="-378" font-family="sans" font-size="10.00" fill="#000000">caller: freebayes</text>
<text text-anchor="middle" x="671.5" y="-367" font-family="sans" font-size="10.00" fill="#000000">filter: default</text>
</g>
<!-- 30&#45;&gt;17 -->
<g id="edge45" class="edge">
<title>30&#45;&gt;17</title>
<path fill="none" stroke="#c0c0c0" stroke-width="2" d="M673.9926,-359.758C676.4644,-340.8996 680.7181,-312.3777 686.5,-288 688.5318,-279.4334 691.2232,-270.2502 693.8638,-261.9308"/>
<polygon fill="#c0c0c0" stroke="#c0c0c0" stroke-width="2" points="697.2281,-262.9035 697.0118,-252.3108 690.5752,-260.7264 697.2281,-262.9035"/>
</g>
<!-- 30&#45;&gt;31 -->
<g id="edge63" class="edge">
<title>30&#45;&gt;31</title>
<path fill="none" stroke="#c0c0c0" stroke-width="2" d="M690.4418,-359.7476C698.4242,-351.0021 707.7944,-340.7363 716.1948,-331.5329"/>
<polygon fill="#c0c0c0" stroke="#c0c0c0" stroke-width="2" points="718.8148,-333.8542 722.9713,-324.1087 713.6447,-329.1351 718.8148,-333.8542"/>
</g>
<!-- 31&#45;&gt;17 -->
<g id="edge46" class="edge">
<title>31&#45;&gt;17</title>
<path fill="none" stroke="#c0c0c0" stroke-width="2" d="M730.4157,-287.8314C726.4385,-279.8771 721.6845,-270.369 717.2861,-261.5723"/>
<polygon fill="#c0c0c0" stroke="#c0c0c0" stroke-width="2" points="720.3093,-259.7923 712.7066,-252.4133 714.0483,-262.9228 720.3093,-259.7923"/>
</g>
<!-- 32 -->
<g id="node33" class="node">
<title>32</title>
<path fill="none" stroke="#56d8a9" stroke-width="2" d="M1313.5,-401C1313.5,-401 1239.5,-401 1239.5,-401 1233.5,-401 1227.5,-395 1227.5,-389 1227.5,-389 1227.5,-372 1227.5,-372 1227.5,-366 1233.5,-360 1239.5,-360 1239.5,-360 1313.5,-360 1313.5,-360 1319.5,-360 1325.5,-366 1325.5,-372 1325.5,-372 1325.5,-389 1325.5,-389 1325.5,-395 1319.5,-401 1313.5,-401"/>
<text text-anchor="middle" x="1276.5" y="-389" font-family="sans" font-size="10.00" fill="#000000">bcffilter</text>
<text text-anchor="middle" x="1276.5" y="-378" font-family="sans" font-size="10.00" fill="#000000">caller: freebayes</text>
<text text-anchor="middle" x="1276.5" y="-367" font-family="sans" font-size="10.00" fill="#000000">filter: strict</text>
</g>
<!-- 32&#45;&gt;18 -->
<g id="edge47" class="edge">
<title>32&#45;&gt;18</title>
<path fill="none" stroke="#c0c0c0" stroke-width="2" d="M1285.9244,-359.8931C1290.4904,-349.3251 1295.7768,-336.1511 1299.5,-324 1305.7282,-303.6735 1310.6168,-280.1496 1313.8748,-262.2503"/>
<polygon fill="#c0c0c0" stroke="#c0c0c0" stroke-width="2" points="1317.3625,-262.6251 1315.6462,-252.1702 1310.4682,-261.4134 1317.3625,-262.6251"/>
</g>
<!-- 34 -->
<g id="node35" class="node">
<title>34</title>
<path fill="none" stroke="#56d88a" stroke-width="2" d="M1278.5,-324C1278.5,-324 1214.5,-324 1214.5,-324 1208.5,-324 1202.5,-318 1202.5,-312 1202.5,-312 1202.5,-300 1202.5,-300 1202.5,-294 1208.5,-288 1214.5,-288 1214.5,-288 1278.5,-288 1278.5,-288 1284.5,-288 1290.5,-294 1290.5,-300 1290.5,-300 1290.5,-312 1290.5,-312 1290.5,-318 1284.5,-324 1278.5,-324"/>
<text text-anchor="middle" x="1246.5" y="-303.5" font-family="sans" font-size="10.00" fill="#000000">bcfmerge_fofn</text>
</g>
<!-- 32&#45;&gt;34 -->
<g id="edge66" class="edge">
<title>32&#45;&gt;34</title>
<path fill="none" stroke="#c0c0c0" stroke-width="2" d="M1268.1433,-359.7476C1264.8682,-351.6143 1261.0635,-342.1661 1257.5659,-333.4804"/>
<polygon fill="#c0c0c0" stroke="#c0c0c0" stroke-width="2" points="1260.7742,-332.0774 1253.7921,-324.1087 1254.2808,-334.6922 1260.7742,-332.0774"/>
</g>
<!-- 33 -->
<g id="node34" class="node">
<title>33</title>
<path fill="none" stroke="#56d8a9" stroke-width="2" d="M1197.5,-401C1197.5,-401 1123.5,-401 1123.5,-401 1117.5,-401 1111.5,-395 1111.5,-389 1111.5,-389 1111.5,-372 1111.5,-372 1111.5,-366 1117.5,-360 1123.5,-360 1123.5,-360 1197.5,-360 1197.5,-360 1203.5,-360 1209.5,-366 1209.5,-372 1209.5,-372 1209.5,-389 1209.5,-389 1209.5,-395 1203.5,-401 1197.5,-401"/>
<text text-anchor="middle" x="1160.5" y="-389" font-family="sans" font-size="10.00" fill="#000000">bcffilter</text>
<text text-anchor="middle" x="1160.5" y="-378" font-family="sans" font-size="10.00" fill="#000000">caller: freebayes</text>
<text text-anchor="middle" x="1160.5" y="-367" font-family="sans" font-size="10.00" fill="#000000">filter: strict</text>
</g>
<!-- 33&#45;&gt;18 -->
<g id="edge48" class="edge">
<title>33&#45;&gt;18</title>
<path fill="none" stroke="#c0c0c0" stroke-width="2" d="M1163.0725,-359.6311C1166.6202,-339.0637 1174.8477,-307.9079 1193.5,-288 1215.643,-264.3664 1249.8844,-250.563 1276.9339,-242.8369"/>
<polygon fill="#c0c0c0" stroke="#c0c0c0" stroke-width="2" points="1278.1545,-246.1335 1286.9086,-240.1655 1276.3435,-239.3718 1278.1545,-246.1335"/>
</g>
<!-- 33&#45;&gt;34 -->
<g id="edge67" class="edge">
<title>33&#45;&gt;34</title>
<path fill="none" stroke="#c0c0c0" stroke-width="2" d="M1184.4558,-359.7476C1194.8541,-350.7398 1207.1143,-340.119 1217.9785,-330.7076"/>
<polygon fill="#c0c0c0" stroke="#c0c0c0" stroke-width="2" points="1220.3294,-333.3018 1225.596,-324.1087 1215.746,-328.0109 1220.3294,-333.3018"/>
</g>
<!-- 34&#45;&gt;18 -->
<g id="edge49" class="edge">
<title>34&#45;&gt;18</title>
<path fill="none" stroke="#c0c0c0" stroke-width="2" d="M1264.6686,-287.8314C1273.2152,-279.2848 1283.5557,-268.9443 1292.8802,-259.6198"/>
<polygon fill="#c0c0c0" stroke="#c0c0c0" stroke-width="2" points="1295.4905,-261.9592 1300.0867,-252.4133 1290.5408,-257.0095 1295.4905,-261.9592"/>
</g>
<!-- 35&#45;&gt;25 -->
<g id="edge56" class="edge">
<title>35&#45;&gt;25</title>
<path fill="none" stroke="#c0c0c0" stroke-width="2" d="M483.7523,-724.8314C483.8593,-717.131 483.9865,-707.9743 484.1053,-699.4166"/>
<polygon fill="#c0c0c0" stroke="#c0c0c0" stroke-width="2" points="487.6049,-699.4609 484.2443,-689.4133 480.6056,-699.3637 487.6049,-699.4609"/>
</g>
<!-- 36&#45;&gt;26 -->
<g id="edge57" class="edge">
<title>36&#45;&gt;26</title>
<path fill="none" stroke="#c0c0c0" stroke-width="2" d="M713.6218,-724.8314C719.5499,-716.6232 726.6729,-706.7606 733.1933,-697.7323"/>
<polygon fill="#c0c0c0" stroke="#c0c0c0" stroke-width="2" points="736.184,-699.5693 739.2015,-689.4133 730.5092,-695.4708 736.184,-699.5693"/>
</g>
<!-- 37&#45;&gt;27 -->
<g id="edge58" class="edge">
<title>37&#45;&gt;27</title>
<path fill="none" stroke="#c0c0c0" stroke-width="2" d="M378.1633,-724.8314C374.0757,-716.8771 369.1896,-707.369 364.6691,-698.5723"/>
<polygon fill="#c0c0c0" stroke="#c0c0c0" stroke-width="2" points="367.6461,-696.7078 359.9624,-689.4133 361.4201,-699.9074 367.6461,-696.7078"/>
</g>
<!-- 38&#45;&gt;28 -->
<g id="edge59" class="edge">
<title>38&#45;&gt;28</title>
<path fill="none" stroke="#c0c0c0" stroke-width="2" d="M587.846,-724.8314C592.4237,-716.7925 597.9052,-707.1666 602.9588,-698.2918"/>
<polygon fill="#c0c0c0" stroke="#c0c0c0" stroke-width="2" points="606.1077,-699.8351 608.0147,-689.4133 600.0248,-696.3712 606.1077,-699.8351"/>
</g>
<!-- 39&#45;&gt;29 -->
<g id="edge60" class="edge">
<title>39&#45;&gt;29</title>
<path fill="none" stroke="#c0c0c0" stroke-width="2" d="M920.6416,-436.9656C902.524,-427.5923 880.0855,-415.9835 860.2745,-405.734"/>
<polygon fill="#c0c0c0" stroke="#c0c0c0" stroke-width="2" points="861.872,-402.6199 851.382,-401.1334 858.6554,-408.8371 861.872,-402.6199"/>
</g>
<!-- 39&#45;&gt;32 -->
<g id="edge64" class="edge">
<title>39&#45;&gt;32</title>
<path fill="none" stroke="#c0c0c0" stroke-width="2" d="M1059.9624,-436.966C1105.8797,-428.2173 1160.5047,-416.6981 1217.3915,-401.1511"/>
<polygon fill="#c0c0c0" stroke="#c0c0c0" stroke-width="2" points="1218.582,-404.4532 1227.2858,-398.4121 1216.7145,-397.7069 1218.582,-404.4532"/>
</g>
<!-- 40&#45;&gt;30 -->
<g id="edge61" class="edge">
<title>40&#45;&gt;30</title>
<path fill="none" stroke="#c0c0c0" stroke-width="2" d="M671.5,-436.9656C671.5,-429.3118 671.5,-420.1674 671.5,-411.4898"/>
<polygon fill="#c0c0c0" stroke="#c0c0c0" stroke-width="2" points="675.0001,-411.2678 671.5,-401.2679 668.0001,-411.2679 675.0001,-411.2678"/>
</g>
<!-- 40&#45;&gt;33 -->
<g id="edge65" class="edge">
<title>40&#45;&gt;33</title>
<path fill="none" stroke="#c0c0c0" stroke-width="2" d="M789.8733,-436.9656C888.3398,-421.9641 1024.3893,-401.2367 1101.2966,-389.5197"/>
<polygon fill="#c0c0c0" stroke="#c0c0c0" stroke-width="2" points="1101.9304,-392.9637 1111.2891,-387.9974 1100.876,-386.0435 1101.9304,-392.9637"/>
</g>
<!-- 41 -->
<g id="node42" class="node">
<title>41</title>
<path fill="none" stroke="#ced856" stroke-width="2" stroke-dasharray="5,2" d="M603,-835.5C603,-835.5 492,-835.5 492,-835.5 486,-835.5 480,-829.5 480,-823.5 480,-823.5 480,-811.5 480,-811.5 480,-805.5 486,-799.5 492,-799.5 492,-799.5 603,-799.5 603,-799.5 609,-799.5 615,-805.5 615,-811.5 615,-811.5 615,-823.5 615,-823.5 615,-829.5 609,-835.5 603,-835.5"/>
<text text-anchor="middle" x="547.5" y="-815" font-family="sans" font-size="10.00" fill="#000000">align_prepare_reference</text>
</g>
<!-- 41&#45;&gt;35 -->
<g id="edge68" class="edge">
<title>41&#45;&gt;35</title>
<path fill="none" stroke="#c0c0c0" stroke-width="2" d="M532.0074,-799.4656C524.1259,-790.2911 514.4047,-778.975 505.7394,-768.8881"/>
<polygon fill="#c0c0c0" stroke="#c0c0c0" stroke-width="2" points="508.243,-766.4312 499.0718,-761.1265 502.9332,-770.9926 508.243,-766.4312"/>
</g>
<!-- 41&#45;&gt;36 -->
<g id="edge70" class="edge">
<title>41&#45;&gt;36</title>
<path fill="none" stroke="#c0c0c0" stroke-width="2" d="M584.537,-799.4656C605.4308,-789.2919 631.7328,-776.4847 654.0035,-765.6405"/>
<polygon fill="#c0c0c0" stroke="#c0c0c0" stroke-width="2" points="655.8152,-768.6512 663.2737,-761.1265 652.7507,-762.3577 655.8152,-768.6512"/>
</g>
<!-- 41&#45;&gt;37 -->
<g id="edge72" class="edge">
<title>41&#45;&gt;37</title>
<path fill="none" stroke="#c0c0c0" stroke-width="2" d="M508.7685,-799.4656C486.4788,-789.087 458.3033,-775.9678 434.7219,-764.9877"/>
<polygon fill="#c0c0c0" stroke="#c0c0c0" stroke-width="2" points="436.1414,-761.7879 425.5985,-760.7396 433.1865,-768.1337 436.1414,-761.7879"/>
</g>
<!-- 41&#45;&gt;38 -->
<g id="edge74" class="edge">
<title>41&#45;&gt;38</title>
<path fill="none" stroke="#c0c0c0" stroke-width="2" d="M554.7622,-799.4656C558.2371,-790.8361 562.4751,-780.3119 566.3464,-770.6981"/>
<polygon fill="#c0c0c0" stroke="#c0c0c0" stroke-width="2" points="569.712,-771.7101 570.2007,-761.1265 563.2187,-769.0953 569.712,-771.7101"/>
</g>
</g>
</svg>
