<?xml version="1.0" encoding="UTF-8" standalone="no"?>
<!DOCTYPE svg PUBLIC "-//W3C//DTD SVG 1.1//EN"
 "http://www.w3.org/Graphics/SVG/1.1/DTD/svg11.dtd">
<!-- Generated by graphviz version 2.40.1 (20161225.0304)
 -->
<!-- Title: snakemake_dag Pages: 1 -->
<svg width="2541pt" height="1006pt"
 viewBox="0.00 0.00 2540.97 1006.00" xmlns="http://www.w3.org/2000/svg" xmlns:xlink="http://www.w3.org/1999/xlink">
<g id="graph0" class="graph" transform="scale(1 1) rotate(0) translate(4 1002)">
<title>snakemake_dag</title>
<polygon fill="#ffffff" stroke="transparent" points="-4,4 -4,-1002 2536.9714,-1002 2536.9714,4 -4,4"/>
<!-- 0 -->
<g id="node1" class="node">
<title>0</title>
<path fill="none" stroke="#d6d856" stroke-width="2" d="M1492.9714,-36C1492.9714,-36 1462.9714,-36 1462.9714,-36 1456.9714,-36 1450.9714,-30 1450.9714,-24 1450.9714,-24 1450.9714,-12 1450.9714,-12 1450.9714,-6 1456.9714,0 1462.9714,0 1462.9714,0 1492.9714,0 1492.9714,0 1498.9714,0 1504.9714,-6 1504.9714,-12 1504.9714,-12 1504.9714,-24 1504.9714,-24 1504.9714,-30 1498.9714,-36 1492.9714,-36"/>
<text text-anchor="middle" x="1477.9714" y="-15.5" font-family="sans" font-size="10.00" fill="#000000">all</text>
</g>
<!-- 1 -->
<g id="node2" class="node">
<title>1</title>
<path fill="none" stroke="#567bd8" stroke-width="2" d="M1206.4714,-180C1206.4714,-180 821.4714,-180 821.4714,-180 815.4714,-180 809.4714,-174 809.4714,-168 809.4714,-168 809.4714,-156 809.4714,-156 809.4714,-150 815.4714,-144 821.4714,-144 821.4714,-144 1206.4714,-144 1206.4714,-144 1212.4714,-144 1218.4714,-150 1218.4714,-156 1218.4714,-156 1218.4714,-168 1218.4714,-168 1218.4714,-174 1212.4714,-180 1206.4714,-180"/>
<text text-anchor="middle" x="1013.9714" y="-165" font-family="sans" font-size="10.00" fill="#000000">bcf2vcf</text>
<text text-anchor="middle" x="1013.9714" y="-154" font-family="sans" font-size="10.00" fill="#000000">path: data/variants/final/freebayes~bwa~genome~all_samples~filtered&#45;default</text>
</g>
<!-- 1&#45;&gt;0 -->
<g id="edge1" class="edge">
<title>1&#45;&gt;0</title>
<path fill="none" stroke="#c0c0c0" stroke-width="2" d="M1187.6938,-143.9707C1300.878,-131.5685 1429.4823,-115.9521 1439.9714,-108 1459.4223,-93.2537 1469.0131,-66.6445 1473.6827,-46.1705"/>
<polygon fill="#c0c0c0" stroke="#c0c0c0" stroke-width="2" points="1477.1639,-46.6119 1475.7022,-36.1184 1470.301,-45.2331 1477.1639,-46.6119"/>
</g>
<!-- 8 -->
<g id="node9" class="node">
<title>8</title>
<path fill="none" stroke="#d8a456" stroke-width="2" d="M1418.9714,-108C1418.9714,-108 1002.9714,-108 1002.9714,-108 996.9714,-108 990.9714,-102 990.9714,-96 990.9714,-96 990.9714,-84 990.9714,-84 990.9714,-78 996.9714,-72 1002.9714,-72 1002.9714,-72 1418.9714,-72 1418.9714,-72 1424.9714,-72 1430.9714,-78 1430.9714,-84 1430.9714,-84 1430.9714,-96 1430.9714,-96 1430.9714,-102 1424.9714,-108 1418.9714,-108"/>
<text text-anchor="middle" x="1210.9714" y="-93" font-family="sans" font-size="10.00" fill="#000000">variantidx</text>
<text text-anchor="middle" x="1210.9714" y="-82" font-family="sans" font-size="10.00" fill="#000000">path: data/variants/final/freebayes~bwa~genome~all_samples~filtered&#45;default.vcf.gz</text>
</g>
<!-- 1&#45;&gt;8 -->
<g id="edge40" class="edge">
<title>1&#45;&gt;8</title>
<path fill="none" stroke="#c0c0c0" stroke-width="2" d="M1063.4286,-143.9243C1090.2425,-134.1243 1123.5663,-121.945 1151.7561,-111.6422"/>
<polygon fill="#c0c0c0" stroke="#c0c0c0" stroke-width="2" points="1153.3031,-114.8033 1161.4939,-108.0831 1150.9001,-108.2286 1153.3031,-114.8033"/>
</g>
<!-- 2 -->
<g id="node3" class="node">
<title>2</title>
<path fill="none" stroke="#d8a456" stroke-width="2" d="M922.4714,-108C922.4714,-108 519.4714,-108 519.4714,-108 513.4714,-108 507.4714,-102 507.4714,-96 507.4714,-96 507.4714,-84 507.4714,-84 507.4714,-78 513.4714,-72 519.4714,-72 519.4714,-72 922.4714,-72 922.4714,-72 928.4714,-72 934.4714,-78 934.4714,-84 934.4714,-84 934.4714,-96 934.4714,-96 934.4714,-102 928.4714,-108 922.4714,-108"/>
<text text-anchor="middle" x="720.9714" y="-93" font-family="sans" font-size="10.00" fill="#000000">variantidx</text>
<text text-anchor="middle" x="720.9714" y="-82" font-family="sans" font-size="10.00" fill="#000000">path: data/variants/final/freebayes~bwa~genome~all_samples~filtered&#45;default.bcf</text>
</g>
<!-- 2&#45;&gt;0 -->
<g id="edge2" class="edge">
<title>2&#45;&gt;0</title>
<path fill="none" stroke="#c0c0c0" stroke-width="2" d="M910.5294,-71.9707C1090.1423,-54.8873 1346.1012,-30.5425 1440.8484,-21.5309"/>
<polygon fill="#c0c0c0" stroke="#c0c0c0" stroke-width="2" points="1441.188,-25.0144 1450.8117,-20.5832 1440.5252,-18.0459 1441.188,-25.0144"/>
</g>
<!-- 3 -->
<g id="node4" class="node">
<title>3</title>
<path fill="none" stroke="#566bd8" stroke-width="2" d="M2299.9714,-998C2299.9714,-998 2257.9714,-998 2257.9714,-998 2251.9714,-998 2245.9714,-992 2245.9714,-986 2245.9714,-986 2245.9714,-969 2245.9714,-969 2245.9714,-963 2251.9714,-957 2257.9714,-957 2257.9714,-957 2299.9714,-957 2299.9714,-957 2305.9714,-957 2311.9714,-963 2311.9714,-969 2311.9714,-969 2311.9714,-986 2311.9714,-986 2311.9714,-992 2305.9714,-998 2299.9714,-998"/>
<text text-anchor="middle" x="2278.9714" y="-986" font-family="sans" font-size="10.00" fill="#000000">qcreads_il</text>
<text text-anchor="middle" x="2278.9714" y="-975" font-family="sans" font-size="10.00" fill="#000000">lib: con</text>
<text text-anchor="middle" x="2278.9714" y="-964" font-family="sans" font-size="10.00" fill="#000000">run: run_2</text>
</g>
<!-- 3&#45;&gt;0 -->
<g id="edge3" class="edge">
<title>3&#45;&gt;0</title>
<path fill="none" stroke="#c0c0c0" stroke-width="2" d="M2312.074,-969.6496C2338.0448,-961.7425 2373.0312,-946.9064 2392.9714,-921 2420.0855,-885.7732 2412.9714,-867.4533 2412.9714,-823 2412.9714,-823 2412.9714,-823 2412.9714,-162 2412.9714,-118.9187 2411.9052,-97.2117 2376.9714,-72 2341.497,-46.3981 1680.7712,-24.2836 1515.3004,-19.1307"/>
<polygon fill="#c0c0c0" stroke="#c0c0c0" stroke-width="2" points="1515.2327,-15.627 1505.1292,-18.8159 1515.0161,-22.6237 1515.2327,-15.627"/>
</g>
<!-- 13 -->
<g id="node14" class="node">
<title>13</title>
<path fill="none" stroke="#70d856" stroke-width="2" d="M2372.4714,-921C2372.4714,-921 2319.4714,-921 2319.4714,-921 2313.4714,-921 2307.4714,-915 2307.4714,-909 2307.4714,-909 2307.4714,-897 2307.4714,-897 2307.4714,-891 2313.4714,-885 2319.4714,-885 2319.4714,-885 2372.4714,-885 2372.4714,-885 2378.4714,-885 2384.4714,-891 2384.4714,-897 2384.4714,-897 2384.4714,-909 2384.4714,-909 2384.4714,-915 2378.4714,-921 2372.4714,-921"/>
<text text-anchor="middle" x="2345.9714" y="-906" font-family="sans" font-size="10.00" fill="#000000">samplefastq</text>
<text text-anchor="middle" x="2345.9714" y="-895" font-family="sans" font-size="10.00" fill="#000000">sample: con</text>
</g>
<!-- 3&#45;&gt;13 -->
<g id="edge48" class="edge">
<title>3&#45;&gt;13</title>
<path fill="none" stroke="#c0c0c0" stroke-width="2" d="M2297.6347,-956.7476C2305.421,-948.0896 2314.5475,-937.9415 2322.7603,-928.8093"/>
<polygon fill="#c0c0c0" stroke="#c0c0c0" stroke-width="2" points="2325.6013,-930.8845 2329.6858,-921.1087 2320.3964,-926.2037 2325.6013,-930.8845"/>
</g>
<!-- 15 -->
<g id="node16" class="node">
<title>15</title>
<path fill="none" stroke="#56d89a" stroke-width="2" d="M2049.9714,-921C2049.9714,-921 1969.9714,-921 1969.9714,-921 1963.9714,-921 1957.9714,-915 1957.9714,-909 1957.9714,-909 1957.9714,-897 1957.9714,-897 1957.9714,-891 1963.9714,-885 1969.9714,-885 1969.9714,-885 2049.9714,-885 2049.9714,-885 2055.9714,-885 2061.9714,-891 2061.9714,-897 2061.9714,-897 2061.9714,-909 2061.9714,-909 2061.9714,-915 2055.9714,-921 2049.9714,-921"/>
<text text-anchor="middle" x="2009.9714" y="-900.5" font-family="sans" font-size="10.00" fill="#000000">read_count_librun</text>
</g>
<!-- 3&#45;&gt;15 -->
<g id="edge53" class="edge">
<title>3&#45;&gt;15</title>
<path fill="none" stroke="#c0c0c0" stroke-width="2" d="M2245.8984,-962.1389C2241.2742,-960.2671 2236.5411,-958.4923 2231.9714,-957 2165.2661,-935.2169 2143.7887,-938.9953 2072.1168,-921.1813"/>
<polygon fill="#c0c0c0" stroke="#c0c0c0" stroke-width="2" points="2072.705,-917.7195 2062.1509,-918.647 2070.9798,-924.5036 2072.705,-917.7195"/>
</g>
<!-- 47 -->
<g id="node48" class="node">
<title>47</title>
<path fill="none" stroke="#569ad8" stroke-width="2" d="M2238.9714,-921C2238.9714,-921 2186.9714,-921 2186.9714,-921 2180.9714,-921 2174.9714,-915 2174.9714,-909 2174.9714,-909 2174.9714,-897 2174.9714,-897 2174.9714,-891 2180.9714,-885 2186.9714,-885 2186.9714,-885 2238.9714,-885 2238.9714,-885 2244.9714,-885 2250.9714,-891 2250.9714,-897 2250.9714,-897 2250.9714,-909 2250.9714,-909 2250.9714,-915 2244.9714,-921 2238.9714,-921"/>
<text text-anchor="middle" x="2212.9714" y="-906" font-family="sans" font-size="10.00" fill="#000000">bwamem</text>
<text text-anchor="middle" x="2212.9714" y="-895" font-family="sans" font-size="10.00" fill="#000000">ref: genome</text>
</g>
<!-- 3&#45;&gt;47 -->
<g id="edge94" class="edge">
<title>3&#45;&gt;47</title>
<path fill="none" stroke="#c0c0c0" stroke-width="2" d="M2260.5867,-956.7476C2252.9166,-948.0896 2243.9263,-937.9415 2235.8361,-928.8093"/>
<polygon fill="#c0c0c0" stroke="#c0c0c0" stroke-width="2" points="2238.265,-926.2729 2229.014,-921.1087 2233.0254,-930.9148 2238.265,-926.2729"/>
</g>
<!-- 4 -->
<g id="node5" class="node">
<title>4</title>
<path fill="none" stroke="#70d856" stroke-width="2" d="M239.4714,-921C239.4714,-921 186.4714,-921 186.4714,-921 180.4714,-921 174.4714,-915 174.4714,-909 174.4714,-909 174.4714,-897 174.4714,-897 174.4714,-891 180.4714,-885 186.4714,-885 186.4714,-885 239.4714,-885 239.4714,-885 245.4714,-885 251.4714,-891 251.4714,-897 251.4714,-897 251.4714,-909 251.4714,-909 251.4714,-915 245.4714,-921 239.4714,-921"/>
<text text-anchor="middle" x="212.9714" y="-906" font-family="sans" font-size="10.00" fill="#000000">samplefastq</text>
<text text-anchor="middle" x="212.9714" y="-895" font-family="sans" font-size="10.00" fill="#000000">sample: D2</text>
</g>
<!-- 4&#45;&gt;0 -->
<g id="edge4" class="edge">
<title>4&#45;&gt;0</title>
<path fill="none" stroke="#c0c0c0" stroke-width="2" d="M187.506,-884.9416C176.1031,-875.5209 163.5461,-863.0353 155.9714,-849 133.2401,-806.8805 136.9714,-790.8619 136.9714,-743 136.9714,-743 136.9714,-743 136.9714,-162 136.9714,-106.6743 172.5803,-94.8403 222.9714,-72 279.8061,-46.2391 1238.3969,-23.3729 1440.6797,-18.821"/>
<polygon fill="#c0c0c0" stroke="#c0c0c0" stroke-width="2" points="1440.8828,-22.3174 1450.8019,-18.5943 1440.726,-15.3192 1440.8828,-22.3174"/>
</g>
<!-- 39 -->
<g id="node40" class="node">
<title>39</title>
<path fill="none" stroke="#56d8c9" stroke-width="2" d="M248.9714,-849C248.9714,-849 176.9714,-849 176.9714,-849 170.9714,-849 164.9714,-843 164.9714,-837 164.9714,-837 164.9714,-809 164.9714,-809 164.9714,-803 170.9714,-797 176.9714,-797 176.9714,-797 248.9714,-797 248.9714,-797 254.9714,-797 260.9714,-803 260.9714,-809 260.9714,-809 260.9714,-837 260.9714,-837 260.9714,-843 254.9714,-849 248.9714,-849"/>
<text text-anchor="middle" x="212.9714" y="-837" font-family="sans" font-size="10.00" fill="#000000">mashsketch</text>
<text text-anchor="middle" x="212.9714" y="-826" font-family="sans" font-size="10.00" fill="#000000">ksize: 21</text>
<text text-anchor="middle" x="212.9714" y="-815" font-family="sans" font-size="10.00" fill="#000000">set: all_samples</text>
<text text-anchor="middle" x="212.9714" y="-804" font-family="sans" font-size="10.00" fill="#000000">sketchsize: 1e5</text>
</g>
<!-- 4&#45;&gt;39 -->
<g id="edge81" class="edge">
<title>4&#45;&gt;39</title>
<path fill="none" stroke="#c0c0c0" stroke-width="2" d="M212.9714,-884.8468C212.9714,-877.2921 212.9714,-868.2376 212.9714,-859.4174"/>
<polygon fill="#c0c0c0" stroke="#c0c0c0" stroke-width="2" points="216.4715,-859.2746 212.9714,-849.2746 209.4715,-859.2747 216.4715,-859.2746"/>
</g>
<!-- 5 -->
<g id="node6" class="node">
<title>5</title>
<path fill="none" stroke="#70d856" stroke-width="2" d="M96.4714,-921C96.4714,-921 43.4714,-921 43.4714,-921 37.4714,-921 31.4714,-915 31.4714,-909 31.4714,-909 31.4714,-897 31.4714,-897 31.4714,-891 37.4714,-885 43.4714,-885 43.4714,-885 96.4714,-885 96.4714,-885 102.4714,-885 108.4714,-891 108.4714,-897 108.4714,-897 108.4714,-909 108.4714,-909 108.4714,-915 102.4714,-921 96.4714,-921"/>
<text text-anchor="middle" x="69.9714" y="-906" font-family="sans" font-size="10.00" fill="#000000">samplefastq</text>
<text text-anchor="middle" x="69.9714" y="-895" font-family="sans" font-size="10.00" fill="#000000">sample: D3</text>
</g>
<!-- 5&#45;&gt;0 -->
<g id="edge5" class="edge">
<title>5&#45;&gt;0</title>
<path fill="none" stroke="#c0c0c0" stroke-width="2" d="M68.2786,-884.7824C65.6715,-855.107 60.9714,-794.4701 60.9714,-743 60.9714,-743 60.9714,-743 60.9714,-162 60.9714,-120.6022 52.6382,-97.8522 84.9714,-72 139.4024,-28.4794 1223.823,-19.5574 1440.4909,-18.2068"/>
<polygon fill="#c0c0c0" stroke="#c0c0c0" stroke-width="2" points="1440.7346,-21.7055 1450.7131,-18.1448 1440.692,-14.7057 1440.7346,-21.7055"/>
</g>
<!-- 5&#45;&gt;39 -->
<g id="edge82" class="edge">
<title>5&#45;&gt;39</title>
<path fill="none" stroke="#c0c0c0" stroke-width="2" d="M102.4203,-884.8468C118.6372,-875.7744 138.7203,-864.5391 157.3017,-854.1439"/>
<polygon fill="#c0c0c0" stroke="#c0c0c0" stroke-width="2" points="159.261,-857.0583 166.2793,-849.1215 155.8433,-850.9493 159.261,-857.0583"/>
</g>
<!-- 6 -->
<g id="node7" class="node">
<title>6</title>
<path fill="none" stroke="#5692d8" stroke-width="2" d="M1582.4714,-252C1582.4714,-252 1543.4714,-252 1543.4714,-252 1537.4714,-252 1531.4714,-246 1531.4714,-240 1531.4714,-240 1531.4714,-228 1531.4714,-228 1531.4714,-222 1537.4714,-216 1543.4714,-216 1543.4714,-216 1582.4714,-216 1582.4714,-216 1588.4714,-216 1594.4714,-222 1594.4714,-228 1594.4714,-228 1594.4714,-240 1594.4714,-240 1594.4714,-246 1588.4714,-252 1582.4714,-252"/>
<text text-anchor="middle" x="1562.9714" y="-231.5" font-family="sans" font-size="10.00" fill="#000000">bcfmerge</text>
</g>
<!-- 6&#45;&gt;0 -->
<g id="edge6" class="edge">
<title>6&#45;&gt;0</title>
<path fill="none" stroke="#c0c0c0" stroke-width="2" d="M1594.4949,-226.1153C1617.6441,-218.493 1647.4802,-204.411 1661.9714,-180 1670.1388,-166.2416 1671.3268,-156.9799 1661.9714,-144 1632.3872,-102.954 1595.8545,-136.3867 1553.9714,-108 1529.3445,-91.3089 1508.165,-64.5253 1494.4671,-44.5092"/>
<polygon fill="#c0c0c0" stroke="#c0c0c0" stroke-width="2" points="1497.3421,-42.5116 1488.8906,-36.1223 1491.513,-46.3875 1497.3421,-42.5116"/>
</g>
<!-- 23 -->
<g id="node24" class="node">
<title>23</title>
<path fill="none" stroke="#567bd8" stroke-width="2" d="M2095.4714,-180C2095.4714,-180 1720.4714,-180 1720.4714,-180 1714.4714,-180 1708.4714,-174 1708.4714,-168 1708.4714,-168 1708.4714,-156 1708.4714,-156 1708.4714,-150 1714.4714,-144 1720.4714,-144 1720.4714,-144 2095.4714,-144 2095.4714,-144 2101.4714,-144 2107.4714,-150 2107.4714,-156 2107.4714,-156 2107.4714,-168 2107.4714,-168 2107.4714,-174 2101.4714,-180 2095.4714,-180"/>
<text text-anchor="middle" x="1907.9714" y="-165" font-family="sans" font-size="10.00" fill="#000000">bcf2vcf</text>
<text text-anchor="middle" x="1907.9714" y="-154" font-family="sans" font-size="10.00" fill="#000000">path: data/variants/final/freebayes~bwa~genome~all_samples~filtered&#45;strict</text>
</g>
<!-- 6&#45;&gt;23 -->
<g id="edge66" class="edge">
<title>6&#45;&gt;23</title>
<path fill="none" stroke="#c0c0c0" stroke-width="2" d="M1594.5025,-227.4196C1643.1961,-217.2575 1738.6786,-197.3307 1811.5304,-182.1268"/>
<polygon fill="#c0c0c0" stroke="#c0c0c0" stroke-width="2" points="1812.5787,-185.4835 1821.6527,-180.0143 1811.1485,-178.6312 1812.5787,-185.4835"/>
</g>
<!-- 29 -->
<g id="node30" class="node">
<title>29</title>
<path fill="none" stroke="#d8a456" stroke-width="2" d="M1641.4714,-180C1641.4714,-180 1248.4714,-180 1248.4714,-180 1242.4714,-180 1236.4714,-174 1236.4714,-168 1236.4714,-168 1236.4714,-156 1236.4714,-156 1236.4714,-150 1242.4714,-144 1248.4714,-144 1248.4714,-144 1641.4714,-144 1641.4714,-144 1647.4714,-144 1653.4714,-150 1653.4714,-156 1653.4714,-156 1653.4714,-168 1653.4714,-168 1653.4714,-174 1647.4714,-180 1641.4714,-180"/>
<text text-anchor="middle" x="1444.9714" y="-165" font-family="sans" font-size="10.00" fill="#000000">variantidx</text>
<text text-anchor="middle" x="1444.9714" y="-154" font-family="sans" font-size="10.00" fill="#000000">path: data/variants/final/freebayes~bwa~genome~all_samples~filtered&#45;strict.bcf</text>
</g>
<!-- 6&#45;&gt;29 -->
<g id="edge69" class="edge">
<title>6&#45;&gt;29</title>
<path fill="none" stroke="#c0c0c0" stroke-width="2" d="M1533.195,-215.8314C1518.1021,-206.6221 1499.5957,-195.3301 1483.4371,-185.4706"/>
<polygon fill="#c0c0c0" stroke="#c0c0c0" stroke-width="2" points="1485.0977,-182.3838 1474.7383,-180.1628 1481.4516,-188.3593 1485.0977,-182.3838"/>
</g>
<!-- 7 -->
<g id="node8" class="node">
<title>7</title>
<path fill="none" stroke="#56c1d8" stroke-width="2" d="M2155.9714,-761C2155.9714,-761 2077.9714,-761 2077.9714,-761 2071.9714,-761 2065.9714,-755 2065.9714,-749 2065.9714,-749 2065.9714,-737 2065.9714,-737 2065.9714,-731 2071.9714,-725 2077.9714,-725 2077.9714,-725 2155.9714,-725 2155.9714,-725 2161.9714,-725 2167.9714,-731 2167.9714,-737 2167.9714,-737 2167.9714,-749 2167.9714,-749 2167.9714,-755 2161.9714,-761 2155.9714,-761"/>
<text text-anchor="middle" x="2116.9714" y="-746" font-family="sans" font-size="10.00" fill="#000000">mergebam_samp</text>
<text text-anchor="middle" x="2116.9714" y="-735" font-family="sans" font-size="10.00" fill="#000000">sample: con</text>
</g>
<!-- 7&#45;&gt;0 -->
<g id="edge7" class="edge">
<title>7&#45;&gt;0</title>
<path fill="none" stroke="#c0c0c0" stroke-width="2" d="M2155.9399,-724.9107C2198.5861,-702.1096 2260.9714,-658.5737 2260.9714,-599 2260.9714,-599 2260.9714,-599 2260.9714,-162 2260.9714,-118.9187 2259.7511,-97.4238 2224.9714,-72 2167.3031,-29.8447 1658.2109,-20.2717 1515.1935,-18.4058"/>
<polygon fill="#c0c0c0" stroke="#c0c0c0" stroke-width="2" points="1515.2002,-14.9058 1505.1571,-18.2799 1515.1123,-21.9052 1515.2002,-14.9058"/>
</g>
<!-- 11 -->
<g id="node12" class="node">
<title>11</title>
<path fill="none" stroke="#d8d356" stroke-width="2" d="M2220.4714,-545C2220.4714,-545 2149.4714,-545 2149.4714,-545 2143.4714,-545 2137.4714,-539 2137.4714,-533 2137.4714,-533 2137.4714,-521 2137.4714,-521 2137.4714,-515 2143.4714,-509 2149.4714,-509 2149.4714,-509 2220.4714,-509 2220.4714,-509 2226.4714,-509 2232.4714,-515 2232.4714,-521 2232.4714,-521 2232.4714,-533 2232.4714,-533 2232.4714,-539 2226.4714,-545 2220.4714,-545"/>
<text text-anchor="middle" x="2184.9714" y="-524.5" font-family="sans" font-size="10.00" fill="#000000">qualimap_samp</text>
</g>
<!-- 7&#45;&gt;11 -->
<g id="edge45" class="edge">
<title>7&#45;&gt;11</title>
<path fill="none" stroke="#c0c0c0" stroke-width="2" d="M2122.6521,-724.9555C2134.5271,-687.235 2162.047,-599.8188 2176.207,-554.8399"/>
<polygon fill="#c0c0c0" stroke="#c0c0c0" stroke-width="2" points="2179.5946,-555.7346 2179.2591,-545.1451 2172.9177,-553.6325 2179.5946,-555.7346"/>
</g>
<!-- 14 -->
<g id="node15" class="node">
<title>14</title>
<path fill="none" stroke="#ced856" stroke-width="2" d="M1568.9714,-689C1568.9714,-689 1460.9714,-689 1460.9714,-689 1454.9714,-689 1448.9714,-683 1448.9714,-677 1448.9714,-677 1448.9714,-665 1448.9714,-665 1448.9714,-659 1454.9714,-653 1460.9714,-653 1460.9714,-653 1568.9714,-653 1568.9714,-653 1574.9714,-653 1580.9714,-659 1580.9714,-665 1580.9714,-665 1580.9714,-677 1580.9714,-677 1580.9714,-683 1574.9714,-689 1568.9714,-689"/>
<text text-anchor="middle" x="1514.9714" y="-674" font-family="sans" font-size="10.00" fill="#000000">mergebam_set</text>
<text text-anchor="middle" x="1514.9714" y="-663" font-family="sans" font-size="10.00" fill="#000000">sampleset: all_samples</text>
</g>
<!-- 7&#45;&gt;14 -->
<g id="edge51" class="edge">
<title>7&#45;&gt;14</title>
<path fill="none" stroke="#c0c0c0" stroke-width="2" d="M2065.9049,-736.8924C1960.0057,-724.2267 1715.9895,-695.042 1591.3129,-680.1305"/>
<polygon fill="#c0c0c0" stroke="#c0c0c0" stroke-width="2" points="1591.4316,-676.6199 1581.0867,-678.9075 1590.6003,-683.5703 1591.4316,-676.6199"/>
</g>
<!-- 16 -->
<g id="node17" class="node">
<title>16</title>
<path fill="none" stroke="#56d882" stroke-width="2" d="M626.9714,-689C626.9714,-689 518.9714,-689 518.9714,-689 512.9714,-689 506.9714,-683 506.9714,-677 506.9714,-677 506.9714,-665 506.9714,-665 506.9714,-659 512.9714,-653 518.9714,-653 518.9714,-653 626.9714,-653 626.9714,-653 632.9714,-653 638.9714,-659 638.9714,-665 638.9714,-665 638.9714,-677 638.9714,-677 638.9714,-683 632.9714,-689 626.9714,-689"/>
<text text-anchor="middle" x="572.9714" y="-674" font-family="sans" font-size="10.00" fill="#000000">bamlist</text>
<text text-anchor="middle" x="572.9714" y="-663" font-family="sans" font-size="10.00" fill="#000000">sampleset: all_samples</text>
</g>
<!-- 7&#45;&gt;16 -->
<g id="edge58" class="edge">
<title>7&#45;&gt;16</title>
<path fill="none" stroke="#c0c0c0" stroke-width="2" d="M2065.6168,-742.4816C1841.9421,-740.0155 950.8543,-727.9822 649.1399,-688.9619"/>
<polygon fill="#c0c0c0" stroke="#c0c0c0" stroke-width="2" points="649.4641,-685.4742 639.0892,-687.6219 648.5389,-692.4128 649.4641,-685.4742"/>
</g>
<!-- 36 -->
<g id="node37" class="node">
<title>36</title>
<path fill="none" stroke="#56d88a" stroke-width="2" d="M853.4714,-689C853.4714,-689 782.4714,-689 782.4714,-689 776.4714,-689 770.4714,-683 770.4714,-677 770.4714,-677 770.4714,-665 770.4714,-665 770.4714,-659 776.4714,-653 782.4714,-653 782.4714,-653 853.4714,-653 853.4714,-653 859.4714,-653 865.4714,-659 865.4714,-665 865.4714,-665 865.4714,-677 865.4714,-677 865.4714,-683 859.4714,-689 853.4714,-689"/>
<text text-anchor="middle" x="817.9714" y="-668.5" font-family="sans" font-size="10.00" fill="#000000">bamstat_samps</text>
</g>
<!-- 7&#45;&gt;36 -->
<g id="edge77" class="edge">
<title>7&#45;&gt;36</title>
<path fill="none" stroke="#c0c0c0" stroke-width="2" d="M2065.649,-740.1553C1859.661,-728.738 1093.5949,-686.2771 875.9668,-674.2145"/>
<polygon fill="#c0c0c0" stroke="#c0c0c0" stroke-width="2" points="875.899,-670.7055 865.7206,-673.6466 875.5115,-677.6948 875.899,-670.7055"/>
</g>
<!-- 8&#45;&gt;0 -->
<g id="edge8" class="edge">
<title>8&#45;&gt;0</title>
<path fill="none" stroke="#c0c0c0" stroke-width="2" d="M1278.0022,-71.9243C1329.6622,-57.9935 1399.1506,-39.2551 1441.1371,-27.9328"/>
<polygon fill="#c0c0c0" stroke="#c0c0c0" stroke-width="2" points="1442.1927,-31.2733 1450.9365,-25.2903 1440.3701,-24.5147 1442.1927,-31.2733"/>
</g>
<!-- 9 -->
<g id="node10" class="node">
<title>9</title>
<path fill="none" stroke="#56d8a9" stroke-width="2" d="M1529.9714,-617C1529.9714,-617 1499.9714,-617 1499.9714,-617 1493.9714,-617 1487.9714,-611 1487.9714,-605 1487.9714,-605 1487.9714,-593 1487.9714,-593 1487.9714,-587 1493.9714,-581 1499.9714,-581 1499.9714,-581 1529.9714,-581 1529.9714,-581 1535.9714,-581 1541.9714,-587 1541.9714,-593 1541.9714,-593 1541.9714,-605 1541.9714,-605 1541.9714,-611 1535.9714,-617 1529.9714,-617"/>
<text text-anchor="middle" x="1514.9714" y="-596.5" font-family="sans" font-size="10.00" fill="#000000">abra2</text>
</g>
<!-- 9&#45;&gt;0 -->
<g id="edge9" class="edge">
<title>9&#45;&gt;0</title>
<path fill="none" stroke="#c0c0c0" stroke-width="2" d="M1542.1512,-590.2241C1686.0048,-542.5092 2343.9253,-307.7552 2126.9714,-72 2085.4091,-26.8358 1647.4093,-19.4382 1515.4116,-18.233"/>
<polygon fill="#c0c0c0" stroke="#c0c0c0" stroke-width="2" points="1515.0496,-14.7299 1505.0204,-18.1454 1514.9905,-21.7297 1515.0496,-14.7299"/>
</g>
<!-- 45 -->
<g id="node46" class="node">
<title>45</title>
<path fill="none" stroke="#56d0d8" stroke-width="2" d="M1421.9714,-473C1421.9714,-473 1179.9714,-473 1179.9714,-473 1173.9714,-473 1167.9714,-467 1167.9714,-461 1167.9714,-461 1167.9714,-449 1167.9714,-449 1167.9714,-443 1173.9714,-437 1179.9714,-437 1179.9714,-437 1421.9714,-437 1421.9714,-437 1427.9714,-437 1433.9714,-443 1433.9714,-449 1433.9714,-449 1433.9714,-461 1433.9714,-461 1433.9714,-467 1427.9714,-473 1421.9714,-473"/>
<text text-anchor="middle" x="1300.9714" y="-458" font-family="sans" font-size="10.00" fill="#000000">freebayes</text>
<text text-anchor="middle" x="1300.9714" y="-447" font-family="sans" font-size="10.00" fill="#000000">region: Chr04_region1M_2M:000000001&#45;001000000</text>
</g>
<!-- 9&#45;&gt;45 -->
<g id="edge90" class="edge">
<title>9&#45;&gt;45</title>
<path fill="none" stroke="#c0c0c0" stroke-width="2" d="M1487.7074,-594.9923C1439.6771,-587.3793 1342.8851,-569.3826 1319.9714,-545 1304.5618,-528.6025 1300.3594,-502.9898 1299.6954,-483.2739"/>
<polygon fill="#c0c0c0" stroke="#c0c0c0" stroke-width="2" points="1303.1941,-483.0049 1299.6418,-473.0233 1296.1942,-483.0415 1303.1941,-483.0049"/>
</g>
<!-- 46 -->
<g id="node47" class="node">
<title>46</title>
<path fill="none" stroke="#56d0d8" stroke-width="2" d="M1705.9714,-473C1705.9714,-473 1463.9714,-473 1463.9714,-473 1457.9714,-473 1451.9714,-467 1451.9714,-461 1451.9714,-461 1451.9714,-449 1451.9714,-449 1451.9714,-443 1457.9714,-437 1463.9714,-437 1463.9714,-437 1705.9714,-437 1705.9714,-437 1711.9714,-437 1717.9714,-443 1717.9714,-449 1717.9714,-449 1717.9714,-461 1717.9714,-461 1717.9714,-467 1711.9714,-473 1705.9714,-473"/>
<text text-anchor="middle" x="1584.9714" y="-458" font-family="sans" font-size="10.00" fill="#000000">freebayes</text>
<text text-anchor="middle" x="1584.9714" y="-447" font-family="sans" font-size="10.00" fill="#000000">region: Chr02_region1M_2M:000000001&#45;001000000</text>
</g>
<!-- 9&#45;&gt;46 -->
<g id="edge92" class="edge">
<title>9&#45;&gt;46</title>
<path fill="none" stroke="#c0c0c0" stroke-width="2" d="M1537.5411,-580.948C1548.0515,-571.3569 1559.7925,-558.7236 1566.9714,-545 1576.9736,-525.8794 1581.4306,-501.8032 1583.4102,-483.3649"/>
<polygon fill="#c0c0c0" stroke="#c0c0c0" stroke-width="2" points="1586.9109,-483.5115 1584.3127,-473.2402 1579.9386,-482.89 1586.9109,-483.5115"/>
</g>
<!-- 51 -->
<g id="node52" class="node">
<title>51</title>
<path fill="none" stroke="#afd856" stroke-width="2" d="M1546.4714,-545C1546.4714,-545 1341.4714,-545 1341.4714,-545 1335.4714,-545 1329.4714,-539 1329.4714,-533 1329.4714,-533 1329.4714,-521 1329.4714,-521 1329.4714,-515 1335.4714,-509 1341.4714,-509 1341.4714,-509 1546.4714,-509 1546.4714,-509 1552.4714,-509 1558.4714,-515 1558.4714,-521 1558.4714,-521 1558.4714,-533 1558.4714,-533 1558.4714,-539 1552.4714,-545 1546.4714,-545"/>
<text text-anchor="middle" x="1443.9714" y="-530" font-family="sans" font-size="10.00" fill="#000000">bamidx</text>
<text text-anchor="middle" x="1443.9714" y="-519" font-family="sans" font-size="10.00" fill="#000000">path: data/abra/bwa~genome~all_samples</text>
</g>
<!-- 9&#45;&gt;51 -->
<g id="edge101" class="edge">
<title>9&#45;&gt;51</title>
<path fill="none" stroke="#c0c0c0" stroke-width="2" d="M1497.0551,-580.8314C1488.6272,-572.2848 1478.4304,-561.9443 1469.2354,-552.6198"/>
<polygon fill="#c0c0c0" stroke="#c0c0c0" stroke-width="2" points="1471.6425,-550.0761 1462.1289,-545.4133 1466.6583,-554.9912 1471.6425,-550.0761"/>
</g>
<!-- 10 -->
<g id="node11" class="node">
<title>10</title>
<path fill="none" stroke="#78d856" stroke-width="2" d="M607.9714,-617C607.9714,-617 561.9714,-617 561.9714,-617 555.9714,-617 549.9714,-611 549.9714,-605 549.9714,-605 549.9714,-593 549.9714,-593 549.9714,-587 555.9714,-581 561.9714,-581 561.9714,-581 607.9714,-581 607.9714,-581 613.9714,-581 619.9714,-587 619.9714,-593 619.9714,-593 619.9714,-605 619.9714,-605 619.9714,-611 613.9714,-617 607.9714,-617"/>
<text text-anchor="middle" x="584.9714" y="-596.5" font-family="sans" font-size="10.00" fill="#000000">align_stats</text>
</g>
<!-- 10&#45;&gt;0 -->
<g id="edge10" class="edge">
<title>10&#45;&gt;0</title>
<path fill="none" stroke="#c0c0c0" stroke-width="2" d="M549.7451,-582.8855C507.1141,-560.6792 440.9714,-516.3415 440.9714,-455 440.9714,-455 440.9714,-455 440.9714,-162 440.9714,-119.3959 439.7111,-97.3247 473.9714,-72 513.5633,-42.7344 1263.3499,-23.1071 1440.6302,-18.8635"/>
<polygon fill="#c0c0c0" stroke="#c0c0c0" stroke-width="2" points="1440.8531,-22.3593 1450.7672,-18.6227 1440.6869,-15.3612 1440.8531,-22.3593"/>
</g>
<!-- 11&#45;&gt;0 -->
<g id="edge11" class="edge">
<title>11&#45;&gt;0</title>
<path fill="none" stroke="#c0c0c0" stroke-width="2" d="M2192.845,-508.8912C2203.9755,-481.601 2222.9714,-428.059 2222.9714,-380.5 2222.9714,-380.5 2222.9714,-380.5 2222.9714,-162 2222.9714,-120.6022 2230.834,-98.4302 2198.9714,-72 2146.0659,-28.1145 1655.8398,-19.7949 1515.4029,-18.3074"/>
<polygon fill="#c0c0c0" stroke="#c0c0c0" stroke-width="2" points="1515.1876,-14.8052 1505.153,-18.2046 1515.1173,-21.8049 1515.1876,-14.8052"/>
</g>
<!-- 12 -->
<g id="node13" class="node">
<title>12</title>
<path fill="none" stroke="#d8a456" stroke-width="2" d="M2106.4714,-108C2106.4714,-108 1699.4714,-108 1699.4714,-108 1693.4714,-108 1687.4714,-102 1687.4714,-96 1687.4714,-96 1687.4714,-84 1687.4714,-84 1687.4714,-78 1693.4714,-72 1699.4714,-72 1699.4714,-72 2106.4714,-72 2106.4714,-72 2112.4714,-72 2118.4714,-78 2118.4714,-84 2118.4714,-84 2118.4714,-96 2118.4714,-96 2118.4714,-102 2112.4714,-108 2106.4714,-108"/>
<text text-anchor="middle" x="1902.9714" y="-93" font-family="sans" font-size="10.00" fill="#000000">variantidx</text>
<text text-anchor="middle" x="1902.9714" y="-82" font-family="sans" font-size="10.00" fill="#000000">path: data/variants/final/freebayes~bwa~genome~all_samples~filtered&#45;strict.vcf.gz</text>
</g>
<!-- 12&#45;&gt;0 -->
<g id="edge12" class="edge">
<title>12&#45;&gt;0</title>
<path fill="none" stroke="#c0c0c0" stroke-width="2" d="M1796.5485,-71.9707C1704.7393,-56.4171 1577.4004,-34.8444 1515.1856,-24.3045"/>
<polygon fill="#c0c0c0" stroke="#c0c0c0" stroke-width="2" points="1515.5054,-20.8089 1505.0613,-22.5893 1514.3362,-27.7106 1515.5054,-20.8089"/>
</g>
<!-- 13&#45;&gt;0 -->
<g id="edge13" class="edge">
<title>13&#45;&gt;0</title>
<path fill="none" stroke="#c0c0c0" stroke-width="2" d="M2351.4261,-884.9569C2359.8267,-855.5263 2374.9714,-795.2262 2374.9714,-743 2374.9714,-743 2374.9714,-743 2374.9714,-162 2374.9714,-120.6022 2383.0048,-98.2229 2350.9714,-72 2318.1668,-45.1458 1678.1081,-24.0465 1515.3579,-19.1009"/>
<polygon fill="#c0c0c0" stroke="#c0c0c0" stroke-width="2" points="1515.4406,-15.6019 1505.3396,-18.7986 1515.2294,-22.5987 1515.4406,-15.6019"/>
</g>
<!-- 13&#45;&gt;39 -->
<g id="edge80" class="edge">
<title>13&#45;&gt;39</title>
<path fill="none" stroke="#c0c0c0" stroke-width="2" d="M2307.2635,-893.2903C2292.5544,-890.026 2275.5834,-886.767 2259.9714,-885 1426.9155,-790.711 1208.9835,-924.0155 373.9714,-849 339.6413,-845.9159 301.5536,-839.8854 271.0454,-834.4082"/>
<polygon fill="#c0c0c0" stroke="#c0c0c0" stroke-width="2" points="271.4719,-830.9283 261.0061,-832.577 270.2157,-837.8147 271.4719,-830.9283"/>
</g>
<!-- 14&#45;&gt;0 -->
<g id="edge14" class="edge">
<title>14&#45;&gt;0</title>
<path fill="none" stroke="#c0c0c0" stroke-width="2" d="M1581.0472,-657.164C1750.078,-619.8787 2184.9714,-511.2445 2184.9714,-380.5 2184.9714,-380.5 2184.9714,-380.5 2184.9714,-162 2184.9714,-119.6937 2187.4088,-97.9185 2153.9714,-72 2103.2922,-32.7166 1649.3323,-21.187 1515.1577,-18.623"/>
<polygon fill="#c0c0c0" stroke="#c0c0c0" stroke-width="2" points="1515.038,-15.1203 1504.9748,-18.4341 1514.9081,-22.1191 1515.038,-15.1203"/>
</g>
<!-- 14&#45;&gt;9 -->
<g id="edge41" class="edge">
<title>14&#45;&gt;9</title>
<path fill="none" stroke="#c0c0c0" stroke-width="2" d="M1514.9714,-652.8314C1514.9714,-645.131 1514.9714,-635.9743 1514.9714,-627.4166"/>
<polygon fill="#c0c0c0" stroke="#c0c0c0" stroke-width="2" points="1518.4715,-627.4132 1514.9714,-617.4133 1511.4715,-627.4133 1518.4715,-627.4132"/>
</g>
<!-- 15&#45;&gt;0 -->
<g id="edge15" class="edge">
<title>15&#45;&gt;0</title>
<path fill="none" stroke="#c0c0c0" stroke-width="2" d="M2011.838,-884.8739C2015.2392,-861.2711 2024.624,-820.2884 2049.9714,-797 2093.1737,-757.307 2127.2702,-792.1731 2176.9714,-761 2253.3286,-713.1081 2298.9714,-689.1335 2298.9714,-599 2298.9714,-599 2298.9714,-599 2298.9714,-162 2298.9714,-117.2786 2291.1742,-96.8185 2253.9714,-72 2192.1155,-30.735 1662.3506,-20.5042 1515.5485,-18.4511"/>
<polygon fill="#c0c0c0" stroke="#c0c0c0" stroke-width="2" points="1515.3066,-14.9476 1505.2602,-18.312 1515.2119,-21.947 1515.3066,-14.9476"/>
</g>
<!-- 16&#45;&gt;0 -->
<g id="edge16" class="edge">
<title>16&#45;&gt;0</title>
<path fill="none" stroke="#c0c0c0" stroke-width="2" d="M522.4261,-652.9547C472.3147,-631.4388 402.9714,-590.2403 402.9714,-527 402.9714,-527 402.9714,-527 402.9714,-162 402.9714,-118.4059 406.1644,-96.8657 441.9714,-72 483.8076,-42.9474 1260.8505,-23.07 1440.9285,-18.8416"/>
<polygon fill="#c0c0c0" stroke="#c0c0c0" stroke-width="2" points="1441.0532,-22.3397 1450.9689,-18.6076 1440.8901,-15.3416 1441.0532,-22.3397"/>
</g>
<!-- 17 -->
<g id="node18" class="node">
<title>17</title>
<path fill="none" stroke="#d8b456" stroke-width="2" d="M223.9714,-473C223.9714,-473 185.9714,-473 185.9714,-473 179.9714,-473 173.9714,-467 173.9714,-461 173.9714,-461 173.9714,-449 173.9714,-449 173.9714,-443 179.9714,-437 185.9714,-437 185.9714,-437 223.9714,-437 223.9714,-437 229.9714,-437 235.9714,-443 235.9714,-449 235.9714,-449 235.9714,-461 235.9714,-461 235.9714,-467 229.9714,-473 223.9714,-473"/>
<text text-anchor="middle" x="204.9714" y="-452.5" font-family="sans" font-size="10.00" fill="#000000">mashdist</text>
</g>
<!-- 17&#45;&gt;0 -->
<g id="edge17" class="edge">
<title>17&#45;&gt;0</title>
<path fill="none" stroke="#c0c0c0" stroke-width="2" d="M208.0069,-436.7089C212.3899,-408.665 219.9714,-353.3178 219.9714,-306 219.9714,-306 219.9714,-306 219.9714,-162 219.9714,-118.5807 222.3272,-96.7936 257.9714,-72 307.6937,-37.4139 1240.9884,-21.543 1440.6007,-18.5367"/>
<polygon fill="#c0c0c0" stroke="#c0c0c0" stroke-width="2" points="1440.9167,-22.0324 1450.8634,-18.3837 1440.8123,-15.0332 1440.9167,-22.0324"/>
</g>
<!-- 18 -->
<g id="node19" class="node">
<title>18</title>
<path fill="none" stroke="#5663d8" stroke-width="2" d="M1618.4714,-108C1618.4714,-108 1575.4714,-108 1575.4714,-108 1569.4714,-108 1563.4714,-102 1563.4714,-96 1563.4714,-96 1563.4714,-84 1563.4714,-84 1563.4714,-78 1569.4714,-72 1575.4714,-72 1575.4714,-72 1618.4714,-72 1618.4714,-72 1624.4714,-72 1630.4714,-78 1630.4714,-84 1630.4714,-84 1630.4714,-96 1630.4714,-96 1630.4714,-102 1624.4714,-108 1618.4714,-108"/>
<text text-anchor="middle" x="1596.9714" y="-87.5" font-family="sans" font-size="10.00" fill="#000000">plot_quals</text>
</g>
<!-- 18&#45;&gt;0 -->
<g id="edge18" class="edge">
<title>18&#45;&gt;0</title>
<path fill="none" stroke="#c0c0c0" stroke-width="2" d="M1566.9427,-71.8314C1550.7601,-62.0402 1530.6863,-49.8947 1513.7039,-39.6196"/>
<polygon fill="#c0c0c0" stroke="#c0c0c0" stroke-width="2" points="1515.5096,-36.6214 1505.1419,-34.4393 1511.8859,-42.6105 1515.5096,-36.6214"/>
</g>
<!-- 19 -->
<g id="node20" class="node">
<title>19</title>
<path fill="none" stroke="#56d86b" stroke-width="2" stroke-dasharray="5,2" d="M2516.4714,-180C2516.4714,-180 2467.4714,-180 2467.4714,-180 2461.4714,-180 2455.4714,-174 2455.4714,-168 2455.4714,-168 2455.4714,-156 2455.4714,-156 2455.4714,-150 2461.4714,-144 2467.4714,-144 2467.4714,-144 2516.4714,-144 2516.4714,-144 2522.4714,-144 2528.4714,-150 2528.4714,-156 2528.4714,-156 2528.4714,-168 2528.4714,-168 2528.4714,-174 2522.4714,-180 2516.4714,-180"/>
<text text-anchor="middle" x="2491.9714" y="-159.5" font-family="sans" font-size="10.00" fill="#000000">prepare_ref</text>
</g>
<!-- 19&#45;&gt;0 -->
<g id="edge19" class="edge">
<title>19&#45;&gt;0</title>
<path fill="none" stroke="#c0c0c0" stroke-width="2" d="M2484.6229,-143.6824C2474.9432,-122.2632 2455.7091,-87.7397 2426.9714,-72 2345.9785,-27.6402 1681.108,-19.57 1515.3143,-18.2423"/>
<polygon fill="#c0c0c0" stroke="#c0c0c0" stroke-width="2" points="1515.1535,-14.7411 1505.1269,-18.1643 1515.0998,-21.7409 1515.1535,-14.7411"/>
</g>
<!-- 26 -->
<g id="node27" class="node">
<title>26</title>
<path fill="none" stroke="#59d856" stroke-width="2" stroke-dasharray="5,2" d="M2520.9714,-108C2520.9714,-108 2490.9714,-108 2490.9714,-108 2484.9714,-108 2478.9714,-102 2478.9714,-96 2478.9714,-96 2478.9714,-84 2478.9714,-84 2478.9714,-78 2484.9714,-72 2490.9714,-72 2490.9714,-72 2520.9714,-72 2520.9714,-72 2526.9714,-72 2532.9714,-78 2532.9714,-84 2532.9714,-84 2532.9714,-96 2532.9714,-96 2532.9714,-102 2526.9714,-108 2520.9714,-108"/>
<text text-anchor="middle" x="2505.9714" y="-87.5" font-family="sans" font-size="10.00" fill="#000000">contigs</text>
</g>
<!-- 19&#45;&gt;26 -->
<g id="edge67" class="edge">
<title>19&#45;&gt;26</title>
<path fill="none" stroke="#c0c0c0" stroke-width="2" d="M2495.5042,-143.8314C2497.0015,-136.131 2498.782,-126.9743 2500.446,-118.4166"/>
<polygon fill="#c0c0c0" stroke="#c0c0c0" stroke-width="2" points="2503.9179,-118.8975 2502.3911,-108.4133 2497.0466,-117.5614 2503.9179,-118.8975"/>
</g>
<!-- 20 -->
<g id="node21" class="node">
<title>20</title>
<path fill="none" stroke="#d8d356" stroke-width="2" d="M825.4714,-617C825.4714,-617 754.4714,-617 754.4714,-617 748.4714,-617 742.4714,-611 742.4714,-605 742.4714,-605 742.4714,-593 742.4714,-593 742.4714,-587 748.4714,-581 754.4714,-581 754.4714,-581 825.4714,-581 825.4714,-581 831.4714,-581 837.4714,-587 837.4714,-593 837.4714,-593 837.4714,-605 837.4714,-605 837.4714,-611 831.4714,-617 825.4714,-617"/>
<text text-anchor="middle" x="789.9714" y="-596.5" font-family="sans" font-size="10.00" fill="#000000">qualimap_samp</text>
</g>
<!-- 20&#45;&gt;0 -->
<g id="edge20" class="edge">
<title>20&#45;&gt;0</title>
<path fill="none" stroke="#c0c0c0" stroke-width="2" d="M742.3987,-587.4741C655.2783,-564.9696 478.9714,-512.3431 478.9714,-455 478.9714,-455 478.9714,-455 478.9714,-162 478.9714,-121.1184 466.9389,-98.6137 497.9714,-72 534.3956,-40.7624 1265.6459,-22.685 1440.6033,-18.7966"/>
<polygon fill="#c0c0c0" stroke="#c0c0c0" stroke-width="2" points="1440.929,-22.2903 1450.8495,-18.571 1440.7749,-15.292 1440.929,-22.2903"/>
</g>
<!-- 21 -->
<g id="node22" class="node">
<title>21</title>
<path fill="none" stroke="#56c1d8" stroke-width="2" d="M743.9714,-761C743.9714,-761 665.9714,-761 665.9714,-761 659.9714,-761 653.9714,-755 653.9714,-749 653.9714,-749 653.9714,-737 653.9714,-737 653.9714,-731 659.9714,-725 665.9714,-725 665.9714,-725 743.9714,-725 743.9714,-725 749.9714,-725 755.9714,-731 755.9714,-737 755.9714,-737 755.9714,-749 755.9714,-749 755.9714,-755 749.9714,-761 743.9714,-761"/>
<text text-anchor="middle" x="704.9714" y="-746" font-family="sans" font-size="10.00" fill="#000000">mergebam_samp</text>
<text text-anchor="middle" x="704.9714" y="-735" font-family="sans" font-size="10.00" fill="#000000">sample: D2</text>
</g>
<!-- 21&#45;&gt;0 -->
<g id="edge21" class="edge">
<title>21&#45;&gt;0</title>
<path fill="none" stroke="#c0c0c0" stroke-width="2" d="M653.7976,-737.5626C568.1448,-728.0006 403.1883,-707.4375 383.9714,-689 354.4717,-660.6967 364.9714,-639.8816 364.9714,-599 364.9714,-599 364.9714,-599 364.9714,-162 364.9714,-117.8588 370.3486,-96.6418 406.9714,-72 450.7253,-42.5601 1256.2279,-22.9274 1440.5969,-18.8077"/>
<polygon fill="#c0c0c0" stroke="#c0c0c0" stroke-width="2" points="1440.9447,-22.3009 1450.8646,-18.58 1440.7895,-15.3026 1440.9447,-22.3009"/>
</g>
<!-- 21&#45;&gt;14 -->
<g id="edge49" class="edge">
<title>21&#45;&gt;14</title>
<path fill="none" stroke="#c0c0c0" stroke-width="2" d="M756.255,-738.4415C894.466,-726.156 1275.2602,-692.3077 1438.7613,-677.7742"/>
<polygon fill="#c0c0c0" stroke="#c0c0c0" stroke-width="2" points="1439.0903,-681.2589 1448.7411,-676.8871 1438.4705,-674.2864 1439.0903,-681.2589"/>
</g>
<!-- 21&#45;&gt;16 -->
<g id="edge56" class="edge">
<title>21&#45;&gt;16</title>
<path fill="none" stroke="#c0c0c0" stroke-width="2" d="M671.6622,-724.8314C654.5441,-715.4942 633.5008,-704.016 615.2493,-694.0606"/>
<polygon fill="#c0c0c0" stroke="#c0c0c0" stroke-width="2" points="616.7249,-690.8788 606.2699,-689.1628 613.3729,-697.024 616.7249,-690.8788"/>
</g>
<!-- 21&#45;&gt;20 -->
<g id="edge61" class="edge">
<title>21&#45;&gt;20</title>
<path fill="none" stroke="#c0c0c0" stroke-width="2" d="M756.1288,-733.5093C800.5276,-724.1089 859.8477,-708.3401 873.9714,-689 883.4076,-676.0787 881.6384,-667.0434 873.9714,-653 867.0859,-640.388 855.8539,-630.2822 843.8116,-622.3817"/>
<polygon fill="#c0c0c0" stroke="#c0c0c0" stroke-width="2" points="845.317,-619.2016 834.9503,-617.0145 841.6904,-625.189 845.317,-619.2016"/>
</g>
<!-- 38 -->
<g id="node39" class="node">
<title>38</title>
<path fill="none" stroke="#56d88a" stroke-width="2" d="M740.4714,-689C740.4714,-689 669.4714,-689 669.4714,-689 663.4714,-689 657.4714,-683 657.4714,-677 657.4714,-677 657.4714,-665 657.4714,-665 657.4714,-659 663.4714,-653 669.4714,-653 669.4714,-653 740.4714,-653 740.4714,-653 746.4714,-653 752.4714,-659 752.4714,-665 752.4714,-665 752.4714,-677 752.4714,-677 752.4714,-683 746.4714,-689 740.4714,-689"/>
<text text-anchor="middle" x="704.9714" y="-668.5" font-family="sans" font-size="10.00" fill="#000000">bamstat_samps</text>
</g>
<!-- 21&#45;&gt;38 -->
<g id="edge79" class="edge">
<title>21&#45;&gt;38</title>
<path fill="none" stroke="#c0c0c0" stroke-width="2" d="M704.9714,-724.8314C704.9714,-717.131 704.9714,-707.9743 704.9714,-699.4166"/>
<polygon fill="#c0c0c0" stroke="#c0c0c0" stroke-width="2" points="708.4715,-699.4132 704.9714,-689.4133 701.4715,-699.4133 708.4715,-699.4132"/>
</g>
<!-- 22 -->
<g id="node23" class="node">
<title>22</title>
<path fill="none" stroke="#5692d8" stroke-width="2" d="M1033.4714,-252C1033.4714,-252 994.4714,-252 994.4714,-252 988.4714,-252 982.4714,-246 982.4714,-240 982.4714,-240 982.4714,-228 982.4714,-228 982.4714,-222 988.4714,-216 994.4714,-216 994.4714,-216 1033.4714,-216 1033.4714,-216 1039.4714,-216 1045.4714,-222 1045.4714,-228 1045.4714,-228 1045.4714,-240 1045.4714,-240 1045.4714,-246 1039.4714,-252 1033.4714,-252"/>
<text text-anchor="middle" x="1013.9714" y="-231.5" font-family="sans" font-size="10.00" fill="#000000">bcfmerge</text>
</g>
<!-- 22&#45;&gt;0 -->
<g id="edge22" class="edge">
<title>22&#45;&gt;0</title>
<path fill="none" stroke="#c0c0c0" stroke-width="2" d="M982.2156,-232.209C911.2951,-227.0319 750.044,-208.0544 799.9714,-144 840.2622,-92.309 885.3313,-139.1918 942.9714,-108 963.7176,-96.7732 960.4997,-81.7678 981.9714,-72 1063.9279,-34.7169 1339.8739,-22.3759 1440.6905,-19.0543"/>
<polygon fill="#c0c0c0" stroke="#c0c0c0" stroke-width="2" points="1440.8362,-22.5515 1450.7196,-18.7348 1440.6132,-15.5551 1440.8362,-22.5515"/>
</g>
<!-- 22&#45;&gt;1 -->
<g id="edge31" class="edge">
<title>22&#45;&gt;1</title>
<path fill="none" stroke="#c0c0c0" stroke-width="2" d="M1013.9714,-215.8314C1013.9714,-208.131 1013.9714,-198.9743 1013.9714,-190.4166"/>
<polygon fill="#c0c0c0" stroke="#c0c0c0" stroke-width="2" points="1017.4715,-190.4132 1013.9714,-180.4133 1010.4715,-190.4133 1017.4715,-190.4132"/>
</g>
<!-- 22&#45;&gt;2 -->
<g id="edge32" class="edge">
<title>22&#45;&gt;2</title>
<path fill="none" stroke="#c0c0c0" stroke-width="2" d="M982.095,-230.4422C923.2326,-223.3303 800.4311,-205.7954 766.9714,-180 746.9986,-164.6021 734.9534,-138.1276 728.2296,-117.8663"/>
<polygon fill="#c0c0c0" stroke="#c0c0c0" stroke-width="2" points="731.5463,-116.7441 725.2647,-108.2123 724.8548,-118.7992 731.5463,-116.7441"/>
</g>
<!-- 23&#45;&gt;0 -->
<g id="edge23" class="edge">
<title>23&#45;&gt;0</title>
<path fill="none" stroke="#c0c0c0" stroke-width="2" d="M1779.3199,-143.998C1745.0971,-135.9929 1709.0372,-124.4909 1677.9714,-108 1657.136,-96.9398 1659.2702,-84.0169 1638.9714,-72 1599.6567,-48.7257 1548.9425,-33.8414 1515.0367,-25.7182"/>
<polygon fill="#c0c0c0" stroke="#c0c0c0" stroke-width="2" points="1515.617,-22.26 1505.0851,-23.4124 1514.037,-29.0793 1515.617,-22.26"/>
</g>
<!-- 23&#45;&gt;12 -->
<g id="edge46" class="edge">
<title>23&#45;&gt;12</title>
<path fill="none" stroke="#c0c0c0" stroke-width="2" d="M1906.7097,-143.8314C1906.175,-136.131 1905.5391,-126.9743 1904.9448,-118.4166"/>
<polygon fill="#c0c0c0" stroke="#c0c0c0" stroke-width="2" points="1908.4346,-118.1467 1904.2501,-108.4133 1901.4514,-118.6317 1908.4346,-118.1467"/>
</g>
<!-- 23&#45;&gt;18 -->
<g id="edge60" class="edge">
<title>23&#45;&gt;18</title>
<path fill="none" stroke="#c0c0c0" stroke-width="2" d="M1801.1572,-143.9921C1753.0094,-134.8736 1695.6946,-122.6208 1644.9714,-108 1643.5016,-107.5763 1642.0127,-107.1284 1640.5141,-106.6614"/>
<polygon fill="#c0c0c0" stroke="#c0c0c0" stroke-width="2" points="1641.1715,-103.1916 1630.578,-103.3571 1638.9625,-109.834 1641.1715,-103.1916"/>
</g>
<!-- 24 -->
<g id="node25" class="node">
<title>24</title>
<path fill="none" stroke="#566bd8" stroke-width="2" d="M292.9714,-998C292.9714,-998 250.9714,-998 250.9714,-998 244.9714,-998 238.9714,-992 238.9714,-986 238.9714,-986 238.9714,-969 238.9714,-969 238.9714,-963 244.9714,-957 250.9714,-957 250.9714,-957 292.9714,-957 292.9714,-957 298.9714,-957 304.9714,-963 304.9714,-969 304.9714,-969 304.9714,-986 304.9714,-986 304.9714,-992 298.9714,-998 292.9714,-998"/>
<text text-anchor="middle" x="271.9714" y="-986" font-family="sans" font-size="10.00" fill="#000000">qcreads_il</text>
<text text-anchor="middle" x="271.9714" y="-975" font-family="sans" font-size="10.00" fill="#000000">lib: D3</text>
<text text-anchor="middle" x="271.9714" y="-964" font-family="sans" font-size="10.00" fill="#000000">run: run_1</text>
</g>
<!-- 24&#45;&gt;0 -->
<g id="edge24" class="edge">
<title>24&#45;&gt;0</title>
<path fill="none" stroke="#c0c0c0" stroke-width="2" d="M238.9601,-974.471C178.1209,-968.2003 51.7865,-951.7467 21.9714,-921 -8.9142,-889.1492 2.9714,-867.3666 2.9714,-823 2.9714,-823 2.9714,-823 2.9714,-162 2.9714,-115.1222 17.5279,-95.7035 57.9714,-72 119.3254,-36.0411 1222.4101,-21.0477 1440.64,-18.4271"/>
<polygon fill="#c0c0c0" stroke="#c0c0c0" stroke-width="2" points="1440.9689,-21.9236 1450.9266,-18.3049 1440.8857,-14.924 1440.9689,-21.9236"/>
</g>
<!-- 24&#45;&gt;5 -->
<g id="edge34" class="edge">
<title>24&#45;&gt;5</title>
<path fill="none" stroke="#c0c0c0" stroke-width="2" d="M238.6152,-965.1978C205.8011,-953.0956 155.3567,-934.4911 118.1828,-920.7809"/>
<polygon fill="#c0c0c0" stroke="#c0c0c0" stroke-width="2" points="119.1504,-917.4074 108.557,-917.2308 116.7281,-923.975 119.1504,-917.4074"/>
</g>
<!-- 24&#45;&gt;15 -->
<g id="edge55" class="edge">
<title>24&#45;&gt;15</title>
<path fill="none" stroke="#c0c0c0" stroke-width="2" d="M305.2963,-965.4054C315.9179,-962.0662 327.8116,-958.8538 338.9714,-957 499.6579,-930.3071 1663.3474,-908.9064 1947.5062,-904.0406"/>
<polygon fill="#c0c0c0" stroke="#c0c0c0" stroke-width="2" points="1947.6957,-907.5379 1957.6345,-903.8678 1947.5762,-900.539 1947.6957,-907.5379"/>
</g>
<!-- 50 -->
<g id="node51" class="node">
<title>50</title>
<path fill="none" stroke="#569ad8" stroke-width="2" d="M466.9714,-921C466.9714,-921 414.9714,-921 414.9714,-921 408.9714,-921 402.9714,-915 402.9714,-909 402.9714,-909 402.9714,-897 402.9714,-897 402.9714,-891 408.9714,-885 414.9714,-885 414.9714,-885 466.9714,-885 466.9714,-885 472.9714,-885 478.9714,-891 478.9714,-897 478.9714,-897 478.9714,-909 478.9714,-909 478.9714,-915 472.9714,-921 466.9714,-921"/>
<text text-anchor="middle" x="440.9714" y="-906" font-family="sans" font-size="10.00" fill="#000000">bwamem</text>
<text text-anchor="middle" x="440.9714" y="-895" font-family="sans" font-size="10.00" fill="#000000">ref: genome</text>
</g>
<!-- 24&#45;&gt;50 -->
<g id="edge100" class="edge">
<title>24&#45;&gt;50</title>
<path fill="none" stroke="#c0c0c0" stroke-width="2" d="M305.3604,-962.7812C330.5965,-951.6564 365.575,-936.2369 393.6864,-923.8446"/>
<polygon fill="#c0c0c0" stroke="#c0c0c0" stroke-width="2" points="395.1941,-927.005 402.9326,-919.7686 392.3704,-920.5998 395.1941,-927.005"/>
</g>
<!-- 25 -->
<g id="node26" class="node">
<title>25</title>
<path fill="none" stroke="#566bd8" stroke-width="2" d="M2210.9714,-998C2210.9714,-998 2168.9714,-998 2168.9714,-998 2162.9714,-998 2156.9714,-992 2156.9714,-986 2156.9714,-986 2156.9714,-969 2156.9714,-969 2156.9714,-963 2162.9714,-957 2168.9714,-957 2168.9714,-957 2210.9714,-957 2210.9714,-957 2216.9714,-957 2222.9714,-963 2222.9714,-969 2222.9714,-969 2222.9714,-986 2222.9714,-986 2222.9714,-992 2216.9714,-998 2210.9714,-998"/>
<text text-anchor="middle" x="2189.9714" y="-986" font-family="sans" font-size="10.00" fill="#000000">qcreads_il</text>
<text text-anchor="middle" x="2189.9714" y="-975" font-family="sans" font-size="10.00" fill="#000000">lib: con</text>
<text text-anchor="middle" x="2189.9714" y="-964" font-family="sans" font-size="10.00" fill="#000000">run: run_1</text>
</g>
<!-- 25&#45;&gt;0 -->
<g id="edge25" class="edge">
<title>25&#45;&gt;0</title>
<path fill="none" stroke="#c0c0c0" stroke-width="2" d="M2218.3909,-956.788C2231.5945,-946.6186 2247.1674,-933.8163 2259.9714,-921 2289.0134,-891.9301 2300.9261,-886.3892 2317.9714,-849 2337.8253,-805.4502 2336.9714,-790.8619 2336.9714,-743 2336.9714,-743 2336.9714,-743 2336.9714,-162 2336.9714,-116.0242 2324.9005,-96.4603 2285.9714,-72 2220.1436,-30.6385 1664.8609,-20.4386 1515.0732,-18.4295"/>
<polygon fill="#c0c0c0" stroke="#c0c0c0" stroke-width="2" points="1515.0462,-14.9289 1505.0015,-18.2987 1514.9552,-21.9284 1515.0462,-14.9289"/>
</g>
<!-- 25&#45;&gt;13 -->
<g id="edge47" class="edge">
<title>25&#45;&gt;13</title>
<path fill="none" stroke="#c0c0c0" stroke-width="2" d="M2223.055,-961.7005C2245.1815,-951.1336 2274.6232,-937.0733 2299.1448,-925.3627"/>
<polygon fill="#c0c0c0" stroke="#c0c0c0" stroke-width="2" points="2300.7611,-928.4695 2308.2766,-921.0017 2297.7444,-922.1529 2300.7611,-928.4695"/>
</g>
<!-- 25&#45;&gt;15 -->
<g id="edge52" class="edge">
<title>25&#45;&gt;15</title>
<path fill="none" stroke="#c0c0c0" stroke-width="2" d="M2156.9566,-963.8356C2130.7643,-952.9948 2093.633,-937.6266 2063.2447,-925.0492"/>
<polygon fill="#c0c0c0" stroke="#c0c0c0" stroke-width="2" points="2064.2161,-921.6634 2053.6377,-921.073 2061.5391,-928.1313 2064.2161,-921.6634"/>
</g>
<!-- 48 -->
<g id="node49" class="node">
<title>48</title>
<path fill="none" stroke="#569ad8" stroke-width="2" d="M2143.9714,-921C2143.9714,-921 2091.9714,-921 2091.9714,-921 2085.9714,-921 2079.9714,-915 2079.9714,-909 2079.9714,-909 2079.9714,-897 2079.9714,-897 2079.9714,-891 2085.9714,-885 2091.9714,-885 2091.9714,-885 2143.9714,-885 2143.9714,-885 2149.9714,-885 2155.9714,-891 2155.9714,-897 2155.9714,-897 2155.9714,-909 2155.9714,-909 2155.9714,-915 2149.9714,-921 2143.9714,-921"/>
<text text-anchor="middle" x="2117.9714" y="-906" font-family="sans" font-size="10.00" fill="#000000">bwamem</text>
<text text-anchor="middle" x="2117.9714" y="-895" font-family="sans" font-size="10.00" fill="#000000">ref: genome</text>
</g>
<!-- 25&#45;&gt;48 -->
<g id="edge96" class="edge">
<title>25&#45;&gt;48</title>
<path fill="none" stroke="#c0c0c0" stroke-width="2" d="M2169.9154,-956.7476C2161.4634,-948.0021 2151.5421,-937.7363 2142.6475,-928.5329"/>
<polygon fill="#c0c0c0" stroke="#c0c0c0" stroke-width="2" points="2144.9386,-925.8671 2135.4724,-921.1087 2139.9051,-930.7317 2144.9386,-925.8671"/>
</g>
<!-- 26&#45;&gt;0 -->
<g id="edge26" class="edge">
<title>26&#45;&gt;0</title>
<path fill="none" stroke="#c0c0c0" stroke-width="2" d="M2478.6508,-76.4061C2474.1709,-74.646 2469.5084,-73.0823 2464.9714,-72 2279.5612,-27.7705 1672.72,-19.6398 1515.4614,-18.2628"/>
<polygon fill="#c0c0c0" stroke="#c0c0c0" stroke-width="2" points="1515.3729,-14.7621 1505.344,-18.1783 1515.3143,-21.7618 1515.3729,-14.7621"/>
</g>
<!-- 27 -->
<g id="node28" class="node">
<title>27</title>
<path fill="none" stroke="#d8d356" stroke-width="2" d="M286.4714,-545C286.4714,-545 215.4714,-545 215.4714,-545 209.4714,-545 203.4714,-539 203.4714,-533 203.4714,-533 203.4714,-521 203.4714,-521 203.4714,-515 209.4714,-509 215.4714,-509 215.4714,-509 286.4714,-509 286.4714,-509 292.4714,-509 298.4714,-515 298.4714,-521 298.4714,-521 298.4714,-533 298.4714,-533 298.4714,-539 292.4714,-545 286.4714,-545"/>
<text text-anchor="middle" x="250.9714" y="-524.5" font-family="sans" font-size="10.00" fill="#000000">qualimap_samp</text>
</g>
<!-- 27&#45;&gt;0 -->
<g id="edge27" class="edge">
<title>27&#45;&gt;0</title>
<path fill="none" stroke="#c0c0c0" stroke-width="2" d="M255.3226,-508.6201C261.4737,-480.984 271.9714,-427.0061 271.9714,-380.5 271.9714,-380.5 271.9714,-380.5 271.9714,-162 271.9714,-118.0449 276.5658,-96.6309 312.9714,-72 360.7273,-39.6899 1246.1042,-22.1211 1440.4605,-18.6445"/>
<polygon fill="#c0c0c0" stroke="#c0c0c0" stroke-width="2" points="1440.7961,-22.1392 1450.7325,-18.4624 1440.672,-15.1403 1440.7961,-22.1392"/>
</g>
<!-- 28 -->
<g id="node29" class="node">
<title>28</title>
<path fill="none" stroke="#566bd8" stroke-width="2" d="M401.9714,-998C401.9714,-998 359.9714,-998 359.9714,-998 353.9714,-998 347.9714,-992 347.9714,-986 347.9714,-986 347.9714,-969 347.9714,-969 347.9714,-963 353.9714,-957 359.9714,-957 359.9714,-957 401.9714,-957 401.9714,-957 407.9714,-957 413.9714,-963 413.9714,-969 413.9714,-969 413.9714,-986 413.9714,-986 413.9714,-992 407.9714,-998 401.9714,-998"/>
<text text-anchor="middle" x="380.9714" y="-986" font-family="sans" font-size="10.00" fill="#000000">qcreads_il</text>
<text text-anchor="middle" x="380.9714" y="-975" font-family="sans" font-size="10.00" fill="#000000">lib: D2</text>
<text text-anchor="middle" x="380.9714" y="-964" font-family="sans" font-size="10.00" fill="#000000">run: run_1</text>
</g>
<!-- 28&#45;&gt;0 -->
<g id="edge28" class="edge">
<title>28&#45;&gt;0</title>
<path fill="none" stroke="#c0c0c0" stroke-width="2" d="M347.6877,-966.8863C336.9637,-963.5821 325.0007,-960.0168 313.9714,-957 248.2576,-939.0255 217.0499,-964.9228 164.9714,-921 144.4604,-903.7011 98.9714,-745.5457 98.9714,-743 98.9714,-743 98.9714,-743 98.9714,-162 98.9714,-115.1222 113.5606,-95.7591 153.9714,-72 210.896,-38.5318 1231.0036,-21.6566 1440.5388,-18.5354"/>
<polygon fill="#c0c0c0" stroke="#c0c0c0" stroke-width="2" points="1440.7767,-22.0324 1450.7239,-18.3851 1440.6733,-15.0332 1440.7767,-22.0324"/>
</g>
<!-- 28&#45;&gt;4 -->
<g id="edge33" class="edge">
<title>28&#45;&gt;4</title>
<path fill="none" stroke="#c0c0c0" stroke-width="2" d="M347.78,-962.7812C322.951,-951.7707 288.6352,-936.5533 260.8401,-924.2275"/>
<polygon fill="#c0c0c0" stroke="#c0c0c0" stroke-width="2" points="262.2474,-921.0229 251.687,-920.1685 259.4097,-927.4219 262.2474,-921.0229"/>
</g>
<!-- 28&#45;&gt;15 -->
<g id="edge54" class="edge">
<title>28&#45;&gt;15</title>
<path fill="none" stroke="#c0c0c0" stroke-width="2" d="M414.2495,-975.9781C616.2578,-966.7395 1678.3854,-918.1646 1947.7992,-905.8434"/>
<polygon fill="#c0c0c0" stroke="#c0c0c0" stroke-width="2" points="1947.9656,-909.3395 1957.7953,-905.3862 1947.6458,-902.3468 1947.9656,-909.3395"/>
</g>
<!-- 49 -->
<g id="node50" class="node">
<title>49</title>
<path fill="none" stroke="#569ad8" stroke-width="2" d="M730.9714,-921C730.9714,-921 678.9714,-921 678.9714,-921 672.9714,-921 666.9714,-915 666.9714,-909 666.9714,-909 666.9714,-897 666.9714,-897 666.9714,-891 672.9714,-885 678.9714,-885 678.9714,-885 730.9714,-885 730.9714,-885 736.9714,-885 742.9714,-891 742.9714,-897 742.9714,-897 742.9714,-909 742.9714,-909 742.9714,-915 736.9714,-921 730.9714,-921"/>
<text text-anchor="middle" x="704.9714" y="-906" font-family="sans" font-size="10.00" fill="#000000">bwamem</text>
<text text-anchor="middle" x="704.9714" y="-895" font-family="sans" font-size="10.00" fill="#000000">ref: genome</text>
</g>
<!-- 28&#45;&gt;49 -->
<g id="edge98" class="edge">
<title>28&#45;&gt;49</title>
<path fill="none" stroke="#c0c0c0" stroke-width="2" d="M414.1225,-969.8773C471.727,-956.6318 590.4986,-929.3217 657.0664,-914.0152"/>
<polygon fill="#c0c0c0" stroke="#c0c0c0" stroke-width="2" points="657.9287,-917.4083 666.8901,-911.7564 656.36,-910.5863 657.9287,-917.4083"/>
</g>
<!-- 29&#45;&gt;0 -->
<g id="edge29" class="edge">
<title>29&#45;&gt;0</title>
<path fill="none" stroke="#c0c0c0" stroke-width="2" d="M1456.8725,-143.8094C1462.8402,-133.6953 1469.5174,-120.6311 1472.9714,-108 1478.4664,-87.9049 1479.5985,-64.3717 1479.4193,-46.4102"/>
<polygon fill="#c0c0c0" stroke="#c0c0c0" stroke-width="2" points="1482.9154,-46.2003 1479.1756,-36.2875 1475.9174,-46.3689 1482.9154,-46.2003"/>
</g>
<!-- 30 -->
<g id="node31" class="node">
<title>30</title>
<path fill="none" stroke="#56c1d8" stroke-width="2" d="M479.9714,-761C479.9714,-761 401.9714,-761 401.9714,-761 395.9714,-761 389.9714,-755 389.9714,-749 389.9714,-749 389.9714,-737 389.9714,-737 389.9714,-731 395.9714,-725 401.9714,-725 401.9714,-725 479.9714,-725 479.9714,-725 485.9714,-725 491.9714,-731 491.9714,-737 491.9714,-737 491.9714,-749 491.9714,-749 491.9714,-755 485.9714,-761 479.9714,-761"/>
<text text-anchor="middle" x="440.9714" y="-746" font-family="sans" font-size="10.00" fill="#000000">mergebam_samp</text>
<text text-anchor="middle" x="440.9714" y="-735" font-family="sans" font-size="10.00" fill="#000000">sample: D3</text>
</g>
<!-- 30&#45;&gt;0 -->
<g id="edge30" class="edge">
<title>30&#45;&gt;0</title>
<path fill="none" stroke="#c0c0c0" stroke-width="2" d="M403.622,-724.8374C388.3487,-715.8477 371.5788,-703.7381 359.9714,-689 333.6112,-655.5299 326.9714,-641.6041 326.9714,-599 326.9714,-599 326.9714,-599 326.9714,-162 326.9714,-117.669 333.0585,-96.5494 369.9714,-72 415.4927,-41.7255 1252.1425,-22.6697 1440.517,-18.7521"/>
<polygon fill="#c0c0c0" stroke="#c0c0c0" stroke-width="2" points="1440.8185,-22.2467 1450.7441,-18.5411 1440.674,-15.2482 1440.8185,-22.2467"/>
</g>
<!-- 30&#45;&gt;14 -->
<g id="edge50" class="edge">
<title>30&#45;&gt;14</title>
<path fill="none" stroke="#c0c0c0" stroke-width="2" d="M492.082,-738.119C533.3255,-734.2699 592.8536,-728.9161 644.9714,-725 938.1623,-702.9698 1287.4279,-683.2758 1438.7846,-675.0607"/>
<polygon fill="#c0c0c0" stroke="#c0c0c0" stroke-width="2" points="1439.1052,-678.5486 1448.9012,-674.5127 1438.7265,-671.5588 1439.1052,-678.5486"/>
</g>
<!-- 30&#45;&gt;16 -->
<g id="edge57" class="edge">
<title>30&#45;&gt;16</title>
<path fill="none" stroke="#c0c0c0" stroke-width="2" d="M474.2806,-724.8314C491.3987,-715.4942 512.442,-704.016 530.6936,-694.0606"/>
<polygon fill="#c0c0c0" stroke="#c0c0c0" stroke-width="2" points="532.5699,-697.024 539.6729,-689.1628 529.2179,-690.8788 532.5699,-697.024"/>
</g>
<!-- 30&#45;&gt;27 -->
<g id="edge68" class="edge">
<title>30&#45;&gt;27</title>
<path fill="none" stroke="#c0c0c0" stroke-width="2" d="M389.9207,-731.6886C363.9464,-723.6267 333.5921,-710.3276 312.9714,-689 276.739,-651.5254 261.1586,-590.6651 254.8672,-555.1759"/>
<polygon fill="#c0c0c0" stroke="#c0c0c0" stroke-width="2" points="258.2754,-554.3308 253.2003,-545.0306 251.368,-555.4657 258.2754,-554.3308"/>
</g>
<!-- 37 -->
<g id="node38" class="node">
<title>37</title>
<path fill="none" stroke="#56d88a" stroke-width="2" d="M476.4714,-689C476.4714,-689 405.4714,-689 405.4714,-689 399.4714,-689 393.4714,-683 393.4714,-677 393.4714,-677 393.4714,-665 393.4714,-665 393.4714,-659 399.4714,-653 405.4714,-653 405.4714,-653 476.4714,-653 476.4714,-653 482.4714,-653 488.4714,-659 488.4714,-665 488.4714,-665 488.4714,-677 488.4714,-677 488.4714,-683 482.4714,-689 476.4714,-689"/>
<text text-anchor="middle" x="440.9714" y="-668.5" font-family="sans" font-size="10.00" fill="#000000">bamstat_samps</text>
</g>
<!-- 30&#45;&gt;37 -->
<g id="edge78" class="edge">
<title>30&#45;&gt;37</title>
<path fill="none" stroke="#c0c0c0" stroke-width="2" d="M440.9714,-724.8314C440.9714,-717.131 440.9714,-707.9743 440.9714,-699.4166"/>
<polygon fill="#c0c0c0" stroke="#c0c0c0" stroke-width="2" points="444.4715,-699.4132 440.9714,-689.4133 437.4715,-699.4133 444.4715,-699.4132"/>
</g>
<!-- 31 -->
<g id="node32" class="node">
<title>31</title>
<path fill="none" stroke="#80d856" stroke-width="2" d="M1491.9714,-401C1491.9714,-401 1417.9714,-401 1417.9714,-401 1411.9714,-401 1405.9714,-395 1405.9714,-389 1405.9714,-389 1405.9714,-372 1405.9714,-372 1405.9714,-366 1411.9714,-360 1417.9714,-360 1417.9714,-360 1491.9714,-360 1491.9714,-360 1497.9714,-360 1503.9714,-366 1503.9714,-372 1503.9714,-372 1503.9714,-389 1503.9714,-389 1503.9714,-395 1497.9714,-401 1491.9714,-401"/>
<text text-anchor="middle" x="1454.9714" y="-389" font-family="sans" font-size="10.00" fill="#000000">bcffilter</text>
<text text-anchor="middle" x="1454.9714" y="-378" font-family="sans" font-size="10.00" fill="#000000">caller: freebayes</text>
<text text-anchor="middle" x="1454.9714" y="-367" font-family="sans" font-size="10.00" fill="#000000">filter: strict</text>
</g>
<!-- 31&#45;&gt;6 -->
<g id="edge35" class="edge">
<title>31&#45;&gt;6</title>
<path fill="none" stroke="#c0c0c0" stroke-width="2" d="M1454.6191,-359.8998C1455.2608,-339.8283 1458.9529,-309.3056 1473.9714,-288 1485.7444,-271.2985 1504.4782,-258.8165 1521.7279,-250.0846"/>
<polygon fill="#c0c0c0" stroke="#c0c0c0" stroke-width="2" points="1523.583,-253.0777 1531.1048,-245.6164 1520.5717,-246.7585 1523.583,-253.0777"/>
</g>
<!-- 33 -->
<g id="node34" class="node">
<title>33</title>
<path fill="none" stroke="#a7d856" stroke-width="2" d="M1558.9714,-324C1558.9714,-324 1494.9714,-324 1494.9714,-324 1488.9714,-324 1482.9714,-318 1482.9714,-312 1482.9714,-312 1482.9714,-300 1482.9714,-300 1482.9714,-294 1488.9714,-288 1494.9714,-288 1494.9714,-288 1558.9714,-288 1558.9714,-288 1564.9714,-288 1570.9714,-294 1570.9714,-300 1570.9714,-300 1570.9714,-312 1570.9714,-312 1570.9714,-318 1564.9714,-324 1558.9714,-324"/>
<text text-anchor="middle" x="1526.9714" y="-303.5" font-family="sans" font-size="10.00" fill="#000000">bcfmerge_fofn</text>
</g>
<!-- 31&#45;&gt;33 -->
<g id="edge73" class="edge">
<title>31&#45;&gt;33</title>
<path fill="none" stroke="#c0c0c0" stroke-width="2" d="M1475.0274,-359.7476C1483.4794,-351.0021 1493.4008,-340.7363 1502.2953,-331.5329"/>
<polygon fill="#c0c0c0" stroke="#c0c0c0" stroke-width="2" points="1505.0378,-333.7317 1509.4704,-324.1087 1500.0043,-328.8671 1505.0378,-333.7317"/>
</g>
<!-- 32 -->
<g id="node33" class="node">
<title>32</title>
<path fill="none" stroke="#80d856" stroke-width="2" d="M1621.9714,-401C1621.9714,-401 1547.9714,-401 1547.9714,-401 1541.9714,-401 1535.9714,-395 1535.9714,-389 1535.9714,-389 1535.9714,-372 1535.9714,-372 1535.9714,-366 1541.9714,-360 1547.9714,-360 1547.9714,-360 1621.9714,-360 1621.9714,-360 1627.9714,-360 1633.9714,-366 1633.9714,-372 1633.9714,-372 1633.9714,-389 1633.9714,-389 1633.9714,-395 1627.9714,-401 1621.9714,-401"/>
<text text-anchor="middle" x="1584.9714" y="-389" font-family="sans" font-size="10.00" fill="#000000">bcffilter</text>
<text text-anchor="middle" x="1584.9714" y="-378" font-family="sans" font-size="10.00" fill="#000000">caller: freebayes</text>
<text text-anchor="middle" x="1584.9714" y="-367" font-family="sans" font-size="10.00" fill="#000000">filter: strict</text>
</g>
<!-- 32&#45;&gt;6 -->
<g id="edge36" class="edge">
<title>32&#45;&gt;6</title>
<path fill="none" stroke="#c0c0c0" stroke-width="2" d="M1585.3286,-359.7539C1585.3044,-340.8928 1584.3932,-312.3691 1579.9714,-288 1578.3995,-279.3372 1575.8462,-270.1251 1573.1908,-261.8088"/>
<polygon fill="#c0c0c0" stroke="#c0c0c0" stroke-width="2" points="1576.4662,-260.5681 1569.9602,-252.2061 1569.8316,-262.8002 1576.4662,-260.5681"/>
</g>
<!-- 32&#45;&gt;33 -->
<g id="edge74" class="edge">
<title>32&#45;&gt;33</title>
<path fill="none" stroke="#c0c0c0" stroke-width="2" d="M1568.8152,-359.7476C1562.1428,-351.177 1554.3337,-341.1463 1547.2803,-332.0864"/>
<polygon fill="#c0c0c0" stroke="#c0c0c0" stroke-width="2" points="1549.9743,-329.8493 1541.0694,-324.1087 1544.4508,-334.1494 1549.9743,-329.8493"/>
</g>
<!-- 33&#45;&gt;6 -->
<g id="edge37" class="edge">
<title>33&#45;&gt;6</title>
<path fill="none" stroke="#c0c0c0" stroke-width="2" d="M1536.0557,-287.8314C1540.0329,-279.8771 1544.7869,-270.369 1549.1853,-261.5723"/>
<polygon fill="#c0c0c0" stroke="#c0c0c0" stroke-width="2" points="1552.4231,-262.9228 1553.7648,-252.4133 1546.1621,-259.7923 1552.4231,-262.9228"/>
</g>
<!-- 34 -->
<g id="node35" class="node">
<title>34</title>
<path fill="none" stroke="#d88556" stroke-width="2" d="M2296.9714,-841C2296.9714,-841 2204.9714,-841 2204.9714,-841 2198.9714,-841 2192.9714,-835 2192.9714,-829 2192.9714,-829 2192.9714,-817 2192.9714,-817 2192.9714,-811 2198.9714,-805 2204.9714,-805 2204.9714,-805 2296.9714,-805 2296.9714,-805 2302.9714,-805 2308.9714,-811 2308.9714,-817 2308.9714,-817 2308.9714,-829 2308.9714,-829 2308.9714,-835 2302.9714,-841 2296.9714,-841"/>
<text text-anchor="middle" x="2250.9714" y="-826" font-family="sans" font-size="10.00" fill="#000000">bam_markdups_sort</text>
<text text-anchor="middle" x="2250.9714" y="-815" font-family="sans" font-size="10.00" fill="#000000">aligner: bwa</text>
</g>
<!-- 34&#45;&gt;7 -->
<g id="edge38" class="edge">
<title>34&#45;&gt;7</title>
<path fill="none" stroke="#c0c0c0" stroke-width="2" d="M2220.5647,-804.8468C2201.4617,-793.442 2176.6336,-778.6192 2156.0729,-766.3442"/>
<polygon fill="#c0c0c0" stroke="#c0c0c0" stroke-width="2" points="2157.6381,-763.2024 2147.2578,-761.0814 2154.0498,-769.2127 2157.6381,-763.2024"/>
</g>
<!-- 35 -->
<g id="node36" class="node">
<title>35</title>
<path fill="none" stroke="#d88556" stroke-width="2" d="M2162.9714,-841C2162.9714,-841 2070.9714,-841 2070.9714,-841 2064.9714,-841 2058.9714,-835 2058.9714,-829 2058.9714,-829 2058.9714,-817 2058.9714,-817 2058.9714,-811 2064.9714,-805 2070.9714,-805 2070.9714,-805 2162.9714,-805 2162.9714,-805 2168.9714,-805 2174.9714,-811 2174.9714,-817 2174.9714,-817 2174.9714,-829 2174.9714,-829 2174.9714,-835 2168.9714,-841 2162.9714,-841"/>
<text text-anchor="middle" x="2116.9714" y="-826" font-family="sans" font-size="10.00" fill="#000000">bam_markdups_sort</text>
<text text-anchor="middle" x="2116.9714" y="-815" font-family="sans" font-size="10.00" fill="#000000">aligner: bwa</text>
</g>
<!-- 35&#45;&gt;7 -->
<g id="edge39" class="edge">
<title>35&#45;&gt;7</title>
<path fill="none" stroke="#c0c0c0" stroke-width="2" d="M2116.9714,-804.8468C2116.9714,-794.9251 2116.9714,-782.4167 2116.9714,-771.2492"/>
<polygon fill="#c0c0c0" stroke="#c0c0c0" stroke-width="2" points="2120.4715,-771.0814 2116.9714,-761.0814 2113.4715,-771.0814 2120.4715,-771.0814"/>
</g>
<!-- 36&#45;&gt;10 -->
<g id="edge42" class="edge">
<title>36&#45;&gt;10</title>
<path fill="none" stroke="#c0c0c0" stroke-width="2" d="M770.3948,-655.9438C767.2066,-654.9448 764.0431,-653.9562 760.9714,-653 716.3404,-639.1064 665.2624,-623.4633 629.67,-612.6041"/>
<polygon fill="#c0c0c0" stroke="#c0c0c0" stroke-width="2" points="630.646,-609.2427 620.06,-609.6735 628.6042,-615.9383 630.646,-609.2427"/>
</g>
<!-- 37&#45;&gt;10 -->
<g id="edge43" class="edge">
<title>37&#45;&gt;10</title>
<path fill="none" stroke="#c0c0c0" stroke-width="2" d="M477.3087,-652.8314C496.5278,-643.2218 520.2825,-631.3445 540.5849,-621.1933"/>
<polygon fill="#c0c0c0" stroke="#c0c0c0" stroke-width="2" points="542.2623,-624.2677 549.6413,-616.665 539.1318,-618.0067 542.2623,-624.2677"/>
</g>
<!-- 38&#45;&gt;10 -->
<g id="edge44" class="edge">
<title>38&#45;&gt;10</title>
<path fill="none" stroke="#c0c0c0" stroke-width="2" d="M674.6903,-652.8314C659.3416,-643.6221 640.5216,-632.3301 624.0891,-622.4706"/>
<polygon fill="#c0c0c0" stroke="#c0c0c0" stroke-width="2" points="625.6185,-619.3066 615.2428,-617.1628 622.017,-625.3091 625.6185,-619.3066"/>
</g>
<!-- 39&#45;&gt;17 -->
<g id="edge59" class="edge">
<title>39&#45;&gt;17</title>
<path fill="none" stroke="#c0c0c0" stroke-width="2" d="M202.2852,-796.8619C191.0457,-766.9646 174.9714,-716.2897 174.9714,-671 174.9714,-671 174.9714,-671 174.9714,-599 174.9714,-558.0614 186.736,-511.926 195.5307,-483.1567"/>
<polygon fill="#c0c0c0" stroke="#c0c0c0" stroke-width="2" points="198.9425,-483.9746 198.6092,-473.385 192.266,-481.8712 198.9425,-483.9746"/>
</g>
<!-- 40 -->
<g id="node41" class="node">
<title>40</title>
<path fill="none" stroke="#d88556" stroke-width="2" d="M750.9714,-841C750.9714,-841 658.9714,-841 658.9714,-841 652.9714,-841 646.9714,-835 646.9714,-829 646.9714,-829 646.9714,-817 646.9714,-817 646.9714,-811 652.9714,-805 658.9714,-805 658.9714,-805 750.9714,-805 750.9714,-805 756.9714,-805 762.9714,-811 762.9714,-817 762.9714,-817 762.9714,-829 762.9714,-829 762.9714,-835 756.9714,-841 750.9714,-841"/>
<text text-anchor="middle" x="704.9714" y="-826" font-family="sans" font-size="10.00" fill="#000000">bam_markdups_sort</text>
<text text-anchor="middle" x="704.9714" y="-815" font-family="sans" font-size="10.00" fill="#000000">aligner: bwa</text>
</g>
<!-- 40&#45;&gt;21 -->
<g id="edge62" class="edge">
<title>40&#45;&gt;21</title>
<path fill="none" stroke="#c0c0c0" stroke-width="2" d="M704.9714,-804.8468C704.9714,-794.9251 704.9714,-782.4167 704.9714,-771.2492"/>
<polygon fill="#c0c0c0" stroke="#c0c0c0" stroke-width="2" points="708.4715,-771.0814 704.9714,-761.0814 701.4715,-771.0814 708.4715,-771.0814"/>
</g>
<!-- 41 -->
<g id="node42" class="node">
<title>41</title>
<path fill="none" stroke="#80d856" stroke-width="2" d="M1100.9714,-401C1100.9714,-401 1026.9714,-401 1026.9714,-401 1020.9714,-401 1014.9714,-395 1014.9714,-389 1014.9714,-389 1014.9714,-372 1014.9714,-372 1014.9714,-366 1020.9714,-360 1026.9714,-360 1026.9714,-360 1100.9714,-360 1100.9714,-360 1106.9714,-360 1112.9714,-366 1112.9714,-372 1112.9714,-372 1112.9714,-389 1112.9714,-389 1112.9714,-395 1106.9714,-401 1100.9714,-401"/>
<text text-anchor="middle" x="1063.9714" y="-389" font-family="sans" font-size="10.00" fill="#000000">bcffilter</text>
<text text-anchor="middle" x="1063.9714" y="-378" font-family="sans" font-size="10.00" fill="#000000">caller: freebayes</text>
<text text-anchor="middle" x="1063.9714" y="-367" font-family="sans" font-size="10.00" fill="#000000">filter: default</text>
</g>
<!-- 41&#45;&gt;22 -->
<g id="edge63" class="edge">
<title>41&#45;&gt;22</title>
<path fill="none" stroke="#c0c0c0" stroke-width="2" d="M1050.6586,-359.7382C1044.5045,-349.3508 1037.5597,-336.3795 1032.9714,-324 1025.502,-303.8471 1020.635,-280.0091 1017.6985,-261.9307"/>
<polygon fill="#c0c0c0" stroke="#c0c0c0" stroke-width="2" points="1021.1552,-261.3814 1016.1875,-252.0234 1014.2353,-262.4368 1021.1552,-261.3814"/>
</g>
<!-- 43 -->
<g id="node44" class="node">
<title>43</title>
<path fill="none" stroke="#a7d856" stroke-width="2" d="M1117.9714,-324C1117.9714,-324 1053.9714,-324 1053.9714,-324 1047.9714,-324 1041.9714,-318 1041.9714,-312 1041.9714,-312 1041.9714,-300 1041.9714,-300 1041.9714,-294 1047.9714,-288 1053.9714,-288 1053.9714,-288 1117.9714,-288 1117.9714,-288 1123.9714,-288 1129.9714,-294 1129.9714,-300 1129.9714,-300 1129.9714,-312 1129.9714,-312 1129.9714,-318 1123.9714,-324 1117.9714,-324"/>
<text text-anchor="middle" x="1085.9714" y="-303.5" font-family="sans" font-size="10.00" fill="#000000">bcfmerge_fofn</text>
</g>
<!-- 41&#45;&gt;43 -->
<g id="edge86" class="edge">
<title>41&#45;&gt;43</title>
<path fill="none" stroke="#c0c0c0" stroke-width="2" d="M1070.0996,-359.7476C1072.4756,-351.7018 1075.2315,-342.3691 1077.7736,-333.7608"/>
<polygon fill="#c0c0c0" stroke="#c0c0c0" stroke-width="2" points="1081.1484,-334.6905 1080.6239,-324.1087 1074.435,-332.708 1081.1484,-334.6905"/>
</g>
<!-- 42 -->
<g id="node43" class="node">
<title>42</title>
<path fill="none" stroke="#80d856" stroke-width="2" d="M1216.9714,-401C1216.9714,-401 1142.9714,-401 1142.9714,-401 1136.9714,-401 1130.9714,-395 1130.9714,-389 1130.9714,-389 1130.9714,-372 1130.9714,-372 1130.9714,-366 1136.9714,-360 1142.9714,-360 1142.9714,-360 1216.9714,-360 1216.9714,-360 1222.9714,-360 1228.9714,-366 1228.9714,-372 1228.9714,-372 1228.9714,-389 1228.9714,-389 1228.9714,-395 1222.9714,-401 1216.9714,-401"/>
<text text-anchor="middle" x="1179.9714" y="-389" font-family="sans" font-size="10.00" fill="#000000">bcffilter</text>
<text text-anchor="middle" x="1179.9714" y="-378" font-family="sans" font-size="10.00" fill="#000000">caller: freebayes</text>
<text text-anchor="middle" x="1179.9714" y="-367" font-family="sans" font-size="10.00" fill="#000000">filter: default</text>
</g>
<!-- 42&#45;&gt;22 -->
<g id="edge64" class="edge">
<title>42&#45;&gt;22</title>
<path fill="none" stroke="#c0c0c0" stroke-width="2" d="M1175.5241,-359.9621C1170.0998,-339.3577 1159.0632,-307.9031 1138.9714,-288 1116.1121,-265.3554 1082.2246,-251.5252 1055.498,-243.5378"/>
<polygon fill="#c0c0c0" stroke="#c0c0c0" stroke-width="2" points="1056.2181,-240.1043 1045.6433,-240.7564 1054.3166,-246.8412 1056.2181,-240.1043"/>
</g>
<!-- 42&#45;&gt;43 -->
<g id="edge87" class="edge">
<title>42&#45;&gt;43</title>
<path fill="none" stroke="#c0c0c0" stroke-width="2" d="M1154.0367,-359.9453C1142.5568,-350.8469 1128.9628,-340.073 1116.9536,-330.5551"/>
<polygon fill="#c0c0c0" stroke="#c0c0c0" stroke-width="2" points="1118.9493,-327.6708 1108.9382,-324.2024 1114.6013,-333.1567 1118.9493,-327.6708"/>
</g>
<!-- 43&#45;&gt;22 -->
<g id="edge65" class="edge">
<title>43&#45;&gt;22</title>
<path fill="none" stroke="#c0c0c0" stroke-width="2" d="M1067.8028,-287.8314C1059.2562,-279.2848 1048.9157,-268.9443 1039.5912,-259.6198"/>
<polygon fill="#c0c0c0" stroke="#c0c0c0" stroke-width="2" points="1041.9307,-257.0095 1032.3847,-252.4133 1036.9809,-261.9592 1041.9307,-257.0095"/>
</g>
<!-- 44 -->
<g id="node45" class="node">
<title>44</title>
<path fill="none" stroke="#d88556" stroke-width="2" d="M486.9714,-841C486.9714,-841 394.9714,-841 394.9714,-841 388.9714,-841 382.9714,-835 382.9714,-829 382.9714,-829 382.9714,-817 382.9714,-817 382.9714,-811 388.9714,-805 394.9714,-805 394.9714,-805 486.9714,-805 486.9714,-805 492.9714,-805 498.9714,-811 498.9714,-817 498.9714,-817 498.9714,-829 498.9714,-829 498.9714,-835 492.9714,-841 486.9714,-841"/>
<text text-anchor="middle" x="440.9714" y="-826" font-family="sans" font-size="10.00" fill="#000000">bam_markdups_sort</text>
<text text-anchor="middle" x="440.9714" y="-815" font-family="sans" font-size="10.00" fill="#000000">aligner: bwa</text>
</g>
<!-- 44&#45;&gt;30 -->
<g id="edge70" class="edge">
<title>44&#45;&gt;30</title>
<path fill="none" stroke="#c0c0c0" stroke-width="2" d="M440.9714,-804.8468C440.9714,-794.9251 440.9714,-782.4167 440.9714,-771.2492"/>
<polygon fill="#c0c0c0" stroke="#c0c0c0" stroke-width="2" points="444.4715,-771.0814 440.9714,-761.0814 437.4715,-771.0814 444.4715,-771.0814"/>
</g>
<!-- 45&#45;&gt;31 -->
<g id="edge71" class="edge">
<title>45&#45;&gt;31</title>
<path fill="none" stroke="#c0c0c0" stroke-width="2" d="M1338.2505,-436.9656C1357.7136,-427.55 1381.8393,-415.8789 1403.0959,-405.5956"/>
<polygon fill="#c0c0c0" stroke="#c0c0c0" stroke-width="2" points="1404.8421,-408.639 1412.3198,-401.1334 1401.7937,-402.3376 1404.8421,-408.639"/>
</g>
<!-- 45&#45;&gt;41 -->
<g id="edge84" class="edge">
<title>45&#45;&gt;41</title>
<path fill="none" stroke="#c0c0c0" stroke-width="2" d="M1238.6178,-436.9676C1206.4718,-427.4894 1166.4483,-415.4101 1122.9163,-401.2536"/>
<polygon fill="#c0c0c0" stroke="#c0c0c0" stroke-width="2" points="1123.8713,-397.8836 1113.2788,-398.104 1121.6968,-404.5373 1123.8713,-397.8836"/>
</g>
<!-- 46&#45;&gt;32 -->
<g id="edge72" class="edge">
<title>46&#45;&gt;32</title>
<path fill="none" stroke="#c0c0c0" stroke-width="2" d="M1584.9714,-436.9656C1584.9714,-429.3118 1584.9714,-420.1674 1584.9714,-411.4898"/>
<polygon fill="#c0c0c0" stroke="#c0c0c0" stroke-width="2" points="1588.4715,-411.2678 1584.9714,-401.2679 1581.4715,-411.2679 1588.4715,-411.2678"/>
</g>
<!-- 46&#45;&gt;42 -->
<g id="edge85" class="edge">
<title>46&#45;&gt;42</title>
<path fill="none" stroke="#c0c0c0" stroke-width="2" d="M1486.9322,-436.9656C1409.6013,-422.7406 1304.2824,-403.3671 1239.2783,-391.4095"/>
<polygon fill="#c0c0c0" stroke="#c0c0c0" stroke-width="2" points="1239.6704,-387.923 1229.2022,-389.556 1238.404,-394.8075 1239.6704,-387.923"/>
</g>
<!-- 47&#45;&gt;34 -->
<g id="edge75" class="edge">
<title>47&#45;&gt;34</title>
<path fill="none" stroke="#c0c0c0" stroke-width="2" d="M2221.5942,-884.8468C2226.4527,-874.6183 2232.6172,-861.6405 2238.0433,-850.217"/>
<polygon fill="#c0c0c0" stroke="#c0c0c0" stroke-width="2" points="2241.2536,-851.6159 2242.3828,-841.0814 2234.9307,-848.6125 2241.2536,-851.6159"/>
</g>
<!-- 48&#45;&gt;35 -->
<g id="edge76" class="edge">
<title>48&#45;&gt;35</title>
<path fill="none" stroke="#c0c0c0" stroke-width="2" d="M2117.7445,-884.8468C2117.6205,-874.9251 2117.4641,-862.4167 2117.3245,-851.2492"/>
<polygon fill="#c0c0c0" stroke="#c0c0c0" stroke-width="2" points="2120.8222,-851.0368 2117.1974,-841.0814 2113.8228,-851.1244 2120.8222,-851.0368"/>
</g>
<!-- 49&#45;&gt;40 -->
<g id="edge83" class="edge">
<title>49&#45;&gt;40</title>
<path fill="none" stroke="#c0c0c0" stroke-width="2" d="M704.9714,-884.8468C704.9714,-874.9251 704.9714,-862.4167 704.9714,-851.2492"/>
<polygon fill="#c0c0c0" stroke="#c0c0c0" stroke-width="2" points="708.4715,-851.0814 704.9714,-841.0814 701.4715,-851.0814 708.4715,-851.0814"/>
</g>
<!-- 50&#45;&gt;44 -->
<g id="edge88" class="edge">
<title>50&#45;&gt;44</title>
<path fill="none" stroke="#c0c0c0" stroke-width="2" d="M440.9714,-884.8468C440.9714,-874.9251 440.9714,-862.4167 440.9714,-851.2492"/>
<polygon fill="#c0c0c0" stroke="#c0c0c0" stroke-width="2" points="444.4715,-851.0814 440.9714,-841.0814 437.4715,-851.0814 444.4715,-851.0814"/>
</g>
<!-- 51&#45;&gt;45 -->
<g id="edge89" class="edge">
<title>51&#45;&gt;45</title>
<path fill="none" stroke="#c0c0c0" stroke-width="2" d="M1407.8865,-508.8314C1389.1725,-499.4089 1366.1282,-487.8062 1346.2315,-477.7883"/>
<polygon fill="#c0c0c0" stroke="#c0c0c0" stroke-width="2" points="1347.5506,-474.5339 1337.0448,-473.1628 1344.4026,-480.7861 1347.5506,-474.5339"/>
</g>
<!-- 51&#45;&gt;46 -->
<g id="edge91" class="edge">
<title>51&#45;&gt;46</title>
<path fill="none" stroke="#c0c0c0" stroke-width="2" d="M1479.5517,-508.8314C1498.0039,-499.4089 1520.7259,-487.8062 1540.3444,-477.7883"/>
<polygon fill="#c0c0c0" stroke="#c0c0c0" stroke-width="2" points="1542.0882,-480.8278 1549.4025,-473.1628 1538.9047,-474.5935 1542.0882,-480.8278"/>
</g>
<!-- 52 -->
<g id="node53" class="node">
<title>52</title>
<path fill="none" stroke="#56d87b" stroke-width="2" stroke-dasharray="5,2" d="M1474.4714,-995.5C1474.4714,-995.5 1363.4714,-995.5 1363.4714,-995.5 1357.4714,-995.5 1351.4714,-989.5 1351.4714,-983.5 1351.4714,-983.5 1351.4714,-971.5 1351.4714,-971.5 1351.4714,-965.5 1357.4714,-959.5 1363.4714,-959.5 1363.4714,-959.5 1474.4714,-959.5 1474.4714,-959.5 1480.4714,-959.5 1486.4714,-965.5 1486.4714,-971.5 1486.4714,-971.5 1486.4714,-983.5 1486.4714,-983.5 1486.4714,-989.5 1480.4714,-995.5 1474.4714,-995.5"/>
<text text-anchor="middle" x="1418.9714" y="-975" font-family="sans" font-size="10.00" fill="#000000">align_prepare_reference</text>
</g>
<!-- 52&#45;&gt;47 -->
<g id="edge93" class="edge">
<title>52&#45;&gt;47</title>
<path fill="none" stroke="#c0c0c0" stroke-width="2" d="M1486.5644,-974.8291C1645.0037,-968.1732 2036.6316,-949.3197 2164.9714,-921 2165.0719,-920.9778 2165.1725,-920.9555 2165.2731,-920.933"/>
<polygon fill="#c0c0c0" stroke="#c0c0c0" stroke-width="2" points="2165.9791,-924.3668 2174.7495,-918.4228 2164.1867,-917.6001 2165.9791,-924.3668"/>
</g>
<!-- 52&#45;&gt;48 -->
<g id="edge95" class="edge">
<title>52&#45;&gt;48</title>
<path fill="none" stroke="#c0c0c0" stroke-width="2" d="M1486.5127,-974.0406C1626.235,-966.5042 1943.8128,-947.3113 2069.9506,-920.7993"/>
<polygon fill="#c0c0c0" stroke="#c0c0c0" stroke-width="2" points="2070.7608,-924.2048 2079.77,-918.6294 2069.2503,-917.3697 2070.7608,-924.2048"/>
</g>
<!-- 52&#45;&gt;49 -->
<g id="edge97" class="edge">
<title>52&#45;&gt;49</title>
<path fill="none" stroke="#c0c0c0" stroke-width="2" d="M1351.1563,-970.4241C1207.7677,-955.4626 876.844,-920.9335 752.952,-908.0064"/>
<polygon fill="#c0c0c0" stroke="#c0c0c0" stroke-width="2" points="753.3122,-904.525 743.0029,-906.9683 752.5857,-911.4872 753.3122,-904.525"/>
</g>
<!-- 52&#45;&gt;50 -->
<g id="edge99" class="edge">
<title>52&#45;&gt;50</title>
<path fill="none" stroke="#c0c0c0" stroke-width="2" d="M1351.2559,-972.67C1218.3212,-963.1443 913.8655,-941.1121 657.9714,-921 599.88,-916.4343 533.0717,-910.8409 489.1046,-907.1127"/>
<polygon fill="#c0c0c0" stroke="#c0c0c0" stroke-width="2" points="489.2472,-903.6123 478.9869,-906.2535 488.6548,-910.5872 489.2472,-903.6123"/>
</g>
</g>
</svg>
