<?xml version="1.0" encoding="UTF-8" standalone="no"?>
<!DOCTYPE svg PUBLIC "-//W3C//DTD SVG 1.1//EN"
 "http://www.w3.org/Graphics/SVG/1.1/DTD/svg11.dtd">
<!-- Generated by graphviz version 2.38.0 (20140413.2041)
 -->
<!-- Title: snakemake_dag Pages: 1 -->
<svg width="2360pt" height="929pt"
 viewBox="0.00 0.00 2359.63 929.00" xmlns="http://www.w3.org/2000/svg" xmlns:xlink="http://www.w3.org/1999/xlink">
<g id="graph0" class="graph" transform="scale(1 1) rotate(0) translate(4 925)">
<title>snakemake_dag</title>
<polygon fill="white" stroke="none" points="-4,4 -4,-925 2355.63,-925 2355.63,4 -4,4"/>
<!-- 0 -->
<g id="node1" class="node"><title>0</title>
<path fill="none" stroke="#c6d856" stroke-width="2" d="M1305.02,-36C1305.02,-36 1275.02,-36 1275.02,-36 1269.02,-36 1263.02,-30 1263.02,-24 1263.02,-24 1263.02,-12 1263.02,-12 1263.02,-6 1269.02,-0 1275.02,-0 1275.02,-0 1305.02,-0 1305.02,-0 1311.02,-0 1317.02,-6 1317.02,-12 1317.02,-12 1317.02,-24 1317.02,-24 1317.02,-30 1311.02,-36 1305.02,-36"/>
<text text-anchor="middle" x="1290.02" y="-15.5" font-family="sans" font-size="10.00">all</text>
</g>
<!-- 1 -->
<g id="node2" class="node"><title>1</title>
<path fill="none" stroke="#56b9d8" stroke-width="2" d="M161.018,-921C161.018,-921 119.018,-921 119.018,-921 113.018,-921 107.018,-915 107.018,-909 107.018,-909 107.018,-892 107.018,-892 107.018,-886 113.018,-880 119.018,-880 119.018,-880 161.018,-880 161.018,-880 167.018,-880 173.018,-886 173.018,-892 173.018,-892 173.018,-909 173.018,-909 173.018,-915 167.018,-921 161.018,-921"/>
<text text-anchor="middle" x="140.018" y="-909" font-family="sans" font-size="10.00">qcreads_il</text>
<text text-anchor="middle" x="140.018" y="-898" font-family="sans" font-size="10.00">lib: B2</text>
<text text-anchor="middle" x="140.018" y="-887" font-family="sans" font-size="10.00">run: run_1</text>
</g>
<!-- 1&#45;&gt;0 -->
<g id="edge1" class="edge"><title>1&#45;&gt;0</title>
<path fill="none" stroke="grey" stroke-width="2" d="M106.816,-892.759C79.5704,-885.453 42.1584,-871.021 21.0175,-844 -6.05253,-809.401 2.01751,-790.93 2.01751,-747 2.01751,-747 2.01751,-747 2.01751,-161 2.01751,-93.1629 61.9295,-94.2398 126.018,-72 234.459,-34.3686 1065.58,-21.8041 1252.69,-19.4383"/>
<polygon fill="grey" stroke="grey" stroke-width="2" points="1252.89,-22.9362 1262.85,-19.312 1252.8,-15.9367 1252.89,-22.9362"/>
</g>
<!-- 13 -->
<g id="node14" class="node"><title>13</title>
<path fill="none" stroke="#d8ac56" stroke-width="2" d="M444.018,-844C444.018,-844 364.018,-844 364.018,-844 358.018,-844 352.018,-838 352.018,-832 352.018,-832 352.018,-820 352.018,-820 352.018,-814 358.018,-808 364.018,-808 364.018,-808 444.018,-808 444.018,-808 450.018,-808 456.018,-814 456.018,-820 456.018,-820 456.018,-832 456.018,-832 456.018,-838 450.018,-844 444.018,-844"/>
<text text-anchor="middle" x="404.018" y="-823.5" font-family="sans" font-size="10.00">read_count_librun</text>
</g>
<!-- 1&#45;&gt;13 -->
<g id="edge37" class="edge"><title>1&#45;&gt;13</title>
<path fill="none" stroke="grey" stroke-width="2" d="M173.198,-889.483C183.678,-886.377 195.315,-882.987 206.018,-880 263.696,-863.905 280.619,-860.742 341.976,-844.258"/>
<polygon fill="grey" stroke="grey" stroke-width="2" points="343.045,-847.595 351.788,-841.611 341.222,-840.836 343.045,-847.595"/>
</g>
<!-- 36 -->
<g id="node37" class="node"><title>36</title>
<path fill="none" stroke="#d85656" stroke-width="2" d="M94.0175,-844C94.0175,-844 42.0175,-844 42.0175,-844 36.0175,-844 30.0175,-838 30.0175,-832 30.0175,-832 30.0175,-820 30.0175,-820 30.0175,-814 36.0175,-808 42.0175,-808 42.0175,-808 94.0175,-808 94.0175,-808 100.018,-808 106.018,-814 106.018,-820 106.018,-820 106.018,-832 106.018,-832 106.018,-838 100.018,-844 94.0175,-844"/>
<text text-anchor="middle" x="68.0175" y="-829" font-family="sans" font-size="10.00">bwamem</text>
<text text-anchor="middle" x="68.0175" y="-818" font-family="sans" font-size="10.00">ref: genome</text>
</g>
<!-- 1&#45;&gt;36 -->
<g id="edge68" class="edge"><title>1&#45;&gt;36</title>
<path fill="none" stroke="grey" stroke-width="2" d="M120.343,-879.689C111.756,-871.042 101.596,-860.811 92.5237,-851.676"/>
<polygon fill="grey" stroke="grey" stroke-width="2" points="94.7476,-848.949 85.2175,-844.319 89.7807,-853.881 94.7476,-848.949"/>
</g>
<!-- 40 -->
<g id="node41" class="node"><title>40</title>
<path fill="none" stroke="#8fd856" stroke-width="2" d="M227.518,-844C227.518,-844 174.518,-844 174.518,-844 168.518,-844 162.518,-838 162.518,-832 162.518,-832 162.518,-820 162.518,-820 162.518,-814 168.518,-808 174.518,-808 174.518,-808 227.518,-808 227.518,-808 233.518,-808 239.518,-814 239.518,-820 239.518,-820 239.518,-832 239.518,-832 239.518,-838 233.518,-844 227.518,-844"/>
<text text-anchor="middle" x="201.018" y="-829" font-family="sans" font-size="10.00">samplefastq</text>
<text text-anchor="middle" x="201.018" y="-818" font-family="sans" font-size="10.00">sample: B</text>
</g>
<!-- 1&#45;&gt;40 -->
<g id="edge72" class="edge"><title>1&#45;&gt;40</title>
<path fill="none" stroke="grey" stroke-width="2" d="M156.686,-879.689C163.816,-871.215 172.226,-861.22 179.793,-852.226"/>
<polygon fill="grey" stroke="grey" stroke-width="2" points="182.685,-854.225 186.445,-844.319 177.329,-849.718 182.685,-854.225"/>
</g>
<!-- 2 -->
<g id="node3" class="node"><title>2</title>
<path fill="none" stroke="#566bd8" stroke-width="2" d="M963.518,-108C963.518,-108 560.518,-108 560.518,-108 554.518,-108 548.518,-102 548.518,-96 548.518,-96 548.518,-84 548.518,-84 548.518,-78 554.518,-72 560.518,-72 560.518,-72 963.518,-72 963.518,-72 969.518,-72 975.518,-78 975.518,-84 975.518,-84 975.518,-96 975.518,-96 975.518,-102 969.518,-108 963.518,-108"/>
<text text-anchor="middle" x="762.018" y="-93" font-family="sans" font-size="10.00">variantidx</text>
<text text-anchor="middle" x="762.018" y="-82" font-family="sans" font-size="10.00">path: data/variants/final/freebayes~bwa~genome~all_samples~filtered&#45;default.bcf</text>
</g>
<!-- 2&#45;&gt;0 -->
<g id="edge2" class="edge"><title>2&#45;&gt;0</title>
<path fill="none" stroke="grey" stroke-width="2" d="M890.506,-71.9656C1009.21,-56.2282 1178.07,-33.8421 1252.41,-23.9855"/>
<polygon fill="grey" stroke="grey" stroke-width="2" points="1253.23,-27.4085 1262.68,-22.6245 1252.31,-20.4692 1253.23,-27.4085"/>
</g>
<!-- 3 -->
<g id="node4" class="node"><title>3</title>
<path fill="none" stroke="#56d8d8" stroke-width="2" d="M365.518,-540C365.518,-540 294.518,-540 294.518,-540 288.518,-540 282.518,-534 282.518,-528 282.518,-528 282.518,-516 282.518,-516 282.518,-510 288.518,-504 294.518,-504 294.518,-504 365.518,-504 365.518,-504 371.518,-504 377.518,-510 377.518,-516 377.518,-516 377.518,-528 377.518,-528 377.518,-534 371.518,-540 365.518,-540"/>
<text text-anchor="middle" x="330.018" y="-519.5" font-family="sans" font-size="10.00">bamstat_samps</text>
</g>
<!-- 3&#45;&gt;0 -->
<g id="edge3" class="edge"><title>3&#45;&gt;0</title>
<path fill="none" stroke="grey" stroke-width="2" d="M333.862,-503.612C339.414,-476.942 349.018,-424.268 349.018,-379 349.018,-379 349.018,-379 349.018,-161 349.018,-117.07 355.51,-96.4352 392.018,-72 464.334,-23.5974 1091.4,-19.3024 1252.44,-19.0013"/>
<polygon fill="grey" stroke="grey" stroke-width="2" points="1252.8,-22.5009 1262.79,-18.9864 1252.79,-15.5009 1252.8,-22.5009"/>
</g>
<!-- 4 -->
<g id="node5" class="node"><title>4</title>
<path fill="none" stroke="#d86e56" stroke-width="2" d="M766.518,-252C766.518,-252 727.518,-252 727.518,-252 721.518,-252 715.518,-246 715.518,-240 715.518,-240 715.518,-228 715.518,-228 715.518,-222 721.518,-216 727.518,-216 727.518,-216 766.518,-216 766.518,-216 772.518,-216 778.518,-222 778.518,-228 778.518,-228 778.518,-240 778.518,-240 778.518,-246 772.518,-252 766.518,-252"/>
<text text-anchor="middle" x="747.018" y="-231.5" font-family="sans" font-size="10.00">bcfmerge</text>
</g>
<!-- 4&#45;&gt;0 -->
<g id="edge4" class="edge"><title>4&#45;&gt;0</title>
<path fill="none" stroke="grey" stroke-width="2" d="M745.431,-215.895C744.584,-195.706 746.587,-162.544 766.018,-144 837.057,-76.2003 897.317,-154.113 984.018,-108 1003.45,-97.6656 998.738,-82.6129 1018.02,-72 1093.88,-30.2393 1197.53,-21.0022 1252.39,-19.1982"/>
<polygon fill="grey" stroke="grey" stroke-width="2" points="1252.79,-22.6892 1262.69,-18.9291 1252.6,-15.6916 1252.79,-22.6892"/>
</g>
<!-- 4&#45;&gt;2 -->
<g id="edge24" class="edge"><title>4&#45;&gt;2</title>
<path fill="none" stroke="grey" stroke-width="2" d="M740.202,-215.743C734.014,-197.669 726.74,-168.549 733.018,-144 735.396,-134.697 739.782,-125.27 744.436,-116.997"/>
<polygon fill="grey" stroke="grey" stroke-width="2" points="747.562,-118.59 749.71,-108.216 741.561,-114.986 747.562,-118.59"/>
</g>
<!-- 17 -->
<g id="node18" class="node"><title>17</title>
<path fill="none" stroke="#56c1d8" stroke-width="2" d="M1172.52,-180C1172.52,-180 787.518,-180 787.518,-180 781.518,-180 775.518,-174 775.518,-168 775.518,-168 775.518,-156 775.518,-156 775.518,-150 781.518,-144 787.518,-144 787.518,-144 1172.52,-144 1172.52,-144 1178.52,-144 1184.52,-150 1184.52,-156 1184.52,-156 1184.52,-168 1184.52,-168 1184.52,-174 1178.52,-180 1172.52,-180"/>
<text text-anchor="middle" x="980.018" y="-165" font-family="sans" font-size="10.00">bcf2vcf</text>
<text text-anchor="middle" x="980.018" y="-154" font-family="sans" font-size="10.00">path: data/variants/final/freebayes~bwa~genome~all_samples~filtered&#45;default</text>
</g>
<!-- 4&#45;&gt;17 -->
<g id="edge47" class="edge"><title>4&#45;&gt;17</title>
<path fill="none" stroke="grey" stroke-width="2" d="M778.927,-223.414C813.34,-213.075 869.12,-196.317 913.213,-183.07"/>
<polygon fill="grey" stroke="grey" stroke-width="2" points="914.432,-186.358 923.002,-180.129 912.418,-179.654 914.432,-186.358"/>
</g>
<!-- 5 -->
<g id="node6" class="node"><title>5</title>
<path fill="none" stroke="#56b9d8" stroke-width="2" d="M269.018,-921C269.018,-921 227.018,-921 227.018,-921 221.018,-921 215.018,-915 215.018,-909 215.018,-909 215.018,-892 215.018,-892 215.018,-886 221.018,-880 227.018,-880 227.018,-880 269.018,-880 269.018,-880 275.018,-880 281.018,-886 281.018,-892 281.018,-892 281.018,-909 281.018,-909 281.018,-915 275.018,-921 269.018,-921"/>
<text text-anchor="middle" x="248.018" y="-909" font-family="sans" font-size="10.00">qcreads_il</text>
<text text-anchor="middle" x="248.018" y="-898" font-family="sans" font-size="10.00">lib: B1</text>
<text text-anchor="middle" x="248.018" y="-887" font-family="sans" font-size="10.00">run: run_1</text>
</g>
<!-- 5&#45;&gt;0 -->
<g id="edge5" class="edge"><title>5&#45;&gt;0</title>
<path fill="none" stroke="grey" stroke-width="2" d="M214.721,-886.758C194.507,-877.55 169.509,-863.324 153.018,-844 100.181,-782.088 106.018,-748.393 106.018,-667 106.018,-667 106.018,-667 106.018,-161 106.018,-76.5029 192.574,-94.5091 274.018,-72 463.531,-19.6229 1091.84,-18.2621 1252.4,-18.7971"/>
<polygon fill="grey" stroke="grey" stroke-width="2" points="1252.7,-22.2981 1262.71,-18.8363 1252.73,-15.2982 1252.7,-22.2981"/>
</g>
<!-- 5&#45;&gt;13 -->
<g id="edge39" class="edge"><title>5&#45;&gt;13</title>
<path fill="none" stroke="grey" stroke-width="2" d="M281.101,-884.125C303.545,-873.694 333.515,-859.766 358.243,-848.274"/>
<polygon fill="grey" stroke="grey" stroke-width="2" points="359.843,-851.389 367.436,-844.001 356.893,-845.041 359.843,-851.389"/>
</g>
<!-- 35 -->
<g id="node36" class="node"><title>35</title>
<path fill="none" stroke="#d85656" stroke-width="2" d="M322.018,-844C322.018,-844 270.018,-844 270.018,-844 264.018,-844 258.018,-838 258.018,-832 258.018,-832 258.018,-820 258.018,-820 258.018,-814 264.018,-808 270.018,-808 270.018,-808 322.018,-808 322.018,-808 328.018,-808 334.018,-814 334.018,-820 334.018,-820 334.018,-832 334.018,-832 334.018,-838 328.018,-844 322.018,-844"/>
<text text-anchor="middle" x="296.018" y="-829" font-family="sans" font-size="10.00">bwamem</text>
<text text-anchor="middle" x="296.018" y="-818" font-family="sans" font-size="10.00">ref: genome</text>
</g>
<!-- 5&#45;&gt;35 -->
<g id="edge67" class="edge"><title>5&#45;&gt;35</title>
<path fill="none" stroke="grey" stroke-width="2" d="M261.134,-879.689C266.63,-871.388 273.092,-861.627 278.951,-852.778"/>
<polygon fill="grey" stroke="grey" stroke-width="2" points="281.949,-854.59 284.551,-844.319 276.112,-850.725 281.949,-854.59"/>
</g>
<!-- 5&#45;&gt;40 -->
<g id="edge73" class="edge"><title>5&#45;&gt;40</title>
<path fill="none" stroke="grey" stroke-width="2" d="M235.175,-879.689C229.793,-871.388 223.466,-861.627 217.729,-852.778"/>
<polygon fill="grey" stroke="grey" stroke-width="2" points="220.622,-850.807 212.245,-844.319 214.748,-854.614 220.622,-850.807"/>
</g>
<!-- 6 -->
<g id="node7" class="node"><title>6</title>
<path fill="none" stroke="#56b9d8" stroke-width="2" d="M864.018,-921C864.018,-921 822.018,-921 822.018,-921 816.018,-921 810.018,-915 810.018,-909 810.018,-909 810.018,-892 810.018,-892 810.018,-886 816.018,-880 822.018,-880 822.018,-880 864.018,-880 864.018,-880 870.018,-880 876.018,-886 876.018,-892 876.018,-892 876.018,-909 876.018,-909 876.018,-915 870.018,-921 864.018,-921"/>
<text text-anchor="middle" x="843.018" y="-909" font-family="sans" font-size="10.00">qcreads_il</text>
<text text-anchor="middle" x="843.018" y="-898" font-family="sans" font-size="10.00">lib: A</text>
<text text-anchor="middle" x="843.018" y="-887" font-family="sans" font-size="10.00">run: run_1</text>
</g>
<!-- 6&#45;&gt;0 -->
<g id="edge6" class="edge"><title>6&#45;&gt;0</title>
<path fill="none" stroke="grey" stroke-width="2" d="M876.031,-899.379C1089.43,-898.462 2266.9,-891.267 2325.02,-844 2359.47,-815.977 2349.02,-791.411 2349.02,-747 2349.02,-747 2349.02,-747 2349.02,-161 2349.02,-120.031 2356.89,-97.7378 2325.02,-72 2285.43,-40.0336 1507.44,-23.1737 1327.11,-19.6861"/>
<polygon fill="grey" stroke="grey" stroke-width="2" points="1327.12,-16.1858 1317.06,-19.4936 1326.99,-23.1845 1327.12,-16.1858"/>
</g>
<!-- 6&#45;&gt;13 -->
<g id="edge40" class="edge"><title>6&#45;&gt;13</title>
<path fill="none" stroke="grey" stroke-width="2" d="M809.637,-892.526C790.475,-888.623 765.939,-883.794 744.018,-880 637.305,-861.53 609.948,-861.165 503.018,-844 491.112,-842.089 478.417,-839.97 466.226,-837.895"/>
<polygon fill="grey" stroke="grey" stroke-width="2" points="466.579,-834.405 456.132,-836.168 465.399,-841.305 466.579,-834.405"/>
</g>
<!-- 39 -->
<g id="node40" class="node"><title>39</title>
<path fill="none" stroke="#d85656" stroke-width="2" d="M972.018,-844C972.018,-844 920.018,-844 920.018,-844 914.018,-844 908.018,-838 908.018,-832 908.018,-832 908.018,-820 908.018,-820 908.018,-814 914.018,-808 920.018,-808 920.018,-808 972.018,-808 972.018,-808 978.018,-808 984.018,-814 984.018,-820 984.018,-820 984.018,-832 984.018,-832 984.018,-838 978.018,-844 972.018,-844"/>
<text text-anchor="middle" x="946.018" y="-829" font-family="sans" font-size="10.00">bwamem</text>
<text text-anchor="middle" x="946.018" y="-818" font-family="sans" font-size="10.00">ref: genome</text>
</g>
<!-- 6&#45;&gt;39 -->
<g id="edge71" class="edge"><title>6&#45;&gt;39</title>
<path fill="none" stroke="grey" stroke-width="2" d="M870.891,-879.88C884.015,-870.643 899.752,-859.565 913.425,-849.941"/>
<polygon fill="grey" stroke="grey" stroke-width="2" points="915.467,-852.784 921.629,-844.166 911.437,-847.06 915.467,-852.784"/>
</g>
<!-- 42 -->
<g id="node43" class="node"><title>42</title>
<path fill="none" stroke="#8fd856" stroke-width="2" d="M766.518,-844C766.518,-844 713.518,-844 713.518,-844 707.518,-844 701.518,-838 701.518,-832 701.518,-832 701.518,-820 701.518,-820 701.518,-814 707.518,-808 713.518,-808 713.518,-808 766.518,-808 766.518,-808 772.518,-808 778.518,-814 778.518,-820 778.518,-820 778.518,-832 778.518,-832 778.518,-838 772.518,-844 766.518,-844"/>
<text text-anchor="middle" x="740.018" y="-829" font-family="sans" font-size="10.00">samplefastq</text>
<text text-anchor="middle" x="740.018" y="-818" font-family="sans" font-size="10.00">sample: A</text>
</g>
<!-- 6&#45;&gt;42 -->
<g id="edge76" class="edge"><title>6&#45;&gt;42</title>
<path fill="none" stroke="grey" stroke-width="2" d="M815.144,-879.88C802.02,-870.643 786.283,-859.565 772.61,-849.941"/>
<polygon fill="grey" stroke="grey" stroke-width="2" points="774.598,-847.06 764.406,-844.166 770.568,-852.784 774.598,-847.06"/>
</g>
<!-- 7 -->
<g id="node8" class="node"><title>7</title>
<path fill="none" stroke="#56d8d8" stroke-width="2" d="M1776.52,-468C1776.52,-468 1705.52,-468 1705.52,-468 1699.52,-468 1693.52,-462 1693.52,-456 1693.52,-456 1693.52,-444 1693.52,-444 1693.52,-438 1699.52,-432 1705.52,-432 1705.52,-432 1776.52,-432 1776.52,-432 1782.52,-432 1788.52,-438 1788.52,-444 1788.52,-444 1788.52,-456 1788.52,-456 1788.52,-462 1782.52,-468 1776.52,-468"/>
<text text-anchor="middle" x="1741.02" y="-447.5" font-family="sans" font-size="10.00">bamstat_samps</text>
</g>
<!-- 7&#45;&gt;0 -->
<g id="edge7" class="edge"><title>7&#45;&gt;0</title>
<path fill="none" stroke="grey" stroke-width="2" d="M1788.58,-440.633C1886.61,-422.035 2102.02,-373.59 2102.02,-307 2102.02,-307 2102.02,-307 2102.02,-161 2102.02,-117.813 2098.34,-96.8508 2063.02,-72 2002.44,-29.3814 1473.98,-20.8662 1327.51,-19.3188"/>
<polygon fill="grey" stroke="grey" stroke-width="2" points="1327.28,-15.8164 1317.25,-19.2153 1327.21,-22.816 1327.28,-15.8164"/>
</g>
<!-- 8 -->
<g id="node9" class="node"><title>8</title>
<path fill="none" stroke="#56d8d0" stroke-width="2" d="M658.018,-612C658.018,-612 550.018,-612 550.018,-612 544.018,-612 538.018,-606 538.018,-600 538.018,-600 538.018,-588 538.018,-588 538.018,-582 544.018,-576 550.018,-576 550.018,-576 658.018,-576 658.018,-576 664.018,-576 670.018,-582 670.018,-588 670.018,-588 670.018,-600 670.018,-600 670.018,-606 664.018,-612 658.018,-612"/>
<text text-anchor="middle" x="604.018" y="-597" font-family="sans" font-size="10.00">bamlist</text>
<text text-anchor="middle" x="604.018" y="-586" font-family="sans" font-size="10.00">sampleset: all_samples</text>
</g>
<!-- 8&#45;&gt;0 -->
<g id="edge8" class="edge"><title>8&#45;&gt;0</title>
<path fill="none" stroke="grey" stroke-width="2" d="M574.173,-575.832C538.055,-552.57 482.018,-507.391 482.018,-451 482.018,-451 482.018,-451 482.018,-161 482.018,-118.813 481.23,-97.2617 515.018,-72 574.488,-27.5361 1105.23,-20.3506 1252.35,-19.2108"/>
<polygon fill="grey" stroke="grey" stroke-width="2" points="1252.69,-22.7085 1262.66,-19.1361 1252.64,-15.7087 1252.69,-22.7085"/>
</g>
<!-- 9 -->
<g id="node10" class="node"><title>9</title>
<path fill="none" stroke="#566bd8" stroke-width="2" d="M2023.52,-108C2023.52,-108 1616.52,-108 1616.52,-108 1610.52,-108 1604.52,-102 1604.52,-96 1604.52,-96 1604.52,-84 1604.52,-84 1604.52,-78 1610.52,-72 1616.52,-72 1616.52,-72 2023.52,-72 2023.52,-72 2029.52,-72 2035.52,-78 2035.52,-84 2035.52,-84 2035.52,-96 2035.52,-96 2035.52,-102 2029.52,-108 2023.52,-108"/>
<text text-anchor="middle" x="1820.02" y="-93" font-family="sans" font-size="10.00">variantidx</text>
<text text-anchor="middle" x="1820.02" y="-82" font-family="sans" font-size="10.00">path: data/variants/final/freebayes~bwa~genome~all_samples~filtered&#45;strict.vcf.gz</text>
</g>
<!-- 9&#45;&gt;0 -->
<g id="edge9" class="edge"><title>9&#45;&gt;0</title>
<path fill="none" stroke="grey" stroke-width="2" d="M1691.04,-71.9656C1571.89,-56.2282 1402.39,-33.8421 1327.77,-23.9855"/>
<polygon fill="grey" stroke="grey" stroke-width="2" points="1327.83,-20.4641 1317.46,-22.6245 1326.92,-27.4038 1327.83,-20.4641"/>
</g>
<!-- 10 -->
<g id="node11" class="node"><title>10</title>
<path fill="none" stroke="#56d8d8" stroke-width="2" d="M2232.52,-540C2232.52,-540 2161.52,-540 2161.52,-540 2155.52,-540 2149.52,-534 2149.52,-528 2149.52,-528 2149.52,-516 2149.52,-516 2149.52,-510 2155.52,-504 2161.52,-504 2161.52,-504 2232.52,-504 2232.52,-504 2238.52,-504 2244.52,-510 2244.52,-516 2244.52,-516 2244.52,-528 2244.52,-528 2244.52,-534 2238.52,-540 2232.52,-540"/>
<text text-anchor="middle" x="2197.02" y="-519.5" font-family="sans" font-size="10.00">bamstat_samps</text>
</g>
<!-- 10&#45;&gt;0 -->
<g id="edge10" class="edge"><title>10&#45;&gt;0</title>
<path fill="none" stroke="grey" stroke-width="2" d="M2200.86,-503.612C2206.41,-476.942 2216.02,-424.268 2216.02,-379 2216.02,-379 2216.02,-379 2216.02,-161 2216.02,-120.031 2223.79,-97.8576 2192.02,-72 2124.15,-16.7725 1489.39,-17.5538 1327.47,-18.6653"/>
<polygon fill="grey" stroke="grey" stroke-width="2" points="1327.04,-15.1682 1317.07,-18.7417 1327.09,-22.168 1327.04,-15.1682"/>
</g>
<!-- 11 -->
<g id="node12" class="node"><title>11</title>
<path fill="none" stroke="#d8b456" stroke-width="2" d="M367.018,-684C367.018,-684 289.018,-684 289.018,-684 283.018,-684 277.018,-678 277.018,-672 277.018,-672 277.018,-660 277.018,-660 277.018,-654 283.018,-648 289.018,-648 289.018,-648 367.018,-648 367.018,-648 373.018,-648 379.018,-654 379.018,-660 379.018,-660 379.018,-672 379.018,-672 379.018,-678 373.018,-684 367.018,-684"/>
<text text-anchor="middle" x="328.018" y="-669" font-family="sans" font-size="10.00">mergebam_samp</text>
<text text-anchor="middle" x="328.018" y="-658" font-family="sans" font-size="10.00">sample: B</text>
</g>
<!-- 11&#45;&gt;0 -->
<g id="edge11" class="edge"><title>11&#45;&gt;0</title>
<path fill="none" stroke="grey" stroke-width="2" d="M311.961,-647.694C290.197,-622.359 254.018,-572.761 254.018,-523 254.018,-523 254.018,-523 254.018,-161 254.018,-101.503 299.031,-94.7255 354.018,-72 438.099,-37.2498 1089.32,-22.7714 1252.85,-19.6624"/>
<polygon fill="grey" stroke="grey" stroke-width="2" points="1252.98,-23.1608 1262.91,-19.474 1252.85,-16.162 1252.98,-23.1608"/>
</g>
<!-- 11&#45;&gt;3 -->
<g id="edge25" class="edge"><title>11&#45;&gt;3</title>
<path fill="none" stroke="grey" stroke-width="2" d="M328.259,-647.871C328.6,-623.67 329.226,-579.211 329.632,-550.393"/>
<polygon fill="grey" stroke="grey" stroke-width="2" points="333.134,-550.238 329.775,-540.189 326.135,-550.139 333.134,-550.238"/>
</g>
<!-- 11&#45;&gt;8 -->
<g id="edge31" class="edge"><title>11&#45;&gt;8</title>
<path fill="none" stroke="grey" stroke-width="2" d="M379.284,-651.998C421.054,-641.404 480.653,-626.288 527.98,-614.285"/>
<polygon fill="grey" stroke="grey" stroke-width="2" points="529.05,-617.624 537.883,-611.773 527.329,-610.839 529.05,-617.624"/>
</g>
<!-- 15 -->
<g id="node16" class="node"><title>15</title>
<path fill="none" stroke="#d87556" stroke-width="2" d="M865.018,-612C865.018,-612 757.018,-612 757.018,-612 751.018,-612 745.018,-606 745.018,-600 745.018,-600 745.018,-588 745.018,-588 745.018,-582 751.018,-576 757.018,-576 757.018,-576 865.018,-576 865.018,-576 871.018,-576 877.018,-582 877.018,-588 877.018,-588 877.018,-600 877.018,-600 877.018,-606 871.018,-612 865.018,-612"/>
<text text-anchor="middle" x="811.018" y="-597" font-family="sans" font-size="10.00">mergebam_set</text>
<text text-anchor="middle" x="811.018" y="-586" font-family="sans" font-size="10.00">sampleset: all_samples</text>
</g>
<!-- 11&#45;&gt;15 -->
<g id="edge44" class="edge"><title>11&#45;&gt;15</title>
<path fill="none" stroke="grey" stroke-width="2" d="M379.25,-657.575C464.454,-645.227 635.712,-620.407 735.022,-606.014"/>
<polygon fill="grey" stroke="grey" stroke-width="2" points="735.598,-609.467 744.992,-604.569 734.594,-602.539 735.598,-609.467"/>
</g>
<!-- 12 -->
<g id="node13" class="node"><title>12</title>
<path fill="none" stroke="#566bd8" stroke-width="2" d="M1645.52,-180C1645.52,-180 1252.52,-180 1252.52,-180 1246.52,-180 1240.52,-174 1240.52,-168 1240.52,-168 1240.52,-156 1240.52,-156 1240.52,-150 1246.52,-144 1252.52,-144 1252.52,-144 1645.52,-144 1645.52,-144 1651.52,-144 1657.52,-150 1657.52,-156 1657.52,-156 1657.52,-168 1657.52,-168 1657.52,-174 1651.52,-180 1645.52,-180"/>
<text text-anchor="middle" x="1449.02" y="-165" font-family="sans" font-size="10.00">variantidx</text>
<text text-anchor="middle" x="1449.02" y="-154" font-family="sans" font-size="10.00">path: data/variants/final/freebayes~bwa~genome~all_samples~filtered&#45;strict.bcf</text>
</g>
<!-- 12&#45;&gt;0 -->
<g id="edge12" class="edge"><title>12&#45;&gt;0</title>
<path fill="none" stroke="grey" stroke-width="2" d="M1507.92,-143.958C1525.14,-135.934 1542.02,-124.395 1552.02,-108 1560.35,-94.3411 1562.15,-84.3846 1552.02,-72 1524.12,-37.888 1393.4,-25.2194 1327.79,-20.9522"/>
<polygon fill="grey" stroke="grey" stroke-width="2" points="1327.66,-17.4378 1317.47,-20.3154 1327.23,-24.4245 1327.66,-17.4378"/>
</g>
<!-- 13&#45;&gt;0 -->
<g id="edge13" class="edge"><title>13&#45;&gt;0</title>
<path fill="none" stroke="grey" stroke-width="2" d="M404.174,-807.852C404.646,-754.805 406.018,-588.655 406.018,-451 406.018,-451 406.018,-451 406.018,-161 406.018,-120.031 398.277,-97.903 430.018,-72 494.452,-19.4159 1095.94,-18.1957 1252.77,-18.7816"/>
<polygon fill="grey" stroke="grey" stroke-width="2" points="1252.85,-22.2819 1262.87,-18.8243 1252.88,-15.282 1252.85,-22.2819"/>
</g>
<!-- 14 -->
<g id="node15" class="node"><title>14</title>
<path fill="none" stroke="#56b9d8" stroke-width="2" d="M723.018,-921C723.018,-921 681.018,-921 681.018,-921 675.018,-921 669.018,-915 669.018,-909 669.018,-909 669.018,-892 669.018,-892 669.018,-886 675.018,-880 681.018,-880 681.018,-880 723.018,-880 723.018,-880 729.018,-880 735.018,-886 735.018,-892 735.018,-892 735.018,-909 735.018,-909 735.018,-915 729.018,-921 723.018,-921"/>
<text text-anchor="middle" x="702.018" y="-909" font-family="sans" font-size="10.00">qcreads_il</text>
<text text-anchor="middle" x="702.018" y="-898" font-family="sans" font-size="10.00">lib: C</text>
<text text-anchor="middle" x="702.018" y="-887" font-family="sans" font-size="10.00">run: run_1</text>
</g>
<!-- 14&#45;&gt;0 -->
<g id="edge14" class="edge"><title>14&#45;&gt;0</title>
<path fill="none" stroke="grey" stroke-width="2" d="M735.319,-892.02C754.454,-887.954 778.991,-883.13 801.018,-880 967.769,-856.303 2311.02,-915.427 2311.02,-747 2311.02,-747 2311.02,-747 2311.02,-161 2311.02,-113.542 2293.2,-95.5897 2252.02,-72 2170.71,-25.4233 1494.68,-19.7778 1327.36,-19.0941"/>
<polygon fill="grey" stroke="grey" stroke-width="2" points="1327.1,-15.5932 1317.09,-19.0559 1327.08,-22.5932 1327.1,-15.5932"/>
</g>
<!-- 14&#45;&gt;13 -->
<g id="edge38" class="edge"><title>14&#45;&gt;13</title>
<path fill="none" stroke="grey" stroke-width="2" d="M668.988,-891.464C620.181,-879.59 527.93,-857.147 466.204,-842.129"/>
<polygon fill="grey" stroke="grey" stroke-width="2" points="466.735,-838.657 456.191,-839.693 465.081,-845.458 466.735,-838.657"/>
</g>
<!-- 38 -->
<g id="node39" class="node"><title>38</title>
<path fill="none" stroke="#d85656" stroke-width="2" d="M861.018,-844C861.018,-844 809.018,-844 809.018,-844 803.018,-844 797.018,-838 797.018,-832 797.018,-832 797.018,-820 797.018,-820 797.018,-814 803.018,-808 809.018,-808 809.018,-808 861.018,-808 861.018,-808 867.018,-808 873.018,-814 873.018,-820 873.018,-820 873.018,-832 873.018,-832 873.018,-838 867.018,-844 861.018,-844"/>
<text text-anchor="middle" x="835.018" y="-829" font-family="sans" font-size="10.00">bwamem</text>
<text text-anchor="middle" x="835.018" y="-818" font-family="sans" font-size="10.00">ref: genome</text>
</g>
<!-- 14&#45;&gt;38 -->
<g id="edge70" class="edge"><title>14&#45;&gt;38</title>
<path fill="none" stroke="grey" stroke-width="2" d="M735.236,-881.392C753.221,-871.588 775.582,-859.399 794.574,-849.046"/>
<polygon fill="grey" stroke="grey" stroke-width="2" points="796.488,-851.989 803.593,-844.13 793.138,-845.843 796.488,-851.989"/>
</g>
<!-- 41 -->
<g id="node42" class="node"><title>41</title>
<path fill="none" stroke="#8fd856" stroke-width="2" d="M671.518,-844C671.518,-844 618.518,-844 618.518,-844 612.518,-844 606.518,-838 606.518,-832 606.518,-832 606.518,-820 606.518,-820 606.518,-814 612.518,-808 618.518,-808 618.518,-808 671.518,-808 671.518,-808 677.518,-808 683.518,-814 683.518,-820 683.518,-820 683.518,-832 683.518,-832 683.518,-838 677.518,-844 671.518,-844"/>
<text text-anchor="middle" x="645.018" y="-829" font-family="sans" font-size="10.00">samplefastq</text>
<text text-anchor="middle" x="645.018" y="-818" font-family="sans" font-size="10.00">sample: C</text>
</g>
<!-- 14&#45;&gt;41 -->
<g id="edge74" class="edge"><title>14&#45;&gt;41</title>
<path fill="none" stroke="grey" stroke-width="2" d="M686.442,-879.689C679.78,-871.215 671.922,-861.22 664.85,-852.226"/>
<polygon fill="grey" stroke="grey" stroke-width="2" points="667.566,-850.018 658.634,-844.319 662.063,-854.344 667.566,-850.018"/>
</g>
<!-- 15&#45;&gt;0 -->
<g id="edge15" class="edge"><title>15&#45;&gt;0</title>
<path fill="none" stroke="grey" stroke-width="2" d="M748.233,-575.949C662.687,-550.829 520.018,-501.383 520.018,-451 520.018,-451 520.018,-451 520.018,-161 520.018,-120.553 508.489,-98.5318 539.018,-72 593.277,-24.8447 1108.89,-19.5957 1252.85,-19.0519"/>
<polygon fill="grey" stroke="grey" stroke-width="2" points="1252.96,-22.5517 1262.95,-19.0194 1252.93,-15.5517 1252.96,-22.5517"/>
</g>
<!-- 43 -->
<g id="node44" class="node"><title>43</title>
<path fill="none" stroke="#d8cb56" stroke-width="2" d="M889.518,-540C889.518,-540 742.518,-540 742.518,-540 736.518,-540 730.518,-534 730.518,-528 730.518,-528 730.518,-516 730.518,-516 730.518,-510 736.518,-504 742.518,-504 742.518,-504 889.518,-504 889.518,-504 895.518,-504 901.518,-510 901.518,-516 901.518,-516 901.518,-528 901.518,-528 901.518,-534 895.518,-540 889.518,-540"/>
<text text-anchor="middle" x="816.018" y="-525" font-family="sans" font-size="10.00">freebayes</text>
<text text-anchor="middle" x="816.018" y="-514" font-family="sans" font-size="10.00">region: I:000000001&#45;000230218</text>
</g>
<!-- 15&#45;&gt;43 -->
<g id="edge77" class="edge"><title>15&#45;&gt;43</title>
<path fill="none" stroke="grey" stroke-width="2" d="M812.253,-575.697C812.804,-567.983 813.467,-558.712 814.081,-550.112"/>
<polygon fill="grey" stroke="grey" stroke-width="2" points="817.574,-550.328 814.796,-540.104 810.592,-549.83 817.574,-550.328"/>
</g>
<!-- 16 -->
<g id="node17" class="node"><title>16</title>
<path fill="none" stroke="#d8b456" stroke-width="2" d="M850.018,-684C850.018,-684 772.018,-684 772.018,-684 766.018,-684 760.018,-678 760.018,-672 760.018,-672 760.018,-660 760.018,-660 760.018,-654 766.018,-648 772.018,-648 772.018,-648 850.018,-648 850.018,-648 856.018,-648 862.018,-654 862.018,-660 862.018,-660 862.018,-672 862.018,-672 862.018,-678 856.018,-684 850.018,-684"/>
<text text-anchor="middle" x="811.018" y="-669" font-family="sans" font-size="10.00">mergebam_samp</text>
<text text-anchor="middle" x="811.018" y="-658" font-family="sans" font-size="10.00">sample: C</text>
</g>
<!-- 16&#45;&gt;0 -->
<g id="edge16" class="edge"><title>16&#45;&gt;0</title>
<path fill="none" stroke="grey" stroke-width="2" d="M862.208,-649.139C863.826,-648.741 865.432,-648.36 867.018,-648 970.491,-624.529 998.591,-630.785 1103.02,-612 1575.84,-526.946 2140.02,-787.41 2140.02,-307 2140.02,-307 2140.02,-307 2140.02,-161 2140.02,-116.268 2130.55,-96.3427 2093.02,-72 2028.27,-30.0035 1477.13,-21.0196 1327.42,-19.3468"/>
<polygon fill="grey" stroke="grey" stroke-width="2" points="1327.38,-15.8463 1317.34,-19.2386 1327.31,-22.8459 1327.38,-15.8463"/>
</g>
<!-- 16&#45;&gt;7 -->
<g id="edge28" class="edge"><title>16&#45;&gt;7</title>
<path fill="none" stroke="grey" stroke-width="2" d="M862.244,-649.285C863.852,-648.845 865.446,-648.415 867.018,-648 1172.18,-567.403 1542.71,-490.8 1683.24,-462.5"/>
<polygon fill="grey" stroke="grey" stroke-width="2" points="1684.24,-465.869 1693.35,-460.467 1682.86,-459.007 1684.24,-465.869"/>
</g>
<!-- 16&#45;&gt;8 -->
<g id="edge30" class="edge"><title>16&#45;&gt;8</title>
<path fill="none" stroke="grey" stroke-width="2" d="M760.644,-647.966C731.596,-638.142 694.888,-625.729 664.311,-615.389"/>
<polygon fill="grey" stroke="grey" stroke-width="2" points="665.211,-611.999 654.617,-612.111 662.968,-618.63 665.211,-611.999"/>
</g>
<!-- 16&#45;&gt;15 -->
<g id="edge43" class="edge"><title>16&#45;&gt;15</title>
<path fill="none" stroke="grey" stroke-width="2" d="M811.018,-647.697C811.018,-639.983 811.018,-630.712 811.018,-622.112"/>
<polygon fill="grey" stroke="grey" stroke-width="2" points="814.518,-622.104 811.018,-612.104 807.518,-622.104 814.518,-622.104"/>
</g>
<!-- 17&#45;&gt;0 -->
<g id="edge17" class="edge"><title>17&#45;&gt;0</title>
<path fill="none" stroke="grey" stroke-width="2" d="M990.924,-143.695C1004.71,-123.309 1030.37,-89.953 1061.02,-72 1121.9,-36.331 1205.02,-24.6669 1252.56,-20.8529"/>
<polygon fill="grey" stroke="grey" stroke-width="2" points="1252.99,-24.331 1262.71,-20.1152 1252.48,-17.3494 1252.99,-24.331"/>
</g>
<!-- 21 -->
<g id="node22" class="node"><title>21</title>
<path fill="none" stroke="#566bd8" stroke-width="2" d="M1498.02,-108C1498.02,-108 1082.02,-108 1082.02,-108 1076.02,-108 1070.02,-102 1070.02,-96 1070.02,-96 1070.02,-84 1070.02,-84 1070.02,-78 1076.02,-72 1082.02,-72 1082.02,-72 1498.02,-72 1498.02,-72 1504.02,-72 1510.02,-78 1510.02,-84 1510.02,-84 1510.02,-96 1510.02,-96 1510.02,-102 1504.02,-108 1498.02,-108"/>
<text text-anchor="middle" x="1290.02" y="-93" font-family="sans" font-size="10.00">variantidx</text>
<text text-anchor="middle" x="1290.02" y="-82" font-family="sans" font-size="10.00">path: data/variants/final/freebayes~bwa~genome~all_samples~filtered&#45;default.vcf.gz</text>
</g>
<!-- 17&#45;&gt;21 -->
<g id="edge50" class="edge"><title>17&#45;&gt;21</title>
<path fill="none" stroke="grey" stroke-width="2" d="M1055.46,-143.966C1100.55,-133.783 1157.97,-120.818 1204.71,-110.264"/>
<polygon fill="grey" stroke="grey" stroke-width="2" points="1205.53,-113.667 1214.51,-108.05 1203.98,-106.839 1205.53,-113.667"/>
</g>
<!-- 18 -->
<g id="node19" class="node"><title>18</title>
<path fill="none" stroke="#56b9d8" stroke-width="2" d="M538.018,-921C538.018,-921 496.018,-921 496.018,-921 490.018,-921 484.018,-915 484.018,-909 484.018,-909 484.018,-892 484.018,-892 484.018,-886 490.018,-880 496.018,-880 496.018,-880 538.018,-880 538.018,-880 544.018,-880 550.018,-886 550.018,-892 550.018,-892 550.018,-909 550.018,-909 550.018,-915 544.018,-921 538.018,-921"/>
<text text-anchor="middle" x="517.018" y="-909" font-family="sans" font-size="10.00">qcreads_il</text>
<text text-anchor="middle" x="517.018" y="-898" font-family="sans" font-size="10.00">lib: C</text>
<text text-anchor="middle" x="517.018" y="-887" font-family="sans" font-size="10.00">run: run_2</text>
</g>
<!-- 18&#45;&gt;0 -->
<g id="edge18" class="edge"><title>18&#45;&gt;0</title>
<path fill="none" stroke="grey" stroke-width="2" d="M511.411,-879.573C494.317,-817.001 444.018,-618.64 444.018,-451 444.018,-451 444.018,-451 444.018,-161 444.018,-117.813 447.661,-96.8 483.018,-72 546.581,-27.4143 1102.77,-20.3083 1252.84,-19.2002"/>
<polygon fill="grey" stroke="grey" stroke-width="2" points="1252.96,-22.6996 1262.93,-19.1304 1252.91,-15.6998 1252.96,-22.6996"/>
</g>
<!-- 18&#45;&gt;13 -->
<g id="edge41" class="edge"><title>18&#45;&gt;13</title>
<path fill="none" stroke="grey" stroke-width="2" d="M486.438,-879.88C471.904,-870.556 454.449,-859.356 439.351,-849.669"/>
<polygon fill="grey" stroke="grey" stroke-width="2" points="441.08,-846.621 430.773,-844.166 437.3,-852.512 441.08,-846.621"/>
</g>
<!-- 37 -->
<g id="node38" class="node"><title>37</title>
<path fill="none" stroke="#d85656" stroke-width="2" d="M576.018,-844C576.018,-844 524.018,-844 524.018,-844 518.018,-844 512.018,-838 512.018,-832 512.018,-832 512.018,-820 512.018,-820 512.018,-814 518.018,-808 524.018,-808 524.018,-808 576.018,-808 576.018,-808 582.018,-808 588.018,-814 588.018,-820 588.018,-820 588.018,-832 588.018,-832 588.018,-838 582.018,-844 576.018,-844"/>
<text text-anchor="middle" x="550.018" y="-829" font-family="sans" font-size="10.00">bwamem</text>
<text text-anchor="middle" x="550.018" y="-818" font-family="sans" font-size="10.00">ref: genome</text>
</g>
<!-- 18&#45;&gt;37 -->
<g id="edge69" class="edge"><title>18&#45;&gt;37</title>
<path fill="none" stroke="grey" stroke-width="2" d="M526.035,-879.689C529.695,-871.647 533.979,-862.236 537.905,-853.61"/>
<polygon fill="grey" stroke="grey" stroke-width="2" points="541.177,-854.871 542.134,-844.319 534.806,-851.971 541.177,-854.871"/>
</g>
<!-- 18&#45;&gt;41 -->
<g id="edge75" class="edge"><title>18&#45;&gt;41</title>
<path fill="none" stroke="grey" stroke-width="2" d="M550.314,-880.641C567.345,-870.994 588.178,-859.194 605.964,-849.12"/>
<polygon fill="grey" stroke="grey" stroke-width="2" points="607.974,-852.004 614.95,-844.03 604.524,-845.913 607.974,-852.004"/>
</g>
<!-- 19 -->
<g id="node20" class="node"><title>19</title>
<path fill="none" stroke="#d8b456" stroke-width="2" d="M1008.02,-684C1008.02,-684 930.018,-684 930.018,-684 924.018,-684 918.018,-678 918.018,-672 918.018,-672 918.018,-660 918.018,-660 918.018,-654 924.018,-648 930.018,-648 930.018,-648 1008.02,-648 1008.02,-648 1014.02,-648 1020.02,-654 1020.02,-660 1020.02,-660 1020.02,-672 1020.02,-672 1020.02,-678 1014.02,-684 1008.02,-684"/>
<text text-anchor="middle" x="969.018" y="-669" font-family="sans" font-size="10.00">mergebam_samp</text>
<text text-anchor="middle" x="969.018" y="-658" font-family="sans" font-size="10.00">sample: A</text>
</g>
<!-- 19&#45;&gt;0 -->
<g id="edge19" class="edge"><title>19&#45;&gt;0</title>
<path fill="none" stroke="grey" stroke-width="2" d="M1020.21,-665.264C1239.65,-666.064 2094.49,-665.682 2201.02,-612 2246.45,-589.103 2273.02,-573.879 2273.02,-523 2273.02,-523 2273.02,-523 2273.02,-161 2273.02,-114.266 2257.27,-95.7524 2217.02,-72 2139.42,-26.2037 1490.23,-19.9745 1327.1,-19.1313"/>
<polygon fill="grey" stroke="grey" stroke-width="2" points="1327.08,-15.6313 1317.07,-19.0832 1327.05,-22.6312 1327.08,-15.6313"/>
</g>
<!-- 19&#45;&gt;8 -->
<g id="edge29" class="edge"><title>19&#45;&gt;8</title>
<path fill="none" stroke="grey" stroke-width="2" d="M917.882,-655.193C856.045,-643.334 751.404,-623.266 680.09,-609.589"/>
<polygon fill="grey" stroke="grey" stroke-width="2" points="680.737,-606.15 670.257,-607.703 679.419,-613.024 680.737,-606.15"/>
</g>
<!-- 19&#45;&gt;10 -->
<g id="edge33" class="edge"><title>19&#45;&gt;10</title>
<path fill="none" stroke="grey" stroke-width="2" d="M1020.36,-664.487C1245.13,-662.022 2133.21,-649.909 2178.02,-612 2195.5,-597.209 2199.28,-570.635 2199.26,-550.363"/>
<polygon fill="grey" stroke="grey" stroke-width="2" points="2202.76,-550.035 2198.95,-540.149 2195.76,-550.253 2202.76,-550.035"/>
</g>
<!-- 19&#45;&gt;15 -->
<g id="edge42" class="edge"><title>19&#45;&gt;15</title>
<path fill="none" stroke="grey" stroke-width="2" d="M930.366,-647.876C908.767,-638.307 881.666,-626.3 858.751,-616.148"/>
<polygon fill="grey" stroke="grey" stroke-width="2" points="860.104,-612.919 849.543,-612.068 857.268,-619.319 860.104,-612.919"/>
</g>
<!-- 20 -->
<g id="node21" class="node"><title>20</title>
<path fill="none" stroke="#56d882" stroke-width="2" d="M2157.02,-612C2157.02,-612 2119.02,-612 2119.02,-612 2113.02,-612 2107.02,-606 2107.02,-600 2107.02,-600 2107.02,-588 2107.02,-588 2107.02,-582 2113.02,-576 2119.02,-576 2119.02,-576 2157.02,-576 2157.02,-576 2163.02,-576 2169.02,-582 2169.02,-588 2169.02,-588 2169.02,-600 2169.02,-600 2169.02,-606 2163.02,-612 2157.02,-612"/>
<text text-anchor="middle" x="2138.02" y="-591.5" font-family="sans" font-size="10.00">mashdist</text>
</g>
<!-- 20&#45;&gt;0 -->
<g id="edge20" class="edge"><title>20&#45;&gt;0</title>
<path fill="none" stroke="grey" stroke-width="2" d="M2137.31,-575.813C2136.87,-557.796 2137.01,-528.723 2141.02,-504 2150.29,-446.809 2178.02,-436.938 2178.02,-379 2178.02,-379 2178.02,-379 2178.02,-161 2178.02,-120.031 2185.76,-97.8985 2154.02,-72 2089.28,-19.1815 1484.99,-18.1341 1327.44,-18.7695"/>
<polygon fill="grey" stroke="grey" stroke-width="2" points="1327.28,-15.2701 1317.3,-18.8154 1327.31,-22.27 1327.28,-15.2701"/>
</g>
<!-- 21&#45;&gt;0 -->
<g id="edge21" class="edge"><title>21&#45;&gt;0</title>
<path fill="none" stroke="grey" stroke-width="2" d="M1290.02,-71.6966C1290.02,-63.9827 1290.02,-54.7125 1290.02,-46.1124"/>
<polygon fill="grey" stroke="grey" stroke-width="2" points="1293.52,-46.1043 1290.02,-36.1043 1286.52,-46.1044 1293.52,-46.1043"/>
</g>
<!-- 22 -->
<g id="node23" class="node"><title>22</title>
<path fill="none" stroke="#d86e56" stroke-width="2" d="M1350.52,-252C1350.52,-252 1311.52,-252 1311.52,-252 1305.52,-252 1299.52,-246 1299.52,-240 1299.52,-240 1299.52,-228 1299.52,-228 1299.52,-222 1305.52,-216 1311.52,-216 1311.52,-216 1350.52,-216 1350.52,-216 1356.52,-216 1362.52,-222 1362.52,-228 1362.52,-228 1362.52,-240 1362.52,-240 1362.52,-246 1356.52,-252 1350.52,-252"/>
<text text-anchor="middle" x="1331.02" y="-231.5" font-family="sans" font-size="10.00">bcfmerge</text>
</g>
<!-- 22&#45;&gt;0 -->
<g id="edge22" class="edge"><title>22&#45;&gt;0</title>
<path fill="none" stroke="grey" stroke-width="2" d="M1299.21,-225.517C1275.84,-218.173 1245.71,-204.412 1231.02,-180 1222.77,-166.291 1220.43,-155.995 1231.02,-144 1316.39,-47.2944 1433.65,-204.706 1519.02,-108 1529.61,-96.0051 1528.97,-84.5244 1519.02,-72 1495.48,-42.3932 1385.96,-27.8739 1327.32,-22.1159"/>
<polygon fill="grey" stroke="grey" stroke-width="2" points="1327.62,-18.629 1317.34,-21.1721 1326.96,-25.5979 1327.62,-18.629"/>
</g>
<!-- 22&#45;&gt;12 -->
<g id="edge36" class="edge"><title>22&#45;&gt;12</title>
<path fill="none" stroke="grey" stroke-width="2" d="M1359.88,-215.876C1375.31,-206.724 1394.5,-195.342 1411.11,-185.485"/>
<polygon fill="grey" stroke="grey" stroke-width="2" points="1413.23,-188.302 1420.04,-180.19 1409.65,-182.282 1413.23,-188.302"/>
</g>
<!-- 23 -->
<g id="node24" class="node"><title>23</title>
<path fill="none" stroke="#56c1d8" stroke-width="2" d="M2062.52,-180C2062.52,-180 1687.52,-180 1687.52,-180 1681.52,-180 1675.52,-174 1675.52,-168 1675.52,-168 1675.52,-156 1675.52,-156 1675.52,-150 1681.52,-144 1687.52,-144 1687.52,-144 2062.52,-144 2062.52,-144 2068.52,-144 2074.52,-150 2074.52,-156 2074.52,-156 2074.52,-168 2074.52,-168 2074.52,-174 2068.52,-180 2062.52,-180"/>
<text text-anchor="middle" x="1875.02" y="-165" font-family="sans" font-size="10.00">bcf2vcf</text>
<text text-anchor="middle" x="1875.02" y="-154" font-family="sans" font-size="10.00">path: data/variants/final/freebayes~bwa~genome~all_samples~filtered&#45;strict</text>
</g>
<!-- 22&#45;&gt;23 -->
<g id="edge53" class="edge"><title>22&#45;&gt;23</title>
<path fill="none" stroke="grey" stroke-width="2" d="M1362.62,-228.934C1433.1,-219.864 1606.86,-197.506 1732.51,-181.337"/>
<polygon fill="grey" stroke="grey" stroke-width="2" points="1733.14,-184.785 1742.61,-180.037 1732.25,-177.842 1733.14,-184.785"/>
</g>
<!-- 23&#45;&gt;0 -->
<g id="edge23" class="edge"><title>23&#45;&gt;0</title>
<path fill="none" stroke="grey" stroke-width="2" d="M1966.8,-143.98C2022.42,-129.784 2076.99,-106.297 2045.02,-72 1995.68,-19.0815 1472.44,-17.9885 1327.21,-18.7158"/>
<polygon fill="grey" stroke="grey" stroke-width="2" points="1327.01,-15.2168 1317.03,-18.7731 1327.05,-22.2167 1327.01,-15.2168"/>
</g>
<!-- 23&#45;&gt;9 -->
<g id="edge32" class="edge"><title>23&#45;&gt;9</title>
<path fill="none" stroke="grey" stroke-width="2" d="M1861.42,-143.697C1854.89,-135.389 1846.95,-125.277 1839.77,-116.141"/>
<polygon fill="grey" stroke="grey" stroke-width="2" points="1842.39,-113.805 1833.46,-108.104 1836.88,-118.13 1842.39,-113.805"/>
</g>
<!-- 24 -->
<g id="node25" class="node"><title>24</title>
<path fill="none" stroke="#56d8b9" stroke-width="2" d="M845.018,-396C845.018,-396 789.018,-396 789.018,-396 783.018,-396 777.018,-390 777.018,-384 777.018,-384 777.018,-372 777.018,-372 777.018,-366 783.018,-360 789.018,-360 789.018,-360 845.018,-360 845.018,-360 851.018,-360 857.018,-366 857.018,-372 857.018,-372 857.018,-384 857.018,-384 857.018,-390 851.018,-396 845.018,-396"/>
<text text-anchor="middle" x="817.018" y="-381" font-family="sans" font-size="10.00">bcffilter</text>
<text text-anchor="middle" x="817.018" y="-370" font-family="sans" font-size="10.00">filter: default</text>
</g>
<!-- 24&#45;&gt;4 -->
<g id="edge26" class="edge"><title>24&#45;&gt;4</title>
<path fill="none" stroke="grey" stroke-width="2" d="M816.432,-359.968C815.161,-341.309 811.206,-310.978 799.018,-288 793.364,-277.343 784.895,-267.395 776.424,-259.061"/>
<polygon fill="grey" stroke="grey" stroke-width="2" points="778.748,-256.443 769.05,-252.176 773.971,-261.559 778.748,-256.443"/>
</g>
<!-- 25 -->
<g id="node26" class="node"><title>25</title>
<path fill="none" stroke="#d85e56" stroke-width="2" d="M778.018,-324C778.018,-324 714.018,-324 714.018,-324 708.018,-324 702.018,-318 702.018,-312 702.018,-312 702.018,-300 702.018,-300 702.018,-294 708.018,-288 714.018,-288 714.018,-288 778.018,-288 778.018,-288 784.018,-288 790.018,-294 790.018,-300 790.018,-300 790.018,-312 790.018,-312 790.018,-318 784.018,-324 778.018,-324"/>
<text text-anchor="middle" x="746.018" y="-303.5" font-family="sans" font-size="10.00">bcfmerge_fofn</text>
</g>
<!-- 24&#45;&gt;25 -->
<g id="edge55" class="edge"><title>24&#45;&gt;25</title>
<path fill="none" stroke="grey" stroke-width="2" d="M799.467,-359.697C790.783,-351.135 780.155,-340.656 770.669,-331.304"/>
<polygon fill="grey" stroke="grey" stroke-width="2" points="772.945,-328.633 763.366,-324.104 768.03,-333.617 772.945,-328.633"/>
</g>
<!-- 25&#45;&gt;4 -->
<g id="edge27" class="edge"><title>25&#45;&gt;4</title>
<path fill="none" stroke="grey" stroke-width="2" d="M746.265,-287.697C746.375,-279.983 746.507,-270.712 746.63,-262.112"/>
<polygon fill="grey" stroke="grey" stroke-width="2" points="750.13,-262.153 746.773,-252.104 743.131,-262.053 750.13,-262.153"/>
</g>
<!-- 26 -->
<g id="node27" class="node"><title>26</title>
<path fill="none" stroke="#bed856" stroke-width="2" d="M372.018,-764C372.018,-764 280.018,-764 280.018,-764 274.018,-764 268.018,-758 268.018,-752 268.018,-752 268.018,-740 268.018,-740 268.018,-734 274.018,-728 280.018,-728 280.018,-728 372.018,-728 372.018,-728 378.018,-728 384.018,-734 384.018,-740 384.018,-740 384.018,-752 384.018,-752 384.018,-758 378.018,-764 372.018,-764"/>
<text text-anchor="middle" x="326.018" y="-749" font-family="sans" font-size="10.00">bam_markdups_sort</text>
<text text-anchor="middle" x="326.018" y="-738" font-family="sans" font-size="10.00">aligner: bwa</text>
</g>
<!-- 26&#45;&gt;11 -->
<g id="edge34" class="edge"><title>26&#45;&gt;11</title>
<path fill="none" stroke="grey" stroke-width="2" d="M326.461,-727.689C326.713,-717.894 327.032,-705.422 327.317,-694.335"/>
<polygon fill="grey" stroke="grey" stroke-width="2" points="330.817,-694.349 327.575,-684.262 323.82,-694.169 330.817,-694.349"/>
</g>
<!-- 27 -->
<g id="node28" class="node"><title>27</title>
<path fill="none" stroke="#bed856" stroke-width="2" d="M238.018,-764C238.018,-764 146.018,-764 146.018,-764 140.018,-764 134.018,-758 134.018,-752 134.018,-752 134.018,-740 134.018,-740 134.018,-734 140.018,-728 146.018,-728 146.018,-728 238.018,-728 238.018,-728 244.018,-728 250.018,-734 250.018,-740 250.018,-740 250.018,-752 250.018,-752 250.018,-758 244.018,-764 238.018,-764"/>
<text text-anchor="middle" x="192.018" y="-749" font-family="sans" font-size="10.00">bam_markdups_sort</text>
<text text-anchor="middle" x="192.018" y="-738" font-family="sans" font-size="10.00">aligner: bwa</text>
</g>
<!-- 27&#45;&gt;11 -->
<g id="edge35" class="edge"><title>27&#45;&gt;11</title>
<path fill="none" stroke="grey" stroke-width="2" d="M221.863,-727.883C241.704,-716.503 267.953,-701.449 289.384,-689.157"/>
<polygon fill="grey" stroke="grey" stroke-width="2" points="291.308,-692.089 298.241,-684.078 287.825,-686.017 291.308,-692.089"/>
</g>
<!-- 28 -->
<g id="node29" class="node"><title>28</title>
<path fill="none" stroke="#bed856" stroke-width="2" d="M601.018,-764C601.018,-764 509.018,-764 509.018,-764 503.018,-764 497.018,-758 497.018,-752 497.018,-752 497.018,-740 497.018,-740 497.018,-734 503.018,-728 509.018,-728 509.018,-728 601.018,-728 601.018,-728 607.018,-728 613.018,-734 613.018,-740 613.018,-740 613.018,-752 613.018,-752 613.018,-758 607.018,-764 601.018,-764"/>
<text text-anchor="middle" x="555.018" y="-749" font-family="sans" font-size="10.00">bam_markdups_sort</text>
<text text-anchor="middle" x="555.018" y="-738" font-family="sans" font-size="10.00">aligner: bwa</text>
</g>
<!-- 28&#45;&gt;16 -->
<g id="edge45" class="edge"><title>28&#45;&gt;16</title>
<path fill="none" stroke="grey" stroke-width="2" d="M602.922,-727.965C610.943,-725.228 619.198,-722.482 627.018,-720 667.71,-707.085 713.881,-693.79 749.793,-683.746"/>
<polygon fill="grey" stroke="grey" stroke-width="2" points="750.944,-687.059 759.637,-681.002 749.065,-680.316 750.944,-687.059"/>
</g>
<!-- 29 -->
<g id="node30" class="node"><title>29</title>
<path fill="none" stroke="#bed856" stroke-width="2" d="M863.018,-764C863.018,-764 771.018,-764 771.018,-764 765.018,-764 759.018,-758 759.018,-752 759.018,-752 759.018,-740 759.018,-740 759.018,-734 765.018,-728 771.018,-728 771.018,-728 863.018,-728 863.018,-728 869.018,-728 875.018,-734 875.018,-740 875.018,-740 875.018,-752 875.018,-752 875.018,-758 869.018,-764 863.018,-764"/>
<text text-anchor="middle" x="817.018" y="-749" font-family="sans" font-size="10.00">bam_markdups_sort</text>
<text text-anchor="middle" x="817.018" y="-738" font-family="sans" font-size="10.00">aligner: bwa</text>
</g>
<!-- 29&#45;&gt;16 -->
<g id="edge46" class="edge"><title>29&#45;&gt;16</title>
<path fill="none" stroke="grey" stroke-width="2" d="M815.686,-727.689C814.932,-717.894 813.973,-705.422 813.12,-694.335"/>
<polygon fill="grey" stroke="grey" stroke-width="2" points="816.602,-693.964 812.345,-684.262 809.623,-694.501 816.602,-693.964"/>
</g>
<!-- 30 -->
<g id="node31" class="node"><title>30</title>
<path fill="none" stroke="#bed856" stroke-width="2" d="M1003.02,-764C1003.02,-764 911.018,-764 911.018,-764 905.018,-764 899.018,-758 899.018,-752 899.018,-752 899.018,-740 899.018,-740 899.018,-734 905.018,-728 911.018,-728 911.018,-728 1003.02,-728 1003.02,-728 1009.02,-728 1015.02,-734 1015.02,-740 1015.02,-740 1015.02,-752 1015.02,-752 1015.02,-758 1009.02,-764 1003.02,-764"/>
<text text-anchor="middle" x="957.018" y="-749" font-family="sans" font-size="10.00">bam_markdups_sort</text>
<text text-anchor="middle" x="957.018" y="-738" font-family="sans" font-size="10.00">aligner: bwa</text>
</g>
<!-- 30&#45;&gt;19 -->
<g id="edge48" class="edge"><title>30&#45;&gt;19</title>
<path fill="none" stroke="grey" stroke-width="2" d="M959.681,-727.689C961.188,-717.894 963.106,-705.422 964.812,-694.335"/>
<polygon fill="grey" stroke="grey" stroke-width="2" points="968.3,-694.678 966.362,-684.262 961.382,-693.614 968.3,-694.678"/>
</g>
<!-- 31 -->
<g id="node32" class="node"><title>31</title>
<path fill="none" stroke="#56a9d8" stroke-width="2" d="M720.018,-772C720.018,-772 648.018,-772 648.018,-772 642.018,-772 636.018,-766 636.018,-760 636.018,-760 636.018,-732 636.018,-732 636.018,-726 642.018,-720 648.018,-720 648.018,-720 720.018,-720 720.018,-720 726.018,-720 732.018,-726 732.018,-732 732.018,-732 732.018,-760 732.018,-760 732.018,-766 726.018,-772 720.018,-772"/>
<text text-anchor="middle" x="684.018" y="-760" font-family="sans" font-size="10.00">mashsketch</text>
<text text-anchor="middle" x="684.018" y="-749" font-family="sans" font-size="10.00">ksize: 21</text>
<text text-anchor="middle" x="684.018" y="-738" font-family="sans" font-size="10.00">set: all_samples</text>
<text text-anchor="middle" x="684.018" y="-727" font-family="sans" font-size="10.00">sketchsize: 1e5</text>
</g>
<!-- 31&#45;&gt;20 -->
<g id="edge49" class="edge"><title>31&#45;&gt;20</title>
<path fill="none" stroke="grey" stroke-width="2" d="M732.172,-726.296C738.158,-724.108 744.213,-721.96 750.018,-720 803.176,-702.051 822.432,-712.063 871.018,-684 891.163,-672.364 887.539,-656.939 909.018,-648 1030.53,-597.427 1963.92,-637.606 2093.02,-612 2094.31,-611.744 2095.61,-611.455 2096.92,-611.139"/>
<polygon fill="grey" stroke="grey" stroke-width="2" points="2098.3,-614.383 2106.94,-608.249 2096.36,-607.658 2098.3,-614.383"/>
</g>
<!-- 32 -->
<g id="node33" class="node"><title>32</title>
<path fill="none" stroke="#d85e56" stroke-width="2" d="M1363.02,-324C1363.02,-324 1299.02,-324 1299.02,-324 1293.02,-324 1287.02,-318 1287.02,-312 1287.02,-312 1287.02,-300 1287.02,-300 1287.02,-294 1293.02,-288 1299.02,-288 1299.02,-288 1363.02,-288 1363.02,-288 1369.02,-288 1375.02,-294 1375.02,-300 1375.02,-300 1375.02,-312 1375.02,-312 1375.02,-318 1369.02,-324 1363.02,-324"/>
<text text-anchor="middle" x="1331.02" y="-303.5" font-family="sans" font-size="10.00">bcfmerge_fofn</text>
</g>
<!-- 32&#45;&gt;22 -->
<g id="edge51" class="edge"><title>32&#45;&gt;22</title>
<path fill="none" stroke="grey" stroke-width="2" d="M1331.02,-287.697C1331.02,-279.983 1331.02,-270.712 1331.02,-262.112"/>
<polygon fill="grey" stroke="grey" stroke-width="2" points="1334.52,-262.104 1331.02,-252.104 1327.52,-262.104 1334.52,-262.104"/>
</g>
<!-- 33 -->
<g id="node34" class="node"><title>33</title>
<path fill="none" stroke="#56d8b9" stroke-width="2" d="M1282.02,-396C1282.02,-396 1236.02,-396 1236.02,-396 1230.02,-396 1224.02,-390 1224.02,-384 1224.02,-384 1224.02,-372 1224.02,-372 1224.02,-366 1230.02,-360 1236.02,-360 1236.02,-360 1282.02,-360 1282.02,-360 1288.02,-360 1294.02,-366 1294.02,-372 1294.02,-372 1294.02,-384 1294.02,-384 1294.02,-390 1288.02,-396 1282.02,-396"/>
<text text-anchor="middle" x="1259.02" y="-381" font-family="sans" font-size="10.00">bcffilter</text>
<text text-anchor="middle" x="1259.02" y="-370" font-family="sans" font-size="10.00">filter: strict</text>
</g>
<!-- 33&#45;&gt;22 -->
<g id="edge52" class="edge"><title>33&#45;&gt;22</title>
<path fill="none" stroke="grey" stroke-width="2" d="M1259.79,-359.94C1261.27,-341.256 1265.57,-310.905 1278.02,-288 1283.83,-277.3 1292.48,-267.341 1301.11,-259.01"/>
<polygon fill="grey" stroke="grey" stroke-width="2" points="1303.61,-261.466 1308.62,-252.13 1298.88,-256.305 1303.61,-261.466"/>
</g>
<!-- 33&#45;&gt;32 -->
<g id="edge64" class="edge"><title>33&#45;&gt;32</title>
<path fill="none" stroke="grey" stroke-width="2" d="M1276.82,-359.697C1285.62,-351.135 1296.4,-340.656 1306.02,-331.304"/>
<polygon fill="grey" stroke="grey" stroke-width="2" points="1308.69,-333.585 1313.42,-324.104 1303.81,-328.566 1308.69,-333.585"/>
</g>
<!-- 34 -->
<g id="node35" class="node"><title>34</title>
<path fill="none" stroke="#59d856" stroke-width="2" d="M854.018,-468C854.018,-468 780.018,-468 780.018,-468 774.018,-468 768.018,-462 768.018,-456 768.018,-456 768.018,-444 768.018,-444 768.018,-438 774.018,-432 780.018,-432 780.018,-432 854.018,-432 854.018,-432 860.018,-432 866.018,-438 866.018,-444 866.018,-444 866.018,-456 866.018,-456 866.018,-462 860.018,-468 854.018,-468"/>
<text text-anchor="middle" x="817.018" y="-453" font-family="sans" font-size="10.00">bcfnorm</text>
<text text-anchor="middle" x="817.018" y="-442" font-family="sans" font-size="10.00">caller: freebayes</text>
</g>
<!-- 34&#45;&gt;24 -->
<g id="edge54" class="edge"><title>34&#45;&gt;24</title>
<path fill="none" stroke="grey" stroke-width="2" d="M817.018,-431.697C817.018,-423.983 817.018,-414.712 817.018,-406.112"/>
<polygon fill="grey" stroke="grey" stroke-width="2" points="820.518,-406.104 817.018,-396.104 813.518,-406.104 820.518,-406.104"/>
</g>
<!-- 34&#45;&gt;33 -->
<g id="edge65" class="edge"><title>34&#45;&gt;33</title>
<path fill="none" stroke="grey" stroke-width="2" d="M866.434,-441.174C952.934,-427.475 1130.5,-399.354 1213.89,-386.148"/>
<polygon fill="grey" stroke="grey" stroke-width="2" points="1214.49,-389.596 1223.81,-384.575 1213.39,-382.683 1214.49,-389.596"/>
</g>
<!-- 35&#45;&gt;26 -->
<g id="edge56" class="edge"><title>35&#45;&gt;26</title>
<path fill="none" stroke="grey" stroke-width="2" d="M302.675,-807.689C306.521,-797.692 311.438,-784.906 315.767,-773.651"/>
<polygon fill="grey" stroke="grey" stroke-width="2" points="319.055,-774.852 319.378,-764.262 312.522,-772.339 319.055,-774.852"/>
</g>
<!-- 36&#45;&gt;27 -->
<g id="edge57" class="edge"><title>36&#45;&gt;27</title>
<path fill="none" stroke="grey" stroke-width="2" d="M95.2298,-807.883C113.159,-796.605 136.826,-781.717 156.269,-769.487"/>
<polygon fill="grey" stroke="grey" stroke-width="2" points="158.268,-772.365 164.869,-764.078 154.54,-766.439 158.268,-772.365"/>
</g>
<!-- 37&#45;&gt;28 -->
<g id="edge58" class="edge"><title>37&#45;&gt;28</title>
<path fill="none" stroke="grey" stroke-width="2" d="M551.127,-807.689C551.755,-797.894 552.555,-785.422 553.265,-774.335"/>
<polygon fill="grey" stroke="grey" stroke-width="2" points="556.764,-774.466 553.911,-764.262 549.778,-774.018 556.764,-774.466"/>
</g>
<!-- 38&#45;&gt;29 -->
<g id="edge59" class="edge"><title>38&#45;&gt;29</title>
<path fill="none" stroke="grey" stroke-width="2" d="M831.023,-807.689C828.762,-797.894 825.884,-785.422 823.326,-774.335"/>
<polygon fill="grey" stroke="grey" stroke-width="2" points="826.66,-773.219 821.001,-764.262 819.839,-774.793 826.66,-773.219"/>
</g>
<!-- 39&#45;&gt;30 -->
<g id="edge60" class="edge"><title>39&#45;&gt;30</title>
<path fill="none" stroke="grey" stroke-width="2" d="M948.459,-807.689C949.84,-797.894 951.599,-785.422 953.163,-774.335"/>
<polygon fill="grey" stroke="grey" stroke-width="2" points="956.652,-774.653 954.583,-764.262 949.721,-773.676 956.652,-774.653"/>
</g>
<!-- 40&#45;&gt;31 -->
<g id="edge61" class="edge"><title>40&#45;&gt;31</title>
<path fill="none" stroke="grey" stroke-width="2" d="M239.553,-810.441C242.728,-809.521 245.91,-808.689 249.018,-808 411.613,-771.931 460.233,-811.549 622.018,-772 623.286,-771.69 624.562,-771.359 625.844,-771.009"/>
<polygon fill="grey" stroke="grey" stroke-width="2" points="627.169,-774.265 635.717,-768.005 625.131,-767.568 627.169,-774.265"/>
</g>
<!-- 41&#45;&gt;31 -->
<g id="edge62" class="edge"><title>41&#45;&gt;31</title>
<path fill="none" stroke="grey" stroke-width="2" d="M653.673,-807.689C657.578,-799.88 662.333,-790.369 666.91,-781.215"/>
<polygon fill="grey" stroke="grey" stroke-width="2" points="670.047,-782.767 671.389,-772.257 663.786,-779.636 670.047,-782.767"/>
</g>
<!-- 42&#45;&gt;31 -->
<g id="edge63" class="edge"><title>42&#45;&gt;31</title>
<path fill="none" stroke="grey" stroke-width="2" d="M727.589,-807.689C721.866,-799.717 714.869,-789.972 708.172,-780.644"/>
<polygon fill="grey" stroke="grey" stroke-width="2" points="710.826,-778.339 702.151,-772.257 705.14,-782.422 710.826,-778.339"/>
</g>
<!-- 43&#45;&gt;34 -->
<g id="edge66" class="edge"><title>43&#45;&gt;34</title>
<path fill="none" stroke="grey" stroke-width="2" d="M816.265,-503.697C816.375,-495.983 816.507,-486.712 816.63,-478.112"/>
<polygon fill="grey" stroke="grey" stroke-width="2" points="820.13,-478.153 816.773,-468.104 813.131,-478.053 820.13,-478.153"/>
</g>
</g>
</svg>
