<?xml version="1.0" encoding="UTF-8" standalone="no"?>
<!DOCTYPE svg PUBLIC "-//W3C//DTD SVG 1.1//EN"
 "http://www.w3.org/Graphics/SVG/1.1/DTD/svg11.dtd">
<!-- Generated by graphviz version 2.38.0 (20140413.2041)
 -->
<!-- Title: snakemake_dag Pages: 1 -->
<svg width="3754pt" height="934pt"
 viewBox="0.00 0.00 3754.00 934.00" xmlns="http://www.w3.org/2000/svg" xmlns:xlink="http://www.w3.org/1999/xlink">
<g id="graph0" class="graph" transform="scale(1 1) rotate(0) translate(4 930)">
<title>snakemake_dag</title>
<polygon fill="white" stroke="none" points="-4,4 -4,-930 3750,-930 3750,4 -4,4"/>
<!-- 0 -->
<g id="node1" class="node"><title>0</title>
<path fill="none" stroke="#5673d8" stroke-width="2" d="M1738,-36C1738,-36 1708,-36 1708,-36 1702,-36 1696,-30 1696,-24 1696,-24 1696,-12 1696,-12 1696,-6 1702,-0 1708,-0 1708,-0 1738,-0 1738,-0 1744,-0 1750,-6 1750,-12 1750,-12 1750,-24 1750,-24 1750,-30 1744,-36 1738,-36"/>
<text text-anchor="middle" x="1723" y="-15.5" font-family="sans" font-size="10.00">all</text>
</g>
<!-- 1 -->
<g id="node2" class="node"><title>1</title>
<path fill="none" stroke="#70d856" stroke-width="2" d="M979,-180C979,-180 901,-180 901,-180 895,-180 889,-174 889,-168 889,-168 889,-156 889,-156 889,-150 895,-144 901,-144 901,-144 979,-144 979,-144 985,-144 991,-150 991,-156 991,-156 991,-168 991,-168 991,-174 985,-180 979,-180"/>
<text text-anchor="middle" x="940" y="-165" font-family="sans" font-size="10.00">mergebam_samp</text>
<text text-anchor="middle" x="940" y="-154" font-family="sans" font-size="10.00">sample: A</text>
</g>
<!-- 1&#45;&gt;0 -->
<g id="edge1" class="edge"><title>1&#45;&gt;0</title>
<path fill="none" stroke="grey" stroke-width="2" d="M938.984,-143.852C938.805,-123.298 942.018,-89.4501 963,-72 1018.93,-25.485 1539.98,-19.7758 1685.45,-19.0899"/>
<polygon fill="grey" stroke="grey" stroke-width="2" points="1685.66,-22.5892 1695.65,-19.0473 1685.63,-15.5892 1685.66,-22.5892"/>
</g>
<!-- 4 -->
<g id="node5" class="node"><title>4</title>
<path fill="none" stroke="#d8a456" stroke-width="2" d="M898.5,-108C898.5,-108 827.5,-108 827.5,-108 821.5,-108 815.5,-102 815.5,-96 815.5,-96 815.5,-84 815.5,-84 815.5,-78 821.5,-72 827.5,-72 827.5,-72 898.5,-72 898.5,-72 904.5,-72 910.5,-78 910.5,-84 910.5,-84 910.5,-96 910.5,-96 910.5,-102 904.5,-108 898.5,-108"/>
<text text-anchor="middle" x="863" y="-87.5" font-family="sans" font-size="10.00">bamstat_samps</text>
</g>
<!-- 1&#45;&gt;4 -->
<g id="edge33" class="edge"><title>1&#45;&gt;4</title>
<path fill="none" stroke="grey" stroke-width="2" d="M920.966,-143.697C911.455,-135.05 899.793,-124.449 889.43,-115.027"/>
<polygon fill="grey" stroke="grey" stroke-width="2" points="891.569,-112.241 881.815,-108.104 886.86,-117.421 891.569,-112.241"/>
</g>
<!-- 19 -->
<g id="node20" class="node"><title>19</title>
<path fill="none" stroke="#568ad8" stroke-width="2" d="M1627,-108C1627,-108 1519,-108 1519,-108 1513,-108 1507,-102 1507,-96 1507,-96 1507,-84 1507,-84 1507,-78 1513,-72 1519,-72 1519,-72 1627,-72 1627,-72 1633,-72 1639,-78 1639,-84 1639,-84 1639,-96 1639,-96 1639,-102 1633,-108 1627,-108"/>
<text text-anchor="middle" x="1573" y="-93" font-family="sans" font-size="10.00">mergebam_set</text>
<text text-anchor="middle" x="1573" y="-82" font-family="sans" font-size="10.00">sampleset: all_samples</text>
</g>
<!-- 1&#45;&gt;19 -->
<g id="edge50" class="edge"><title>1&#45;&gt;19</title>
<path fill="none" stroke="grey" stroke-width="2" d="M991.001,-151.376C1006.1,-148.739 1022.68,-146.045 1038,-144 1207.47,-121.372 1250.93,-125.502 1421,-108 1445.61,-105.467 1472.45,-102.525 1496.63,-99.8084"/>
<polygon fill="grey" stroke="grey" stroke-width="2" points="1497.27,-103.258 1506.81,-98.6596 1496.48,-96.3026 1497.27,-103.258"/>
</g>
<!-- 23 -->
<g id="node24" class="node"><title>23</title>
<path fill="none" stroke="#d8c356" stroke-width="2" d="M1777,-108C1777,-108 1669,-108 1669,-108 1663,-108 1657,-102 1657,-96 1657,-96 1657,-84 1657,-84 1657,-78 1663,-72 1669,-72 1669,-72 1777,-72 1777,-72 1783,-72 1789,-78 1789,-84 1789,-84 1789,-96 1789,-96 1789,-102 1783,-108 1777,-108"/>
<text text-anchor="middle" x="1723" y="-93" font-family="sans" font-size="10.00">bamlist</text>
<text text-anchor="middle" x="1723" y="-82" font-family="sans" font-size="10.00">sampleset: all_samples</text>
</g>
<!-- 1&#45;&gt;23 -->
<g id="edge57" class="edge"><title>1&#45;&gt;23</title>
<path fill="none" stroke="grey" stroke-width="2" d="M991.212,-150.994C1006.24,-148.363 1022.73,-145.769 1038,-144 1304.48,-113.123 1377.34,-145.34 1646.78,-108.026"/>
<polygon fill="grey" stroke="grey" stroke-width="2" points="1647.44,-111.468 1656.86,-106.611 1646.47,-104.536 1647.44,-111.468"/>
</g>
<!-- 2 -->
<g id="node3" class="node"><title>2</title>
<path fill="none" stroke="#c6d856" stroke-width="2" d="M3669,-926C3669,-926 3627,-926 3627,-926 3621,-926 3615,-920 3615,-914 3615,-914 3615,-897 3615,-897 3615,-891 3621,-885 3627,-885 3627,-885 3669,-885 3669,-885 3675,-885 3681,-891 3681,-897 3681,-897 3681,-914 3681,-914 3681,-920 3675,-926 3669,-926"/>
<text text-anchor="middle" x="3648" y="-914" font-family="sans" font-size="10.00">qcreads_il</text>
<text text-anchor="middle" x="3648" y="-903" font-family="sans" font-size="10.00">lib: B1</text>
<text text-anchor="middle" x="3648" y="-892" font-family="sans" font-size="10.00">run: run_1</text>
</g>
<!-- 2&#45;&gt;0 -->
<g id="edge2" class="edge"><title>2&#45;&gt;0</title>
<path fill="none" stroke="grey" stroke-width="2" d="M3672.1,-884.983C3683.2,-875.083 3695.88,-862.344 3705,-849 3731.4,-810.353 3746,-798.804 3746,-752 3746,-752 3746,-752 3746,-161 3746,-81.1767 3666.86,-93.5542 3590,-72 3408.01,-20.9623 2008.82,-18.9282 1760.59,-18.9716"/>
<polygon fill="grey" stroke="grey" stroke-width="2" points="1760.29,-15.4716 1750.29,-18.9747 1760.29,-22.4716 1760.29,-15.4716"/>
</g>
<!-- 28 -->
<g id="node29" class="node"><title>28</title>
<path fill="none" stroke="#bed856" stroke-width="2" d="M2857,-849C2857,-849 2777,-849 2777,-849 2771,-849 2765,-843 2765,-837 2765,-837 2765,-825 2765,-825 2765,-819 2771,-813 2777,-813 2777,-813 2857,-813 2857,-813 2863,-813 2869,-819 2869,-825 2869,-825 2869,-837 2869,-837 2869,-843 2863,-849 2857,-849"/>
<text text-anchor="middle" x="2817" y="-828.5" font-family="sans" font-size="10.00">read_count_librun</text>
</g>
<!-- 2&#45;&gt;28 -->
<g id="edge64" class="edge"><title>2&#45;&gt;28</title>
<path fill="none" stroke="grey" stroke-width="2" d="M3614.81,-900.498C3579.63,-896.328 3522.45,-889.751 3473,-885 3255.23,-864.075 2996.24,-844.802 2879.52,-836.416"/>
<polygon fill="grey" stroke="grey" stroke-width="2" points="2879.57,-832.911 2869.34,-835.687 2879.07,-839.893 2879.57,-832.911"/>
</g>
<!-- 50 -->
<g id="node51" class="node"><title>50</title>
<path fill="none" stroke="#d8ac56" stroke-width="2" d="M3392,-617C3392,-617 3344,-617 3344,-617 3338,-617 3332,-611 3332,-605 3332,-605 3332,-593 3332,-593 3332,-587 3338,-581 3344,-581 3344,-581 3392,-581 3392,-581 3398,-581 3404,-587 3404,-593 3404,-593 3404,-605 3404,-605 3404,-611 3398,-617 3392,-617"/>
<text text-anchor="middle" x="3368" y="-602" font-family="sans" font-size="10.00">bwamem</text>
<text text-anchor="middle" x="3368" y="-591" font-family="sans" font-size="10.00">ref: grandis</text>
</g>
<!-- 2&#45;&gt;50 -->
<g id="edge92" class="edge"><title>2&#45;&gt;50</title>
<path fill="none" stroke="grey" stroke-width="2" d="M3666.8,-884.878C3675.01,-874.953 3683.73,-862.224 3688,-849 3692.92,-833.774 3693.77,-827.924 3688,-813 3668.94,-763.699 3649.87,-757.265 3608,-725 3546.3,-677.45 3463.84,-639.056 3413.4,-617.906"/>
<polygon fill="grey" stroke="grey" stroke-width="2" points="3414.64,-614.631 3404.06,-614.034 3411.96,-621.097 3414.64,-614.631"/>
</g>
<!-- 54 -->
<g id="node55" class="node"><title>54</title>
<path fill="none" stroke="#56d863" stroke-width="2" d="M3457.5,-849C3457.5,-849 3404.5,-849 3404.5,-849 3398.5,-849 3392.5,-843 3392.5,-837 3392.5,-837 3392.5,-825 3392.5,-825 3392.5,-819 3398.5,-813 3404.5,-813 3404.5,-813 3457.5,-813 3457.5,-813 3463.5,-813 3469.5,-819 3469.5,-825 3469.5,-825 3469.5,-837 3469.5,-837 3469.5,-843 3463.5,-849 3457.5,-849"/>
<text text-anchor="middle" x="3431" y="-834" font-family="sans" font-size="10.00">samplefastq</text>
<text text-anchor="middle" x="3431" y="-823" font-family="sans" font-size="10.00">sample: B</text>
</g>
<!-- 2&#45;&gt;54 -->
<g id="edge97" class="edge"><title>2&#45;&gt;54</title>
<path fill="none" stroke="grey" stroke-width="2" d="M3614.89,-893.877C3582.7,-883.492 3532.19,-867.053 3479.3,-849.065"/>
<polygon fill="grey" stroke="grey" stroke-width="2" points="3480.34,-845.723 3469.75,-845.809 3478.08,-852.349 3480.34,-845.723"/>
</g>
<!-- 70 -->
<g id="node71" class="node"><title>70</title>
<path fill="none" stroke="#d8ac56" stroke-width="2" d="M3667.5,-849C3667.5,-849 3628.5,-849 3628.5,-849 3622.5,-849 3616.5,-843 3616.5,-837 3616.5,-837 3616.5,-825 3616.5,-825 3616.5,-819 3622.5,-813 3628.5,-813 3628.5,-813 3667.5,-813 3667.5,-813 3673.5,-813 3679.5,-819 3679.5,-825 3679.5,-825 3679.5,-837 3679.5,-837 3679.5,-843 3673.5,-849 3667.5,-849"/>
<text text-anchor="middle" x="3648" y="-834" font-family="sans" font-size="10.00">bwamem</text>
<text text-anchor="middle" x="3648" y="-823" font-family="sans" font-size="10.00">ref: mock</text>
</g>
<!-- 2&#45;&gt;70 -->
<g id="edge118" class="edge"><title>2&#45;&gt;70</title>
<path fill="none" stroke="grey" stroke-width="2" d="M3648,-884.689C3648,-876.907 3648,-867.842 3648,-859.447"/>
<polygon fill="grey" stroke="grey" stroke-width="2" points="3651.5,-859.319 3648,-849.319 3644.5,-859.32 3651.5,-859.319"/>
</g>
<!-- 3 -->
<g id="node4" class="node"><title>3</title>
<path fill="none" stroke="#c6d856" stroke-width="2" d="M2037,-926C2037,-926 1995,-926 1995,-926 1989,-926 1983,-920 1983,-914 1983,-914 1983,-897 1983,-897 1983,-891 1989,-885 1995,-885 1995,-885 2037,-885 2037,-885 2043,-885 2049,-891 2049,-897 2049,-897 2049,-914 2049,-914 2049,-920 2043,-926 2037,-926"/>
<text text-anchor="middle" x="2016" y="-914" font-family="sans" font-size="10.00">qcreads_il</text>
<text text-anchor="middle" x="2016" y="-903" font-family="sans" font-size="10.00">lib: C</text>
<text text-anchor="middle" x="2016" y="-892" font-family="sans" font-size="10.00">run: run_1</text>
</g>
<!-- 3&#45;&gt;0 -->
<g id="edge3" class="edge"><title>3&#45;&gt;0</title>
<path fill="none" stroke="grey" stroke-width="2" d="M1982.8,-902.383C1753.68,-887.195 407.135,-788.367 93,-545 31.5592,-497.4 38,-456.722 38,-379 38,-379 38,-379 38,-161 38,-119.114 35.2494,-96.8065 69,-72 136.293,-22.5397 1446.2,-19.2038 1685.6,-19.0076"/>
<polygon fill="grey" stroke="grey" stroke-width="2" points="1685.88,-22.5075 1695.88,-19.0007 1685.87,-15.5075 1685.88,-22.5075"/>
</g>
<!-- 3&#45;&gt;28 -->
<g id="edge65" class="edge"><title>3&#45;&gt;28</title>
<path fill="none" stroke="grey" stroke-width="2" d="M2049.15,-901.5C2170.84,-890.485 2594.27,-852.159 2754.72,-837.637"/>
<polygon fill="grey" stroke="grey" stroke-width="2" points="2755.26,-841.103 2764.9,-836.715 2754.63,-834.131 2755.26,-841.103"/>
</g>
<!-- 47 -->
<g id="node48" class="node"><title>47</title>
<path fill="none" stroke="#d8ac56" stroke-width="2" d="M1852,-849C1852,-849 1804,-849 1804,-849 1798,-849 1792,-843 1792,-837 1792,-837 1792,-825 1792,-825 1792,-819 1798,-813 1804,-813 1804,-813 1852,-813 1852,-813 1858,-813 1864,-819 1864,-825 1864,-825 1864,-837 1864,-837 1864,-843 1858,-849 1852,-849"/>
<text text-anchor="middle" x="1828" y="-834" font-family="sans" font-size="10.00">bwamem</text>
<text text-anchor="middle" x="1828" y="-823" font-family="sans" font-size="10.00">ref: grandis</text>
</g>
<!-- 3&#45;&gt;47 -->
<g id="edge89" class="edge"><title>3&#45;&gt;47</title>
<path fill="none" stroke="grey" stroke-width="2" d="M1982.82,-891.705C1952.5,-880.014 1907.39,-862.617 1873.68,-849.615"/>
<polygon fill="grey" stroke="grey" stroke-width="2" points="1874.64,-846.235 1864.05,-845.902 1872.12,-852.766 1874.64,-846.235"/>
</g>
<!-- 53 -->
<g id="node54" class="node"><title>53</title>
<path fill="none" stroke="#56d863" stroke-width="2" d="M2042.5,-849C2042.5,-849 1989.5,-849 1989.5,-849 1983.5,-849 1977.5,-843 1977.5,-837 1977.5,-837 1977.5,-825 1977.5,-825 1977.5,-819 1983.5,-813 1989.5,-813 1989.5,-813 2042.5,-813 2042.5,-813 2048.5,-813 2054.5,-819 2054.5,-825 2054.5,-825 2054.5,-837 2054.5,-837 2054.5,-843 2048.5,-849 2042.5,-849"/>
<text text-anchor="middle" x="2016" y="-834" font-family="sans" font-size="10.00">samplefastq</text>
<text text-anchor="middle" x="2016" y="-823" font-family="sans" font-size="10.00">sample: C</text>
</g>
<!-- 3&#45;&gt;53 -->
<g id="edge96" class="edge"><title>3&#45;&gt;53</title>
<path fill="none" stroke="grey" stroke-width="2" d="M2016,-884.689C2016,-876.907 2016,-867.842 2016,-859.447"/>
<polygon fill="grey" stroke="grey" stroke-width="2" points="2019.5,-859.319 2016,-849.319 2012.5,-859.32 2019.5,-859.319"/>
</g>
<!-- 68 -->
<g id="node69" class="node"><title>68</title>
<path fill="none" stroke="#d8ac56" stroke-width="2" d="M2123.5,-849C2123.5,-849 2084.5,-849 2084.5,-849 2078.5,-849 2072.5,-843 2072.5,-837 2072.5,-837 2072.5,-825 2072.5,-825 2072.5,-819 2078.5,-813 2084.5,-813 2084.5,-813 2123.5,-813 2123.5,-813 2129.5,-813 2135.5,-819 2135.5,-825 2135.5,-825 2135.5,-837 2135.5,-837 2135.5,-843 2129.5,-849 2123.5,-849"/>
<text text-anchor="middle" x="2104" y="-834" font-family="sans" font-size="10.00">bwamem</text>
<text text-anchor="middle" x="2104" y="-823" font-family="sans" font-size="10.00">ref: mock</text>
</g>
<!-- 3&#45;&gt;68 -->
<g id="edge116" class="edge"><title>3&#45;&gt;68</title>
<path fill="none" stroke="grey" stroke-width="2" d="M2040.05,-884.689C2050.94,-875.715 2063.9,-865.036 2075.3,-855.645"/>
<polygon fill="grey" stroke="grey" stroke-width="2" points="2077.78,-858.138 2083.27,-849.078 2073.33,-852.736 2077.78,-858.138"/>
</g>
<!-- 4&#45;&gt;0 -->
<g id="edge4" class="edge"><title>4&#45;&gt;0</title>
<path fill="none" stroke="grey" stroke-width="2" d="M910.511,-74.9343C915.375,-73.8069 920.267,-72.7976 925,-72 1214.81,-23.156 1570.93,-18.8502 1685.57,-18.8235"/>
<polygon fill="grey" stroke="grey" stroke-width="2" points="1685.9,-22.3237 1695.9,-18.8329 1685.91,-15.3237 1685.9,-22.3237"/>
</g>
<!-- 5 -->
<g id="node6" class="node"><title>5</title>
<path fill="none" stroke="#56d8d8" stroke-width="2" d="M1747,-180C1747,-180 1433,-180 1433,-180 1427,-180 1421,-174 1421,-168 1421,-168 1421,-156 1421,-156 1421,-150 1427,-144 1433,-144 1433,-144 1747,-144 1747,-144 1753,-144 1759,-150 1759,-156 1759,-156 1759,-168 1759,-168 1759,-174 1753,-180 1747,-180"/>
<text text-anchor="middle" x="1590" y="-165" font-family="sans" font-size="10.00">bcf2vcf</text>
<text text-anchor="middle" x="1590" y="-154" font-family="sans" font-size="10.00">path: data/variants/final/mpileup~bwa~mock~test~filtered&#45;strict</text>
</g>
<!-- 5&#45;&gt;0 -->
<g id="edge5" class="edge"><title>5&#45;&gt;0</title>
<path fill="none" stroke="grey" stroke-width="2" d="M1528.59,-143.954C1511.16,-135.968 1494.17,-124.452 1484,-108 1475.59,-94.3896 1473.99,-84.4785 1484,-72 1508.84,-41.0434 1624.67,-27.0455 1685.48,-21.7391"/>
<polygon fill="grey" stroke="grey" stroke-width="2" points="1686.14,-25.1967 1695.81,-20.8756 1685.55,-18.2211 1686.14,-25.1967"/>
</g>
<!-- 30 -->
<g id="node31" class="node"><title>30</title>
<path fill="none" stroke="#56c1d8" stroke-width="2" d="M1400.5,-108C1400.5,-108 1055.5,-108 1055.5,-108 1049.5,-108 1043.5,-102 1043.5,-96 1043.5,-96 1043.5,-84 1043.5,-84 1043.5,-78 1049.5,-72 1055.5,-72 1055.5,-72 1400.5,-72 1400.5,-72 1406.5,-72 1412.5,-78 1412.5,-84 1412.5,-84 1412.5,-96 1412.5,-96 1412.5,-102 1406.5,-108 1400.5,-108"/>
<text text-anchor="middle" x="1228" y="-93" font-family="sans" font-size="10.00">variantidx</text>
<text text-anchor="middle" x="1228" y="-82" font-family="sans" font-size="10.00">path: data/variants/final/mpileup~bwa~mock~test~filtered&#45;strict.vcf.gz</text>
</g>
<!-- 5&#45;&gt;30 -->
<g id="edge70" class="edge"><title>5&#45;&gt;30</title>
<path fill="none" stroke="grey" stroke-width="2" d="M1501.91,-143.966C1448.81,-133.698 1381.08,-120.601 1326.25,-109.999"/>
<polygon fill="grey" stroke="grey" stroke-width="2" points="1326.66,-106.512 1316.17,-108.05 1325.33,-113.385 1326.66,-106.512"/>
</g>
<!-- 6 -->
<g id="node7" class="node"><title>6</title>
<path fill="none" stroke="#56c1d8" stroke-width="2" d="M680.5,-108C680.5,-108 325.5,-108 325.5,-108 319.5,-108 313.5,-102 313.5,-96 313.5,-96 313.5,-84 313.5,-84 313.5,-78 319.5,-72 325.5,-72 325.5,-72 680.5,-72 680.5,-72 686.5,-72 692.5,-78 692.5,-84 692.5,-84 692.5,-96 692.5,-96 692.5,-102 686.5,-108 680.5,-108"/>
<text text-anchor="middle" x="503" y="-93" font-family="sans" font-size="10.00">variantidx</text>
<text text-anchor="middle" x="503" y="-82" font-family="sans" font-size="10.00">path: data/variants/final/mpileup~bwa~mock~test~filtered&#45;default.vcf.gz</text>
</g>
<!-- 6&#45;&gt;0 -->
<g id="edge6" class="edge"><title>6&#45;&gt;0</title>
<path fill="none" stroke="grey" stroke-width="2" d="M692.512,-74.1901C703.502,-73.4239 714.392,-72.6877 725,-72 1099.71,-47.7064 1554.11,-26.6103 1685.67,-20.6671"/>
<polygon fill="grey" stroke="grey" stroke-width="2" points="1686.16,-24.1488 1695.99,-20.2021 1685.85,-17.1558 1686.16,-24.1488"/>
</g>
<!-- 7 -->
<g id="node8" class="node"><title>7</title>
<path fill="none" stroke="#56c1d8" stroke-width="2" d="M1391,-180C1391,-180 1059,-180 1059,-180 1053,-180 1047,-174 1047,-168 1047,-168 1047,-156 1047,-156 1047,-150 1053,-144 1059,-144 1059,-144 1391,-144 1391,-144 1397,-144 1403,-150 1403,-156 1403,-156 1403,-168 1403,-168 1403,-174 1397,-180 1391,-180"/>
<text text-anchor="middle" x="1225" y="-165" font-family="sans" font-size="10.00">variantidx</text>
<text text-anchor="middle" x="1225" y="-154" font-family="sans" font-size="10.00">path: data/variants/final/mpileup~bwa~mock~test~filtered&#45;strict.bcf</text>
</g>
<!-- 7&#45;&gt;0 -->
<g id="edge7" class="edge"><title>7&#45;&gt;0</title>
<path fill="none" stroke="grey" stroke-width="2" d="M1112.86,-143.982C1054.18,-130.497 1000.82,-107.834 1034,-72 1078.49,-23.9518 1548.27,-19.3099 1685.54,-18.984"/>
<polygon fill="grey" stroke="grey" stroke-width="2" points="1685.95,-22.4834 1695.94,-18.9662 1685.94,-15.4834 1685.95,-22.4834"/>
</g>
<!-- 8 -->
<g id="node9" class="node"><title>8</title>
<path fill="none" stroke="#d8a456" stroke-width="2" d="M1890.5,-108C1890.5,-108 1819.5,-108 1819.5,-108 1813.5,-108 1807.5,-102 1807.5,-96 1807.5,-96 1807.5,-84 1807.5,-84 1807.5,-78 1813.5,-72 1819.5,-72 1819.5,-72 1890.5,-72 1890.5,-72 1896.5,-72 1902.5,-78 1902.5,-84 1902.5,-84 1902.5,-96 1902.5,-96 1902.5,-102 1896.5,-108 1890.5,-108"/>
<text text-anchor="middle" x="1855" y="-87.5" font-family="sans" font-size="10.00">bamstat_samps</text>
</g>
<!-- 8&#45;&gt;0 -->
<g id="edge8" class="edge"><title>8&#45;&gt;0</title>
<path fill="none" stroke="grey" stroke-width="2" d="M1822.71,-71.8761C1803.47,-61.6731 1779.01,-48.6997 1759.12,-38.157"/>
<polygon fill="grey" stroke="grey" stroke-width="2" points="1760.54,-34.9446 1750.06,-33.3517 1757.26,-41.1289 1760.54,-34.9446"/>
</g>
<!-- 9 -->
<g id="node10" class="node"><title>9</title>
<path fill="none" stroke="#70d856" stroke-width="2" d="M1867,-180C1867,-180 1789,-180 1789,-180 1783,-180 1777,-174 1777,-168 1777,-168 1777,-156 1777,-156 1777,-150 1783,-144 1789,-144 1789,-144 1867,-144 1867,-144 1873,-144 1879,-150 1879,-156 1879,-156 1879,-168 1879,-168 1879,-174 1873,-180 1867,-180"/>
<text text-anchor="middle" x="1828" y="-165" font-family="sans" font-size="10.00">mergebam_samp</text>
<text text-anchor="middle" x="1828" y="-154" font-family="sans" font-size="10.00">sample: C</text>
</g>
<!-- 9&#45;&gt;0 -->
<g id="edge9" class="edge"><title>9&#45;&gt;0</title>
<path fill="none" stroke="grey" stroke-width="2" d="M1776.73,-145.951C1773.79,-145.25 1770.86,-144.593 1768,-144 1708.73,-131.718 1537.87,-153.543 1498,-108 1443.1,-45.2887 1608.46,-26.3234 1685.64,-20.9645"/>
<polygon fill="grey" stroke="grey" stroke-width="2" points="1686.16,-24.4381 1695.91,-20.2955 1685.7,-17.4529 1686.16,-24.4381"/>
</g>
<!-- 9&#45;&gt;8 -->
<g id="edge37" class="edge"><title>9&#45;&gt;8</title>
<path fill="none" stroke="grey" stroke-width="2" d="M1834.67,-143.697C1837.71,-135.813 1841.38,-126.304 1844.76,-117.546"/>
<polygon fill="grey" stroke="grey" stroke-width="2" points="1848.07,-118.694 1848.4,-108.104 1841.54,-116.175 1848.07,-118.694"/>
</g>
<!-- 9&#45;&gt;19 -->
<g id="edge51" class="edge"><title>9&#45;&gt;19</title>
<path fill="none" stroke="grey" stroke-width="2" d="M1776.95,-146.495C1773.92,-145.648 1770.92,-144.811 1768,-144 1727.83,-132.851 1682.94,-120.633 1646.36,-110.74"/>
<polygon fill="grey" stroke="grey" stroke-width="2" points="1646.84,-107.245 1636.28,-108.015 1645.02,-114.003 1646.84,-107.245"/>
</g>
<!-- 9&#45;&gt;23 -->
<g id="edge58" class="edge"><title>9&#45;&gt;23</title>
<path fill="none" stroke="grey" stroke-width="2" d="M1802.31,-143.876C1788.71,-134.808 1771.83,-123.552 1757.14,-113.759"/>
<polygon fill="grey" stroke="grey" stroke-width="2" points="1759.05,-110.825 1748.78,-108.19 1755.16,-116.649 1759.05,-110.825"/>
</g>
<!-- 10 -->
<g id="node11" class="node"><title>10</title>
<path fill="none" stroke="#56c1d8" stroke-width="2" d="M3472.5,-180C3472.5,-180 3091.5,-180 3091.5,-180 3085.5,-180 3079.5,-174 3079.5,-168 3079.5,-168 3079.5,-156 3079.5,-156 3079.5,-150 3085.5,-144 3091.5,-144 3091.5,-144 3472.5,-144 3472.5,-144 3478.5,-144 3484.5,-150 3484.5,-156 3484.5,-156 3484.5,-168 3484.5,-168 3484.5,-174 3478.5,-180 3472.5,-180"/>
<text text-anchor="middle" x="3282" y="-165" font-family="sans" font-size="10.00">variantidx</text>
<text text-anchor="middle" x="3282" y="-154" font-family="sans" font-size="10.00">path: data/variants/final/mpileup~bwa~mock~all_samples~filtered&#45;default.bcf</text>
</g>
<!-- 10&#45;&gt;0 -->
<g id="edge10" class="edge"><title>10&#45;&gt;0</title>
<path fill="none" stroke="grey" stroke-width="2" d="M3376.26,-143.971C3433.34,-129.77 3489.25,-106.282 3456,-72 3425.43,-40.4795 2010.02,-22.3787 1760.4,-19.4291"/>
<polygon fill="grey" stroke="grey" stroke-width="2" points="1760.09,-15.9253 1750.05,-19.3076 1760.01,-22.9248 1760.09,-15.9253"/>
</g>
<!-- 11 -->
<g id="node12" class="node"><title>11</title>
<path fill="none" stroke="#5692d8" stroke-width="2" d="M2416.5,-252C2416.5,-252 2377.5,-252 2377.5,-252 2371.5,-252 2365.5,-246 2365.5,-240 2365.5,-240 2365.5,-228 2365.5,-228 2365.5,-222 2371.5,-216 2377.5,-216 2377.5,-216 2416.5,-216 2416.5,-216 2422.5,-216 2428.5,-222 2428.5,-228 2428.5,-228 2428.5,-240 2428.5,-240 2428.5,-246 2422.5,-252 2416.5,-252"/>
<text text-anchor="middle" x="2397" y="-231.5" font-family="sans" font-size="10.00">bcfmerge</text>
</g>
<!-- 11&#45;&gt;0 -->
<g id="edge11" class="edge"><title>11&#45;&gt;0</title>
<path fill="none" stroke="grey" stroke-width="2" d="M2400.99,-215.896C2407.6,-182.77 2416.45,-109.804 2377,-72 2332.3,-29.1738 1892.02,-20.8637 1760.14,-19.3308"/>
<polygon fill="grey" stroke="grey" stroke-width="2" points="1760.16,-15.8309 1750.12,-19.2206 1760.08,-22.8305 1760.16,-15.8309"/>
</g>
<!-- 12 -->
<g id="node13" class="node"><title>12</title>
<path fill="none" stroke="#56d8d8" stroke-width="2" d="M2340.5,-180C2340.5,-180 1987.5,-180 1987.5,-180 1981.5,-180 1975.5,-174 1975.5,-168 1975.5,-168 1975.5,-156 1975.5,-156 1975.5,-150 1981.5,-144 1987.5,-144 1987.5,-144 2340.5,-144 2340.5,-144 2346.5,-144 2352.5,-150 2352.5,-156 2352.5,-156 2352.5,-168 2352.5,-168 2352.5,-174 2346.5,-180 2340.5,-180"/>
<text text-anchor="middle" x="2164" y="-165" font-family="sans" font-size="10.00">bcf2vcf</text>
<text text-anchor="middle" x="2164" y="-154" font-family="sans" font-size="10.00">path: data/variants/final/mpileup~bwa~mock~all_samples~filtered&#45;strict</text>
</g>
<!-- 11&#45;&gt;12 -->
<g id="edge43" class="edge"><title>11&#45;&gt;12</title>
<path fill="none" stroke="grey" stroke-width="2" d="M2365.09,-223.414C2330.68,-213.075 2274.9,-196.317 2230.8,-183.07"/>
<polygon fill="grey" stroke="grey" stroke-width="2" points="2231.6,-179.654 2221.02,-180.129 2229.59,-186.358 2231.6,-179.654"/>
</g>
<!-- 15 -->
<g id="node16" class="node"><title>15</title>
<path fill="none" stroke="#56c1d8" stroke-width="2" d="M2808.5,-108C2808.5,-108 2437.5,-108 2437.5,-108 2431.5,-108 2425.5,-102 2425.5,-96 2425.5,-96 2425.5,-84 2425.5,-84 2425.5,-78 2431.5,-72 2437.5,-72 2437.5,-72 2808.5,-72 2808.5,-72 2814.5,-72 2820.5,-78 2820.5,-84 2820.5,-84 2820.5,-96 2820.5,-96 2820.5,-102 2814.5,-108 2808.5,-108"/>
<text text-anchor="middle" x="2623" y="-93" font-family="sans" font-size="10.00">variantidx</text>
<text text-anchor="middle" x="2623" y="-82" font-family="sans" font-size="10.00">path: data/variants/final/mpileup~bwa~mock~all_samples~filtered&#45;strict.bcf</text>
</g>
<!-- 11&#45;&gt;15 -->
<g id="edge47" class="edge"><title>11&#45;&gt;15</title>
<path fill="none" stroke="grey" stroke-width="2" d="M2424.26,-215.871C2464.98,-190.284 2541.75,-142.052 2587.03,-113.603"/>
<polygon fill="grey" stroke="grey" stroke-width="2" points="2589.04,-116.473 2595.64,-108.189 2585.31,-110.546 2589.04,-116.473"/>
</g>
<!-- 12&#45;&gt;0 -->
<g id="edge12" class="edge"><title>12&#45;&gt;0</title>
<path fill="none" stroke="grey" stroke-width="2" d="M2050.39,-143.981C2016.77,-136.053 1980.75,-124.563 1950,-108 1929.23,-96.8132 1931.59,-83.5177 1911,-72 1862.64,-44.9451 1799.43,-30.8352 1760.02,-24.1674"/>
<polygon fill="grey" stroke="grey" stroke-width="2" points="1760.48,-20.6971 1750.05,-22.5542 1759.36,-27.6071 1760.48,-20.6971"/>
</g>
<!-- 29 -->
<g id="node30" class="node"><title>29</title>
<path fill="none" stroke="#56c1d8" stroke-width="2" d="M2356.5,-108C2356.5,-108 1971.5,-108 1971.5,-108 1965.5,-108 1959.5,-102 1959.5,-96 1959.5,-96 1959.5,-84 1959.5,-84 1959.5,-78 1965.5,-72 1971.5,-72 1971.5,-72 2356.5,-72 2356.5,-72 2362.5,-72 2368.5,-78 2368.5,-84 2368.5,-84 2368.5,-96 2368.5,-96 2368.5,-102 2362.5,-108 2356.5,-108"/>
<text text-anchor="middle" x="2164" y="-93" font-family="sans" font-size="10.00">variantidx</text>
<text text-anchor="middle" x="2164" y="-82" font-family="sans" font-size="10.00">path: data/variants/final/mpileup~bwa~mock~all_samples~filtered&#45;strict.vcf.gz</text>
</g>
<!-- 12&#45;&gt;29 -->
<g id="edge69" class="edge"><title>12&#45;&gt;29</title>
<path fill="none" stroke="grey" stroke-width="2" d="M2164,-143.697C2164,-135.983 2164,-126.712 2164,-118.112"/>
<polygon fill="grey" stroke="grey" stroke-width="2" points="2167.5,-118.104 2164,-108.104 2160.5,-118.104 2167.5,-118.104"/>
</g>
<!-- 13 -->
<g id="node14" class="node"><title>13</title>
<path fill="none" stroke="#70d856" stroke-width="2" d="M2644,-180C2644,-180 2566,-180 2566,-180 2560,-180 2554,-174 2554,-168 2554,-168 2554,-156 2554,-156 2554,-150 2560,-144 2566,-144 2566,-144 2644,-144 2644,-144 2650,-144 2656,-150 2656,-156 2656,-156 2656,-168 2656,-168 2656,-174 2650,-180 2644,-180"/>
<text text-anchor="middle" x="2605" y="-165" font-family="sans" font-size="10.00">mergebam_samp</text>
<text text-anchor="middle" x="2605" y="-154" font-family="sans" font-size="10.00">sample: B</text>
</g>
<!-- 13&#45;&gt;0 -->
<g id="edge13" class="edge"><title>13&#45;&gt;0</title>
<path fill="none" stroke="grey" stroke-width="2" d="M2656.01,-146.323C2659.05,-145.519 2662.06,-144.739 2665,-144 2742.21,-124.607 2883.92,-129.62 2829,-72 2791.33,-32.4803 1949.27,-21.3614 1760.38,-19.3606"/>
<polygon fill="grey" stroke="grey" stroke-width="2" points="1760.16,-15.8583 1750.13,-19.2543 1760.09,-22.8579 1760.16,-15.8583"/>
</g>
<!-- 13&#45;&gt;19 -->
<g id="edge49" class="edge"><title>13&#45;&gt;19</title>
<path fill="none" stroke="grey" stroke-width="2" d="M2553.61,-157.133C2504.24,-153.486 2427.55,-147.998 2361,-144 2047.68,-125.177 1964.12,-150.672 1649.47,-108.054"/>
<polygon fill="grey" stroke="grey" stroke-width="2" points="1649.52,-104.529 1639.14,-106.642 1648.57,-111.464 1649.52,-104.529"/>
</g>
<!-- 22 -->
<g id="node23" class="node"><title>22</title>
<path fill="none" stroke="#d8a456" stroke-width="2" d="M2960.5,-108C2960.5,-108 2889.5,-108 2889.5,-108 2883.5,-108 2877.5,-102 2877.5,-96 2877.5,-96 2877.5,-84 2877.5,-84 2877.5,-78 2883.5,-72 2889.5,-72 2889.5,-72 2960.5,-72 2960.5,-72 2966.5,-72 2972.5,-78 2972.5,-84 2972.5,-84 2972.5,-96 2972.5,-96 2972.5,-102 2966.5,-108 2960.5,-108"/>
<text text-anchor="middle" x="2925" y="-87.5" font-family="sans" font-size="10.00">bamstat_samps</text>
</g>
<!-- 13&#45;&gt;22 -->
<g id="edge55" class="edge"><title>13&#45;&gt;22</title>
<path fill="none" stroke="grey" stroke-width="2" d="M2656.3,-146.113C2659.24,-145.371 2662.15,-144.661 2665,-144 2752.13,-123.785 2775.79,-127.845 2863,-108 2864.46,-107.667 2865.94,-107.323 2867.43,-106.968"/>
<polygon fill="grey" stroke="grey" stroke-width="2" points="2868.51,-110.307 2877.38,-104.511 2866.83,-103.512 2868.51,-110.307"/>
</g>
<!-- 13&#45;&gt;23 -->
<g id="edge56" class="edge"><title>13&#45;&gt;23</title>
<path fill="none" stroke="grey" stroke-width="2" d="M2553.6,-157.333C2504.22,-153.831 2427.52,-148.444 2361,-144 2114.12,-127.507 2047.9,-143.396 1799.21,-108.038"/>
<polygon fill="grey" stroke="grey" stroke-width="2" points="1799.54,-104.549 1789.15,-106.593 1798.55,-111.478 1799.54,-104.549"/>
</g>
<!-- 14 -->
<g id="node15" class="node"><title>14</title>
<path fill="none" stroke="#ced856" stroke-width="2" d="M1928,-542.5C1928,-542.5 1890,-542.5 1890,-542.5 1884,-542.5 1878,-536.5 1878,-530.5 1878,-530.5 1878,-518.5 1878,-518.5 1878,-512.5 1884,-506.5 1890,-506.5 1890,-506.5 1928,-506.5 1928,-506.5 1934,-506.5 1940,-512.5 1940,-518.5 1940,-518.5 1940,-530.5 1940,-530.5 1940,-536.5 1934,-542.5 1928,-542.5"/>
<text text-anchor="middle" x="1909" y="-522" font-family="sans" font-size="10.00">mashdist</text>
</g>
<!-- 14&#45;&gt;0 -->
<g id="edge14" class="edge"><title>14&#45;&gt;0</title>
<path fill="none" stroke="grey" stroke-width="2" d="M1877.67,-523.162C1654.59,-520.001 309.752,-488.207 94,-180 15.9859,-68.5551 110.379,-106.87 279,-72 559.427,-14.0095 1488.1,-17.2995 1685.79,-18.6904"/>
<polygon fill="grey" stroke="grey" stroke-width="2" points="1685.92,-22.1914 1695.95,-18.7649 1685.98,-15.1916 1685.92,-22.1914"/>
</g>
<!-- 15&#45;&gt;0 -->
<g id="edge15" class="edge"><title>15&#45;&gt;0</title>
<path fill="none" stroke="grey" stroke-width="2" d="M2425.24,-73.1216C2420.44,-72.7433 2415.69,-72.3689 2411,-72 2162.71,-52.4818 1863.97,-29.7121 1760.45,-21.8437"/>
<polygon fill="grey" stroke="grey" stroke-width="2" points="1760.44,-18.333 1750.21,-21.0651 1759.91,-25.3129 1760.44,-18.333"/>
</g>
<!-- 16 -->
<g id="node17" class="node"><title>16</title>
<path fill="none" stroke="#56d8d8" stroke-width="2" d="M3049.5,-180C3049.5,-180 2686.5,-180 2686.5,-180 2680.5,-180 2674.5,-174 2674.5,-168 2674.5,-168 2674.5,-156 2674.5,-156 2674.5,-150 2680.5,-144 2686.5,-144 2686.5,-144 3049.5,-144 3049.5,-144 3055.5,-144 3061.5,-150 3061.5,-156 3061.5,-156 3061.5,-168 3061.5,-168 3061.5,-174 3055.5,-180 3049.5,-180"/>
<text text-anchor="middle" x="2868" y="-165" font-family="sans" font-size="10.00">bcf2vcf</text>
<text text-anchor="middle" x="2868" y="-154" font-family="sans" font-size="10.00">path: data/variants/final/mpileup~bwa~mock~all_samples~filtered&#45;default</text>
</g>
<!-- 16&#45;&gt;0 -->
<g id="edge16" class="edge"><title>16&#45;&gt;0</title>
<path fill="none" stroke="grey" stroke-width="2" d="M2935.43,-143.94C2953.28,-136.023 2970.48,-124.551 2981,-108 2989.58,-94.4962 2992.07,-83.5494 2981,-72 2937.69,-26.8271 1965,-20.061 1760.51,-19.1367"/>
<polygon fill="grey" stroke="grey" stroke-width="2" points="1760.3,-15.6358 1750.28,-19.0925 1760.27,-22.6358 1760.3,-15.6358"/>
</g>
<!-- 20 -->
<g id="node21" class="node"><title>20</title>
<path fill="none" stroke="#56c1d8" stroke-width="2" d="M3435.5,-108C3435.5,-108 3040.5,-108 3040.5,-108 3034.5,-108 3028.5,-102 3028.5,-96 3028.5,-96 3028.5,-84 3028.5,-84 3028.5,-78 3034.5,-72 3040.5,-72 3040.5,-72 3435.5,-72 3435.5,-72 3441.5,-72 3447.5,-78 3447.5,-84 3447.5,-84 3447.5,-96 3447.5,-96 3447.5,-102 3441.5,-108 3435.5,-108"/>
<text text-anchor="middle" x="3238" y="-93" font-family="sans" font-size="10.00">variantidx</text>
<text text-anchor="middle" x="3238" y="-82" font-family="sans" font-size="10.00">path: data/variants/final/mpileup~bwa~mock~all_samples~filtered&#45;default.vcf.gz</text>
</g>
<!-- 16&#45;&gt;20 -->
<g id="edge52" class="edge"><title>16&#45;&gt;20</title>
<path fill="none" stroke="grey" stroke-width="2" d="M2958.04,-143.966C3012.42,-133.677 3081.83,-120.547 3137.92,-109.933"/>
<polygon fill="grey" stroke="grey" stroke-width="2" points="3138.7,-113.348 3147.88,-108.05 3137.4,-106.47 3138.7,-113.348"/>
</g>
<!-- 17 -->
<g id="node18" class="node"><title>17</title>
<path fill="none" stroke="#c6d856" stroke-width="2" d="M202,-926C202,-926 160,-926 160,-926 154,-926 148,-920 148,-914 148,-914 148,-897 148,-897 148,-891 154,-885 160,-885 160,-885 202,-885 202,-885 208,-885 214,-891 214,-897 214,-897 214,-914 214,-914 214,-920 208,-926 202,-926"/>
<text text-anchor="middle" x="181" y="-914" font-family="sans" font-size="10.00">qcreads_il</text>
<text text-anchor="middle" x="181" y="-903" font-family="sans" font-size="10.00">lib: A</text>
<text text-anchor="middle" x="181" y="-892" font-family="sans" font-size="10.00">run: run_1</text>
</g>
<!-- 17&#45;&gt;0 -->
<g id="edge17" class="edge"><title>17&#45;&gt;0</title>
<path fill="none" stroke="grey" stroke-width="2" d="M147.802,-893.672C95.5486,-874.3 0,-828.428 0,-752 0,-752 0,-752 0,-161 0,-117.99 2.48644,-96.2624 38,-72 108.321,-23.9573 1444.06,-19.4632 1685.69,-19.0432"/>
<polygon fill="grey" stroke="grey" stroke-width="2" points="1685.74,-22.5433 1695.73,-19.0271 1685.73,-15.5433 1685.74,-22.5433"/>
</g>
<!-- 17&#45;&gt;28 -->
<g id="edge67" class="edge"><title>17&#45;&gt;28</title>
<path fill="none" stroke="grey" stroke-width="2" d="M214.097,-903.817C414.961,-899.638 1491.2,-876.786 2369,-849 2506.74,-844.64 2668.24,-838.179 2754.76,-834.609"/>
<polygon fill="grey" stroke="grey" stroke-width="2" points="2755.08,-838.099 2764.93,-834.188 2754.79,-831.105 2755.08,-838.099"/>
</g>
<!-- 46 -->
<g id="node47" class="node"><title>46</title>
<path fill="none" stroke="#d8ac56" stroke-width="2" d="M126,-468C126,-468 78,-468 78,-468 72,-468 66,-462 66,-456 66,-456 66,-444 66,-444 66,-438 72,-432 78,-432 78,-432 126,-432 126,-432 132,-432 138,-438 138,-444 138,-444 138,-456 138,-456 138,-462 132,-468 126,-468"/>
<text text-anchor="middle" x="102" y="-453" font-family="sans" font-size="10.00">bwamem</text>
<text text-anchor="middle" x="102" y="-442" font-family="sans" font-size="10.00">ref: grandis</text>
</g>
<!-- 17&#45;&gt;46 -->
<g id="edge88" class="edge"><title>17&#45;&gt;46</title>
<path fill="none" stroke="grey" stroke-width="2" d="M161.054,-884.803C135.648,-857.515 95,-805.496 95,-752 95,-752 95,-752 95,-598 95,-556.314 97.8433,-508.054 99.9057,-478.531"/>
<polygon fill="grey" stroke="grey" stroke-width="2" points="103.423,-478.413 100.65,-468.187 96.4413,-477.91 103.423,-478.413"/>
</g>
<!-- 52 -->
<g id="node53" class="node"><title>52</title>
<path fill="none" stroke="#56d863" stroke-width="2" d="M1947.5,-849C1947.5,-849 1894.5,-849 1894.5,-849 1888.5,-849 1882.5,-843 1882.5,-837 1882.5,-837 1882.5,-825 1882.5,-825 1882.5,-819 1888.5,-813 1894.5,-813 1894.5,-813 1947.5,-813 1947.5,-813 1953.5,-813 1959.5,-819 1959.5,-825 1959.5,-825 1959.5,-837 1959.5,-837 1959.5,-843 1953.5,-849 1947.5,-849"/>
<text text-anchor="middle" x="1921" y="-834" font-family="sans" font-size="10.00">samplefastq</text>
<text text-anchor="middle" x="1921" y="-823" font-family="sans" font-size="10.00">sample: A</text>
</g>
<!-- 17&#45;&gt;52 -->
<g id="edge94" class="edge"><title>17&#45;&gt;52</title>
<path fill="none" stroke="grey" stroke-width="2" d="M214.006,-904.027C431.927,-900.823 1661.35,-881.504 1872.18,-848.58"/>
<polygon fill="grey" stroke="grey" stroke-width="2" points="1872.98,-851.994 1882.24,-846.85 1871.8,-845.095 1872.98,-851.994"/>
</g>
<!-- 67 -->
<g id="node68" class="node"><title>67</title>
<path fill="none" stroke="#d8ac56" stroke-width="2" d="M200.5,-849C200.5,-849 161.5,-849 161.5,-849 155.5,-849 149.5,-843 149.5,-837 149.5,-837 149.5,-825 149.5,-825 149.5,-819 155.5,-813 161.5,-813 161.5,-813 200.5,-813 200.5,-813 206.5,-813 212.5,-819 212.5,-825 212.5,-825 212.5,-837 212.5,-837 212.5,-843 206.5,-849 200.5,-849"/>
<text text-anchor="middle" x="181" y="-834" font-family="sans" font-size="10.00">bwamem</text>
<text text-anchor="middle" x="181" y="-823" font-family="sans" font-size="10.00">ref: mock</text>
</g>
<!-- 17&#45;&gt;67 -->
<g id="edge115" class="edge"><title>17&#45;&gt;67</title>
<path fill="none" stroke="grey" stroke-width="2" d="M181,-884.689C181,-876.907 181,-867.842 181,-859.447"/>
<polygon fill="grey" stroke="grey" stroke-width="2" points="184.5,-859.319 181,-849.319 177.5,-859.32 184.5,-859.319"/>
</g>
<!-- 18 -->
<g id="node19" class="node"><title>18</title>
<path fill="none" stroke="#c6d856" stroke-width="2" d="M3452,-926C3452,-926 3410,-926 3410,-926 3404,-926 3398,-920 3398,-914 3398,-914 3398,-897 3398,-897 3398,-891 3404,-885 3410,-885 3410,-885 3452,-885 3452,-885 3458,-885 3464,-891 3464,-897 3464,-897 3464,-914 3464,-914 3464,-920 3458,-926 3452,-926"/>
<text text-anchor="middle" x="3431" y="-914" font-family="sans" font-size="10.00">qcreads_il</text>
<text text-anchor="middle" x="3431" y="-903" font-family="sans" font-size="10.00">lib: B2</text>
<text text-anchor="middle" x="3431" y="-892" font-family="sans" font-size="10.00">run: run_1</text>
</g>
<!-- 18&#45;&gt;0 -->
<g id="edge18" class="edge"><title>18&#45;&gt;0</title>
<path fill="none" stroke="grey" stroke-width="2" d="M3464.25,-897.914C3494.56,-890.464 3539.03,-875.73 3569,-849 3630.78,-793.895 3627,-754.782 3627,-672 3627,-672 3627,-672 3627,-161 3627,-106.913 3593.28,-94.2856 3544,-72 3459.83,-33.9402 2012.46,-21.2052 1760.31,-19.2712"/>
<polygon fill="grey" stroke="grey" stroke-width="2" points="1760.22,-15.7705 1750.19,-19.1945 1760.17,-22.7703 1760.22,-15.7705"/>
</g>
<!-- 18&#45;&gt;28 -->
<g id="edge68" class="edge"><title>18&#45;&gt;28</title>
<path fill="none" stroke="grey" stroke-width="2" d="M3397.99,-900.602C3299.77,-889.004 3008.23,-854.58 2879.4,-839.368"/>
<polygon fill="grey" stroke="grey" stroke-width="2" points="2879.64,-835.872 2869.3,-838.175 2878.82,-842.824 2879.64,-835.872"/>
</g>
<!-- 51 -->
<g id="node52" class="node"><title>51</title>
<path fill="none" stroke="#d8ac56" stroke-width="2" d="M3548,-849C3548,-849 3500,-849 3500,-849 3494,-849 3488,-843 3488,-837 3488,-837 3488,-825 3488,-825 3488,-819 3494,-813 3500,-813 3500,-813 3548,-813 3548,-813 3554,-813 3560,-819 3560,-825 3560,-825 3560,-837 3560,-837 3560,-843 3554,-849 3548,-849"/>
<text text-anchor="middle" x="3524" y="-834" font-family="sans" font-size="10.00">bwamem</text>
<text text-anchor="middle" x="3524" y="-823" font-family="sans" font-size="10.00">ref: grandis</text>
</g>
<!-- 18&#45;&gt;51 -->
<g id="edge93" class="edge"><title>18&#45;&gt;51</title>
<path fill="none" stroke="grey" stroke-width="2" d="M3456.41,-884.689C3468.04,-875.628 3481.89,-864.828 3494.02,-855.372"/>
<polygon fill="grey" stroke="grey" stroke-width="2" points="3496.36,-857.987 3502.09,-849.078 3492.05,-852.466 3496.36,-857.987"/>
</g>
<!-- 18&#45;&gt;54 -->
<g id="edge98" class="edge"><title>18&#45;&gt;54</title>
<path fill="none" stroke="grey" stroke-width="2" d="M3431,-884.689C3431,-876.907 3431,-867.842 3431,-859.447"/>
<polygon fill="grey" stroke="grey" stroke-width="2" points="3434.5,-859.319 3431,-849.319 3427.5,-859.32 3434.5,-859.319"/>
</g>
<!-- 71 -->
<g id="node72" class="node"><title>71</title>
<path fill="none" stroke="#d8ac56" stroke-width="2" d="M3362.5,-849C3362.5,-849 3323.5,-849 3323.5,-849 3317.5,-849 3311.5,-843 3311.5,-837 3311.5,-837 3311.5,-825 3311.5,-825 3311.5,-819 3317.5,-813 3323.5,-813 3323.5,-813 3362.5,-813 3362.5,-813 3368.5,-813 3374.5,-819 3374.5,-825 3374.5,-825 3374.5,-837 3374.5,-837 3374.5,-843 3368.5,-849 3362.5,-849"/>
<text text-anchor="middle" x="3343" y="-834" font-family="sans" font-size="10.00">bwamem</text>
<text text-anchor="middle" x="3343" y="-823" font-family="sans" font-size="10.00">ref: mock</text>
</g>
<!-- 18&#45;&gt;71 -->
<g id="edge119" class="edge"><title>18&#45;&gt;71</title>
<path fill="none" stroke="grey" stroke-width="2" d="M3406.95,-884.689C3396.06,-875.715 3383.1,-865.036 3371.7,-855.645"/>
<polygon fill="grey" stroke="grey" stroke-width="2" points="3373.67,-852.736 3363.73,-849.078 3369.22,-858.138 3373.67,-852.736"/>
</g>
<!-- 19&#45;&gt;0 -->
<g id="edge19" class="edge"><title>19&#45;&gt;0</title>
<path fill="none" stroke="grey" stroke-width="2" d="M1609.69,-71.8761C1633.02,-60.9904 1663.1,-46.9511 1686.41,-36.0749"/>
<polygon fill="grey" stroke="grey" stroke-width="2" points="1688.04,-39.1767 1695.62,-31.7761 1685.08,-32.8334 1688.04,-39.1767"/>
</g>
<!-- 20&#45;&gt;0 -->
<g id="edge20" class="edge"><title>20&#45;&gt;0</title>
<path fill="none" stroke="grey" stroke-width="2" d="M3028.21,-72.7964C3023.77,-72.5215 3019.36,-72.2556 3015,-72 2519.29,-42.9467 1915.66,-24.5322 1760.67,-20.0617"/>
<polygon fill="grey" stroke="grey" stroke-width="2" points="1760.39,-16.5523 1750.29,-19.764 1760.19,-23.5495 1760.39,-16.5523"/>
</g>
<!-- 21 -->
<g id="node22" class="node"><title>21</title>
<path fill="none" stroke="#5692d8" stroke-width="2" d="M683.5,-252C683.5,-252 644.5,-252 644.5,-252 638.5,-252 632.5,-246 632.5,-240 632.5,-240 632.5,-228 632.5,-228 632.5,-222 638.5,-216 644.5,-216 644.5,-216 683.5,-216 683.5,-216 689.5,-216 695.5,-222 695.5,-228 695.5,-228 695.5,-240 695.5,-240 695.5,-246 689.5,-252 683.5,-252"/>
<text text-anchor="middle" x="664" y="-231.5" font-family="sans" font-size="10.00">bcfmerge</text>
</g>
<!-- 21&#45;&gt;0 -->
<g id="edge21" class="edge"><title>21&#45;&gt;0</title>
<path fill="none" stroke="grey" stroke-width="2" d="M695.624,-228.171C741.893,-220.387 824.461,-203.523 842,-180 851.564,-167.173 848.123,-158.782 842,-144 833.341,-123.095 814.659,-128.905 806,-108 799.877,-93.2179 795.018,-83.6355 806,-72 836.675,-39.5012 1516.9,-23.2763 1685.47,-19.7462"/>
<polygon fill="grey" stroke="grey" stroke-width="2" points="1685.67,-23.2428 1695.6,-19.5365 1685.53,-16.2443 1685.67,-23.2428"/>
</g>
<!-- 25 -->
<g id="node26" class="node"><title>25</title>
<path fill="none" stroke="#56c1d8" stroke-width="2" d="M821.5,-180C821.5,-180 480.5,-180 480.5,-180 474.5,-180 468.5,-174 468.5,-168 468.5,-168 468.5,-156 468.5,-156 468.5,-150 474.5,-144 480.5,-144 480.5,-144 821.5,-144 821.5,-144 827.5,-144 833.5,-150 833.5,-156 833.5,-156 833.5,-168 833.5,-168 833.5,-174 827.5,-180 821.5,-180"/>
<text text-anchor="middle" x="651" y="-165" font-family="sans" font-size="10.00">variantidx</text>
<text text-anchor="middle" x="651" y="-154" font-family="sans" font-size="10.00">path: data/variants/final/mpileup~bwa~mock~test~filtered&#45;default.bcf</text>
</g>
<!-- 21&#45;&gt;25 -->
<g id="edge61" class="edge"><title>21&#45;&gt;25</title>
<path fill="none" stroke="grey" stroke-width="2" d="M660.787,-215.697C659.354,-207.983 657.632,-198.712 656.035,-190.112"/>
<polygon fill="grey" stroke="grey" stroke-width="2" points="659.444,-189.297 654.177,-180.104 652.561,-190.575 659.444,-189.297"/>
</g>
<!-- 31 -->
<g id="node32" class="node"><title>31</title>
<path fill="none" stroke="#56d8d8" stroke-width="2" d="M438.5,-180C438.5,-180 115.5,-180 115.5,-180 109.5,-180 103.5,-174 103.5,-168 103.5,-168 103.5,-156 103.5,-156 103.5,-150 109.5,-144 115.5,-144 115.5,-144 438.5,-144 438.5,-144 444.5,-144 450.5,-150 450.5,-156 450.5,-156 450.5,-168 450.5,-168 450.5,-174 444.5,-180 438.5,-180"/>
<text text-anchor="middle" x="277" y="-165" font-family="sans" font-size="10.00">bcf2vcf</text>
<text text-anchor="middle" x="277" y="-154" font-family="sans" font-size="10.00">path: data/variants/final/mpileup~bwa~mock~test~filtered&#45;default</text>
</g>
<!-- 21&#45;&gt;31 -->
<g id="edge71" class="edge"><title>21&#45;&gt;31</title>
<path fill="none" stroke="grey" stroke-width="2" d="M632.33,-227.272C578.066,-217.456 465.039,-197.012 380.955,-181.803"/>
<polygon fill="grey" stroke="grey" stroke-width="2" points="381.572,-178.358 371.108,-180.022 380.326,-185.246 381.572,-178.358"/>
</g>
<!-- 22&#45;&gt;0 -->
<g id="edge22" class="edge"><title>22&#45;&gt;0</title>
<path fill="none" stroke="grey" stroke-width="2" d="M2877.17,-74.7595C2872.41,-73.6833 2867.63,-72.7331 2863,-72 2643.29,-37.2106 1931.92,-22.6746 1760.44,-19.628"/>
<polygon fill="grey" stroke="grey" stroke-width="2" points="1760.45,-16.1277 1750.39,-19.4517 1760.33,-23.1267 1760.45,-16.1277"/>
</g>
<!-- 23&#45;&gt;0 -->
<g id="edge23" class="edge"><title>23&#45;&gt;0</title>
<path fill="none" stroke="grey" stroke-width="2" d="M1723,-71.6966C1723,-63.9827 1723,-54.7125 1723,-46.1124"/>
<polygon fill="grey" stroke="grey" stroke-width="2" points="1726.5,-46.1043 1723,-36.1043 1719.5,-46.1044 1726.5,-46.1043"/>
</g>
<!-- 24 -->
<g id="node25" class="node"><title>24</title>
<path fill="none" stroke="#5692d8" stroke-width="2" d="M3301.5,-252C3301.5,-252 3262.5,-252 3262.5,-252 3256.5,-252 3250.5,-246 3250.5,-240 3250.5,-240 3250.5,-228 3250.5,-228 3250.5,-222 3256.5,-216 3262.5,-216 3262.5,-216 3301.5,-216 3301.5,-216 3307.5,-216 3313.5,-222 3313.5,-228 3313.5,-228 3313.5,-240 3313.5,-240 3313.5,-246 3307.5,-252 3301.5,-252"/>
<text text-anchor="middle" x="3282" y="-231.5" font-family="sans" font-size="10.00">bcfmerge</text>
</g>
<!-- 24&#45;&gt;0 -->
<g id="edge24" class="edge"><title>24&#45;&gt;0</title>
<path fill="none" stroke="grey" stroke-width="2" d="M3313.71,-229.744C3367.06,-223.538 3471.11,-208.071 3493,-180 3511.1,-156.795 3484.43,-79.5934 3475,-72 3405.89,-16.3393 2007.89,-18.1104 1760.31,-18.8631"/>
<polygon fill="grey" stroke="grey" stroke-width="2" points="1760.03,-15.3638 1750.04,-18.8958 1760.05,-22.3638 1760.03,-15.3638"/>
</g>
<!-- 24&#45;&gt;10 -->
<g id="edge40" class="edge"><title>24&#45;&gt;10</title>
<path fill="none" stroke="grey" stroke-width="2" d="M3282,-215.697C3282,-207.983 3282,-198.712 3282,-190.112"/>
<polygon fill="grey" stroke="grey" stroke-width="2" points="3285.5,-190.104 3282,-180.104 3278.5,-190.104 3285.5,-190.104"/>
</g>
<!-- 24&#45;&gt;16 -->
<g id="edge48" class="edge"><title>24&#45;&gt;16</title>
<path fill="none" stroke="grey" stroke-width="2" d="M3250.2,-227.623C3192.9,-217.934 3069.79,-197.119 2978.7,-181.717"/>
<polygon fill="grey" stroke="grey" stroke-width="2" points="2979.04,-178.225 2968.59,-180.009 2977.87,-185.127 2979.04,-178.225"/>
</g>
<!-- 25&#45;&gt;0 -->
<g id="edge25" class="edge"><title>25&#45;&gt;0</title>
<path fill="none" stroke="grey" stroke-width="2" d="M667.687,-143.81C689.587,-122.536 730.286,-87.2537 773,-72 859.957,-40.9467 1519.71,-23.7074 1685.36,-19.8402"/>
<polygon fill="grey" stroke="grey" stroke-width="2" points="1685.63,-23.335 1695.54,-19.6048 1685.47,-16.3368 1685.63,-23.335"/>
</g>
<!-- 26 -->
<g id="node27" class="node"><title>26</title>
<path fill="none" stroke="#c6d856" stroke-width="2" d="M2345,-926C2345,-926 2303,-926 2303,-926 2297,-926 2291,-920 2291,-914 2291,-914 2291,-897 2291,-897 2291,-891 2297,-885 2303,-885 2303,-885 2345,-885 2345,-885 2351,-885 2357,-891 2357,-897 2357,-897 2357,-914 2357,-914 2357,-920 2351,-926 2345,-926"/>
<text text-anchor="middle" x="2324" y="-914" font-family="sans" font-size="10.00">qcreads_il</text>
<text text-anchor="middle" x="2324" y="-903" font-family="sans" font-size="10.00">lib: C</text>
<text text-anchor="middle" x="2324" y="-892" font-family="sans" font-size="10.00">run: run_2</text>
</g>
<!-- 26&#45;&gt;0 -->
<g id="edge26" class="edge"><title>26&#45;&gt;0</title>
<path fill="none" stroke="grey" stroke-width="2" d="M2357.14,-904.907C2444.17,-905.184 2685.74,-900.83 2878,-849 3081.18,-794.226 3113.58,-731.058 3309,-653 3354.42,-634.856 3382.18,-654.981 3413,-617 3459.86,-559.255 3434,-525.366 3434,-451 3434,-451 3434,-451 3434,-377 3434,-236.631 3621.12,-165.018 3516,-72 3481.92,-41.8488 2014.99,-22.5689 1760.45,-19.4476"/>
<polygon fill="grey" stroke="grey" stroke-width="2" points="1760.28,-15.9454 1750.24,-19.3231 1760.2,-22.9448 1760.28,-15.9454"/>
</g>
<!-- 26&#45;&gt;28 -->
<g id="edge66" class="edge"><title>26&#45;&gt;28</title>
<path fill="none" stroke="grey" stroke-width="2" d="M2357.11,-899.63C2438.39,-887.678 2648.78,-856.739 2754.47,-841.196"/>
<polygon fill="grey" stroke="grey" stroke-width="2" points="2755.28,-844.614 2764.67,-839.696 2754.27,-837.688 2755.28,-844.614"/>
</g>
<!-- 48 -->
<g id="node49" class="node"><title>48</title>
<path fill="none" stroke="#d8ac56" stroke-width="2" d="M2348,-849C2348,-849 2300,-849 2300,-849 2294,-849 2288,-843 2288,-837 2288,-837 2288,-825 2288,-825 2288,-819 2294,-813 2300,-813 2300,-813 2348,-813 2348,-813 2354,-813 2360,-819 2360,-825 2360,-825 2360,-837 2360,-837 2360,-843 2354,-849 2348,-849"/>
<text text-anchor="middle" x="2324" y="-834" font-family="sans" font-size="10.00">bwamem</text>
<text text-anchor="middle" x="2324" y="-823" font-family="sans" font-size="10.00">ref: grandis</text>
</g>
<!-- 26&#45;&gt;48 -->
<g id="edge90" class="edge"><title>26&#45;&gt;48</title>
<path fill="none" stroke="grey" stroke-width="2" d="M2324,-884.689C2324,-876.907 2324,-867.842 2324,-859.447"/>
<polygon fill="grey" stroke="grey" stroke-width="2" points="2327.5,-859.319 2324,-849.319 2320.5,-859.32 2327.5,-859.319"/>
</g>
<!-- 26&#45;&gt;53 -->
<g id="edge95" class="edge"><title>26&#45;&gt;53</title>
<path fill="none" stroke="grey" stroke-width="2" d="M2290.68,-898.932C2242.52,-890.555 2150.58,-873.338 2064.27,-849.181"/>
<polygon fill="grey" stroke="grey" stroke-width="2" points="2065.17,-845.797 2054.59,-846.435 2063.26,-852.531 2065.17,-845.797"/>
</g>
<!-- 69 -->
<g id="node70" class="node"><title>69</title>
<path fill="none" stroke="#d8ac56" stroke-width="2" d="M2257.5,-849C2257.5,-849 2218.5,-849 2218.5,-849 2212.5,-849 2206.5,-843 2206.5,-837 2206.5,-837 2206.5,-825 2206.5,-825 2206.5,-819 2212.5,-813 2218.5,-813 2218.5,-813 2257.5,-813 2257.5,-813 2263.5,-813 2269.5,-819 2269.5,-825 2269.5,-825 2269.5,-837 2269.5,-837 2269.5,-843 2263.5,-849 2257.5,-849"/>
<text text-anchor="middle" x="2238" y="-834" font-family="sans" font-size="10.00">bwamem</text>
<text text-anchor="middle" x="2238" y="-823" font-family="sans" font-size="10.00">ref: mock</text>
</g>
<!-- 26&#45;&gt;69 -->
<g id="edge117" class="edge"><title>26&#45;&gt;69</title>
<path fill="none" stroke="grey" stroke-width="2" d="M2300.5,-884.689C2289.86,-875.715 2277.19,-865.036 2266.05,-855.645"/>
<polygon fill="grey" stroke="grey" stroke-width="2" points="2268.16,-852.848 2258.26,-849.078 2263.65,-858.2 2268.16,-852.848"/>
</g>
<!-- 27 -->
<g id="node28" class="node"><title>27</title>
<path fill="none" stroke="#5692d8" stroke-width="2" d="M1244.5,-252C1244.5,-252 1205.5,-252 1205.5,-252 1199.5,-252 1193.5,-246 1193.5,-240 1193.5,-240 1193.5,-228 1193.5,-228 1193.5,-222 1199.5,-216 1205.5,-216 1205.5,-216 1244.5,-216 1244.5,-216 1250.5,-216 1256.5,-222 1256.5,-228 1256.5,-228 1256.5,-240 1256.5,-240 1256.5,-246 1250.5,-252 1244.5,-252"/>
<text text-anchor="middle" x="1225" y="-231.5" font-family="sans" font-size="10.00">bcfmerge</text>
</g>
<!-- 27&#45;&gt;0 -->
<g id="edge27" class="edge"><title>27&#45;&gt;0</title>
<path fill="none" stroke="grey" stroke-width="2" d="M1193.38,-233.188C1151.81,-231.652 1079.22,-222.524 1038,-180 1004.13,-145.058 986.909,-107.679 1020,-72 1065.53,-22.912 1546.77,-19.0178 1685.66,-18.9226"/>
<polygon fill="grey" stroke="grey" stroke-width="2" points="1685.81,-22.4227 1695.81,-18.9221 1685.81,-15.4227 1685.81,-22.4227"/>
</g>
<!-- 27&#45;&gt;5 -->
<g id="edge34" class="edge"><title>27&#45;&gt;5</title>
<path fill="none" stroke="grey" stroke-width="2" d="M1256.75,-226.91C1308.48,-216.99 1413.02,-196.941 1491.29,-181.93"/>
<polygon fill="grey" stroke="grey" stroke-width="2" points="1492.03,-185.354 1501.19,-180.033 1490.71,-178.479 1492.03,-185.354"/>
</g>
<!-- 27&#45;&gt;7 -->
<g id="edge36" class="edge"><title>27&#45;&gt;7</title>
<path fill="none" stroke="grey" stroke-width="2" d="M1225,-215.697C1225,-207.983 1225,-198.712 1225,-190.112"/>
<polygon fill="grey" stroke="grey" stroke-width="2" points="1228.5,-190.104 1225,-180.104 1221.5,-190.104 1228.5,-190.104"/>
</g>
<!-- 28&#45;&gt;0 -->
<g id="edge28" class="edge"><title>28&#45;&gt;0</title>
<path fill="none" stroke="grey" stroke-width="2" d="M2835.43,-812.927C2945,-711.381 3506.26,-190.934 3511,-180 3522.04,-154.545 3497.76,-72.6484 3497,-72 3428.49,-13.7911 2010.24,-17.6676 1760.42,-18.8054"/>
<polygon fill="grey" stroke="grey" stroke-width="2" points="1760.04,-15.307 1750.06,-18.8541 1760.08,-22.3069 1760.04,-15.307"/>
</g>
<!-- 29&#45;&gt;0 -->
<g id="edge29" class="edge"><title>29&#45;&gt;0</title>
<path fill="none" stroke="grey" stroke-width="2" d="M2056.68,-71.9656C1960.56,-56.7083 1825.07,-35.2018 1760.31,-24.922"/>
<polygon fill="grey" stroke="grey" stroke-width="2" points="1760.59,-21.4237 1750.17,-23.3126 1759.5,-28.3371 1760.59,-21.4237"/>
</g>
<!-- 30&#45;&gt;0 -->
<g id="edge30" class="edge"><title>30&#45;&gt;0</title>
<path fill="none" stroke="grey" stroke-width="2" d="M1348.46,-71.9656C1458.7,-56.3759 1615.08,-34.2618 1685.76,-24.2664"/>
<polygon fill="grey" stroke="grey" stroke-width="2" points="1686.54,-27.6912 1695.95,-22.8254 1685.56,-20.7602 1686.54,-27.6912"/>
</g>
<!-- 31&#45;&gt;0 -->
<g id="edge31" class="edge"><title>31&#45;&gt;0</title>
<path fill="none" stroke="grey" stroke-width="2" d="M276.721,-143.656C277.432,-122.905 282.133,-88.8587 304,-72 360.279,-28.6103 1466.62,-20.3851 1685.55,-19.1802"/>
<polygon fill="grey" stroke="grey" stroke-width="2" points="1685.88,-22.6786 1695.87,-19.1251 1685.85,-15.6787 1685.88,-22.6786"/>
</g>
<!-- 31&#45;&gt;6 -->
<g id="edge35" class="edge"><title>31&#45;&gt;6</title>
<path fill="none" stroke="grey" stroke-width="2" d="M331.997,-143.966C363.986,-134.057 404.484,-121.514 438.038,-111.121"/>
<polygon fill="grey" stroke="grey" stroke-width="2" points="439.24,-114.413 447.757,-108.111 437.169,-107.726 439.24,-114.413"/>
</g>
<!-- 32 -->
<g id="node33" class="node"><title>32</title>
<path fill="none" stroke="#d87556" stroke-width="2" d="M948,-396C948,-396 856,-396 856,-396 850,-396 844,-390 844,-384 844,-384 844,-372 844,-372 844,-366 850,-360 856,-360 856,-360 948,-360 948,-360 954,-360 960,-366 960,-372 960,-372 960,-384 960,-384 960,-390 954,-396 948,-396"/>
<text text-anchor="middle" x="902" y="-381" font-family="sans" font-size="10.00">bam_markdups_sort</text>
<text text-anchor="middle" x="902" y="-370" font-family="sans" font-size="10.00">aligner: bwa</text>
</g>
<!-- 32&#45;&gt;1 -->
<g id="edge32" class="edge"><title>32&#45;&gt;1</title>
<path fill="none" stroke="grey" stroke-width="2" d="M905.045,-359.849C911.633,-322.753 927.249,-234.81 935.187,-190.103"/>
<polygon fill="grey" stroke="grey" stroke-width="2" points="938.638,-190.69 936.94,-180.232 931.746,-189.466 938.638,-190.69"/>
</g>
<!-- 33 -->
<g id="node34" class="node"><title>33</title>
<path fill="none" stroke="#d87556" stroke-width="2" d="M1874,-617C1874,-617 1782,-617 1782,-617 1776,-617 1770,-611 1770,-605 1770,-605 1770,-593 1770,-593 1770,-587 1776,-581 1782,-581 1782,-581 1874,-581 1874,-581 1880,-581 1886,-587 1886,-593 1886,-593 1886,-605 1886,-605 1886,-611 1880,-617 1874,-617"/>
<text text-anchor="middle" x="1828" y="-602" font-family="sans" font-size="10.00">bam_markdups_sort</text>
<text text-anchor="middle" x="1828" y="-591" font-family="sans" font-size="10.00">aligner: bwa</text>
</g>
<!-- 33&#45;&gt;9 -->
<g id="edge38" class="edge"><title>33&#45;&gt;9</title>
<path fill="none" stroke="grey" stroke-width="2" d="M1828,-580.8C1828,-553.354 1828,-497.958 1828,-451 1828,-451 1828,-451 1828,-305 1828,-264.996 1828,-218.653 1828,-190.08"/>
<polygon fill="grey" stroke="grey" stroke-width="2" points="1831.5,-190.049 1828,-180.049 1824.5,-190.049 1831.5,-190.049"/>
</g>
<!-- 34 -->
<g id="node35" class="node"><title>34</title>
<path fill="none" stroke="#d87556" stroke-width="2" d="M2367,-689C2367,-689 2275,-689 2275,-689 2269,-689 2263,-683 2263,-677 2263,-677 2263,-665 2263,-665 2263,-659 2269,-653 2275,-653 2275,-653 2367,-653 2367,-653 2373,-653 2379,-659 2379,-665 2379,-665 2379,-677 2379,-677 2379,-683 2373,-689 2367,-689"/>
<text text-anchor="middle" x="2321" y="-674" font-family="sans" font-size="10.00">bam_markdups_sort</text>
<text text-anchor="middle" x="2321" y="-663" font-family="sans" font-size="10.00">aligner: bwa</text>
</g>
<!-- 34&#45;&gt;9 -->
<g id="edge39" class="edge"><title>34&#45;&gt;9</title>
<path fill="none" stroke="grey" stroke-width="2" d="M2310.07,-652.976C2294.29,-626.714 2267,-574.242 2267,-525.5 2267,-525.5 2267,-525.5 2267,-305 2267,-226.582 2010.21,-185.052 1889.42,-169.856"/>
<polygon fill="grey" stroke="grey" stroke-width="2" points="1889.57,-166.348 1879.22,-168.594 1888.71,-173.295 1889.57,-166.348"/>
</g>
<!-- 35 -->
<g id="node36" class="node"><title>35</title>
<path fill="none" stroke="#56a9d8" stroke-width="2" d="M2425,-324C2425,-324 2361,-324 2361,-324 2355,-324 2349,-318 2349,-312 2349,-312 2349,-300 2349,-300 2349,-294 2355,-288 2361,-288 2361,-288 2425,-288 2425,-288 2431,-288 2437,-294 2437,-300 2437,-300 2437,-312 2437,-312 2437,-318 2431,-324 2425,-324"/>
<text text-anchor="middle" x="2393" y="-303.5" font-family="sans" font-size="10.00">bcfmerge_fofn</text>
</g>
<!-- 35&#45;&gt;11 -->
<g id="edge41" class="edge"><title>35&#45;&gt;11</title>
<path fill="none" stroke="grey" stroke-width="2" d="M2393.99,-287.697C2394.43,-279.983 2394.96,-270.712 2395.45,-262.112"/>
<polygon fill="grey" stroke="grey" stroke-width="2" points="2398.95,-262.288 2396.02,-252.104 2391.96,-261.888 2398.95,-262.288"/>
</g>
<!-- 36 -->
<g id="node37" class="node"><title>36</title>
<path fill="none" stroke="#56b9d8" stroke-width="2" d="M2423,-396C2423,-396 2377,-396 2377,-396 2371,-396 2365,-390 2365,-384 2365,-384 2365,-372 2365,-372 2365,-366 2371,-360 2377,-360 2377,-360 2423,-360 2423,-360 2429,-360 2435,-366 2435,-372 2435,-372 2435,-384 2435,-384 2435,-390 2429,-396 2423,-396"/>
<text text-anchor="middle" x="2400" y="-381" font-family="sans" font-size="10.00">bcffilter</text>
<text text-anchor="middle" x="2400" y="-370" font-family="sans" font-size="10.00">filter: strict</text>
</g>
<!-- 36&#45;&gt;11 -->
<g id="edge42" class="edge"><title>36&#45;&gt;11</title>
<path fill="none" stroke="grey" stroke-width="2" d="M2420.82,-359.615C2430.46,-350.198 2440.89,-337.697 2446,-324 2451.6,-309.011 2451.83,-302.899 2446,-288 2441.8,-277.279 2434.31,-267.427 2426.42,-259.201"/>
<polygon fill="grey" stroke="grey" stroke-width="2" points="2428.76,-256.592 2419.15,-252.125 2423.88,-261.608 2428.76,-256.592"/>
</g>
<!-- 36&#45;&gt;35 -->
<g id="edge75" class="edge"><title>36&#45;&gt;35</title>
<path fill="none" stroke="grey" stroke-width="2" d="M2398.27,-359.697C2397.5,-351.983 2396.57,-342.712 2395.71,-334.112"/>
<polygon fill="grey" stroke="grey" stroke-width="2" points="2399.19,-333.706 2394.71,-324.104 2392.22,-334.403 2399.19,-333.706"/>
</g>
<!-- 37 -->
<g id="node38" class="node"><title>37</title>
<path fill="none" stroke="#d87556" stroke-width="2" d="M2905,-252C2905,-252 2813,-252 2813,-252 2807,-252 2801,-246 2801,-240 2801,-240 2801,-228 2801,-228 2801,-222 2807,-216 2813,-216 2813,-216 2905,-216 2905,-216 2911,-216 2917,-222 2917,-228 2917,-228 2917,-240 2917,-240 2917,-246 2911,-252 2905,-252"/>
<text text-anchor="middle" x="2859" y="-237" font-family="sans" font-size="10.00">bam_markdups_sort</text>
<text text-anchor="middle" x="2859" y="-226" font-family="sans" font-size="10.00">aligner: bwa</text>
</g>
<!-- 37&#45;&gt;13 -->
<g id="edge44" class="edge"><title>37&#45;&gt;13</title>
<path fill="none" stroke="grey" stroke-width="2" d="M2800.81,-217.256C2764.59,-207.421 2716.79,-194.377 2665.92,-180.246"/>
<polygon fill="grey" stroke="grey" stroke-width="2" points="2666.63,-176.808 2656.05,-177.501 2664.75,-183.552 2666.63,-176.808"/>
</g>
<!-- 38 -->
<g id="node39" class="node"><title>38</title>
<path fill="none" stroke="#d87556" stroke-width="2" d="M2984,-617C2984,-617 2892,-617 2892,-617 2886,-617 2880,-611 2880,-605 2880,-605 2880,-593 2880,-593 2880,-587 2886,-581 2892,-581 2892,-581 2984,-581 2984,-581 2990,-581 2996,-587 2996,-593 2996,-593 2996,-605 2996,-605 2996,-611 2990,-617 2984,-617"/>
<text text-anchor="middle" x="2938" y="-602" font-family="sans" font-size="10.00">bam_markdups_sort</text>
<text text-anchor="middle" x="2938" y="-591" font-family="sans" font-size="10.00">aligner: bwa</text>
</g>
<!-- 38&#45;&gt;13 -->
<g id="edge45" class="edge"><title>38&#45;&gt;13</title>
<path fill="none" stroke="grey" stroke-width="2" d="M2879.93,-592.826C2798.71,-582.042 2661,-549.269 2661,-451 2661,-451 2661,-451 2661,-305 2661,-261.905 2638.4,-216.262 2621.92,-188.697"/>
<polygon fill="grey" stroke="grey" stroke-width="2" points="2624.83,-186.749 2616.6,-180.072 2618.87,-190.421 2624.83,-186.749"/>
</g>
<!-- 39 -->
<g id="node40" class="node"><title>39</title>
<path fill="none" stroke="#a7d856" stroke-width="2" d="M1986,-777C1986,-777 1914,-777 1914,-777 1908,-777 1902,-771 1902,-765 1902,-765 1902,-737 1902,-737 1902,-731 1908,-725 1914,-725 1914,-725 1986,-725 1986,-725 1992,-725 1998,-731 1998,-737 1998,-737 1998,-765 1998,-765 1998,-771 1992,-777 1986,-777"/>
<text text-anchor="middle" x="1950" y="-765" font-family="sans" font-size="10.00">mashsketch</text>
<text text-anchor="middle" x="1950" y="-754" font-family="sans" font-size="10.00">ksize: 21</text>
<text text-anchor="middle" x="1950" y="-743" font-family="sans" font-size="10.00">set: all_samples</text>
<text text-anchor="middle" x="1950" y="-732" font-family="sans" font-size="10.00">sketchsize: 1e5</text>
</g>
<!-- 39&#45;&gt;14 -->
<g id="edge46" class="edge"><title>39&#45;&gt;14</title>
<path fill="none" stroke="grey" stroke-width="2" d="M1945.38,-724.683C1937.6,-682.096 1921.97,-596.494 1913.96,-552.684"/>
<polygon fill="grey" stroke="grey" stroke-width="2" points="1917.39,-551.956 1912.15,-542.748 1910.5,-553.214 1917.39,-551.956"/>
</g>
<!-- 40 -->
<g id="node41" class="node"><title>40</title>
<path fill="none" stroke="#56b9d8" stroke-width="2" d="M764,-396C764,-396 708,-396 708,-396 702,-396 696,-390 696,-384 696,-384 696,-372 696,-372 696,-366 702,-360 708,-360 708,-360 764,-360 764,-360 770,-360 776,-366 776,-372 776,-372 776,-384 776,-384 776,-390 770,-396 764,-396"/>
<text text-anchor="middle" x="736" y="-381" font-family="sans" font-size="10.00">bcffilter</text>
<text text-anchor="middle" x="736" y="-370" font-family="sans" font-size="10.00">filter: default</text>
</g>
<!-- 40&#45;&gt;21 -->
<g id="edge53" class="edge"><title>40&#45;&gt;21</title>
<path fill="none" stroke="grey" stroke-width="2" d="M735.224,-359.94C733.744,-341.256 729.449,-310.905 717,-288 711.184,-277.3 702.538,-267.341 693.907,-259.01"/>
<polygon fill="grey" stroke="grey" stroke-width="2" points="696.136,-256.305 686.399,-252.13 691.408,-261.466 696.136,-256.305"/>
</g>
<!-- 41 -->
<g id="node42" class="node"><title>41</title>
<path fill="none" stroke="#56a9d8" stroke-width="2" d="M696,-324C696,-324 632,-324 632,-324 626,-324 620,-318 620,-312 620,-312 620,-300 620,-300 620,-294 626,-288 632,-288 632,-288 696,-288 696,-288 702,-288 708,-294 708,-300 708,-300 708,-312 708,-312 708,-318 702,-324 696,-324"/>
<text text-anchor="middle" x="664" y="-303.5" font-family="sans" font-size="10.00">bcfmerge_fofn</text>
</g>
<!-- 40&#45;&gt;41 -->
<g id="edge83" class="edge"><title>40&#45;&gt;41</title>
<path fill="none" stroke="grey" stroke-width="2" d="M718.202,-359.697C709.396,-351.135 698.618,-340.656 688.999,-331.304"/>
<polygon fill="grey" stroke="grey" stroke-width="2" points="691.203,-328.566 681.593,-324.104 686.323,-333.585 691.203,-328.566"/>
</g>
<!-- 41&#45;&gt;21 -->
<g id="edge54" class="edge"><title>41&#45;&gt;21</title>
<path fill="none" stroke="grey" stroke-width="2" d="M664,-287.697C664,-279.983 664,-270.712 664,-262.112"/>
<polygon fill="grey" stroke="grey" stroke-width="2" points="667.5,-262.104 664,-252.104 660.5,-262.104 667.5,-262.104"/>
</g>
<!-- 42 -->
<g id="node43" class="node"><title>42</title>
<path fill="none" stroke="#56b9d8" stroke-width="2" d="M3238,-396C3238,-396 3182,-396 3182,-396 3176,-396 3170,-390 3170,-384 3170,-384 3170,-372 3170,-372 3170,-366 3176,-360 3182,-360 3182,-360 3238,-360 3238,-360 3244,-360 3250,-366 3250,-372 3250,-372 3250,-384 3250,-384 3250,-390 3244,-396 3238,-396"/>
<text text-anchor="middle" x="3210" y="-381" font-family="sans" font-size="10.00">bcffilter</text>
<text text-anchor="middle" x="3210" y="-370" font-family="sans" font-size="10.00">filter: default</text>
</g>
<!-- 42&#45;&gt;24 -->
<g id="edge59" class="edge"><title>42&#45;&gt;24</title>
<path fill="none" stroke="grey" stroke-width="2" d="M3232.4,-359.87C3243.23,-350.431 3255.48,-337.834 3263,-324 3273.41,-304.853 3278.12,-280.502 3280.24,-262.114"/>
<polygon fill="grey" stroke="grey" stroke-width="2" points="3283.74,-262.352 3281.22,-252.06 3276.77,-261.674 3283.74,-262.352"/>
</g>
<!-- 43 -->
<g id="node44" class="node"><title>43</title>
<path fill="none" stroke="#56a9d8" stroke-width="2" d="M3242,-324C3242,-324 3178,-324 3178,-324 3172,-324 3166,-318 3166,-312 3166,-312 3166,-300 3166,-300 3166,-294 3172,-288 3178,-288 3178,-288 3242,-288 3242,-288 3248,-288 3254,-294 3254,-300 3254,-300 3254,-312 3254,-312 3254,-318 3248,-324 3242,-324"/>
<text text-anchor="middle" x="3210" y="-303.5" font-family="sans" font-size="10.00">bcfmerge_fofn</text>
</g>
<!-- 42&#45;&gt;43 -->
<g id="edge85" class="edge"><title>42&#45;&gt;43</title>
<path fill="none" stroke="grey" stroke-width="2" d="M3210,-359.697C3210,-351.983 3210,-342.712 3210,-334.112"/>
<polygon fill="grey" stroke="grey" stroke-width="2" points="3213.5,-334.104 3210,-324.104 3206.5,-334.104 3213.5,-334.104"/>
</g>
<!-- 43&#45;&gt;24 -->
<g id="edge60" class="edge"><title>43&#45;&gt;24</title>
<path fill="none" stroke="grey" stroke-width="2" d="M3227.8,-287.697C3236.6,-279.135 3247.38,-268.656 3257,-259.304"/>
<polygon fill="grey" stroke="grey" stroke-width="2" points="3259.68,-261.585 3264.41,-252.104 3254.8,-256.566 3259.68,-261.585"/>
</g>
<!-- 44 -->
<g id="node45" class="node"><title>44</title>
<path fill="none" stroke="#56a9d8" stroke-width="2" d="M1221,-324C1221,-324 1157,-324 1157,-324 1151,-324 1145,-318 1145,-312 1145,-312 1145,-300 1145,-300 1145,-294 1151,-288 1157,-288 1157,-288 1221,-288 1221,-288 1227,-288 1233,-294 1233,-300 1233,-300 1233,-312 1233,-312 1233,-318 1227,-324 1221,-324"/>
<text text-anchor="middle" x="1189" y="-303.5" font-family="sans" font-size="10.00">bcfmerge_fofn</text>
</g>
<!-- 44&#45;&gt;27 -->
<g id="edge62" class="edge"><title>44&#45;&gt;27</title>
<path fill="none" stroke="grey" stroke-width="2" d="M1197.9,-287.697C1202,-279.728 1206.95,-270.1 1211.49,-261.264"/>
<polygon fill="grey" stroke="grey" stroke-width="2" points="1214.74,-262.598 1216.2,-252.104 1208.52,-259.396 1214.74,-262.598"/>
</g>
<!-- 45 -->
<g id="node46" class="node"><title>45</title>
<path fill="none" stroke="#56b9d8" stroke-width="2" d="M1248,-396C1248,-396 1202,-396 1202,-396 1196,-396 1190,-390 1190,-384 1190,-384 1190,-372 1190,-372 1190,-366 1196,-360 1202,-360 1202,-360 1248,-360 1248,-360 1254,-360 1260,-366 1260,-372 1260,-372 1260,-384 1260,-384 1260,-390 1254,-396 1248,-396"/>
<text text-anchor="middle" x="1225" y="-381" font-family="sans" font-size="10.00">bcffilter</text>
<text text-anchor="middle" x="1225" y="-370" font-family="sans" font-size="10.00">filter: strict</text>
</g>
<!-- 45&#45;&gt;27 -->
<g id="edge63" class="edge"><title>45&#45;&gt;27</title>
<path fill="none" stroke="grey" stroke-width="2" d="M1232.07,-359.665C1235.84,-349.47 1240.09,-336.22 1242,-324 1244.47,-308.192 1244.47,-303.808 1242,-288 1240.64,-279.312 1238.1,-270.104 1235.39,-261.843"/>
<polygon fill="grey" stroke="grey" stroke-width="2" points="1238.67,-260.62 1232.07,-252.335 1232.06,-262.93 1238.67,-260.62"/>
</g>
<!-- 45&#45;&gt;44 -->
<g id="edge86" class="edge"><title>45&#45;&gt;44</title>
<path fill="none" stroke="grey" stroke-width="2" d="M1216.1,-359.697C1212,-351.728 1207.05,-342.1 1202.51,-333.264"/>
<polygon fill="grey" stroke="grey" stroke-width="2" points="1205.48,-331.396 1197.8,-324.104 1199.26,-334.598 1205.48,-331.396"/>
</g>
<!-- 46&#45;&gt;32 -->
<g id="edge72" class="edge"><title>46&#45;&gt;32</title>
<path fill="none" stroke="grey" stroke-width="2" d="M138.362,-447.037C240.486,-441.338 538.547,-423.436 785,-396 800.73,-394.249 817.599,-392.01 833.494,-389.737"/>
<polygon fill="grey" stroke="grey" stroke-width="2" points="834.384,-393.144 843.777,-388.243 833.377,-386.217 834.384,-393.144"/>
</g>
<!-- 47&#45;&gt;33 -->
<g id="edge73" class="edge"><title>47&#45;&gt;33</title>
<path fill="none" stroke="grey" stroke-width="2" d="M1828,-812.713C1828,-773.072 1828,-675.359 1828,-627.42"/>
<polygon fill="grey" stroke="grey" stroke-width="2" points="1831.5,-627.174 1828,-617.174 1824.5,-627.174 1831.5,-627.174"/>
</g>
<!-- 48&#45;&gt;34 -->
<g id="edge74" class="edge"><title>48&#45;&gt;34</title>
<path fill="none" stroke="grey" stroke-width="2" d="M2323.67,-812.79C2323.15,-785.485 2322.14,-731.994 2321.52,-699.38"/>
<polygon fill="grey" stroke="grey" stroke-width="2" points="2325.02,-699.12 2321.33,-689.188 2318.02,-699.253 2325.02,-699.12"/>
</g>
<!-- 49 -->
<g id="node50" class="node"><title>49</title>
<path fill="none" stroke="#56a2d8" stroke-width="2" d="M2432.5,-468C2432.5,-468 2367.5,-468 2367.5,-468 2361.5,-468 2355.5,-462 2355.5,-456 2355.5,-456 2355.5,-444 2355.5,-444 2355.5,-438 2361.5,-432 2367.5,-432 2367.5,-432 2432.5,-432 2432.5,-432 2438.5,-432 2444.5,-438 2444.5,-444 2444.5,-444 2444.5,-456 2444.5,-456 2444.5,-462 2438.5,-468 2432.5,-468"/>
<text text-anchor="middle" x="2400" y="-453" font-family="sans" font-size="10.00">bcfnorm</text>
<text text-anchor="middle" x="2400" y="-442" font-family="sans" font-size="10.00">caller: mpileup</text>
</g>
<!-- 49&#45;&gt;36 -->
<g id="edge76" class="edge"><title>49&#45;&gt;36</title>
<path fill="none" stroke="grey" stroke-width="2" d="M2400,-431.697C2400,-423.983 2400,-414.712 2400,-406.112"/>
<polygon fill="grey" stroke="grey" stroke-width="2" points="2403.5,-406.104 2400,-396.104 2396.5,-406.104 2403.5,-406.104"/>
</g>
<!-- 49&#45;&gt;42 -->
<g id="edge84" class="edge"><title>49&#45;&gt;42</title>
<path fill="none" stroke="grey" stroke-width="2" d="M2444.7,-445.137C2584.46,-433.059 3012.55,-396.063 3159.71,-383.346"/>
<polygon fill="grey" stroke="grey" stroke-width="2" points="3160.15,-386.822 3169.81,-382.473 3159.54,-379.848 3160.15,-386.822"/>
</g>
<!-- 50&#45;&gt;37 -->
<g id="edge77" class="edge"><title>50&#45;&gt;37</title>
<path fill="none" stroke="grey" stroke-width="2" d="M3331.69,-594.145C3224.2,-581.734 2915,-538.437 2915,-451 2915,-451 2915,-451 2915,-377 2915,-333.905 2892.4,-288.262 2875.92,-260.697"/>
<polygon fill="grey" stroke="grey" stroke-width="2" points="2878.83,-258.749 2870.6,-252.072 2872.87,-262.421 2878.83,-258.749"/>
</g>
<!-- 51&#45;&gt;38 -->
<g id="edge78" class="edge"><title>51&#45;&gt;38</title>
<path fill="none" stroke="grey" stroke-width="2" d="M3504.39,-812.91C3494.22,-803.207 3482.23,-790.354 3474,-777 3443.25,-727.086 3475.13,-689.182 3429,-653 3396.4,-627.435 3133.18,-610.263 3006.13,-603.383"/>
<polygon fill="grey" stroke="grey" stroke-width="2" points="3006.29,-599.886 2996.12,-602.846 3005.92,-606.876 3006.29,-599.886"/>
</g>
<!-- 52&#45;&gt;39 -->
<g id="edge79" class="edge"><title>52&#45;&gt;39</title>
<path fill="none" stroke="grey" stroke-width="2" d="M1927.44,-812.689C1930.28,-805.043 1933.73,-795.765 1937.07,-786.788"/>
<polygon fill="grey" stroke="grey" stroke-width="2" points="1940.41,-787.85 1940.61,-777.257 1933.84,-785.41 1940.41,-787.85"/>
</g>
<!-- 53&#45;&gt;39 -->
<g id="edge80" class="edge"><title>53&#45;&gt;39</title>
<path fill="none" stroke="grey" stroke-width="2" d="M2001.35,-812.689C1994.47,-804.554 1986.02,-794.574 1977.99,-785.073"/>
<polygon fill="grey" stroke="grey" stroke-width="2" points="1980.5,-782.63 1971.37,-777.257 1975.16,-787.152 1980.5,-782.63"/>
</g>
<!-- 54&#45;&gt;39 -->
<g id="edge81" class="edge"><title>54&#45;&gt;39</title>
<path fill="none" stroke="grey" stroke-width="2" d="M3392.25,-815.129C3389.15,-814.293 3386.04,-813.565 3383,-813 3088.81,-758.383 2332.71,-822.684 2037,-777 2027.55,-775.54 2017.67,-773.361 2008.11,-770.888"/>
<polygon fill="grey" stroke="grey" stroke-width="2" points="2008.86,-767.464 1998.29,-768.221 2007.02,-774.219 2008.86,-767.464"/>
</g>
<!-- 55 -->
<g id="node56" class="node"><title>55</title>
<path fill="none" stroke="#56a2d8" stroke-width="2" d="M1257.5,-468C1257.5,-468 1192.5,-468 1192.5,-468 1186.5,-468 1180.5,-462 1180.5,-456 1180.5,-456 1180.5,-444 1180.5,-444 1180.5,-438 1186.5,-432 1192.5,-432 1192.5,-432 1257.5,-432 1257.5,-432 1263.5,-432 1269.5,-438 1269.5,-444 1269.5,-444 1269.5,-456 1269.5,-456 1269.5,-462 1263.5,-468 1257.5,-468"/>
<text text-anchor="middle" x="1225" y="-453" font-family="sans" font-size="10.00">bcfnorm</text>
<text text-anchor="middle" x="1225" y="-442" font-family="sans" font-size="10.00">caller: mpileup</text>
</g>
<!-- 55&#45;&gt;40 -->
<g id="edge82" class="edge"><title>55&#45;&gt;40</title>
<path fill="none" stroke="grey" stroke-width="2" d="M1180.48,-443.464C1107.98,-434.335 959.943,-415.211 835,-396 819.164,-393.565 801.943,-390.688 786.372,-388"/>
<polygon fill="grey" stroke="grey" stroke-width="2" points="786.86,-384.533 776.408,-386.268 785.661,-391.429 786.86,-384.533"/>
</g>
<!-- 55&#45;&gt;45 -->
<g id="edge87" class="edge"><title>55&#45;&gt;45</title>
<path fill="none" stroke="grey" stroke-width="2" d="M1225,-431.697C1225,-423.983 1225,-414.712 1225,-406.112"/>
<polygon fill="grey" stroke="grey" stroke-width="2" points="1228.5,-406.104 1225,-396.104 1221.5,-406.104 1228.5,-406.104"/>
</g>
<!-- 56 -->
<g id="node57" class="node"><title>56</title>
<path fill="none" stroke="#88d856" stroke-width="2" d="M2464.5,-542.5C2464.5,-542.5 2317.5,-542.5 2317.5,-542.5 2311.5,-542.5 2305.5,-536.5 2305.5,-530.5 2305.5,-530.5 2305.5,-518.5 2305.5,-518.5 2305.5,-512.5 2311.5,-506.5 2317.5,-506.5 2317.5,-506.5 2464.5,-506.5 2464.5,-506.5 2470.5,-506.5 2476.5,-512.5 2476.5,-518.5 2476.5,-518.5 2476.5,-530.5 2476.5,-530.5 2476.5,-536.5 2470.5,-542.5 2464.5,-542.5"/>
<text text-anchor="middle" x="2391" y="-527.5" font-family="sans" font-size="10.00">mpileup</text>
<text text-anchor="middle" x="2391" y="-516.5" font-family="sans" font-size="10.00">region: I:000000001&#45;000230218</text>
</g>
<!-- 56&#45;&gt;49 -->
<g id="edge91" class="edge"><title>56&#45;&gt;49</title>
<path fill="none" stroke="grey" stroke-width="2" d="M2393.13,-506.319C2394.18,-497.922 2395.45,-487.616 2396.63,-478.186"/>
<polygon fill="grey" stroke="grey" stroke-width="2" points="2400.12,-478.413 2397.88,-468.058 2393.18,-477.551 2400.12,-478.413"/>
</g>
<!-- 57 -->
<g id="node58" class="node"><title>57</title>
<path fill="none" stroke="#88d856" stroke-width="2" d="M2180.5,-545C2180.5,-545 2033.5,-545 2033.5,-545 2027.5,-545 2021.5,-539 2021.5,-533 2021.5,-533 2021.5,-516 2021.5,-516 2021.5,-510 2027.5,-504 2033.5,-504 2033.5,-504 2180.5,-504 2180.5,-504 2186.5,-504 2192.5,-510 2192.5,-516 2192.5,-516 2192.5,-533 2192.5,-533 2192.5,-539 2186.5,-545 2180.5,-545"/>
<text text-anchor="middle" x="2107" y="-533" font-family="sans" font-size="10.00">mpileup</text>
<text text-anchor="middle" x="2107" y="-522" font-family="sans" font-size="10.00">region: I:000000001&#45;000230218</text>
<text text-anchor="middle" x="2107" y="-511" font-family="sans" font-size="10.00">sampleset: test</text>
</g>
<!-- 57&#45;&gt;55 -->
<g id="edge99" class="edge"><title>57&#45;&gt;55</title>
<path fill="none" stroke="grey" stroke-width="2" d="M2021.4,-512.147C1997.95,-509.253 1972.52,-506.311 1949,-504 1699.46,-479.483 1400.51,-461.063 1279.66,-454.07"/>
<polygon fill="grey" stroke="grey" stroke-width="2" points="1279.74,-450.569 1269.55,-453.488 1279.34,-457.558 1279.74,-450.569"/>
</g>
<!-- 58 -->
<g id="node59" class="node"><title>58</title>
<path fill="none" stroke="#568ad8" stroke-width="2" d="M2225,-617C2225,-617 2117,-617 2117,-617 2111,-617 2105,-611 2105,-605 2105,-605 2105,-593 2105,-593 2105,-587 2111,-581 2117,-581 2117,-581 2225,-581 2225,-581 2231,-581 2237,-587 2237,-593 2237,-593 2237,-605 2237,-605 2237,-611 2231,-617 2225,-617"/>
<text text-anchor="middle" x="2171" y="-602" font-family="sans" font-size="10.00">mergebam_set</text>
<text text-anchor="middle" x="2171" y="-591" font-family="sans" font-size="10.00">sampleset: all_samples</text>
</g>
<!-- 58&#45;&gt;56 -->
<g id="edge100" class="edge"><title>58&#45;&gt;56</title>
<path fill="none" stroke="grey" stroke-width="2" d="M2222.86,-580.91C2254.77,-570.394 2295.84,-556.859 2329.41,-545.798"/>
<polygon fill="grey" stroke="grey" stroke-width="2" points="2330.71,-549.055 2339.11,-542.6 2328.52,-542.406 2330.71,-549.055"/>
</g>
<!-- 58&#45;&gt;57 -->
<g id="edge101" class="edge"><title>58&#45;&gt;57</title>
<path fill="none" stroke="grey" stroke-width="2" d="M2155.83,-580.819C2148.44,-572.444 2139.37,-562.171 2131.06,-552.761"/>
<polygon fill="grey" stroke="grey" stroke-width="2" points="2133.56,-550.3 2124.32,-545.12 2128.31,-554.933 2133.56,-550.3"/>
</g>
<!-- 59 -->
<g id="node60" class="node"><title>59</title>
<path fill="none" stroke="#70d856" stroke-width="2" d="M2052,-689C2052,-689 1974,-689 1974,-689 1968,-689 1962,-683 1962,-677 1962,-677 1962,-665 1962,-665 1962,-659 1968,-653 1974,-653 1974,-653 2052,-653 2052,-653 2058,-653 2064,-659 2064,-665 2064,-665 2064,-677 2064,-677 2064,-683 2058,-689 2052,-689"/>
<text text-anchor="middle" x="2013" y="-674" font-family="sans" font-size="10.00">mergebam_samp</text>
<text text-anchor="middle" x="2013" y="-663" font-family="sans" font-size="10.00">sample: A</text>
</g>
<!-- 59&#45;&gt;58 -->
<g id="edge102" class="edge"><title>59&#45;&gt;58</title>
<path fill="none" stroke="grey" stroke-width="2" d="M2051.65,-652.876C2073.25,-643.307 2100.35,-631.3 2123.27,-621.148"/>
<polygon fill="grey" stroke="grey" stroke-width="2" points="2124.75,-624.319 2132.47,-617.068 2121.91,-617.919 2124.75,-624.319"/>
</g>
<!-- 60 -->
<g id="node61" class="node"><title>60</title>
<path fill="none" stroke="#70d856" stroke-width="2" d="M2210,-689C2210,-689 2132,-689 2132,-689 2126,-689 2120,-683 2120,-677 2120,-677 2120,-665 2120,-665 2120,-659 2126,-653 2132,-653 2132,-653 2210,-653 2210,-653 2216,-653 2222,-659 2222,-665 2222,-665 2222,-677 2222,-677 2222,-683 2216,-689 2210,-689"/>
<text text-anchor="middle" x="2171" y="-674" font-family="sans" font-size="10.00">mergebam_samp</text>
<text text-anchor="middle" x="2171" y="-663" font-family="sans" font-size="10.00">sample: C</text>
</g>
<!-- 60&#45;&gt;58 -->
<g id="edge103" class="edge"><title>60&#45;&gt;58</title>
<path fill="none" stroke="grey" stroke-width="2" d="M2171,-652.697C2171,-644.983 2171,-635.712 2171,-627.112"/>
<polygon fill="grey" stroke="grey" stroke-width="2" points="2174.5,-627.104 2171,-617.104 2167.5,-627.104 2174.5,-627.104"/>
</g>
<!-- 61 -->
<g id="node62" class="node"><title>61</title>
<path fill="none" stroke="#70d856" stroke-width="2" d="M3408,-689C3408,-689 3330,-689 3330,-689 3324,-689 3318,-683 3318,-677 3318,-677 3318,-665 3318,-665 3318,-659 3324,-653 3330,-653 3330,-653 3408,-653 3408,-653 3414,-653 3420,-659 3420,-665 3420,-665 3420,-677 3420,-677 3420,-683 3414,-689 3408,-689"/>
<text text-anchor="middle" x="3369" y="-674" font-family="sans" font-size="10.00">mergebam_samp</text>
<text text-anchor="middle" x="3369" y="-663" font-family="sans" font-size="10.00">sample: B</text>
</g>
<!-- 61&#45;&gt;58 -->
<g id="edge104" class="edge"><title>61&#45;&gt;58</title>
<path fill="none" stroke="grey" stroke-width="2" d="M3317.91,-667.015C3129.43,-656.002 2472.47,-617.615 2247.36,-604.462"/>
<polygon fill="grey" stroke="grey" stroke-width="2" points="2247.48,-600.963 2237.29,-603.874 2247.07,-607.951 2247.48,-600.963"/>
</g>
<!-- 62 -->
<g id="node63" class="node"><title>62</title>
<path fill="none" stroke="#d87556" stroke-width="2" d="M227,-769C227,-769 135,-769 135,-769 129,-769 123,-763 123,-757 123,-757 123,-745 123,-745 123,-739 129,-733 135,-733 135,-733 227,-733 227,-733 233,-733 239,-739 239,-745 239,-745 239,-757 239,-757 239,-763 233,-769 227,-769"/>
<text text-anchor="middle" x="181" y="-754" font-family="sans" font-size="10.00">bam_markdups_sort</text>
<text text-anchor="middle" x="181" y="-743" font-family="sans" font-size="10.00">aligner: bwa</text>
</g>
<!-- 62&#45;&gt;59 -->
<g id="edge105" class="edge"><title>62&#45;&gt;59</title>
<path fill="none" stroke="grey" stroke-width="2" d="M239.109,-747.526C512.659,-735.879 1670.52,-686.582 1951.42,-674.622"/>
<polygon fill="grey" stroke="grey" stroke-width="2" points="1951.97,-678.102 1961.82,-674.179 1951.68,-671.108 1951.97,-678.102"/>
</g>
<!-- 63 -->
<g id="node64" class="node"><title>63</title>
<path fill="none" stroke="#d87556" stroke-width="2" d="M2150,-769C2150,-769 2058,-769 2058,-769 2052,-769 2046,-763 2046,-757 2046,-757 2046,-745 2046,-745 2046,-739 2052,-733 2058,-733 2058,-733 2150,-733 2150,-733 2156,-733 2162,-739 2162,-745 2162,-745 2162,-757 2162,-757 2162,-763 2156,-769 2150,-769"/>
<text text-anchor="middle" x="2104" y="-754" font-family="sans" font-size="10.00">bam_markdups_sort</text>
<text text-anchor="middle" x="2104" y="-743" font-family="sans" font-size="10.00">aligner: bwa</text>
</g>
<!-- 63&#45;&gt;60 -->
<g id="edge106" class="edge"><title>63&#45;&gt;60</title>
<path fill="none" stroke="grey" stroke-width="2" d="M2118.87,-732.689C2127.89,-722.187 2139.55,-708.608 2149.56,-696.958"/>
<polygon fill="grey" stroke="grey" stroke-width="2" points="2152.31,-699.129 2156.17,-689.262 2147,-694.567 2152.31,-699.129"/>
</g>
<!-- 64 -->
<g id="node65" class="node"><title>64</title>
<path fill="none" stroke="#d87556" stroke-width="2" d="M2284,-769C2284,-769 2192,-769 2192,-769 2186,-769 2180,-763 2180,-757 2180,-757 2180,-745 2180,-745 2180,-739 2186,-733 2192,-733 2192,-733 2284,-733 2284,-733 2290,-733 2296,-739 2296,-745 2296,-745 2296,-757 2296,-757 2296,-763 2290,-769 2284,-769"/>
<text text-anchor="middle" x="2238" y="-754" font-family="sans" font-size="10.00">bam_markdups_sort</text>
<text text-anchor="middle" x="2238" y="-743" font-family="sans" font-size="10.00">aligner: bwa</text>
</g>
<!-- 64&#45;&gt;60 -->
<g id="edge107" class="edge"><title>64&#45;&gt;60</title>
<path fill="none" stroke="grey" stroke-width="2" d="M2223.13,-732.689C2214.11,-722.187 2202.45,-708.608 2192.44,-696.958"/>
<polygon fill="grey" stroke="grey" stroke-width="2" points="2195,-694.567 2185.83,-689.262 2189.69,-699.129 2195,-694.567"/>
</g>
<!-- 65 -->
<g id="node66" class="node"><title>65</title>
<path fill="none" stroke="#d87556" stroke-width="2" d="M3587,-769C3587,-769 3495,-769 3495,-769 3489,-769 3483,-763 3483,-757 3483,-757 3483,-745 3483,-745 3483,-739 3489,-733 3495,-733 3495,-733 3587,-733 3587,-733 3593,-733 3599,-739 3599,-745 3599,-745 3599,-757 3599,-757 3599,-763 3593,-769 3587,-769"/>
<text text-anchor="middle" x="3541" y="-754" font-family="sans" font-size="10.00">bam_markdups_sort</text>
<text text-anchor="middle" x="3541" y="-743" font-family="sans" font-size="10.00">aligner: bwa</text>
</g>
<!-- 65&#45;&gt;61 -->
<g id="edge108" class="edge"><title>65&#45;&gt;61</title>
<path fill="none" stroke="grey" stroke-width="2" d="M3503.25,-732.883C3477.6,-721.249 3443.48,-705.775 3416.05,-693.338"/>
<polygon fill="grey" stroke="grey" stroke-width="2" points="3417.21,-690.02 3406.66,-689.078 3414.32,-696.395 3417.21,-690.02"/>
</g>
<!-- 66 -->
<g id="node67" class="node"><title>66</title>
<path fill="none" stroke="#d87556" stroke-width="2" d="M3415,-769C3415,-769 3323,-769 3323,-769 3317,-769 3311,-763 3311,-757 3311,-757 3311,-745 3311,-745 3311,-739 3317,-733 3323,-733 3323,-733 3415,-733 3415,-733 3421,-733 3427,-739 3427,-745 3427,-745 3427,-757 3427,-757 3427,-763 3421,-769 3415,-769"/>
<text text-anchor="middle" x="3369" y="-754" font-family="sans" font-size="10.00">bam_markdups_sort</text>
<text text-anchor="middle" x="3369" y="-743" font-family="sans" font-size="10.00">aligner: bwa</text>
</g>
<!-- 66&#45;&gt;61 -->
<g id="edge109" class="edge"><title>66&#45;&gt;61</title>
<path fill="none" stroke="grey" stroke-width="2" d="M3369,-732.689C3369,-722.894 3369,-710.422 3369,-699.335"/>
<polygon fill="grey" stroke="grey" stroke-width="2" points="3372.5,-699.262 3369,-689.262 3365.5,-699.262 3372.5,-699.262"/>
</g>
<!-- 67&#45;&gt;62 -->
<g id="edge110" class="edge"><title>67&#45;&gt;62</title>
<path fill="none" stroke="grey" stroke-width="2" d="M181,-812.689C181,-802.894 181,-790.422 181,-779.335"/>
<polygon fill="grey" stroke="grey" stroke-width="2" points="184.5,-779.262 181,-769.262 177.5,-779.262 184.5,-779.262"/>
</g>
<!-- 68&#45;&gt;63 -->
<g id="edge111" class="edge"><title>68&#45;&gt;63</title>
<path fill="none" stroke="grey" stroke-width="2" d="M2104,-812.689C2104,-802.894 2104,-790.422 2104,-779.335"/>
<polygon fill="grey" stroke="grey" stroke-width="2" points="2107.5,-779.262 2104,-769.262 2100.5,-779.262 2107.5,-779.262"/>
</g>
<!-- 69&#45;&gt;64 -->
<g id="edge112" class="edge"><title>69&#45;&gt;64</title>
<path fill="none" stroke="grey" stroke-width="2" d="M2238,-812.689C2238,-802.894 2238,-790.422 2238,-779.335"/>
<polygon fill="grey" stroke="grey" stroke-width="2" points="2241.5,-779.262 2238,-769.262 2234.5,-779.262 2241.5,-779.262"/>
</g>
<!-- 70&#45;&gt;65 -->
<g id="edge113" class="edge"><title>70&#45;&gt;65</title>
<path fill="none" stroke="grey" stroke-width="2" d="M3624.52,-812.883C3609.33,-801.808 3589.36,-787.253 3572.76,-775.151"/>
<polygon fill="grey" stroke="grey" stroke-width="2" points="3574.57,-772.14 3564.43,-769.078 3570.45,-777.797 3574.57,-772.14"/>
</g>
<!-- 71&#45;&gt;66 -->
<g id="edge114" class="edge"><title>71&#45;&gt;66</title>
<path fill="none" stroke="grey" stroke-width="2" d="M3348.77,-812.689C3352.07,-802.793 3356.28,-790.164 3360,-778.993"/>
<polygon fill="grey" stroke="grey" stroke-width="2" points="3363.4,-779.856 3363.25,-769.262 3356.76,-777.642 3363.4,-779.856"/>
</g>
</g>
</svg>
