<?xml version="1.0" encoding="UTF-8" standalone="no"?>
<!DOCTYPE svg PUBLIC "-//W3C//DTD SVG 1.1//EN"
 "http://www.w3.org/Graphics/SVG/1.1/DTD/svg11.dtd">
<!-- Generated by graphviz version 2.38.0 (20140413.2041)
 -->
<!-- Title: snakemake_dag Pages: 1 -->
<svg width="2895pt" height="985pt"
 viewBox="0.00 0.00 2894.90 985.00" xmlns="http://www.w3.org/2000/svg" xmlns:xlink="http://www.w3.org/1999/xlink">
<g id="graph0" class="graph" transform="scale(1 1) rotate(0) translate(4 981)">
<title>snakemake_dag</title>
<polygon fill="white" stroke="none" points="-4,4 -4,-981 2890.9,-981 2890.9,4 -4,4"/>
<!-- 0 -->
<g id="node1" class="node"><title>0</title>
<path fill="none" stroke="#80d856" stroke-width="2" d="M1831,-36C1831,-36 1801,-36 1801,-36 1795,-36 1789,-30 1789,-24 1789,-24 1789,-12 1789,-12 1789,-6 1795,-0 1801,-0 1801,-0 1831,-0 1831,-0 1837,-0 1843,-6 1843,-12 1843,-12 1843,-24 1843,-24 1843,-30 1837,-36 1831,-36"/>
<text text-anchor="middle" x="1816" y="-15.5" font-family="sans" font-size="10.00">all</text>
</g>
<!-- 1 -->
<g id="node2" class="node"><title>1</title>
<path fill="none" stroke="#56b9d8" stroke-width="2" d="M106.5,-977C106.5,-977 65.5,-977 65.5,-977 59.5,-977 53.5,-971 53.5,-965 53.5,-965 53.5,-948 53.5,-948 53.5,-942 59.5,-936 65.5,-936 65.5,-936 106.5,-936 106.5,-936 112.5,-936 118.5,-942 118.5,-948 118.5,-948 118.5,-965 118.5,-965 118.5,-971 112.5,-977 106.5,-977"/>
<text text-anchor="middle" x="86" y="-965" font-family="sans" font-size="10.00">qcreads</text>
<text text-anchor="middle" x="86" y="-954" font-family="sans" font-size="10.00">lib: A</text>
<text text-anchor="middle" x="86" y="-943" font-family="sans" font-size="10.00">run: run_1</text>
</g>
<!-- 1&#45;&gt;0 -->
<g id="edge1" class="edge"><title>1&#45;&gt;0</title>
<path fill="none" stroke="grey" stroke-width="2" d="M64.7416,-935.708C39.2745,-909.74 0,-861.505 0,-811 0,-811 0,-811 0,-161 0,-113.542 17.5299,-95.0756 59,-72 136.72,-28.7533 1530.33,-20.3185 1778.39,-19.1576"/>
<polygon fill="grey" stroke="grey" stroke-width="2" points="1778.7,-22.6564 1788.69,-19.1106 1778.67,-15.6564 1778.7,-22.6564"/>
</g>
<!-- 6 -->
<g id="node7" class="node"><title>6</title>
<path fill="none" stroke="#d8d356" stroke-width="2" d="M2606,-900C2606,-900 2526,-900 2526,-900 2520,-900 2514,-894 2514,-888 2514,-888 2514,-876 2514,-876 2514,-870 2520,-864 2526,-864 2526,-864 2606,-864 2606,-864 2612,-864 2618,-870 2618,-876 2618,-876 2618,-888 2618,-888 2618,-894 2612,-900 2606,-900"/>
<text text-anchor="middle" x="2566" y="-879.5" font-family="sans" font-size="10.00">read_count_librun</text>
</g>
<!-- 1&#45;&gt;6 -->
<g id="edge26" class="edge"><title>1&#45;&gt;6</title>
<path fill="none" stroke="grey" stroke-width="2" d="M118.774,-955.367C368.829,-954.26 1978.3,-945.432 2463,-900 2476.23,-898.76 2490.33,-896.836 2503.71,-894.722"/>
<polygon fill="grey" stroke="grey" stroke-width="2" points="2504.48,-898.143 2513.79,-893.076 2503.35,-891.234 2504.48,-898.143"/>
</g>
<!-- 53 -->
<g id="node54" class="node"><title>53</title>
<path fill="none" stroke="#9fd856" stroke-width="2" d="M112,-900C112,-900 60,-900 60,-900 54,-900 48,-894 48,-888 48,-888 48,-876 48,-876 48,-870 54,-864 60,-864 60,-864 112,-864 112,-864 118,-864 124,-870 124,-876 124,-876 124,-888 124,-888 124,-894 118,-900 112,-900"/>
<text text-anchor="middle" x="86" y="-885" font-family="sans" font-size="10.00">bwamem</text>
<text text-anchor="middle" x="86" y="-874" font-family="sans" font-size="10.00">ref: genome</text>
</g>
<!-- 1&#45;&gt;53 -->
<g id="edge121" class="edge"><title>1&#45;&gt;53</title>
<path fill="none" stroke="grey" stroke-width="2" d="M86,-935.689C86,-927.907 86,-918.842 86,-910.447"/>
<polygon fill="grey" stroke="grey" stroke-width="2" points="89.5001,-910.319 86,-900.319 82.5001,-910.32 89.5001,-910.319"/>
</g>
<!-- 2 -->
<g id="node3" class="node"><title>2</title>
<path fill="none" stroke="#56b9d8" stroke-width="2" d="M2294.5,-977C2294.5,-977 2253.5,-977 2253.5,-977 2247.5,-977 2241.5,-971 2241.5,-965 2241.5,-965 2241.5,-948 2241.5,-948 2241.5,-942 2247.5,-936 2253.5,-936 2253.5,-936 2294.5,-936 2294.5,-936 2300.5,-936 2306.5,-942 2306.5,-948 2306.5,-948 2306.5,-965 2306.5,-965 2306.5,-971 2300.5,-977 2294.5,-977"/>
<text text-anchor="middle" x="2274" y="-965" font-family="sans" font-size="10.00">qcreads</text>
<text text-anchor="middle" x="2274" y="-954" font-family="sans" font-size="10.00">lib: B1</text>
<text text-anchor="middle" x="2274" y="-943" font-family="sans" font-size="10.00">run: run_1</text>
</g>
<!-- 2&#45;&gt;0 -->
<g id="edge2" class="edge"><title>2&#45;&gt;0</title>
<path fill="none" stroke="grey" stroke-width="2" d="M2241.11,-953.521C1972.77,-936.951 153,-816.421 153,-595 153,-595 153,-595 153,-521 153,-392.83 190,-363.17 190,-235 190,-235 190,-235 190,-161 190,-74.1375 279.939,-93.8806 364,-72 504.438,-35.445 1565.61,-21.7837 1778.77,-19.3948"/>
<polygon fill="grey" stroke="grey" stroke-width="2" points="1778.88,-22.894 1788.84,-19.2834 1778.8,-15.8944 1778.88,-22.894"/>
</g>
<!-- 2&#45;&gt;6 -->
<g id="edge27" class="edge"><title>2&#45;&gt;6</title>
<path fill="none" stroke="grey" stroke-width="2" d="M2306.65,-947.394C2354.3,-935.564 2443.77,-913.348 2504.13,-898.362"/>
<polygon fill="grey" stroke="grey" stroke-width="2" points="2505.06,-901.736 2513.93,-895.929 2503.38,-894.942 2505.06,-901.736"/>
</g>
<!-- 54 -->
<g id="node55" class="node"><title>54</title>
<path fill="none" stroke="#9fd856" stroke-width="2" d="M2300,-900C2300,-900 2248,-900 2248,-900 2242,-900 2236,-894 2236,-888 2236,-888 2236,-876 2236,-876 2236,-870 2242,-864 2248,-864 2248,-864 2300,-864 2300,-864 2306,-864 2312,-870 2312,-876 2312,-876 2312,-888 2312,-888 2312,-894 2306,-900 2300,-900"/>
<text text-anchor="middle" x="2274" y="-885" font-family="sans" font-size="10.00">bwamem</text>
<text text-anchor="middle" x="2274" y="-874" font-family="sans" font-size="10.00">ref: genome</text>
</g>
<!-- 2&#45;&gt;54 -->
<g id="edge122" class="edge"><title>2&#45;&gt;54</title>
<path fill="none" stroke="grey" stroke-width="2" d="M2274,-935.689C2274,-927.907 2274,-918.842 2274,-910.447"/>
<polygon fill="grey" stroke="grey" stroke-width="2" points="2277.5,-910.319 2274,-900.319 2270.5,-910.32 2277.5,-910.319"/>
</g>
<!-- 3 -->
<g id="node4" class="node"><title>3</title>
<path fill="none" stroke="#56b9d8" stroke-width="2" d="M2506.5,-977C2506.5,-977 2465.5,-977 2465.5,-977 2459.5,-977 2453.5,-971 2453.5,-965 2453.5,-965 2453.5,-948 2453.5,-948 2453.5,-942 2459.5,-936 2465.5,-936 2465.5,-936 2506.5,-936 2506.5,-936 2512.5,-936 2518.5,-942 2518.5,-948 2518.5,-948 2518.5,-965 2518.5,-965 2518.5,-971 2512.5,-977 2506.5,-977"/>
<text text-anchor="middle" x="2486" y="-965" font-family="sans" font-size="10.00">qcreads</text>
<text text-anchor="middle" x="2486" y="-954" font-family="sans" font-size="10.00">lib: B2</text>
<text text-anchor="middle" x="2486" y="-943" font-family="sans" font-size="10.00">run: run_1</text>
</g>
<!-- 3&#45;&gt;0 -->
<g id="edge3" class="edge"><title>3&#45;&gt;0</title>
<path fill="none" stroke="grey" stroke-width="2" d="M2487.22,-935.807C2489.45,-897.782 2494,-811.592 2494,-739 2494,-739 2494,-739 2494,-161 2494,-113.542 2475.82,-96.2124 2435,-72 2384.97,-42.3244 1979.75,-25.0286 1853.45,-20.3198"/>
<polygon fill="grey" stroke="grey" stroke-width="2" points="1853.25,-16.8104 1843.13,-19.9402 1853,-23.8056 1853.25,-16.8104"/>
</g>
<!-- 3&#45;&gt;6 -->
<g id="edge28" class="edge"><title>3&#45;&gt;6</title>
<path fill="none" stroke="grey" stroke-width="2" d="M2507.86,-935.689C2517.67,-926.802 2529.32,-916.243 2539.61,-906.919"/>
<polygon fill="grey" stroke="grey" stroke-width="2" points="2542.1,-909.387 2547.16,-900.078 2537.39,-904.2 2542.1,-909.387"/>
</g>
<!-- 55 -->
<g id="node56" class="node"><title>55</title>
<path fill="none" stroke="#9fd856" stroke-width="2" d="M2442,-900C2442,-900 2390,-900 2390,-900 2384,-900 2378,-894 2378,-888 2378,-888 2378,-876 2378,-876 2378,-870 2384,-864 2390,-864 2390,-864 2442,-864 2442,-864 2448,-864 2454,-870 2454,-876 2454,-876 2454,-888 2454,-888 2454,-894 2448,-900 2442,-900"/>
<text text-anchor="middle" x="2416" y="-885" font-family="sans" font-size="10.00">bwamem</text>
<text text-anchor="middle" x="2416" y="-874" font-family="sans" font-size="10.00">ref: genome</text>
</g>
<!-- 3&#45;&gt;55 -->
<g id="edge123" class="edge"><title>3&#45;&gt;55</title>
<path fill="none" stroke="grey" stroke-width="2" d="M2466.87,-935.689C2458.52,-927.042 2448.65,-916.811 2439.83,-907.676"/>
<polygon fill="grey" stroke="grey" stroke-width="2" points="2442.19,-905.082 2432.72,-900.319 2437.15,-909.945 2442.19,-905.082"/>
</g>
<!-- 4 -->
<g id="node5" class="node"><title>4</title>
<path fill="none" stroke="#56b9d8" stroke-width="2" d="M2694.5,-977C2694.5,-977 2653.5,-977 2653.5,-977 2647.5,-977 2641.5,-971 2641.5,-965 2641.5,-965 2641.5,-948 2641.5,-948 2641.5,-942 2647.5,-936 2653.5,-936 2653.5,-936 2694.5,-936 2694.5,-936 2700.5,-936 2706.5,-942 2706.5,-948 2706.5,-948 2706.5,-965 2706.5,-965 2706.5,-971 2700.5,-977 2694.5,-977"/>
<text text-anchor="middle" x="2674" y="-965" font-family="sans" font-size="10.00">qcreads</text>
<text text-anchor="middle" x="2674" y="-954" font-family="sans" font-size="10.00">lib: C</text>
<text text-anchor="middle" x="2674" y="-943" font-family="sans" font-size="10.00">run: run_1</text>
</g>
<!-- 4&#45;&gt;0 -->
<g id="edge4" class="edge"><title>4&#45;&gt;0</title>
<path fill="none" stroke="grey" stroke-width="2" d="M2706.84,-942.994C2747.9,-927.299 2813.09,-902.155 2815,-900 2842.07,-869.402 2838,-851.855 2838,-811 2838,-811 2838,-811 2838,-161 2838,-61.6729 2729.55,-95.3388 2633,-72 2481.85,-35.4625 1992.26,-22.6653 1853.17,-19.7176"/>
<polygon fill="grey" stroke="grey" stroke-width="2" points="1853.09,-16.2154 1843.02,-19.507 1852.95,-23.2139 1853.09,-16.2154"/>
</g>
<!-- 4&#45;&gt;6 -->
<g id="edge29" class="edge"><title>4&#45;&gt;6</title>
<path fill="none" stroke="grey" stroke-width="2" d="M2644.77,-935.88C2631.01,-926.643 2614.51,-915.565 2600.17,-905.941"/>
<polygon fill="grey" stroke="grey" stroke-width="2" points="2601.83,-902.834 2591.57,-900.166 2597.92,-908.646 2601.83,-902.834"/>
</g>
<!-- 56 -->
<g id="node57" class="node"><title>56</title>
<path fill="none" stroke="#9fd856" stroke-width="2" d="M2700,-900C2700,-900 2648,-900 2648,-900 2642,-900 2636,-894 2636,-888 2636,-888 2636,-876 2636,-876 2636,-870 2642,-864 2648,-864 2648,-864 2700,-864 2700,-864 2706,-864 2712,-870 2712,-876 2712,-876 2712,-888 2712,-888 2712,-894 2706,-900 2700,-900"/>
<text text-anchor="middle" x="2674" y="-885" font-family="sans" font-size="10.00">bwamem</text>
<text text-anchor="middle" x="2674" y="-874" font-family="sans" font-size="10.00">ref: genome</text>
</g>
<!-- 4&#45;&gt;56 -->
<g id="edge124" class="edge"><title>4&#45;&gt;56</title>
<path fill="none" stroke="grey" stroke-width="2" d="M2674,-935.689C2674,-927.907 2674,-918.842 2674,-910.447"/>
<polygon fill="grey" stroke="grey" stroke-width="2" points="2677.5,-910.319 2674,-900.319 2670.5,-910.32 2677.5,-910.319"/>
</g>
<!-- 5 -->
<g id="node6" class="node"><title>5</title>
<path fill="none" stroke="#56b9d8" stroke-width="2" d="M2788.5,-977C2788.5,-977 2747.5,-977 2747.5,-977 2741.5,-977 2735.5,-971 2735.5,-965 2735.5,-965 2735.5,-948 2735.5,-948 2735.5,-942 2741.5,-936 2747.5,-936 2747.5,-936 2788.5,-936 2788.5,-936 2794.5,-936 2800.5,-942 2800.5,-948 2800.5,-948 2800.5,-965 2800.5,-965 2800.5,-971 2794.5,-977 2788.5,-977"/>
<text text-anchor="middle" x="2768" y="-965" font-family="sans" font-size="10.00">qcreads</text>
<text text-anchor="middle" x="2768" y="-954" font-family="sans" font-size="10.00">lib: C</text>
<text text-anchor="middle" x="2768" y="-943" font-family="sans" font-size="10.00">run: run_2</text>
</g>
<!-- 5&#45;&gt;0 -->
<g id="edge5" class="edge"><title>5&#45;&gt;0</title>
<path fill="none" stroke="grey" stroke-width="2" d="M2800.57,-935.939C2814.2,-926.463 2829.31,-914.08 2840,-900 2865.8,-866.012 2876,-853.669 2876,-811 2876,-811 2876,-811 2876,-161 2876,-141.484 2943.15,-138.043 2740,-72 2571,-17.0593 2004.23,-17.4924 1853.23,-18.6259"/>
<polygon fill="grey" stroke="grey" stroke-width="2" points="1853.06,-15.1271 1843.09,-18.708 1853.12,-22.1268 1853.06,-15.1271"/>
</g>
<!-- 5&#45;&gt;6 -->
<g id="edge30" class="edge"><title>5&#45;&gt;6</title>
<path fill="none" stroke="grey" stroke-width="2" d="M2735.22,-943.378C2728.54,-940.923 2721.55,-938.368 2715,-936 2684.98,-925.137 2651.48,-913.207 2623.87,-903.421"/>
<polygon fill="grey" stroke="grey" stroke-width="2" points="2624.96,-900.093 2614.36,-900.054 2622.62,-906.691 2624.96,-900.093"/>
</g>
<!-- 57 -->
<g id="node58" class="node"><title>57</title>
<path fill="none" stroke="#9fd856" stroke-width="2" d="M2794,-900C2794,-900 2742,-900 2742,-900 2736,-900 2730,-894 2730,-888 2730,-888 2730,-876 2730,-876 2730,-870 2736,-864 2742,-864 2742,-864 2794,-864 2794,-864 2800,-864 2806,-870 2806,-876 2806,-876 2806,-888 2806,-888 2806,-894 2800,-900 2794,-900"/>
<text text-anchor="middle" x="2768" y="-885" font-family="sans" font-size="10.00">bwamem</text>
<text text-anchor="middle" x="2768" y="-874" font-family="sans" font-size="10.00">ref: genome</text>
</g>
<!-- 5&#45;&gt;57 -->
<g id="edge125" class="edge"><title>5&#45;&gt;57</title>
<path fill="none" stroke="grey" stroke-width="2" d="M2768,-935.689C2768,-927.907 2768,-918.842 2768,-910.447"/>
<polygon fill="grey" stroke="grey" stroke-width="2" points="2771.5,-910.319 2768,-900.319 2764.5,-910.32 2771.5,-910.319"/>
</g>
<!-- 6&#45;&gt;0 -->
<g id="edge6" class="edge"><title>6&#45;&gt;0</title>
<path fill="none" stroke="grey" stroke-width="2" d="M2559.12,-863.829C2549.18,-837.444 2532,-785.136 2532,-739 2532,-739 2532,-739 2532,-161 2532,-120.031 2539.55,-98.1386 2508,-72 2457.41,-30.0851 1990.78,-21.1207 1853.7,-19.385"/>
<polygon fill="grey" stroke="grey" stroke-width="2" points="1853.34,-15.8805 1843.3,-19.2594 1853.26,-22.88 1853.34,-15.8805"/>
</g>
<!-- 7 -->
<g id="node8" class="node"><title>7</title>
<path fill="none" stroke="#78d856" stroke-width="2" d="M132,-756C132,-756 54,-756 54,-756 48,-756 42,-750 42,-744 42,-744 42,-732 42,-732 42,-726 48,-720 54,-720 54,-720 132,-720 132,-720 138,-720 144,-726 144,-732 144,-732 144,-744 144,-744 144,-750 138,-756 132,-756"/>
<text text-anchor="middle" x="93" y="-741" font-family="sans" font-size="10.00">mergebam_samp</text>
<text text-anchor="middle" x="93" y="-730" font-family="sans" font-size="10.00">sample: A</text>
</g>
<!-- 7&#45;&gt;0 -->
<g id="edge7" class="edge"><title>7&#45;&gt;0</title>
<path fill="none" stroke="grey" stroke-width="2" d="M81.604,-719.899C65.4941,-694.023 38,-642.852 38,-595 38,-595 38,-595 38,-161 38,-100.163 85.2744,-93.9849 142,-72 220.812,-41.4553 1537.81,-22.669 1778.42,-19.4838"/>
<polygon fill="grey" stroke="grey" stroke-width="2" points="1778.79,-22.9793 1788.74,-19.348 1778.7,-15.9799 1778.79,-22.9793"/>
</g>
<!-- 10 -->
<g id="node11" class="node"><title>10</title>
<path fill="none" stroke="#d85e56" stroke-width="2" d="M149.5,-324C149.5,-324 78.5,-324 78.5,-324 72.5,-324 66.5,-318 66.5,-312 66.5,-312 66.5,-300 66.5,-300 66.5,-294 72.5,-288 78.5,-288 78.5,-288 149.5,-288 149.5,-288 155.5,-288 161.5,-294 161.5,-300 161.5,-300 161.5,-312 161.5,-312 161.5,-318 155.5,-324 149.5,-324"/>
<text text-anchor="middle" x="114" y="-303.5" font-family="sans" font-size="10.00">bamstat_samps</text>
</g>
<!-- 7&#45;&gt;10 -->
<g id="edge36" class="edge"><title>7&#45;&gt;10</title>
<path fill="none" stroke="grey" stroke-width="2" d="M94.383,-719.964C96.423,-693.323 100,-640.169 100,-595 100,-595 100,-595 100,-449 100,-409.022 105.564,-363.017 109.676,-334.471"/>
<polygon fill="grey" stroke="grey" stroke-width="2" points="113.16,-334.84 111.167,-324.434 106.236,-333.811 113.16,-334.84"/>
</g>
<!-- 13 -->
<g id="node14" class="node"><title>13</title>
<path fill="none" stroke="#56d8a9" stroke-width="2" d="M1555,-684C1555,-684 1447,-684 1447,-684 1441,-684 1435,-678 1435,-672 1435,-672 1435,-660 1435,-660 1435,-654 1441,-648 1447,-648 1447,-648 1555,-648 1555,-648 1561,-648 1567,-654 1567,-660 1567,-660 1567,-672 1567,-672 1567,-678 1561,-684 1555,-684"/>
<text text-anchor="middle" x="1501" y="-669" font-family="sans" font-size="10.00">mergebam_set</text>
<text text-anchor="middle" x="1501" y="-658" font-family="sans" font-size="10.00">sampleset: all_samples</text>
</g>
<!-- 7&#45;&gt;13 -->
<g id="edge39" class="edge"><title>7&#45;&gt;13</title>
<path fill="none" stroke="grey" stroke-width="2" d="M144.362,-734.447C357.172,-723.866 1170.45,-683.434 1424.62,-670.797"/>
<polygon fill="grey" stroke="grey" stroke-width="2" points="1425.06,-674.28 1434.87,-670.288 1424.71,-667.289 1425.06,-674.28"/>
</g>
<!-- 14 -->
<g id="node15" class="node"><title>14</title>
<path fill="none" stroke="#d85656" stroke-width="2" d="M2394,-684C2394,-684 2286,-684 2286,-684 2280,-684 2274,-678 2274,-672 2274,-672 2274,-660 2274,-660 2274,-654 2280,-648 2286,-648 2286,-648 2394,-648 2394,-648 2400,-648 2406,-654 2406,-660 2406,-660 2406,-672 2406,-672 2406,-678 2400,-684 2394,-684"/>
<text text-anchor="middle" x="2340" y="-669" font-family="sans" font-size="10.00">bamlist</text>
<text text-anchor="middle" x="2340" y="-658" font-family="sans" font-size="10.00">sampleset: all_samples</text>
</g>
<!-- 7&#45;&gt;14 -->
<g id="edge42" class="edge"><title>7&#45;&gt;14</title>
<path fill="none" stroke="grey" stroke-width="2" d="M144.154,-735.406C437.997,-726.252 1910.37,-680.384 2263.69,-669.377"/>
<polygon fill="grey" stroke="grey" stroke-width="2" points="2263.93,-672.871 2273.82,-669.062 2263.72,-665.875 2263.93,-672.871"/>
</g>
<!-- 8 -->
<g id="node9" class="node"><title>8</title>
<path fill="none" stroke="#78d856" stroke-width="2" d="M2357,-756C2357,-756 2279,-756 2279,-756 2273,-756 2267,-750 2267,-744 2267,-744 2267,-732 2267,-732 2267,-726 2273,-720 2279,-720 2279,-720 2357,-720 2357,-720 2363,-720 2369,-726 2369,-732 2369,-732 2369,-744 2369,-744 2369,-750 2363,-756 2357,-756"/>
<text text-anchor="middle" x="2318" y="-741" font-family="sans" font-size="10.00">mergebam_samp</text>
<text text-anchor="middle" x="2318" y="-730" font-family="sans" font-size="10.00">sample: B</text>
</g>
<!-- 8&#45;&gt;0 -->
<g id="edge8" class="edge"><title>8&#45;&gt;0</title>
<path fill="none" stroke="grey" stroke-width="2" d="M2363.1,-719.765C2381.02,-711.165 2400.72,-699.288 2415,-684 2444.72,-652.17 2456,-638.551 2456,-595 2456,-595 2456,-595 2456,-161 2456,-114.027 2439.15,-96.388 2399,-72 2352.42,-43.7001 1974.51,-25.6122 1853.28,-20.4942"/>
<polygon fill="grey" stroke="grey" stroke-width="2" points="1853.16,-16.9862 1843.02,-20.0663 1852.87,-23.9801 1853.16,-16.9862"/>
</g>
<!-- 11 -->
<g id="node12" class="node"><title>11</title>
<path fill="none" stroke="#d85e56" stroke-width="2" d="M323.5,-396C323.5,-396 252.5,-396 252.5,-396 246.5,-396 240.5,-390 240.5,-384 240.5,-384 240.5,-372 240.5,-372 240.5,-366 246.5,-360 252.5,-360 252.5,-360 323.5,-360 323.5,-360 329.5,-360 335.5,-366 335.5,-372 335.5,-372 335.5,-384 335.5,-384 335.5,-390 329.5,-396 323.5,-396"/>
<text text-anchor="middle" x="288" y="-375.5" font-family="sans" font-size="10.00">bamstat_samps</text>
</g>
<!-- 8&#45;&gt;11 -->
<g id="edge37" class="edge"><title>8&#45;&gt;11</title>
<path fill="none" stroke="grey" stroke-width="2" d="M2267,-736.342C1943.53,-731.842 191,-702.5 191,-595 191,-595 191,-595 191,-521 191,-472.697 229.743,-428.732 258.258,-402.914"/>
<polygon fill="grey" stroke="grey" stroke-width="2" points="260.785,-405.353 265.989,-396.125 256.166,-400.094 260.785,-405.353"/>
</g>
<!-- 8&#45;&gt;13 -->
<g id="edge40" class="edge"><title>8&#45;&gt;13</title>
<path fill="none" stroke="grey" stroke-width="2" d="M2266.89,-732.621C2127.8,-720.704 1741.86,-687.637 1577.12,-673.522"/>
<polygon fill="grey" stroke="grey" stroke-width="2" points="1577.33,-670.027 1567.07,-672.661 1576.73,-677.002 1577.33,-670.027"/>
</g>
<!-- 8&#45;&gt;14 -->
<g id="edge43" class="edge"><title>8&#45;&gt;14</title>
<path fill="none" stroke="grey" stroke-width="2" d="M2323.44,-719.697C2325.89,-711.898 2328.84,-702.509 2331.57,-693.829"/>
<polygon fill="grey" stroke="grey" stroke-width="2" points="2334.96,-694.694 2334.62,-684.104 2328.29,-692.595 2334.96,-694.694"/>
</g>
<!-- 9 -->
<g id="node10" class="node"><title>9</title>
<path fill="none" stroke="#78d856" stroke-width="2" d="M2655,-756C2655,-756 2577,-756 2577,-756 2571,-756 2565,-750 2565,-744 2565,-744 2565,-732 2565,-732 2565,-726 2571,-720 2577,-720 2577,-720 2655,-720 2655,-720 2661,-720 2667,-726 2667,-732 2667,-732 2667,-744 2667,-744 2667,-750 2661,-756 2655,-756"/>
<text text-anchor="middle" x="2616" y="-741" font-family="sans" font-size="10.00">mergebam_samp</text>
<text text-anchor="middle" x="2616" y="-730" font-family="sans" font-size="10.00">sample: C</text>
</g>
<!-- 9&#45;&gt;0 -->
<g id="edge9" class="edge"><title>9&#45;&gt;0</title>
<path fill="none" stroke="grey" stroke-width="2" d="M2630.42,-719.894C2650.38,-694.416 2684,-644.201 2684,-595 2684,-595 2684,-595 2684,-161 2684,-98.8016 2633.77,-95.0381 2576,-72 2442.48,-18.7562 1987.79,-17.7192 1853.58,-18.6189"/>
<polygon fill="grey" stroke="grey" stroke-width="2" points="1853.37,-15.1203 1843.4,-18.6953 1853.42,-22.1201 1853.37,-15.1203"/>
</g>
<!-- 12 -->
<g id="node13" class="node"><title>12</title>
<path fill="none" stroke="#d85e56" stroke-width="2" d="M2643.5,-252C2643.5,-252 2572.5,-252 2572.5,-252 2566.5,-252 2560.5,-246 2560.5,-240 2560.5,-240 2560.5,-228 2560.5,-228 2560.5,-222 2566.5,-216 2572.5,-216 2572.5,-216 2643.5,-216 2643.5,-216 2649.5,-216 2655.5,-222 2655.5,-228 2655.5,-228 2655.5,-240 2655.5,-240 2655.5,-246 2649.5,-252 2643.5,-252"/>
<text text-anchor="middle" x="2608" y="-231.5" font-family="sans" font-size="10.00">bamstat_samps</text>
</g>
<!-- 9&#45;&gt;12 -->
<g id="edge38" class="edge"><title>9&#45;&gt;12</title>
<path fill="none" stroke="grey" stroke-width="2" d="M2615.01,-719.958C2613.56,-693.308 2611,-640.143 2611,-595 2611,-595 2611,-595 2611,-377 2611,-336.987 2609.79,-290.646 2608.91,-262.076"/>
<polygon fill="grey" stroke="grey" stroke-width="2" points="2612.41,-261.93 2608.59,-252.047 2605.41,-262.153 2612.41,-261.93"/>
</g>
<!-- 9&#45;&gt;13 -->
<g id="edge41" class="edge"><title>9&#45;&gt;13</title>
<path fill="none" stroke="grey" stroke-width="2" d="M2564.94,-733.191C2516.76,-729.634 2442.48,-724.251 2378,-720 2081.92,-700.48 1729.41,-680.022 1577.2,-671.323"/>
<polygon fill="grey" stroke="grey" stroke-width="2" points="1577.21,-667.818 1567.03,-670.743 1576.81,-674.807 1577.21,-667.818"/>
</g>
<!-- 9&#45;&gt;14 -->
<g id="edge44" class="edge"><title>9&#45;&gt;14</title>
<path fill="none" stroke="grey" stroke-width="2" d="M2564.73,-723.998C2522.96,-713.404 2463.36,-698.288 2416.04,-686.285"/>
<polygon fill="grey" stroke="grey" stroke-width="2" points="2416.69,-682.839 2406.13,-683.773 2414.97,-689.624 2416.69,-682.839"/>
</g>
<!-- 10&#45;&gt;0 -->
<g id="edge10" class="edge"><title>10&#45;&gt;0</title>
<path fill="none" stroke="grey" stroke-width="2" d="M112.446,-287.947C109.484,-243.83 108.493,-125.65 176,-72 240.795,-20.5058 1539.82,-18.8279 1778.49,-18.9555"/>
<polygon fill="grey" stroke="grey" stroke-width="2" points="1778.74,-22.4556 1788.74,-18.9625 1778.74,-15.4556 1778.74,-22.4556"/>
</g>
<!-- 11&#45;&gt;0 -->
<g id="edge11" class="edge"><title>11&#45;&gt;0</title>
<path fill="none" stroke="grey" stroke-width="2" d="M300.512,-359.591C317.831,-333.734 347,-283.053 347,-235 347,-235 347,-235 347,-161 347,-58.4017 459.852,-94.288 560,-72 800.992,-18.3672 1597.01,-18.1368 1778.8,-18.8079"/>
<polygon fill="grey" stroke="grey" stroke-width="2" points="1778.91,-22.3083 1788.93,-18.8486 1778.94,-15.3083 1778.91,-22.3083"/>
</g>
<!-- 12&#45;&gt;0 -->
<g id="edge12" class="edge"><title>12&#45;&gt;0</title>
<path fill="none" stroke="grey" stroke-width="2" d="M2607.11,-215.857C2604.34,-181.989 2592.92,-106.779 2546,-72 2490.1,-30.5651 1995.41,-21.2346 1853.75,-19.4042"/>
<polygon fill="grey" stroke="grey" stroke-width="2" points="1853.46,-15.9003 1843.41,-19.2759 1853.37,-22.8998 1853.46,-15.9003"/>
</g>
<!-- 13&#45;&gt;0 -->
<g id="edge13" class="edge"><title>13&#45;&gt;0</title>
<path fill="none" stroke="grey" stroke-width="2" d="M1567.09,-665.405C1757.94,-665.962 2300.15,-662.996 2360,-612 2390.86,-585.706 2380,-563.542 2380,-523 2380,-523 2380,-523 2380,-161 2380,-115.846 2368.64,-96.9356 2331,-72 2252.58,-20.0536 1958.11,-17.6214 1853.32,-18.4621"/>
<polygon fill="grey" stroke="grey" stroke-width="2" points="1853.17,-14.9632 1843.21,-18.5584 1853.24,-21.9629 1853.17,-14.9632"/>
</g>
<!-- 68 -->
<g id="node69" class="node"><title>68</title>
<path fill="none" stroke="#d8bc56" stroke-width="2" d="M834.5,-612C834.5,-612 661.5,-612 661.5,-612 655.5,-612 649.5,-606 649.5,-600 649.5,-600 649.5,-588 649.5,-588 649.5,-582 655.5,-576 661.5,-576 661.5,-576 834.5,-576 834.5,-576 840.5,-576 846.5,-582 846.5,-588 846.5,-588 846.5,-600 846.5,-600 846.5,-606 840.5,-612 834.5,-612"/>
<text text-anchor="middle" x="748" y="-597" font-family="sans" font-size="10.00">freebayes</text>
<text text-anchor="middle" x="748" y="-586" font-family="sans" font-size="10.00">region: Chr01:000000001&#45;080884392</text>
</g>
<!-- 13&#45;&gt;68 -->
<g id="edge136" class="edge"><title>13&#45;&gt;68</title>
<path fill="none" stroke="grey" stroke-width="2" d="M1434.81,-661.229C1319.41,-654.29 1073.74,-637.905 856.763,-612.166"/>
<polygon fill="grey" stroke="grey" stroke-width="2" points="857.124,-608.685 846.78,-610.973 856.294,-615.635 857.124,-608.685"/>
</g>
<!-- 69 -->
<g id="node70" class="node"><title>69</title>
<path fill="none" stroke="#d8bc56" stroke-width="2" d="M1264.5,-612C1264.5,-612 1091.5,-612 1091.5,-612 1085.5,-612 1079.5,-606 1079.5,-600 1079.5,-600 1079.5,-588 1079.5,-588 1079.5,-582 1085.5,-576 1091.5,-576 1091.5,-576 1264.5,-576 1264.5,-576 1270.5,-576 1276.5,-582 1276.5,-588 1276.5,-588 1276.5,-600 1276.5,-600 1276.5,-606 1270.5,-612 1264.5,-612"/>
<text text-anchor="middle" x="1178" y="-597" font-family="sans" font-size="10.00">freebayes</text>
<text text-anchor="middle" x="1178" y="-586" font-family="sans" font-size="10.00">region: Chr02:000000001&#45;077742459</text>
</g>
<!-- 13&#45;&gt;69 -->
<g id="edge137" class="edge"><title>13&#45;&gt;69</title>
<path fill="none" stroke="grey" stroke-width="2" d="M1434.86,-650.666C1386.31,-640.144 1319.85,-625.741 1266.69,-614.221"/>
<polygon fill="grey" stroke="grey" stroke-width="2" points="1267.1,-610.729 1256.59,-612.032 1265.62,-617.57 1267.1,-610.729"/>
</g>
<!-- 70 -->
<g id="node71" class="node"><title>70</title>
<path fill="none" stroke="#d8bc56" stroke-width="2" d="M1694.5,-612C1694.5,-612 1521.5,-612 1521.5,-612 1515.5,-612 1509.5,-606 1509.5,-600 1509.5,-600 1509.5,-588 1509.5,-588 1509.5,-582 1515.5,-576 1521.5,-576 1521.5,-576 1694.5,-576 1694.5,-576 1700.5,-576 1706.5,-582 1706.5,-588 1706.5,-588 1706.5,-600 1706.5,-600 1706.5,-606 1700.5,-612 1694.5,-612"/>
<text text-anchor="middle" x="1608" y="-597" font-family="sans" font-size="10.00">freebayes</text>
<text text-anchor="middle" x="1608" y="-586" font-family="sans" font-size="10.00">region: Chr03:000000001&#45;074386277</text>
</g>
<!-- 13&#45;&gt;70 -->
<g id="edge138" class="edge"><title>13&#45;&gt;70</title>
<path fill="none" stroke="grey" stroke-width="2" d="M1527.18,-647.876C1541.04,-638.808 1558.24,-627.552 1573.21,-617.759"/>
<polygon fill="grey" stroke="grey" stroke-width="2" points="1575.27,-620.593 1581.72,-612.19 1571.44,-614.735 1575.27,-620.593"/>
</g>
<!-- 71 -->
<g id="node72" class="node"><title>71</title>
<path fill="none" stroke="#d8bc56" stroke-width="2" d="M1049.5,-612C1049.5,-612 876.5,-612 876.5,-612 870.5,-612 864.5,-606 864.5,-600 864.5,-600 864.5,-588 864.5,-588 864.5,-582 870.5,-576 876.5,-576 876.5,-576 1049.5,-576 1049.5,-576 1055.5,-576 1061.5,-582 1061.5,-588 1061.5,-588 1061.5,-600 1061.5,-600 1061.5,-606 1055.5,-612 1049.5,-612"/>
<text text-anchor="middle" x="963" y="-597" font-family="sans" font-size="10.00">freebayes</text>
<text text-anchor="middle" x="963" y="-586" font-family="sans" font-size="10.00">region: Chr04:000000001&#45;068658214</text>
</g>
<!-- 13&#45;&gt;71 -->
<g id="edge139" class="edge"><title>13&#45;&gt;71</title>
<path fill="none" stroke="grey" stroke-width="2" d="M1434.82,-657.595C1352.2,-648.186 1206.3,-631.032 1071.6,-612.202"/>
<polygon fill="grey" stroke="grey" stroke-width="2" points="1071.9,-608.71 1061.51,-610.785 1070.93,-615.642 1071.9,-608.71"/>
</g>
<!-- 72 -->
<g id="node73" class="node"><title>72</title>
<path fill="none" stroke="#d8bc56" stroke-width="2" d="M2124.5,-612C2124.5,-612 1951.5,-612 1951.5,-612 1945.5,-612 1939.5,-606 1939.5,-600 1939.5,-600 1939.5,-588 1939.5,-588 1939.5,-582 1945.5,-576 1951.5,-576 1951.5,-576 2124.5,-576 2124.5,-576 2130.5,-576 2136.5,-582 2136.5,-588 2136.5,-588 2136.5,-600 2136.5,-600 2136.5,-606 2130.5,-612 2124.5,-612"/>
<text text-anchor="middle" x="2038" y="-597" font-family="sans" font-size="10.00">freebayes</text>
<text text-anchor="middle" x="2038" y="-586" font-family="sans" font-size="10.00">region: Chr05:000000001&#45;071854669</text>
</g>
<!-- 13&#45;&gt;72 -->
<g id="edge140" class="edge"><title>13&#45;&gt;72</title>
<path fill="none" stroke="grey" stroke-width="2" d="M1567.23,-657.509C1649.53,-648.045 1794.51,-630.868 1929.33,-612.068"/>
<polygon fill="grey" stroke="grey" stroke-width="2" points="1930.01,-615.506 1939.43,-610.654 1929.04,-608.574 1930.01,-615.506"/>
</g>
<!-- 73 -->
<g id="node74" class="node"><title>73</title>
<path fill="none" stroke="#d8bc56" stroke-width="2" d="M1909.5,-612C1909.5,-612 1736.5,-612 1736.5,-612 1730.5,-612 1724.5,-606 1724.5,-600 1724.5,-600 1724.5,-588 1724.5,-588 1724.5,-582 1730.5,-576 1736.5,-576 1736.5,-576 1909.5,-576 1909.5,-576 1915.5,-576 1921.5,-582 1921.5,-588 1921.5,-588 1921.5,-600 1921.5,-600 1921.5,-606 1915.5,-612 1909.5,-612"/>
<text text-anchor="middle" x="1823" y="-597" font-family="sans" font-size="10.00">freebayes</text>
<text text-anchor="middle" x="1823" y="-586" font-family="sans" font-size="10.00">region: Chr06:000000001&#45;061277060</text>
</g>
<!-- 13&#45;&gt;73 -->
<g id="edge141" class="edge"><title>13&#45;&gt;73</title>
<path fill="none" stroke="grey" stroke-width="2" d="M1567.33,-650.581C1615.67,-640.072 1681.67,-625.723 1734.51,-614.238"/>
<polygon fill="grey" stroke="grey" stroke-width="2" points="1735.52,-617.599 1744.55,-612.054 1734.03,-610.759 1735.52,-617.599"/>
</g>
<!-- 74 -->
<g id="node75" class="node"><title>74</title>
<path fill="none" stroke="#d8bc56" stroke-width="2" d="M619.5,-612C619.5,-612 446.5,-612 446.5,-612 440.5,-612 434.5,-606 434.5,-600 434.5,-600 434.5,-588 434.5,-588 434.5,-582 440.5,-576 446.5,-576 446.5,-576 619.5,-576 619.5,-576 625.5,-576 631.5,-582 631.5,-588 631.5,-588 631.5,-600 631.5,-600 631.5,-606 625.5,-612 619.5,-612"/>
<text text-anchor="middle" x="533" y="-597" font-family="sans" font-size="10.00">freebayes</text>
<text text-anchor="middle" x="533" y="-586" font-family="sans" font-size="10.00">region: Chr07:000000001&#45;065505356</text>
</g>
<!-- 13&#45;&gt;74 -->
<g id="edge142" class="edge"><title>13&#45;&gt;74</title>
<path fill="none" stroke="grey" stroke-width="2" d="M1434.92,-663.097C1292.03,-658.514 943.442,-644.805 642.023,-612.166"/>
<polygon fill="grey" stroke="grey" stroke-width="2" points="642.092,-608.653 631.771,-611.047 641.332,-615.612 642.092,-608.653"/>
</g>
<!-- 75 -->
<g id="node76" class="node"><title>75</title>
<path fill="none" stroke="#d8bc56" stroke-width="2" d="M2339.5,-612C2339.5,-612 2166.5,-612 2166.5,-612 2160.5,-612 2154.5,-606 2154.5,-600 2154.5,-600 2154.5,-588 2154.5,-588 2154.5,-582 2160.5,-576 2166.5,-576 2166.5,-576 2339.5,-576 2339.5,-576 2345.5,-576 2351.5,-582 2351.5,-588 2351.5,-588 2351.5,-600 2351.5,-600 2351.5,-606 2345.5,-612 2339.5,-612"/>
<text text-anchor="middle" x="2253" y="-597" font-family="sans" font-size="10.00">freebayes</text>
<text text-anchor="middle" x="2253" y="-586" font-family="sans" font-size="10.00">region: Chr08:000000001&#45;062686529</text>
</g>
<!-- 13&#45;&gt;75 -->
<g id="edge143" class="edge"><title>13&#45;&gt;75</title>
<path fill="none" stroke="grey" stroke-width="2" d="M1567.45,-661.159C1682.68,-654.14 1927.21,-637.672 2144.46,-612.01"/>
<polygon fill="grey" stroke="grey" stroke-width="2" points="2144.94,-615.477 2154.45,-610.82 2144.11,-608.526 2144.94,-615.477"/>
</g>
<!-- 76 -->
<g id="node77" class="node"><title>76</title>
<path fill="none" stroke="#d8bc56" stroke-width="2" d="M404.5,-612C404.5,-612 231.5,-612 231.5,-612 225.5,-612 219.5,-606 219.5,-600 219.5,-600 219.5,-588 219.5,-588 219.5,-582 225.5,-576 231.5,-576 231.5,-576 404.5,-576 404.5,-576 410.5,-576 416.5,-582 416.5,-588 416.5,-588 416.5,-600 416.5,-600 416.5,-606 410.5,-612 404.5,-612"/>
<text text-anchor="middle" x="318" y="-597" font-family="sans" font-size="10.00">freebayes</text>
<text text-anchor="middle" x="318" y="-586" font-family="sans" font-size="10.00">region: Chr09:000000001&#45;059416394</text>
</g>
<!-- 13&#45;&gt;76 -->
<g id="edge144" class="edge"><title>13&#45;&gt;76</title>
<path fill="none" stroke="grey" stroke-width="2" d="M1434.69,-664.23C1267.26,-661.749 813.742,-651.696 426.757,-612.121"/>
<polygon fill="grey" stroke="grey" stroke-width="2" points="427.073,-608.635 416.766,-611.091 426.355,-615.598 427.073,-608.635"/>
</g>
<!-- 77 -->
<g id="node78" class="node"><title>77</title>
<path fill="none" stroke="#d8bc56" stroke-width="2" d="M1479.5,-612C1479.5,-612 1306.5,-612 1306.5,-612 1300.5,-612 1294.5,-606 1294.5,-600 1294.5,-600 1294.5,-588 1294.5,-588 1294.5,-582 1300.5,-576 1306.5,-576 1306.5,-576 1479.5,-576 1479.5,-576 1485.5,-576 1491.5,-582 1491.5,-588 1491.5,-588 1491.5,-600 1491.5,-600 1491.5,-606 1485.5,-612 1479.5,-612"/>
<text text-anchor="middle" x="1393" y="-597" font-family="sans" font-size="10.00">freebayes</text>
<text text-anchor="middle" x="1393" y="-586" font-family="sans" font-size="10.00">region: Chr10:000000001&#45;061233695</text>
</g>
<!-- 13&#45;&gt;77 -->
<g id="edge145" class="edge"><title>13&#45;&gt;77</title>
<path fill="none" stroke="grey" stroke-width="2" d="M1474.58,-647.876C1460.59,-638.808 1443.22,-627.552 1428.11,-617.759"/>
<polygon fill="grey" stroke="grey" stroke-width="2" points="1429.82,-614.692 1419.52,-612.19 1426.01,-620.566 1429.82,-614.692"/>
</g>
<!-- 14&#45;&gt;0 -->
<g id="edge14" class="edge"><title>14&#45;&gt;0</title>
<path fill="none" stroke="grey" stroke-width="2" d="M2356.92,-647.853C2379.87,-622.712 2418,-573.348 2418,-523 2418,-523 2418,-523 2418,-161 2418,-114.733 2403.18,-96.6127 2364,-72 2278.72,-18.4242 1962.51,-17.1392 1853.34,-18.3599"/>
<polygon fill="grey" stroke="grey" stroke-width="2" points="1853.1,-14.8626 1843.14,-18.4884 1853.19,-21.8621 1853.1,-14.8626"/>
</g>
<!-- 15 -->
<g id="node16" class="node"><title>15</title>
<path fill="none" stroke="#56d8d0" stroke-width="2" d="M1025.5,-324C1025.5,-324 986.5,-324 986.5,-324 980.5,-324 974.5,-318 974.5,-312 974.5,-312 974.5,-300 974.5,-300 974.5,-294 980.5,-288 986.5,-288 986.5,-288 1025.5,-288 1025.5,-288 1031.5,-288 1037.5,-294 1037.5,-300 1037.5,-300 1037.5,-312 1037.5,-312 1037.5,-318 1031.5,-324 1025.5,-324"/>
<text text-anchor="middle" x="1006" y="-303.5" font-family="sans" font-size="10.00">bcfmerge</text>
</g>
<!-- 15&#45;&gt;0 -->
<g id="edge15" class="edge"><title>15&#45;&gt;0</title>
<path fill="none" stroke="grey" stroke-width="2" d="M1037.52,-298.386C1111,-282.476 1298.74,-238.974 1448,-180 1545.24,-141.579 1560.67,-112.654 1657,-72 1697.76,-54.7981 1746.19,-39.3339 1778.8,-29.6112"/>
<polygon fill="grey" stroke="grey" stroke-width="2" points="1780.2,-32.8471 1788.8,-26.6613 1778.22,-26.133 1780.2,-32.8471"/>
</g>
<!-- 17 -->
<g id="node18" class="node"><title>17</title>
<path fill="none" stroke="#bed856" stroke-width="2" d="M984.5,-108C984.5,-108 581.5,-108 581.5,-108 575.5,-108 569.5,-102 569.5,-96 569.5,-96 569.5,-84 569.5,-84 569.5,-78 575.5,-72 581.5,-72 581.5,-72 984.5,-72 984.5,-72 990.5,-72 996.5,-78 996.5,-84 996.5,-84 996.5,-96 996.5,-96 996.5,-102 990.5,-108 984.5,-108"/>
<text text-anchor="middle" x="783" y="-93" font-family="sans" font-size="10.00">variantidx</text>
<text text-anchor="middle" x="783" y="-82" font-family="sans" font-size="10.00">path: data/variants/final/freebayes~bwa~genome~all_samples~filtered&#45;default.bcf</text>
</g>
<!-- 15&#45;&gt;17 -->
<g id="edge67" class="edge"><title>15&#45;&gt;17</title>
<path fill="none" stroke="grey" stroke-width="2" d="M988.128,-287.849C948.657,-249.971 853.94,-159.077 808.355,-115.332"/>
<polygon fill="grey" stroke="grey" stroke-width="2" points="810.596,-112.631 800.957,-108.232 805.749,-117.682 810.596,-112.631"/>
</g>
<!-- 19 -->
<g id="node20" class="node"><title>19</title>
<path fill="none" stroke="#d87556" stroke-width="2" d="M1427.5,-180C1427.5,-180 1042.5,-180 1042.5,-180 1036.5,-180 1030.5,-174 1030.5,-168 1030.5,-168 1030.5,-156 1030.5,-156 1030.5,-150 1036.5,-144 1042.5,-144 1042.5,-144 1427.5,-144 1427.5,-144 1433.5,-144 1439.5,-150 1439.5,-156 1439.5,-156 1439.5,-168 1439.5,-168 1439.5,-174 1433.5,-180 1427.5,-180"/>
<text text-anchor="middle" x="1235" y="-165" font-family="sans" font-size="10.00">bcf2vcf</text>
<text text-anchor="middle" x="1235" y="-154" font-family="sans" font-size="10.00">path: data/variants/final/freebayes~bwa~genome~all_samples~filtered&#45;default</text>
</g>
<!-- 15&#45;&gt;19 -->
<g id="edge69" class="edge"><title>15&#45;&gt;19</title>
<path fill="none" stroke="grey" stroke-width="2" d="M1033.62,-287.871C1074.89,-262.284 1152.67,-214.052 1198.55,-185.603"/>
<polygon fill="grey" stroke="grey" stroke-width="2" points="1200.63,-188.434 1207.28,-180.189 1196.94,-182.485 1200.63,-188.434"/>
</g>
<!-- 16 -->
<g id="node17" class="node"><title>16</title>
<path fill="none" stroke="#56d8d0" stroke-width="2" d="M1954.5,-324C1954.5,-324 1915.5,-324 1915.5,-324 1909.5,-324 1903.5,-318 1903.5,-312 1903.5,-312 1903.5,-300 1903.5,-300 1903.5,-294 1909.5,-288 1915.5,-288 1915.5,-288 1954.5,-288 1954.5,-288 1960.5,-288 1966.5,-294 1966.5,-300 1966.5,-300 1966.5,-312 1966.5,-312 1966.5,-318 1960.5,-324 1954.5,-324"/>
<text text-anchor="middle" x="1935" y="-303.5" font-family="sans" font-size="10.00">bcfmerge</text>
</g>
<!-- 16&#45;&gt;0 -->
<g id="edge16" class="edge"><title>16&#45;&gt;0</title>
<path fill="none" stroke="grey" stroke-width="2" d="M1966.61,-305.516C2048.1,-306.103 2262.04,-302.689 2306,-252 2333.54,-220.248 2406.42,-185.221 2302,-72 2271.69,-39.1297 1961.96,-24.4617 1853.37,-20.3021"/>
<polygon fill="grey" stroke="grey" stroke-width="2" points="1853.33,-16.7984 1843.21,-19.9213 1853.07,-23.7935 1853.33,-16.7984"/>
</g>
<!-- 18 -->
<g id="node19" class="node"><title>18</title>
<path fill="none" stroke="#bed856" stroke-width="2" d="M1868.5,-252C1868.5,-252 1475.5,-252 1475.5,-252 1469.5,-252 1463.5,-246 1463.5,-240 1463.5,-240 1463.5,-228 1463.5,-228 1463.5,-222 1469.5,-216 1475.5,-216 1475.5,-216 1868.5,-216 1868.5,-216 1874.5,-216 1880.5,-222 1880.5,-228 1880.5,-228 1880.5,-240 1880.5,-240 1880.5,-246 1874.5,-252 1868.5,-252"/>
<text text-anchor="middle" x="1672" y="-237" font-family="sans" font-size="10.00">variantidx</text>
<text text-anchor="middle" x="1672" y="-226" font-family="sans" font-size="10.00">path: data/variants/final/freebayes~bwa~genome~all_samples~filtered&#45;strict.bcf</text>
</g>
<!-- 16&#45;&gt;18 -->
<g id="edge68" class="edge"><title>16&#45;&gt;18</title>
<path fill="none" stroke="grey" stroke-width="2" d="M1903.28,-296.556C1864.51,-286.24 1797.7,-268.455 1745.82,-254.647"/>
<polygon fill="grey" stroke="grey" stroke-width="2" points="1746.55,-251.219 1735.98,-252.03 1744.75,-257.984 1746.55,-251.219"/>
</g>
<!-- 20 -->
<g id="node21" class="node"><title>20</title>
<path fill="none" stroke="#d87556" stroke-width="2" d="M2285.5,-252C2285.5,-252 1910.5,-252 1910.5,-252 1904.5,-252 1898.5,-246 1898.5,-240 1898.5,-240 1898.5,-228 1898.5,-228 1898.5,-222 1904.5,-216 1910.5,-216 1910.5,-216 2285.5,-216 2285.5,-216 2291.5,-216 2297.5,-222 2297.5,-228 2297.5,-228 2297.5,-240 2297.5,-240 2297.5,-246 2291.5,-252 2285.5,-252"/>
<text text-anchor="middle" x="2098" y="-237" font-family="sans" font-size="10.00">bcf2vcf</text>
<text text-anchor="middle" x="2098" y="-226" font-family="sans" font-size="10.00">path: data/variants/final/freebayes~bwa~genome~all_samples~filtered&#45;strict</text>
</g>
<!-- 16&#45;&gt;20 -->
<g id="edge70" class="edge"><title>16&#45;&gt;20</title>
<path fill="none" stroke="grey" stroke-width="2" d="M1966.81,-291.337C1990.08,-281.344 2022.09,-267.599 2048.66,-256.187"/>
<polygon fill="grey" stroke="grey" stroke-width="2" points="2050.38,-259.261 2058.18,-252.099 2047.61,-252.83 2050.38,-259.261"/>
</g>
<!-- 17&#45;&gt;0 -->
<g id="edge17" class="edge"><title>17&#45;&gt;0</title>
<path fill="none" stroke="grey" stroke-width="2" d="M996.637,-72.6667C999.779,-72.4418 1002.9,-72.2195 1006,-72 1303.85,-50.9028 1663.54,-28.4213 1778.66,-21.2997"/>
<polygon fill="grey" stroke="grey" stroke-width="2" points="1778.96,-24.7884 1788.72,-20.6781 1778.53,-17.8017 1778.96,-24.7884"/>
</g>
<!-- 18&#45;&gt;0 -->
<g id="edge18" class="edge"><title>18&#45;&gt;0</title>
<path fill="none" stroke="grey" stroke-width="2" d="M1666.59,-215.817C1657.76,-184.127 1644.11,-115.729 1675,-72 1698.42,-38.8476 1745.26,-26.4129 1778.53,-21.7605"/>
<polygon fill="grey" stroke="grey" stroke-width="2" points="1779.3,-25.1923 1788.8,-20.5071 1778.45,-18.2438 1779.3,-25.1923"/>
</g>
<!-- 19&#45;&gt;0 -->
<g id="edge19" class="edge"><title>19&#45;&gt;0</title>
<path fill="none" stroke="grey" stroke-width="2" d="M1356.34,-143.968C1392.22,-136.044 1430.76,-124.56 1464,-108 1486.31,-96.885 1484.38,-82.4683 1507,-72 1598.33,-29.7318 1718.93,-20.8729 1778.87,-19.2125"/>
<polygon fill="grey" stroke="grey" stroke-width="2" points="1779.07,-22.7089 1788.99,-18.9856 1778.91,-15.7107 1779.07,-22.7089"/>
</g>
<!-- 21 -->
<g id="node22" class="node"><title>21</title>
<path fill="none" stroke="#bed856" stroke-width="2" d="M1443,-108C1443,-108 1027,-108 1027,-108 1021,-108 1015,-102 1015,-96 1015,-96 1015,-84 1015,-84 1015,-78 1021,-72 1027,-72 1027,-72 1443,-72 1443,-72 1449,-72 1455,-78 1455,-84 1455,-84 1455,-96 1455,-96 1455,-102 1449,-108 1443,-108"/>
<text text-anchor="middle" x="1235" y="-93" font-family="sans" font-size="10.00">variantidx</text>
<text text-anchor="middle" x="1235" y="-82" font-family="sans" font-size="10.00">path: data/variants/final/freebayes~bwa~genome~all_samples~filtered&#45;default.vcf.gz</text>
</g>
<!-- 19&#45;&gt;21 -->
<g id="edge71" class="edge"><title>19&#45;&gt;21</title>
<path fill="none" stroke="grey" stroke-width="2" d="M1235,-143.697C1235,-135.983 1235,-126.712 1235,-118.112"/>
<polygon fill="grey" stroke="grey" stroke-width="2" points="1238.5,-118.104 1235,-108.104 1231.5,-118.104 1238.5,-118.104"/>
</g>
<!-- 20&#45;&gt;0 -->
<g id="edge20" class="edge"><title>20&#45;&gt;0</title>
<path fill="none" stroke="grey" stroke-width="2" d="M2020.32,-215.939C1960.68,-198.759 1881,-166.21 1835,-108 1821.26,-90.6133 1816.87,-65.5637 1815.71,-46.4665"/>
<polygon fill="grey" stroke="grey" stroke-width="2" points="1819.21,-46.1575 1815.36,-36.2849 1812.21,-46.4004 1819.21,-46.1575"/>
</g>
<!-- 22 -->
<g id="node23" class="node"><title>22</title>
<path fill="none" stroke="#bed856" stroke-width="2" d="M2263.5,-108C2263.5,-108 1856.5,-108 1856.5,-108 1850.5,-108 1844.5,-102 1844.5,-96 1844.5,-96 1844.5,-84 1844.5,-84 1844.5,-78 1850.5,-72 1856.5,-72 1856.5,-72 2263.5,-72 2263.5,-72 2269.5,-72 2275.5,-78 2275.5,-84 2275.5,-84 2275.5,-96 2275.5,-96 2275.5,-102 2269.5,-108 2263.5,-108"/>
<text text-anchor="middle" x="2060" y="-93" font-family="sans" font-size="10.00">variantidx</text>
<text text-anchor="middle" x="2060" y="-82" font-family="sans" font-size="10.00">path: data/variants/final/freebayes~bwa~genome~all_samples~filtered&#45;strict.vcf.gz</text>
</g>
<!-- 20&#45;&gt;22 -->
<g id="edge72" class="edge"><title>20&#45;&gt;22</title>
<path fill="none" stroke="grey" stroke-width="2" d="M2093.42,-215.871C2086.91,-191.564 2074.94,-146.819 2067.23,-118.013"/>
<polygon fill="grey" stroke="grey" stroke-width="2" points="2070.57,-116.945 2064.6,-108.189 2063.8,-118.754 2070.57,-116.945"/>
</g>
<!-- 23 -->
<g id="node24" class="node"><title>23</title>
<path fill="none" stroke="#c6d856" stroke-width="2" d="M2222.5,-180C2222.5,-180 2179.5,-180 2179.5,-180 2173.5,-180 2167.5,-174 2167.5,-168 2167.5,-168 2167.5,-156 2167.5,-156 2167.5,-150 2173.5,-144 2179.5,-144 2179.5,-144 2222.5,-144 2222.5,-144 2228.5,-144 2234.5,-150 2234.5,-156 2234.5,-156 2234.5,-168 2234.5,-168 2234.5,-174 2228.5,-180 2222.5,-180"/>
<text text-anchor="middle" x="2201" y="-159.5" font-family="sans" font-size="10.00">plot_quals</text>
</g>
<!-- 20&#45;&gt;23 -->
<g id="edge73" class="edge"><title>20&#45;&gt;23</title>
<path fill="none" stroke="grey" stroke-width="2" d="M2123.2,-215.876C2136.41,-206.893 2152.79,-195.763 2167.11,-186.034"/>
<polygon fill="grey" stroke="grey" stroke-width="2" points="2169.4,-188.705 2175.71,-180.19 2165.47,-182.916 2169.4,-188.705"/>
</g>
<!-- 24 -->
<g id="node25" class="node"><title>24</title>
<path fill="none" stroke="#8fd856" stroke-width="2" d="M1775.5,-180C1775.5,-180 1732.5,-180 1732.5,-180 1726.5,-180 1720.5,-174 1720.5,-168 1720.5,-168 1720.5,-156 1720.5,-156 1720.5,-150 1726.5,-144 1732.5,-144 1732.5,-144 1775.5,-144 1775.5,-144 1781.5,-144 1787.5,-150 1787.5,-156 1787.5,-156 1787.5,-168 1787.5,-168 1787.5,-174 1781.5,-180 1775.5,-180"/>
<text text-anchor="middle" x="1754" y="-159.5" font-family="sans" font-size="10.00">vcf_to_tsv</text>
</g>
<!-- 20&#45;&gt;24 -->
<g id="edge74" class="edge"><title>20&#45;&gt;24</title>
<path fill="none" stroke="grey" stroke-width="2" d="M1977.49,-215.995C1923.38,-207.192 1859.03,-195.096 1802,-180 1800.53,-179.611 1799.04,-179.198 1797.55,-178.765"/>
<polygon fill="grey" stroke="grey" stroke-width="2" points="1798.2,-175.304 1787.61,-175.682 1796.13,-181.989 1798.2,-175.304"/>
</g>
<!-- 21&#45;&gt;0 -->
<g id="edge21" class="edge"><title>21&#45;&gt;0</title>
<path fill="none" stroke="grey" stroke-width="2" d="M1376.39,-71.9656C1509.31,-55.9506 1699.38,-33.0506 1778.85,-23.4759"/>
<polygon fill="grey" stroke="grey" stroke-width="2" points="1779.36,-26.9398 1788.87,-22.2687 1778.52,-19.99 1779.36,-26.9398"/>
</g>
<!-- 22&#45;&gt;0 -->
<g id="edge22" class="edge"><title>22&#45;&gt;0</title>
<path fill="none" stroke="grey" stroke-width="2" d="M2000.62,-71.9656C1954.56,-58.7495 1892.14,-40.8445 1852.98,-29.609"/>
<polygon fill="grey" stroke="grey" stroke-width="2" points="1853.88,-26.2273 1843.31,-26.8339 1851.95,-32.9559 1853.88,-26.2273"/>
</g>
<!-- 23&#45;&gt;0 -->
<g id="edge23" class="edge"><title>23&#45;&gt;0</title>
<path fill="none" stroke="grey" stroke-width="2" d="M2234.61,-148.894C2252.73,-140.442 2273.48,-127.192 2284,-108 2291.69,-93.9683 2294.66,-83.9333 2284,-72 2255.43,-40.0135 1959.38,-24.8589 1853.44,-20.4304"/>
<polygon fill="grey" stroke="grey" stroke-width="2" points="1853.35,-16.9239 1843.22,-20.0118 1853.07,-23.918 1853.35,-16.9239"/>
</g>
<!-- 24&#45;&gt;0 -->
<g id="edge24" class="edge"><title>24&#45;&gt;0</title>
<path fill="none" stroke="grey" stroke-width="2" d="M1761.48,-143.871C1772.14,-119.457 1791.8,-74.4258 1804.37,-45.6351"/>
<polygon fill="grey" stroke="grey" stroke-width="2" points="1807.7,-46.7543 1808.49,-36.1893 1801.29,-43.9533 1807.7,-46.7543"/>
</g>
<!-- 25 -->
<g id="node26" class="node"><title>25</title>
<path fill="none" stroke="#ced856" stroke-width="2" d="M1737.5,-108C1737.5,-108 1696.5,-108 1696.5,-108 1690.5,-108 1684.5,-102 1684.5,-96 1684.5,-96 1684.5,-84 1684.5,-84 1684.5,-78 1690.5,-72 1696.5,-72 1696.5,-72 1737.5,-72 1737.5,-72 1743.5,-72 1749.5,-78 1749.5,-84 1749.5,-84 1749.5,-96 1749.5,-96 1749.5,-102 1743.5,-108 1737.5,-108"/>
<text text-anchor="middle" x="1717" y="-87.5" font-family="sans" font-size="10.00">plot_stats</text>
</g>
<!-- 24&#45;&gt;25 -->
<g id="edge75" class="edge"><title>24&#45;&gt;25</title>
<path fill="none" stroke="grey" stroke-width="2" d="M1744.85,-143.697C1740.6,-135.644 1735.44,-125.894 1730.73,-116.982"/>
<polygon fill="grey" stroke="grey" stroke-width="2" points="1733.81,-115.31 1726.04,-108.104 1727.62,-118.581 1733.81,-115.31"/>
</g>
<!-- 25&#45;&gt;0 -->
<g id="edge25" class="edge"><title>25&#45;&gt;0</title>
<path fill="none" stroke="grey" stroke-width="2" d="M1741.22,-71.8761C1753.92,-62.8931 1769.66,-51.7625 1783.42,-42.0341"/>
<polygon fill="grey" stroke="grey" stroke-width="2" points="1785.54,-44.8209 1791.69,-36.1898 1781.5,-39.1053 1785.54,-44.8209"/>
</g>
<!-- 26 -->
<g id="node27" class="node"><title>26</title>
<path fill="none" stroke="#56d88a" stroke-width="2" d="M132,-828C132,-828 40,-828 40,-828 34,-828 28,-822 28,-816 28,-816 28,-804 28,-804 28,-798 34,-792 40,-792 40,-792 132,-792 132,-792 138,-792 144,-798 144,-804 144,-804 144,-816 144,-816 144,-822 138,-828 132,-828"/>
<text text-anchor="middle" x="86" y="-813" font-family="sans" font-size="10.00">bam_markdups_sort</text>
<text text-anchor="middle" x="86" y="-802" font-family="sans" font-size="10.00">aligner: bwa</text>
</g>
<!-- 26&#45;&gt;7 -->
<g id="edge31" class="edge"><title>26&#45;&gt;7</title>
<path fill="none" stroke="grey" stroke-width="2" d="M87.7303,-791.697C88.5017,-783.983 89.4288,-774.712 90.2888,-766.112"/>
<polygon fill="grey" stroke="grey" stroke-width="2" points="93.7771,-766.403 91.2896,-756.104 86.8118,-765.706 93.7771,-766.403"/>
</g>
<!-- 27 -->
<g id="node28" class="node"><title>27</title>
<path fill="none" stroke="#56d88a" stroke-width="2" d="M2320,-828C2320,-828 2228,-828 2228,-828 2222,-828 2216,-822 2216,-816 2216,-816 2216,-804 2216,-804 2216,-798 2222,-792 2228,-792 2228,-792 2320,-792 2320,-792 2326,-792 2332,-798 2332,-804 2332,-804 2332,-816 2332,-816 2332,-822 2326,-828 2320,-828"/>
<text text-anchor="middle" x="2274" y="-813" font-family="sans" font-size="10.00">bam_markdups_sort</text>
<text text-anchor="middle" x="2274" y="-802" font-family="sans" font-size="10.00">aligner: bwa</text>
</g>
<!-- 27&#45;&gt;8 -->
<g id="edge32" class="edge"><title>27&#45;&gt;8</title>
<path fill="none" stroke="grey" stroke-width="2" d="M2284.88,-791.697C2289.99,-783.559 2296.2,-773.689 2301.84,-764.701"/>
<polygon fill="grey" stroke="grey" stroke-width="2" points="2304.89,-766.433 2307.25,-756.104 2298.96,-762.708 2304.89,-766.433"/>
</g>
<!-- 28 -->
<g id="node29" class="node"><title>28</title>
<path fill="none" stroke="#56d88a" stroke-width="2" d="M2454,-828C2454,-828 2362,-828 2362,-828 2356,-828 2350,-822 2350,-816 2350,-816 2350,-804 2350,-804 2350,-798 2356,-792 2362,-792 2362,-792 2454,-792 2454,-792 2460,-792 2466,-798 2466,-804 2466,-804 2466,-816 2466,-816 2466,-822 2460,-828 2454,-828"/>
<text text-anchor="middle" x="2408" y="-813" font-family="sans" font-size="10.00">bam_markdups_sort</text>
<text text-anchor="middle" x="2408" y="-802" font-family="sans" font-size="10.00">aligner: bwa</text>
</g>
<!-- 28&#45;&gt;8 -->
<g id="edge33" class="edge"><title>28&#45;&gt;8</title>
<path fill="none" stroke="grey" stroke-width="2" d="M2385.75,-791.697C2374.42,-782.881 2360.47,-772.032 2348.18,-762.474"/>
<polygon fill="grey" stroke="grey" stroke-width="2" points="2350.03,-759.481 2339.99,-756.104 2345.74,-765.007 2350.03,-759.481"/>
</g>
<!-- 29 -->
<g id="node30" class="node"><title>29</title>
<path fill="none" stroke="#56d88a" stroke-width="2" d="M2664,-828C2664,-828 2572,-828 2572,-828 2566,-828 2560,-822 2560,-816 2560,-816 2560,-804 2560,-804 2560,-798 2566,-792 2572,-792 2572,-792 2664,-792 2664,-792 2670,-792 2676,-798 2676,-804 2676,-804 2676,-816 2676,-816 2676,-822 2670,-828 2664,-828"/>
<text text-anchor="middle" x="2618" y="-813" font-family="sans" font-size="10.00">bam_markdups_sort</text>
<text text-anchor="middle" x="2618" y="-802" font-family="sans" font-size="10.00">aligner: bwa</text>
</g>
<!-- 29&#45;&gt;9 -->
<g id="edge34" class="edge"><title>29&#45;&gt;9</title>
<path fill="none" stroke="grey" stroke-width="2" d="M2617.51,-791.697C2617.29,-783.983 2617.02,-774.712 2616.77,-766.112"/>
<polygon fill="grey" stroke="grey" stroke-width="2" points="2620.27,-766 2616.49,-756.104 2613.28,-766.2 2620.27,-766"/>
</g>
<!-- 30 -->
<g id="node31" class="node"><title>30</title>
<path fill="none" stroke="#56d88a" stroke-width="2" d="M2798,-828C2798,-828 2706,-828 2706,-828 2700,-828 2694,-822 2694,-816 2694,-816 2694,-804 2694,-804 2694,-798 2700,-792 2706,-792 2706,-792 2798,-792 2798,-792 2804,-792 2810,-798 2810,-804 2810,-804 2810,-816 2810,-816 2810,-822 2804,-828 2798,-828"/>
<text text-anchor="middle" x="2752" y="-813" font-family="sans" font-size="10.00">bam_markdups_sort</text>
<text text-anchor="middle" x="2752" y="-802" font-family="sans" font-size="10.00">aligner: bwa</text>
</g>
<!-- 30&#45;&gt;9 -->
<g id="edge35" class="edge"><title>30&#45;&gt;9</title>
<path fill="none" stroke="grey" stroke-width="2" d="M2718.73,-791.876C2700.54,-782.512 2677.81,-770.814 2658.36,-760.803"/>
<polygon fill="grey" stroke="grey" stroke-width="2" points="2659.89,-757.654 2649.4,-756.19 2656.69,-763.878 2659.89,-757.654"/>
</g>
<!-- 31 -->
<g id="node32" class="node"><title>31</title>
<path fill="none" stroke="#56d8d8" stroke-width="2" d="M730,-468C730,-468 674,-468 674,-468 668,-468 662,-462 662,-456 662,-456 662,-444 662,-444 662,-438 668,-432 674,-432 674,-432 730,-432 730,-432 736,-432 742,-438 742,-444 742,-444 742,-456 742,-456 742,-462 736,-468 730,-468"/>
<text text-anchor="middle" x="702" y="-453" font-family="sans" font-size="10.00">bcffilter</text>
<text text-anchor="middle" x="702" y="-442" font-family="sans" font-size="10.00">filter: default</text>
</g>
<!-- 31&#45;&gt;15 -->
<g id="edge45" class="edge"><title>31&#45;&gt;15</title>
<path fill="none" stroke="grey" stroke-width="2" d="M727.336,-431.941C756.669,-412.701 806.872,-381.324 853,-360 889.609,-343.076 933.24,-328.475 964.523,-318.909"/>
<polygon fill="grey" stroke="grey" stroke-width="2" points="965.659,-322.222 974.222,-315.983 963.637,-315.52 965.659,-322.222"/>
</g>
<!-- 41 -->
<g id="node42" class="node"><title>41</title>
<path fill="none" stroke="#568ad8" stroke-width="2" d="M1002,-396C1002,-396 938,-396 938,-396 932,-396 926,-390 926,-384 926,-384 926,-372 926,-372 926,-366 932,-360 938,-360 938,-360 1002,-360 1002,-360 1008,-360 1014,-366 1014,-372 1014,-372 1014,-384 1014,-384 1014,-390 1008,-396 1002,-396"/>
<text text-anchor="middle" x="970" y="-375.5" font-family="sans" font-size="10.00">bcfmerge_fofn</text>
</g>
<!-- 31&#45;&gt;41 -->
<g id="edge91" class="edge"><title>31&#45;&gt;41</title>
<path fill="none" stroke="grey" stroke-width="2" d="M742.01,-434.766C745.041,-433.796 748.063,-432.863 751,-432 806.539,-415.687 871.042,-400.524 915.591,-390.633"/>
<polygon fill="grey" stroke="grey" stroke-width="2" points="916.613,-393.992 925.624,-388.419 915.105,-387.156 916.613,-393.992"/>
</g>
<!-- 32 -->
<g id="node33" class="node"><title>32</title>
<path fill="none" stroke="#56d8d8" stroke-width="2" d="M926,-468C926,-468 870,-468 870,-468 864,-468 858,-462 858,-456 858,-456 858,-444 858,-444 858,-438 864,-432 870,-432 870,-432 926,-432 926,-432 932,-432 938,-438 938,-444 938,-444 938,-456 938,-456 938,-462 932,-468 926,-468"/>
<text text-anchor="middle" x="898" y="-453" font-family="sans" font-size="10.00">bcffilter</text>
<text text-anchor="middle" x="898" y="-442" font-family="sans" font-size="10.00">filter: default</text>
</g>
<!-- 32&#45;&gt;15 -->
<g id="edge46" class="edge"><title>32&#45;&gt;15</title>
<path fill="none" stroke="grey" stroke-width="2" d="M897.718,-431.984C898.225,-412.784 901.626,-381.444 917,-360 928.847,-343.475 947.59,-331.209 964.826,-322.663"/>
<polygon fill="grey" stroke="grey" stroke-width="2" points="966.61,-325.693 974.193,-318.294 963.651,-319.349 966.61,-325.693"/>
</g>
<!-- 32&#45;&gt;41 -->
<g id="edge92" class="edge"><title>32&#45;&gt;41</title>
<path fill="none" stroke="grey" stroke-width="2" d="M915.798,-431.697C924.604,-423.135 935.382,-412.656 945.001,-403.304"/>
<polygon fill="grey" stroke="grey" stroke-width="2" points="947.677,-405.585 952.407,-396.104 942.797,-400.566 947.677,-405.585"/>
</g>
<!-- 33 -->
<g id="node34" class="node"><title>33</title>
<path fill="none" stroke="#56d8d8" stroke-width="2" d="M1122,-468C1122,-468 1066,-468 1066,-468 1060,-468 1054,-462 1054,-456 1054,-456 1054,-444 1054,-444 1054,-438 1060,-432 1066,-432 1066,-432 1122,-432 1122,-432 1128,-432 1134,-438 1134,-444 1134,-444 1134,-456 1134,-456 1134,-462 1128,-468 1122,-468"/>
<text text-anchor="middle" x="1094" y="-453" font-family="sans" font-size="10.00">bcffilter</text>
<text text-anchor="middle" x="1094" y="-442" font-family="sans" font-size="10.00">filter: default</text>
</g>
<!-- 33&#45;&gt;15 -->
<g id="edge47" class="edge"><title>33&#45;&gt;15</title>
<path fill="none" stroke="grey" stroke-width="2" d="M1083.47,-431.928C1072.42,-414.003 1054.51,-385.005 1039,-360 1033.49,-351.113 1027.44,-341.396 1022.05,-332.738"/>
<polygon fill="grey" stroke="grey" stroke-width="2" points="1024.97,-330.813 1016.72,-324.177 1019.03,-334.515 1024.97,-330.813"/>
</g>
<!-- 33&#45;&gt;41 -->
<g id="edge93" class="edge"><title>33&#45;&gt;41</title>
<path fill="none" stroke="grey" stroke-width="2" d="M1063.67,-431.876C1047.3,-422.639 1026.92,-411.131 1009.35,-401.212"/>
<polygon fill="grey" stroke="grey" stroke-width="2" points="1010.88,-398.058 1000.45,-396.19 1007.44,-404.154 1010.88,-398.058"/>
</g>
<!-- 34 -->
<g id="node35" class="node"><title>34</title>
<path fill="none" stroke="#56d8d8" stroke-width="2" d="M828,-468C828,-468 772,-468 772,-468 766,-468 760,-462 760,-456 760,-456 760,-444 760,-444 760,-438 766,-432 772,-432 772,-432 828,-432 828,-432 834,-432 840,-438 840,-444 840,-444 840,-456 840,-456 840,-462 834,-468 828,-468"/>
<text text-anchor="middle" x="800" y="-453" font-family="sans" font-size="10.00">bcffilter</text>
<text text-anchor="middle" x="800" y="-442" font-family="sans" font-size="10.00">filter: default</text>
</g>
<!-- 34&#45;&gt;15 -->
<g id="edge48" class="edge"><title>34&#45;&gt;15</title>
<path fill="none" stroke="grey" stroke-width="2" d="M816.332,-431.72C835.05,-412.566 867.251,-381.539 899,-360 919.586,-346.035 944.382,-333.517 964.919,-324.158"/>
<polygon fill="grey" stroke="grey" stroke-width="2" points="966.62,-327.231 974.322,-319.955 963.764,-320.84 966.62,-327.231"/>
</g>
<!-- 34&#45;&gt;41 -->
<g id="edge94" class="edge"><title>34&#45;&gt;41</title>
<path fill="none" stroke="grey" stroke-width="2" d="M840.288,-432.411C863.882,-422.696 893.901,-410.335 919.118,-399.951"/>
<polygon fill="grey" stroke="grey" stroke-width="2" points="920.61,-403.122 928.524,-396.078 917.944,-396.65 920.61,-403.122"/>
</g>
<!-- 35 -->
<g id="node36" class="node"><title>35</title>
<path fill="none" stroke="#56d8d8" stroke-width="2" d="M1318,-468C1318,-468 1262,-468 1262,-468 1256,-468 1250,-462 1250,-456 1250,-456 1250,-444 1250,-444 1250,-438 1256,-432 1262,-432 1262,-432 1318,-432 1318,-432 1324,-432 1330,-438 1330,-444 1330,-444 1330,-456 1330,-456 1330,-462 1324,-468 1318,-468"/>
<text text-anchor="middle" x="1290" y="-453" font-family="sans" font-size="10.00">bcffilter</text>
<text text-anchor="middle" x="1290" y="-442" font-family="sans" font-size="10.00">filter: default</text>
</g>
<!-- 35&#45;&gt;15 -->
<g id="edge49" class="edge"><title>35&#45;&gt;15</title>
<path fill="none" stroke="grey" stroke-width="2" d="M1256.1,-431.878C1220.49,-413.913 1162.86,-384.882 1113,-360 1091.22,-349.132 1066.91,-337.085 1046.98,-327.226"/>
<polygon fill="grey" stroke="grey" stroke-width="2" points="1048.38,-324.014 1037.86,-322.72 1045.28,-330.289 1048.38,-324.014"/>
</g>
<!-- 35&#45;&gt;41 -->
<g id="edge95" class="edge"><title>35&#45;&gt;41</title>
<path fill="none" stroke="grey" stroke-width="2" d="M1249.76,-434.537C1246.81,-433.631 1243.87,-432.774 1241,-432 1166.71,-411.955 1079.04,-396.211 1023.98,-387.254"/>
<polygon fill="grey" stroke="grey" stroke-width="2" points="1024.52,-383.796 1014.09,-385.661 1023.4,-390.707 1024.52,-383.796"/>
</g>
<!-- 36 -->
<g id="node37" class="node"><title>36</title>
<path fill="none" stroke="#56d8d8" stroke-width="2" d="M1220,-468C1220,-468 1164,-468 1164,-468 1158,-468 1152,-462 1152,-456 1152,-456 1152,-444 1152,-444 1152,-438 1158,-432 1164,-432 1164,-432 1220,-432 1220,-432 1226,-432 1232,-438 1232,-444 1232,-444 1232,-456 1232,-456 1232,-462 1226,-468 1220,-468"/>
<text text-anchor="middle" x="1192" y="-453" font-family="sans" font-size="10.00">bcffilter</text>
<text text-anchor="middle" x="1192" y="-442" font-family="sans" font-size="10.00">filter: default</text>
</g>
<!-- 36&#45;&gt;15 -->
<g id="edge50" class="edge"><title>36&#45;&gt;15</title>
<path fill="none" stroke="grey" stroke-width="2" d="M1169.56,-431.871C1136.33,-406.497 1073.92,-358.854 1036.54,-330.318"/>
<polygon fill="grey" stroke="grey" stroke-width="2" points="1038.59,-327.476 1028.52,-324.189 1034.34,-333.039 1038.59,-327.476"/>
</g>
<!-- 36&#45;&gt;41 -->
<g id="edge96" class="edge"><title>36&#45;&gt;41</title>
<path fill="none" stroke="grey" stroke-width="2" d="M1151.93,-434.964C1148.91,-433.948 1145.91,-432.95 1143,-432 1103.32,-419.043 1058.22,-405.257 1024.02,-394.994"/>
<polygon fill="grey" stroke="grey" stroke-width="2" points="1024.81,-391.577 1014.23,-392.062 1022.8,-398.283 1024.81,-391.577"/>
</g>
<!-- 37 -->
<g id="node38" class="node"><title>37</title>
<path fill="none" stroke="#56d8d8" stroke-width="2" d="M632,-468C632,-468 576,-468 576,-468 570,-468 564,-462 564,-456 564,-456 564,-444 564,-444 564,-438 570,-432 576,-432 576,-432 632,-432 632,-432 638,-432 644,-438 644,-444 644,-444 644,-456 644,-456 644,-462 638,-468 632,-468"/>
<text text-anchor="middle" x="604" y="-453" font-family="sans" font-size="10.00">bcffilter</text>
<text text-anchor="middle" x="604" y="-442" font-family="sans" font-size="10.00">filter: default</text>
</g>
<!-- 37&#45;&gt;15 -->
<g id="edge51" class="edge"><title>37&#45;&gt;15</title>
<path fill="none" stroke="grey" stroke-width="2" d="M633.709,-431.952C669.033,-412.283 730.238,-380.078 786,-360 846.527,-338.207 919.632,-322.609 964.461,-314.197"/>
<polygon fill="grey" stroke="grey" stroke-width="2" points="965.204,-317.619 974.403,-312.363 963.934,-310.736 965.204,-317.619"/>
</g>
<!-- 37&#45;&gt;41 -->
<g id="edge97" class="edge"><title>37&#45;&gt;41</title>
<path fill="none" stroke="grey" stroke-width="2" d="M644.213,-434.447C647.17,-433.562 650.121,-432.735 653,-432 743.908,-408.807 852.147,-393.217 915.736,-385.248"/>
<polygon fill="grey" stroke="grey" stroke-width="2" points="916.435,-388.688 925.93,-383.987 915.576,-381.741 916.435,-388.688"/>
</g>
<!-- 38 -->
<g id="node39" class="node"><title>38</title>
<path fill="none" stroke="#56d8d8" stroke-width="2" d="M1416,-468C1416,-468 1360,-468 1360,-468 1354,-468 1348,-462 1348,-456 1348,-456 1348,-444 1348,-444 1348,-438 1354,-432 1360,-432 1360,-432 1416,-432 1416,-432 1422,-432 1428,-438 1428,-444 1428,-444 1428,-456 1428,-456 1428,-462 1422,-468 1416,-468"/>
<text text-anchor="middle" x="1388" y="-453" font-family="sans" font-size="10.00">bcffilter</text>
<text text-anchor="middle" x="1388" y="-442" font-family="sans" font-size="10.00">filter: default</text>
</g>
<!-- 38&#45;&gt;15 -->
<g id="edge52" class="edge"><title>38&#45;&gt;15</title>
<path fill="none" stroke="grey" stroke-width="2" d="M1347.8,-432.501C1302.78,-414.178 1227.53,-384.018 1162,-360 1123.35,-345.832 1078.85,-330.843 1047.29,-320.434"/>
<polygon fill="grey" stroke="grey" stroke-width="2" points="1048.12,-317.021 1037.53,-317.222 1045.93,-323.671 1048.12,-317.021"/>
</g>
<!-- 38&#45;&gt;41 -->
<g id="edge98" class="edge"><title>38&#45;&gt;41</title>
<path fill="none" stroke="grey" stroke-width="2" d="M1347.81,-434.371C1344.84,-433.504 1341.89,-432.701 1339,-432 1229,-405.28 1097.07,-390.332 1024.52,-383.542"/>
<polygon fill="grey" stroke="grey" stroke-width="2" points="1024.53,-380.029 1014.26,-382.6 1023.89,-387 1024.53,-380.029"/>
</g>
<!-- 39 -->
<g id="node40" class="node"><title>39</title>
<path fill="none" stroke="#56d8d8" stroke-width="2" d="M534,-468C534,-468 478,-468 478,-468 472,-468 466,-462 466,-456 466,-456 466,-444 466,-444 466,-438 472,-432 478,-432 478,-432 534,-432 534,-432 540,-432 546,-438 546,-444 546,-444 546,-456 546,-456 546,-462 540,-468 534,-468"/>
<text text-anchor="middle" x="506" y="-453" font-family="sans" font-size="10.00">bcffilter</text>
<text text-anchor="middle" x="506" y="-442" font-family="sans" font-size="10.00">filter: default</text>
</g>
<!-- 39&#45;&gt;15 -->
<g id="edge53" class="edge"><title>39&#45;&gt;15</title>
<path fill="none" stroke="grey" stroke-width="2" d="M536.773,-431.948C574.404,-411.813 640.565,-378.702 701,-360 792.541,-331.672 904.516,-317.094 964.059,-310.855"/>
<polygon fill="grey" stroke="grey" stroke-width="2" points="964.608,-314.317 974.201,-309.82 963.898,-307.353 964.608,-314.317"/>
</g>
<!-- 39&#45;&gt;41 -->
<g id="edge99" class="edge"><title>39&#45;&gt;41</title>
<path fill="none" stroke="grey" stroke-width="2" d="M546.182,-434.32C549.146,-433.465 552.107,-432.679 555,-432 682.228,-402.145 835.611,-388.076 915.539,-382.35"/>
<polygon fill="grey" stroke="grey" stroke-width="2" points="916.121,-385.818 925.852,-381.629 915.632,-378.835 916.121,-385.818"/>
</g>
<!-- 40 -->
<g id="node41" class="node"><title>40</title>
<path fill="none" stroke="#56d8d8" stroke-width="2" d="M1024,-468C1024,-468 968,-468 968,-468 962,-468 956,-462 956,-456 956,-456 956,-444 956,-444 956,-438 962,-432 968,-432 968,-432 1024,-432 1024,-432 1030,-432 1036,-438 1036,-444 1036,-444 1036,-456 1036,-456 1036,-462 1030,-468 1024,-468"/>
<text text-anchor="middle" x="996" y="-453" font-family="sans" font-size="10.00">bcffilter</text>
<text text-anchor="middle" x="996" y="-442" font-family="sans" font-size="10.00">filter: default</text>
</g>
<!-- 40&#45;&gt;15 -->
<g id="edge54" class="edge"><title>40&#45;&gt;15</title>
<path fill="none" stroke="grey" stroke-width="2" d="M1007.47,-431.667C1013.37,-421.689 1019.96,-408.652 1023,-396 1027.97,-375.286 1022.93,-351.582 1017.07,-333.848"/>
<polygon fill="grey" stroke="grey" stroke-width="2" points="1020.27,-332.396 1013.6,-324.164 1013.68,-334.758 1020.27,-332.396"/>
</g>
<!-- 40&#45;&gt;41 -->
<g id="edge100" class="edge"><title>40&#45;&gt;41</title>
<path fill="none" stroke="grey" stroke-width="2" d="M989.573,-431.697C986.645,-423.813 983.113,-414.304 979.86,-405.546"/>
<polygon fill="grey" stroke="grey" stroke-width="2" points="983.116,-404.26 976.353,-396.104 976.554,-406.697 983.116,-404.26"/>
</g>
<!-- 41&#45;&gt;15 -->
<g id="edge55" class="edge"><title>41&#45;&gt;15</title>
<path fill="none" stroke="grey" stroke-width="2" d="M978.899,-359.697C982.997,-351.728 987.949,-342.1 992.493,-333.264"/>
<polygon fill="grey" stroke="grey" stroke-width="2" points="995.742,-334.598 997.203,-324.104 989.517,-331.396 995.742,-334.598"/>
</g>
<!-- 42 -->
<g id="node43" class="node"><title>42</title>
<path fill="none" stroke="#56d8d8" stroke-width="2" d="M1680,-468C1680,-468 1634,-468 1634,-468 1628,-468 1622,-462 1622,-456 1622,-456 1622,-444 1622,-444 1622,-438 1628,-432 1634,-432 1634,-432 1680,-432 1680,-432 1686,-432 1692,-438 1692,-444 1692,-444 1692,-456 1692,-456 1692,-462 1686,-468 1680,-468"/>
<text text-anchor="middle" x="1657" y="-453" font-family="sans" font-size="10.00">bcffilter</text>
<text text-anchor="middle" x="1657" y="-442" font-family="sans" font-size="10.00">filter: strict</text>
</g>
<!-- 42&#45;&gt;16 -->
<g id="edge56" class="edge"><title>42&#45;&gt;16</title>
<path fill="none" stroke="grey" stroke-width="2" d="M1678.27,-431.712C1702.98,-412.263 1745.55,-380.693 1786,-360 1820.81,-342.194 1863,-327.798 1893.58,-318.528"/>
<polygon fill="grey" stroke="grey" stroke-width="2" points="1894.9,-321.789 1903.48,-315.583 1892.9,-315.08 1894.9,-321.789"/>
</g>
<!-- 52 -->
<g id="node53" class="node"><title>52</title>
<path fill="none" stroke="#568ad8" stroke-width="2" d="M1931,-396C1931,-396 1867,-396 1867,-396 1861,-396 1855,-390 1855,-384 1855,-384 1855,-372 1855,-372 1855,-366 1861,-360 1867,-360 1867,-360 1931,-360 1931,-360 1937,-360 1943,-366 1943,-372 1943,-372 1943,-384 1943,-384 1943,-390 1937,-396 1931,-396"/>
<text text-anchor="middle" x="1899" y="-375.5" font-family="sans" font-size="10.00">bcfmerge_fofn</text>
</g>
<!-- 42&#45;&gt;52 -->
<g id="edge111" class="edge"><title>42&#45;&gt;52</title>
<path fill="none" stroke="grey" stroke-width="2" d="M1692.42,-434.938C1695.31,-433.907 1698.2,-432.914 1701,-432 1749.19,-416.291 1805.05,-401.657 1845.12,-391.763"/>
<polygon fill="grey" stroke="grey" stroke-width="2" points="1846.08,-395.133 1854.96,-389.352 1844.41,-388.334 1846.08,-395.133"/>
</g>
<!-- 43 -->
<g id="node44" class="node"><title>43</title>
<path fill="none" stroke="#56d8d8" stroke-width="2" d="M1856,-468C1856,-468 1810,-468 1810,-468 1804,-468 1798,-462 1798,-456 1798,-456 1798,-444 1798,-444 1798,-438 1804,-432 1810,-432 1810,-432 1856,-432 1856,-432 1862,-432 1868,-438 1868,-444 1868,-444 1868,-456 1868,-456 1868,-462 1862,-468 1856,-468"/>
<text text-anchor="middle" x="1833" y="-453" font-family="sans" font-size="10.00">bcffilter</text>
<text text-anchor="middle" x="1833" y="-442" font-family="sans" font-size="10.00">filter: strict</text>
</g>
<!-- 43&#45;&gt;16 -->
<g id="edge57" class="edge"><title>43&#45;&gt;16</title>
<path fill="none" stroke="grey" stroke-width="2" d="M1831.35,-431.724C1830.4,-412.573 1831.59,-381.548 1846,-360 1857.39,-342.971 1876.26,-330.604 1893.7,-322.12"/>
<polygon fill="grey" stroke="grey" stroke-width="2" points="1895.54,-325.13 1903.19,-317.802 1892.64,-318.759 1895.54,-325.13"/>
</g>
<!-- 43&#45;&gt;52 -->
<g id="edge112" class="edge"><title>43&#45;&gt;52</title>
<path fill="none" stroke="grey" stroke-width="2" d="M1849.31,-431.697C1857.31,-423.22 1867.07,-412.864 1875.82,-403.583"/>
<polygon fill="grey" stroke="grey" stroke-width="2" points="1878.56,-405.781 1882.87,-396.104 1873.47,-400.979 1878.56,-405.781"/>
</g>
<!-- 44 -->
<g id="node45" class="node"><title>44</title>
<path fill="none" stroke="#56d8d8" stroke-width="2" d="M2032,-468C2032,-468 1986,-468 1986,-468 1980,-468 1974,-462 1974,-456 1974,-456 1974,-444 1974,-444 1974,-438 1980,-432 1986,-432 1986,-432 2032,-432 2032,-432 2038,-432 2044,-438 2044,-444 2044,-444 2044,-456 2044,-456 2044,-462 2038,-468 2032,-468"/>
<text text-anchor="middle" x="2009" y="-453" font-family="sans" font-size="10.00">bcffilter</text>
<text text-anchor="middle" x="2009" y="-442" font-family="sans" font-size="10.00">filter: strict</text>
</g>
<!-- 44&#45;&gt;16 -->
<g id="edge58" class="edge"><title>44&#45;&gt;16</title>
<path fill="none" stroke="grey" stroke-width="2" d="M2001.91,-431.962C1994.18,-413.817 1981.16,-384.411 1968,-360 1963.17,-351.031 1957.43,-341.502 1952.11,-333.035"/>
<polygon fill="grey" stroke="grey" stroke-width="2" points="1954.89,-330.887 1946.56,-324.34 1948.99,-334.652 1954.89,-330.887"/>
</g>
<!-- 44&#45;&gt;52 -->
<g id="edge113" class="edge"><title>44&#45;&gt;52</title>
<path fill="none" stroke="grey" stroke-width="2" d="M1982.09,-431.876C1967.84,-422.808 1950.15,-411.552 1934.76,-401.759"/>
<polygon fill="grey" stroke="grey" stroke-width="2" points="1936.33,-398.606 1926.01,-396.19 1932.57,-404.511 1936.33,-398.606"/>
</g>
<!-- 45 -->
<g id="node46" class="node"><title>45</title>
<path fill="none" stroke="#56d8d8" stroke-width="2" d="M1768,-468C1768,-468 1722,-468 1722,-468 1716,-468 1710,-462 1710,-456 1710,-456 1710,-444 1710,-444 1710,-438 1716,-432 1722,-432 1722,-432 1768,-432 1768,-432 1774,-432 1780,-438 1780,-444 1780,-444 1780,-456 1780,-456 1780,-462 1774,-468 1768,-468"/>
<text text-anchor="middle" x="1745" y="-453" font-family="sans" font-size="10.00">bcffilter</text>
<text text-anchor="middle" x="1745" y="-442" font-family="sans" font-size="10.00">filter: strict</text>
</g>
<!-- 45&#45;&gt;16 -->
<g id="edge59" class="edge"><title>45&#45;&gt;16</title>
<path fill="none" stroke="grey" stroke-width="2" d="M1758.28,-431.913C1773.9,-412.649 1801.34,-381.249 1830,-360 1849.54,-345.513 1873.64,-333.032 1893.81,-323.826"/>
<polygon fill="grey" stroke="grey" stroke-width="2" points="1895.36,-326.97 1903.07,-319.705 1892.51,-320.575 1895.36,-326.97"/>
</g>
<!-- 45&#45;&gt;52 -->
<g id="edge114" class="edge"><title>45&#45;&gt;52</title>
<path fill="none" stroke="grey" stroke-width="2" d="M1780.33,-432.941C1801.64,-423.256 1829.04,-410.802 1852.14,-400.301"/>
<polygon fill="grey" stroke="grey" stroke-width="2" points="1853.76,-403.409 1861.41,-396.084 1850.86,-397.036 1853.76,-403.409"/>
</g>
<!-- 46 -->
<g id="node47" class="node"><title>46</title>
<path fill="none" stroke="#56d8d8" stroke-width="2" d="M2208,-468C2208,-468 2162,-468 2162,-468 2156,-468 2150,-462 2150,-456 2150,-456 2150,-444 2150,-444 2150,-438 2156,-432 2162,-432 2162,-432 2208,-432 2208,-432 2214,-432 2220,-438 2220,-444 2220,-444 2220,-456 2220,-456 2220,-462 2214,-468 2208,-468"/>
<text text-anchor="middle" x="2185" y="-453" font-family="sans" font-size="10.00">bcffilter</text>
<text text-anchor="middle" x="2185" y="-442" font-family="sans" font-size="10.00">filter: strict</text>
</g>
<!-- 46&#45;&gt;16 -->
<g id="edge60" class="edge"><title>46&#45;&gt;16</title>
<path fill="none" stroke="grey" stroke-width="2" d="M2155.64,-431.995C2124.51,-414.004 2073.88,-384.838 2030,-360 2011.97,-349.796 1991.95,-338.606 1974.96,-329.148"/>
<polygon fill="grey" stroke="grey" stroke-width="2" points="1976.3,-325.89 1965.86,-324.09 1972.9,-332.008 1976.3,-325.89"/>
</g>
<!-- 46&#45;&gt;52 -->
<g id="edge115" class="edge"><title>46&#45;&gt;52</title>
<path fill="none" stroke="grey" stroke-width="2" d="M2149.62,-434.795C2146.72,-433.796 2143.82,-432.849 2141,-432 2077.42,-412.878 2002.53,-397.546 1953.08,-388.386"/>
<polygon fill="grey" stroke="grey" stroke-width="2" points="1953.7,-384.942 1943.23,-386.582 1952.44,-391.827 1953.7,-384.942"/>
</g>
<!-- 47 -->
<g id="node48" class="node"><title>47</title>
<path fill="none" stroke="#56d8d8" stroke-width="2" d="M2120,-468C2120,-468 2074,-468 2074,-468 2068,-468 2062,-462 2062,-456 2062,-456 2062,-444 2062,-444 2062,-438 2068,-432 2074,-432 2074,-432 2120,-432 2120,-432 2126,-432 2132,-438 2132,-444 2132,-444 2132,-456 2132,-456 2132,-462 2126,-468 2120,-468"/>
<text text-anchor="middle" x="2097" y="-453" font-family="sans" font-size="10.00">bcffilter</text>
<text text-anchor="middle" x="2097" y="-442" font-family="sans" font-size="10.00">filter: strict</text>
</g>
<!-- 47&#45;&gt;16 -->
<g id="edge61" class="edge"><title>47&#45;&gt;16</title>
<path fill="none" stroke="grey" stroke-width="2" d="M2077.46,-431.871C2048.75,-406.711 1995.07,-359.654 1962.43,-331.042"/>
<polygon fill="grey" stroke="grey" stroke-width="2" points="1964.44,-328.149 1954.61,-324.189 1959.82,-333.413 1964.44,-328.149"/>
</g>
<!-- 47&#45;&gt;52 -->
<g id="edge116" class="edge"><title>47&#45;&gt;52</title>
<path fill="none" stroke="grey" stroke-width="2" d="M2061.98,-435.334C2058.95,-434.192 2055.92,-433.067 2053,-432 2019.95,-419.933 1982.64,-407.075 1953.03,-397.046"/>
<polygon fill="grey" stroke="grey" stroke-width="2" points="1953.89,-393.643 1943.3,-393.758 1951.65,-400.275 1953.89,-393.643"/>
</g>
<!-- 48 -->
<g id="node49" class="node"><title>48</title>
<path fill="none" stroke="#56d8d8" stroke-width="2" d="M1592,-468C1592,-468 1546,-468 1546,-468 1540,-468 1534,-462 1534,-456 1534,-456 1534,-444 1534,-444 1534,-438 1540,-432 1546,-432 1546,-432 1592,-432 1592,-432 1598,-432 1604,-438 1604,-444 1604,-444 1604,-456 1604,-456 1604,-462 1598,-468 1592,-468"/>
<text text-anchor="middle" x="1569" y="-453" font-family="sans" font-size="10.00">bcffilter</text>
<text text-anchor="middle" x="1569" y="-442" font-family="sans" font-size="10.00">filter: strict</text>
</g>
<!-- 48&#45;&gt;16 -->
<g id="edge62" class="edge"><title>48&#45;&gt;16</title>
<path fill="none" stroke="grey" stroke-width="2" d="M1593.69,-431.951C1623.4,-412.129 1675.37,-379.63 1724,-360 1780.74,-337.095 1850.17,-321.954 1893.51,-313.924"/>
<polygon fill="grey" stroke="grey" stroke-width="2" points="1894.19,-317.357 1903.4,-312.129 1892.94,-310.47 1894.19,-317.357"/>
</g>
<!-- 48&#45;&gt;52 -->
<g id="edge117" class="edge"><title>48&#45;&gt;52</title>
<path fill="none" stroke="grey" stroke-width="2" d="M1604.35,-434.694C1607.25,-433.717 1610.16,-432.803 1613,-432 1692.3,-409.544 1786.72,-394.18 1844.76,-385.992"/>
<polygon fill="grey" stroke="grey" stroke-width="2" points="1845.39,-389.438 1854.81,-384.594 1844.42,-382.505 1845.39,-389.438"/>
</g>
<!-- 49 -->
<g id="node50" class="node"><title>49</title>
<path fill="none" stroke="#56d8d8" stroke-width="2" d="M2296,-468C2296,-468 2250,-468 2250,-468 2244,-468 2238,-462 2238,-456 2238,-456 2238,-444 2238,-444 2238,-438 2244,-432 2250,-432 2250,-432 2296,-432 2296,-432 2302,-432 2308,-438 2308,-444 2308,-444 2308,-456 2308,-456 2308,-462 2302,-468 2296,-468"/>
<text text-anchor="middle" x="2273" y="-453" font-family="sans" font-size="10.00">bcffilter</text>
<text text-anchor="middle" x="2273" y="-442" font-family="sans" font-size="10.00">filter: strict</text>
</g>
<!-- 49&#45;&gt;16 -->
<g id="edge63" class="edge"><title>49&#45;&gt;16</title>
<path fill="none" stroke="grey" stroke-width="2" d="M2237.67,-432.477C2198.09,-414.133 2131.87,-383.953 2074,-360 2041.34,-346.482 2003.87,-332.27 1976.07,-321.969"/>
<polygon fill="grey" stroke="grey" stroke-width="2" points="1977.26,-318.677 1966.67,-318.496 1974.84,-325.243 1977.26,-318.677"/>
</g>
<!-- 49&#45;&gt;52 -->
<g id="edge118" class="edge"><title>49&#45;&gt;52</title>
<path fill="none" stroke="grey" stroke-width="2" d="M2237.67,-434.618C2234.76,-433.658 2231.85,-432.769 2229,-432 2133.69,-406.24 2019.3,-391.31 1953.29,-384.193"/>
<polygon fill="grey" stroke="grey" stroke-width="2" points="1953.44,-380.689 1943.12,-383.117 1952.7,-387.65 1953.44,-380.689"/>
</g>
<!-- 50 -->
<g id="node51" class="node"><title>50</title>
<path fill="none" stroke="#56d8d8" stroke-width="2" d="M1504,-468C1504,-468 1458,-468 1458,-468 1452,-468 1446,-462 1446,-456 1446,-456 1446,-444 1446,-444 1446,-438 1452,-432 1458,-432 1458,-432 1504,-432 1504,-432 1510,-432 1516,-438 1516,-444 1516,-444 1516,-456 1516,-456 1516,-462 1510,-468 1504,-468"/>
<text text-anchor="middle" x="1481" y="-453" font-family="sans" font-size="10.00">bcffilter</text>
<text text-anchor="middle" x="1481" y="-442" font-family="sans" font-size="10.00">filter: strict</text>
</g>
<!-- 50&#45;&gt;16 -->
<g id="edge64" class="edge"><title>50&#45;&gt;16</title>
<path fill="none" stroke="grey" stroke-width="2" d="M1507.37,-431.878C1539.7,-411.674 1596.75,-378.496 1650,-360 1733.69,-330.931 1837.05,-316.779 1893.45,-310.774"/>
<polygon fill="grey" stroke="grey" stroke-width="2" points="1893.84,-314.253 1903.42,-309.746 1893.12,-307.29 1893.84,-314.253"/>
</g>
<!-- 50&#45;&gt;52 -->
<g id="edge119" class="edge"><title>50&#45;&gt;52</title>
<path fill="none" stroke="grey" stroke-width="2" d="M1516.31,-434.56C1519.23,-433.613 1522.15,-432.743 1525,-432 1636.45,-402.979 1770.99,-388.834 1844.5,-382.811"/>
<polygon fill="grey" stroke="grey" stroke-width="2" points="1845.2,-386.266 1854.89,-381.981 1844.64,-379.289 1845.2,-386.266"/>
</g>
<!-- 51 -->
<g id="node52" class="node"><title>51</title>
<path fill="none" stroke="#56d8d8" stroke-width="2" d="M1944,-468C1944,-468 1898,-468 1898,-468 1892,-468 1886,-462 1886,-456 1886,-456 1886,-444 1886,-444 1886,-438 1892,-432 1898,-432 1898,-432 1944,-432 1944,-432 1950,-432 1956,-438 1956,-444 1956,-444 1956,-456 1956,-456 1956,-462 1950,-468 1944,-468"/>
<text text-anchor="middle" x="1921" y="-453" font-family="sans" font-size="10.00">bcffilter</text>
<text text-anchor="middle" x="1921" y="-442" font-family="sans" font-size="10.00">filter: strict</text>
</g>
<!-- 51&#45;&gt;16 -->
<g id="edge65" class="edge"><title>51&#45;&gt;16</title>
<path fill="none" stroke="grey" stroke-width="2" d="M1934.15,-431.908C1940.92,-422.006 1948.49,-408.964 1952,-396 1957.57,-375.439 1952.49,-351.726 1946.47,-333.949"/>
<polygon fill="grey" stroke="grey" stroke-width="2" points="1949.63,-332.409 1942.89,-324.238 1943.06,-334.831 1949.63,-332.409"/>
</g>
<!-- 51&#45;&gt;52 -->
<g id="edge120" class="edge"><title>51&#45;&gt;52</title>
<path fill="none" stroke="grey" stroke-width="2" d="M1915.56,-431.697C1913.11,-423.898 1910.16,-414.509 1907.43,-405.829"/>
<polygon fill="grey" stroke="grey" stroke-width="2" points="1910.71,-404.595 1904.38,-396.104 1904.04,-406.694 1910.71,-404.595"/>
</g>
<!-- 52&#45;&gt;16 -->
<g id="edge66" class="edge"><title>52&#45;&gt;16</title>
<path fill="none" stroke="grey" stroke-width="2" d="M1907.9,-359.697C1912,-351.728 1916.95,-342.1 1921.49,-333.264"/>
<polygon fill="grey" stroke="grey" stroke-width="2" points="1924.74,-334.598 1926.2,-324.104 1918.52,-331.396 1924.74,-334.598"/>
</g>
<!-- 53&#45;&gt;26 -->
<g id="edge76" class="edge"><title>53&#45;&gt;26</title>
<path fill="none" stroke="grey" stroke-width="2" d="M86,-863.697C86,-855.983 86,-846.712 86,-838.112"/>
<polygon fill="grey" stroke="grey" stroke-width="2" points="89.5001,-838.104 86,-828.104 82.5001,-838.104 89.5001,-838.104"/>
</g>
<!-- 54&#45;&gt;27 -->
<g id="edge77" class="edge"><title>54&#45;&gt;27</title>
<path fill="none" stroke="grey" stroke-width="2" d="M2274,-863.697C2274,-855.983 2274,-846.712 2274,-838.112"/>
<polygon fill="grey" stroke="grey" stroke-width="2" points="2277.5,-838.104 2274,-828.104 2270.5,-838.104 2277.5,-838.104"/>
</g>
<!-- 55&#45;&gt;28 -->
<g id="edge78" class="edge"><title>55&#45;&gt;28</title>
<path fill="none" stroke="grey" stroke-width="2" d="M2414.02,-863.697C2413.14,-855.983 2412.08,-846.712 2411.1,-838.112"/>
<polygon fill="grey" stroke="grey" stroke-width="2" points="2414.57,-837.642 2409.95,-828.104 2407.61,-838.437 2414.57,-837.642"/>
</g>
<!-- 56&#45;&gt;29 -->
<g id="edge79" class="edge"><title>56&#45;&gt;29</title>
<path fill="none" stroke="grey" stroke-width="2" d="M2660.16,-863.697C2653.51,-855.389 2645.42,-845.277 2638.11,-836.141"/>
<polygon fill="grey" stroke="grey" stroke-width="2" points="2640.66,-833.727 2631.68,-828.104 2635.2,-838.099 2640.66,-833.727"/>
</g>
<!-- 57&#45;&gt;30 -->
<g id="edge80" class="edge"><title>57&#45;&gt;30</title>
<path fill="none" stroke="grey" stroke-width="2" d="M2764.04,-863.697C2762.28,-855.983 2760.16,-846.712 2758.2,-838.112"/>
<polygon fill="grey" stroke="grey" stroke-width="2" points="2761.55,-837.073 2755.91,-828.104 2754.73,-838.633 2761.55,-837.073"/>
</g>
<!-- 58 -->
<g id="node59" class="node"><title>58</title>
<path fill="none" stroke="#5673d8" stroke-width="2" d="M785,-540C785,-540 711,-540 711,-540 705,-540 699,-534 699,-528 699,-528 699,-516 699,-516 699,-510 705,-504 711,-504 711,-504 785,-504 785,-504 791,-504 797,-510 797,-516 797,-516 797,-528 797,-528 797,-534 791,-540 785,-540"/>
<text text-anchor="middle" x="748" y="-525" font-family="sans" font-size="10.00">bcfnorm</text>
<text text-anchor="middle" x="748" y="-514" font-family="sans" font-size="10.00">caller: freebayes</text>
</g>
<!-- 58&#45;&gt;31 -->
<g id="edge81" class="edge"><title>58&#45;&gt;31</title>
<path fill="none" stroke="grey" stroke-width="2" d="M736.629,-503.697C731.282,-495.559 724.796,-485.689 718.889,-476.701"/>
<polygon fill="grey" stroke="grey" stroke-width="2" points="721.657,-474.539 713.24,-468.104 715.807,-478.384 721.657,-474.539"/>
</g>
<!-- 58&#45;&gt;42 -->
<g id="edge101" class="edge"><title>58&#45;&gt;42</title>
<path fill="none" stroke="grey" stroke-width="2" d="M797.079,-514.958C828.003,-511.332 868.788,-506.879 905,-504 1215.71,-479.299 1302.96,-532.44 1611.62,-467.871"/>
<polygon fill="grey" stroke="grey" stroke-width="2" points="1612.7,-471.221 1621.75,-465.726 1611.25,-464.373 1612.7,-471.221"/>
</g>
<!-- 59 -->
<g id="node60" class="node"><title>59</title>
<path fill="none" stroke="#5673d8" stroke-width="2" d="M1215,-540C1215,-540 1141,-540 1141,-540 1135,-540 1129,-534 1129,-528 1129,-528 1129,-516 1129,-516 1129,-510 1135,-504 1141,-504 1141,-504 1215,-504 1215,-504 1221,-504 1227,-510 1227,-516 1227,-516 1227,-528 1227,-528 1227,-534 1221,-540 1215,-540"/>
<text text-anchor="middle" x="1178" y="-525" font-family="sans" font-size="10.00">bcfnorm</text>
<text text-anchor="middle" x="1178" y="-514" font-family="sans" font-size="10.00">caller: freebayes</text>
</g>
<!-- 59&#45;&gt;32 -->
<g id="edge82" class="edge"><title>59&#45;&gt;32</title>
<path fill="none" stroke="grey" stroke-width="2" d="M1128.94,-511.354C1084.11,-502.18 1015.86,-487.312 948.236,-468.207"/>
<polygon fill="grey" stroke="grey" stroke-width="2" points="948.843,-464.741 938.266,-465.358 946.919,-471.471 948.843,-464.741"/>
</g>
<!-- 59&#45;&gt;43 -->
<g id="edge102" class="edge"><title>59&#45;&gt;43</title>
<path fill="none" stroke="grey" stroke-width="2" d="M1227.11,-515.316C1258.05,-511.826 1298.83,-507.391 1335,-504 1533.28,-485.408 1589.83,-512.06 1787.89,-467.865"/>
<polygon fill="grey" stroke="grey" stroke-width="2" points="1788.75,-471.257 1797.73,-465.636 1787.21,-464.43 1788.75,-471.257"/>
</g>
<!-- 60 -->
<g id="node61" class="node"><title>60</title>
<path fill="none" stroke="#5673d8" stroke-width="2" d="M1645,-540C1645,-540 1571,-540 1571,-540 1565,-540 1559,-534 1559,-528 1559,-528 1559,-516 1559,-516 1559,-510 1565,-504 1571,-504 1571,-504 1645,-504 1645,-504 1651,-504 1657,-510 1657,-516 1657,-516 1657,-528 1657,-528 1657,-534 1651,-540 1645,-540"/>
<text text-anchor="middle" x="1608" y="-525" font-family="sans" font-size="10.00">bcfnorm</text>
<text text-anchor="middle" x="1608" y="-514" font-family="sans" font-size="10.00">caller: freebayes</text>
</g>
<!-- 60&#45;&gt;33 -->
<g id="edge83" class="edge"><title>60&#45;&gt;33</title>
<path fill="none" stroke="grey" stroke-width="2" d="M1558.62,-515.667C1451.38,-504.05 1202.68,-476.893 1144.21,-467.564"/>
<polygon fill="grey" stroke="grey" stroke-width="2" points="1144.64,-464.084 1134.17,-465.725 1143.38,-470.969 1144.64,-464.084"/>
</g>
<!-- 60&#45;&gt;44 -->
<g id="edge103" class="edge"><title>60&#45;&gt;44</title>
<path fill="none" stroke="grey" stroke-width="2" d="M1657.13,-515.073C1736.96,-505.224 1892.36,-485.095 1963.77,-467.929"/>
<polygon fill="grey" stroke="grey" stroke-width="2" points="1964.85,-471.267 1973.68,-465.419 1963.13,-464.482 1964.85,-471.267"/>
</g>
<!-- 61 -->
<g id="node62" class="node"><title>61</title>
<path fill="none" stroke="#5673d8" stroke-width="2" d="M1000,-540C1000,-540 926,-540 926,-540 920,-540 914,-534 914,-528 914,-528 914,-516 914,-516 914,-510 920,-504 926,-504 926,-504 1000,-504 1000,-504 1006,-504 1012,-510 1012,-516 1012,-516 1012,-528 1012,-528 1012,-534 1006,-540 1000,-540"/>
<text text-anchor="middle" x="963" y="-525" font-family="sans" font-size="10.00">bcfnorm</text>
<text text-anchor="middle" x="963" y="-514" font-family="sans" font-size="10.00">caller: freebayes</text>
</g>
<!-- 61&#45;&gt;34 -->
<g id="edge84" class="edge"><title>61&#45;&gt;34</title>
<path fill="none" stroke="grey" stroke-width="2" d="M923.126,-503.876C900.843,-494.307 872.885,-482.3 849.244,-472.148"/>
<polygon fill="grey" stroke="grey" stroke-width="2" points="850.314,-468.798 839.745,-468.068 847.552,-475.23 850.314,-468.798"/>
</g>
<!-- 61&#45;&gt;45 -->
<g id="edge104" class="edge"><title>61&#45;&gt;45</title>
<path fill="none" stroke="grey" stroke-width="2" d="M1012.09,-515.098C1043.02,-511.525 1083.8,-507.079 1120,-504 1374.51,-482.347 1446.44,-522.234 1699.88,-467.836"/>
<polygon fill="grey" stroke="grey" stroke-width="2" points="1700.72,-471.235 1709.75,-465.691 1699.23,-464.395 1700.72,-471.235"/>
</g>
<!-- 62 -->
<g id="node63" class="node"><title>62</title>
<path fill="none" stroke="#5673d8" stroke-width="2" d="M2075,-540C2075,-540 2001,-540 2001,-540 1995,-540 1989,-534 1989,-528 1989,-528 1989,-516 1989,-516 1989,-510 1995,-504 2001,-504 2001,-504 2075,-504 2075,-504 2081,-504 2087,-510 2087,-516 2087,-516 2087,-528 2087,-528 2087,-534 2081,-540 2075,-540"/>
<text text-anchor="middle" x="2038" y="-525" font-family="sans" font-size="10.00">bcfnorm</text>
<text text-anchor="middle" x="2038" y="-514" font-family="sans" font-size="10.00">caller: freebayes</text>
</g>
<!-- 62&#45;&gt;35 -->
<g id="edge85" class="edge"><title>62&#45;&gt;35</title>
<path fill="none" stroke="grey" stroke-width="2" d="M1988.9,-515.154C1957.97,-511.603 1917.19,-507.16 1881,-504 1643.78,-483.288 1577.41,-515.102 1340.11,-467.89"/>
<polygon fill="grey" stroke="grey" stroke-width="2" points="1340.63,-464.426 1330.14,-465.881 1339.25,-471.288 1340.63,-464.426"/>
</g>
<!-- 62&#45;&gt;46 -->
<g id="edge105" class="edge"><title>62&#45;&gt;46</title>
<path fill="none" stroke="grey" stroke-width="2" d="M2073.96,-503.876C2094.1,-494.286 2119.38,-482.248 2140.73,-472.082"/>
<polygon fill="grey" stroke="grey" stroke-width="2" points="2142.39,-475.165 2149.92,-467.706 2139.38,-468.845 2142.39,-475.165"/>
</g>
<!-- 63 -->
<g id="node64" class="node"><title>63</title>
<path fill="none" stroke="#5673d8" stroke-width="2" d="M1860,-540C1860,-540 1786,-540 1786,-540 1780,-540 1774,-534 1774,-528 1774,-528 1774,-516 1774,-516 1774,-510 1780,-504 1786,-504 1786,-504 1860,-504 1860,-504 1866,-504 1872,-510 1872,-516 1872,-516 1872,-528 1872,-528 1872,-534 1866,-540 1860,-540"/>
<text text-anchor="middle" x="1823" y="-525" font-family="sans" font-size="10.00">bcfnorm</text>
<text text-anchor="middle" x="1823" y="-514" font-family="sans" font-size="10.00">caller: freebayes</text>
</g>
<!-- 63&#45;&gt;36 -->
<g id="edge86" class="edge"><title>63&#45;&gt;36</title>
<path fill="none" stroke="grey" stroke-width="2" d="M1773.88,-515.384C1742.95,-511.92 1702.16,-507.489 1666,-504 1480.54,-486.106 1428.21,-506.647 1241.99,-467.896"/>
<polygon fill="grey" stroke="grey" stroke-width="2" points="1242.66,-464.461 1232.15,-465.82 1241.21,-471.31 1242.66,-464.461"/>
</g>
<!-- 63&#45;&gt;47 -->
<g id="edge106" class="edge"><title>63&#45;&gt;47</title>
<path fill="none" stroke="grey" stroke-width="2" d="M1872.44,-511.726C1917.18,-502.86 1984.97,-488.254 2051.76,-468.173"/>
<polygon fill="grey" stroke="grey" stroke-width="2" points="2053.07,-471.436 2061.61,-465.171 2051.02,-464.74 2053.07,-471.436"/>
</g>
<!-- 64 -->
<g id="node65" class="node"><title>64</title>
<path fill="none" stroke="#5673d8" stroke-width="2" d="M650,-540C650,-540 576,-540 576,-540 570,-540 564,-534 564,-528 564,-528 564,-516 564,-516 564,-510 570,-504 576,-504 576,-504 650,-504 650,-504 656,-504 662,-510 662,-516 662,-516 662,-528 662,-528 662,-534 656,-540 650,-540"/>
<text text-anchor="middle" x="613" y="-525" font-family="sans" font-size="10.00">bcfnorm</text>
<text text-anchor="middle" x="613" y="-514" font-family="sans" font-size="10.00">caller: freebayes</text>
</g>
<!-- 64&#45;&gt;37 -->
<g id="edge87" class="edge"><title>64&#45;&gt;37</title>
<path fill="none" stroke="grey" stroke-width="2" d="M610.775,-503.697C609.783,-495.983 608.592,-486.712 607.486,-478.112"/>
<polygon fill="grey" stroke="grey" stroke-width="2" points="610.946,-477.576 606.199,-468.104 604.003,-478.469 610.946,-477.576"/>
</g>
<!-- 64&#45;&gt;48 -->
<g id="edge107" class="edge"><title>64&#45;&gt;48</title>
<path fill="none" stroke="grey" stroke-width="2" d="M662.067,-508.831C671.297,-506.923 680.905,-505.191 690,-504 1054.99,-456.212 1159.51,-542.359 1523.73,-467.829"/>
<polygon fill="grey" stroke="grey" stroke-width="2" points="1524.68,-471.208 1533.76,-465.751 1523.26,-464.354 1524.68,-471.208"/>
</g>
<!-- 65 -->
<g id="node66" class="node"><title>65</title>
<path fill="none" stroke="#5673d8" stroke-width="2" d="M2290,-540C2290,-540 2216,-540 2216,-540 2210,-540 2204,-534 2204,-528 2204,-528 2204,-516 2204,-516 2204,-510 2210,-504 2216,-504 2216,-504 2290,-504 2290,-504 2296,-504 2302,-510 2302,-516 2302,-516 2302,-528 2302,-528 2302,-534 2296,-540 2290,-540"/>
<text text-anchor="middle" x="2253" y="-525" font-family="sans" font-size="10.00">bcfnorm</text>
<text text-anchor="middle" x="2253" y="-514" font-family="sans" font-size="10.00">caller: freebayes</text>
</g>
<!-- 65&#45;&gt;38 -->
<g id="edge88" class="edge"><title>65&#45;&gt;38</title>
<path fill="none" stroke="grey" stroke-width="2" d="M2203.92,-515.006C2172.99,-511.398 2132.21,-506.947 2096,-504 1806.92,-480.47 1726.61,-523.634 1438.04,-467.859"/>
<polygon fill="grey" stroke="grey" stroke-width="2" points="1438.62,-464.404 1428.13,-465.92 1437.27,-471.274 1438.62,-464.404"/>
</g>
<!-- 65&#45;&gt;49 -->
<g id="edge108" class="edge"><title>65&#45;&gt;49</title>
<path fill="none" stroke="grey" stroke-width="2" d="M2257.94,-503.697C2260.17,-495.898 2262.85,-486.509 2265.33,-477.829"/>
<polygon fill="grey" stroke="grey" stroke-width="2" points="2268.73,-478.681 2268.11,-468.104 2262,-476.758 2268.73,-478.681"/>
</g>
<!-- 66 -->
<g id="node67" class="node"><title>66</title>
<path fill="none" stroke="#5673d8" stroke-width="2" d="M534,-540C534,-540 460,-540 460,-540 454,-540 448,-534 448,-528 448,-528 448,-516 448,-516 448,-510 454,-504 460,-504 460,-504 534,-504 534,-504 540,-504 546,-510 546,-516 546,-516 546,-528 546,-528 546,-534 540,-540 534,-540"/>
<text text-anchor="middle" x="497" y="-525" font-family="sans" font-size="10.00">bcfnorm</text>
<text text-anchor="middle" x="497" y="-514" font-family="sans" font-size="10.00">caller: freebayes</text>
</g>
<!-- 66&#45;&gt;39 -->
<g id="edge89" class="edge"><title>66&#45;&gt;39</title>
<path fill="none" stroke="grey" stroke-width="2" d="M499.225,-503.697C500.217,-495.983 501.408,-486.712 502.514,-478.112"/>
<polygon fill="grey" stroke="grey" stroke-width="2" points="505.997,-478.469 503.801,-468.104 499.054,-477.576 505.997,-478.469"/>
</g>
<!-- 66&#45;&gt;50 -->
<g id="edge109" class="edge"><title>66&#45;&gt;50</title>
<path fill="none" stroke="grey" stroke-width="2" d="M546.171,-505.7C549.142,-505.052 552.101,-504.477 555,-504 938.821,-440.895 1050.96,-545.944 1435.75,-467.819"/>
<polygon fill="grey" stroke="grey" stroke-width="2" points="1436.67,-471.203 1445.76,-465.758 1435.26,-464.347 1436.67,-471.203"/>
</g>
<!-- 67 -->
<g id="node68" class="node"><title>67</title>
<path fill="none" stroke="#5673d8" stroke-width="2" d="M1430,-540C1430,-540 1356,-540 1356,-540 1350,-540 1344,-534 1344,-528 1344,-528 1344,-516 1344,-516 1344,-510 1350,-504 1356,-504 1356,-504 1430,-504 1430,-504 1436,-504 1442,-510 1442,-516 1442,-516 1442,-528 1442,-528 1442,-534 1436,-540 1430,-540"/>
<text text-anchor="middle" x="1393" y="-525" font-family="sans" font-size="10.00">bcfnorm</text>
<text text-anchor="middle" x="1393" y="-514" font-family="sans" font-size="10.00">caller: freebayes</text>
</g>
<!-- 67&#45;&gt;40 -->
<g id="edge90" class="edge"><title>67&#45;&gt;40</title>
<path fill="none" stroke="grey" stroke-width="2" d="M1343.74,-516.366C1277.8,-509.533 1157.19,-494.837 1046.22,-468.059"/>
<polygon fill="grey" stroke="grey" stroke-width="2" points="1046.75,-464.584 1036.2,-465.601 1045.08,-471.383 1046.75,-464.584"/>
</g>
<!-- 67&#45;&gt;51 -->
<g id="edge110" class="edge"><title>67&#45;&gt;51</title>
<path fill="none" stroke="grey" stroke-width="2" d="M1442.21,-515.653C1553.82,-503.521 1820.26,-474.529 1875.78,-467.08"/>
<polygon fill="grey" stroke="grey" stroke-width="2" points="1876.37,-470.532 1885.71,-465.54 1875.29,-463.614 1876.37,-470.532"/>
</g>
<!-- 68&#45;&gt;58 -->
<g id="edge126" class="edge"><title>68&#45;&gt;58</title>
<path fill="none" stroke="grey" stroke-width="2" d="M748,-575.697C748,-567.983 748,-558.712 748,-550.112"/>
<polygon fill="grey" stroke="grey" stroke-width="2" points="751.5,-550.104 748,-540.104 744.5,-550.104 751.5,-550.104"/>
</g>
<!-- 69&#45;&gt;59 -->
<g id="edge127" class="edge"><title>69&#45;&gt;59</title>
<path fill="none" stroke="grey" stroke-width="2" d="M1178,-575.697C1178,-567.983 1178,-558.712 1178,-550.112"/>
<polygon fill="grey" stroke="grey" stroke-width="2" points="1181.5,-550.104 1178,-540.104 1174.5,-550.104 1181.5,-550.104"/>
</g>
<!-- 70&#45;&gt;60 -->
<g id="edge128" class="edge"><title>70&#45;&gt;60</title>
<path fill="none" stroke="grey" stroke-width="2" d="M1608,-575.697C1608,-567.983 1608,-558.712 1608,-550.112"/>
<polygon fill="grey" stroke="grey" stroke-width="2" points="1611.5,-550.104 1608,-540.104 1604.5,-550.104 1611.5,-550.104"/>
</g>
<!-- 71&#45;&gt;61 -->
<g id="edge129" class="edge"><title>71&#45;&gt;61</title>
<path fill="none" stroke="grey" stroke-width="2" d="M963,-575.697C963,-567.983 963,-558.712 963,-550.112"/>
<polygon fill="grey" stroke="grey" stroke-width="2" points="966.5,-550.104 963,-540.104 959.5,-550.104 966.5,-550.104"/>
</g>
<!-- 72&#45;&gt;62 -->
<g id="edge130" class="edge"><title>72&#45;&gt;62</title>
<path fill="none" stroke="grey" stroke-width="2" d="M2038,-575.697C2038,-567.983 2038,-558.712 2038,-550.112"/>
<polygon fill="grey" stroke="grey" stroke-width="2" points="2041.5,-550.104 2038,-540.104 2034.5,-550.104 2041.5,-550.104"/>
</g>
<!-- 73&#45;&gt;63 -->
<g id="edge131" class="edge"><title>73&#45;&gt;63</title>
<path fill="none" stroke="grey" stroke-width="2" d="M1823,-575.697C1823,-567.983 1823,-558.712 1823,-550.112"/>
<polygon fill="grey" stroke="grey" stroke-width="2" points="1826.5,-550.104 1823,-540.104 1819.5,-550.104 1826.5,-550.104"/>
</g>
<!-- 74&#45;&gt;64 -->
<g id="edge132" class="edge"><title>74&#45;&gt;64</title>
<path fill="none" stroke="grey" stroke-width="2" d="M552.775,-575.697C562.754,-566.965 575.011,-556.24 585.857,-546.75"/>
<polygon fill="grey" stroke="grey" stroke-width="2" points="588.231,-549.323 593.452,-540.104 583.622,-544.055 588.231,-549.323"/>
</g>
<!-- 75&#45;&gt;65 -->
<g id="edge133" class="edge"><title>75&#45;&gt;65</title>
<path fill="none" stroke="grey" stroke-width="2" d="M2253,-575.697C2253,-567.983 2253,-558.712 2253,-550.112"/>
<polygon fill="grey" stroke="grey" stroke-width="2" points="2256.5,-550.104 2253,-540.104 2249.5,-550.104 2256.5,-550.104"/>
</g>
<!-- 76&#45;&gt;66 -->
<g id="edge134" class="edge"><title>76&#45;&gt;66</title>
<path fill="none" stroke="grey" stroke-width="2" d="M361.788,-575.876C386.585,-566.179 417.781,-553.98 443.958,-543.743"/>
<polygon fill="grey" stroke="grey" stroke-width="2" points="445.315,-546.97 453.354,-540.068 442.766,-540.451 445.315,-546.97"/>
</g>
<!-- 77&#45;&gt;67 -->
<g id="edge135" class="edge"><title>77&#45;&gt;67</title>
<path fill="none" stroke="grey" stroke-width="2" d="M1393,-575.697C1393,-567.983 1393,-558.712 1393,-550.112"/>
<polygon fill="grey" stroke="grey" stroke-width="2" points="1396.5,-550.104 1393,-540.104 1389.5,-550.104 1396.5,-550.104"/>
</g>
</g>
</svg>
